<?xml version="1.0" encoding="utf-8"?>
<!-- Generator: Adobe Illustrator 25.0.1, SVG Export Plug-In . SVG Version: 6.00 Build 0)  -->
<svg version="1.1" id="Layer_1" xmlns="http://www.w3.org/2000/svg" xmlns:xlink="http://www.w3.org/1999/xlink" x="0px" y="0px"
	 viewBox="0 0 48.3 24.7" style="enable-background:new 0 0 48.3 24.7;" xml:space="preserve">
<style type="text/css">
	.st0{fill:#F36D00;}
</style>
<g id="Menu_1_">
	<path class="st0" d="M1.5,3.5h45.1c0.8,0,1.5-0.7,1.5-1.5s-0.7-1.5-1.5-1.5H1.5C0.7,0.5,0,1.2,0,2S0.7,3.5,1.5,3.5z"/>
	<path class="st0" d="M46.6,11H1.5C0.7,11,0,11.7,0,12.5C0,13.3,0.7,14,1.5,14h45.1c0.8,0,1.5-0.7,1.5-1.5
		C48.1,11.7,47.4,11,46.6,11z"/>
	<path class="st0" d="M46.6,21.5H16.5c-0.8,0-1.5,0.7-1.5,1.5s0.7,1.5,1.5,1.5h30.1c0.8,0,1.5-0.7,1.5-1.5
		C48.1,22.2,47.4,21.5,46.6,21.5z"/>
</g>
</svg>
