<?xml version="1.0" encoding="utf-8"?>
<!-- Generator: Adobe Illustrator 25.1.0, SVG Export Plug-In . SVG Version: 6.00 Build 0)  -->
<svg version="1.1" id="meeting" xmlns="http://www.w3.org/2000/svg" xmlns:xlink="http://www.w3.org/1999/xlink" x="0px" y="0px"
	 viewBox="0 0 264 269" style="enable-background:new 0 0 264 269;" xml:space="preserve">
<style type="text/css">
	.st0{fill:#1574F5;}
	.st1{fill:#D4DBDF;}
	.st2{fill:#EEF5F9;}
	.st3{fill:#0A3847;}
	.st4{fill:#146200;}
	.st5{fill:#2D7B04;}
	.st6{fill:url(#SVGID_1_);}
	.st7{fill:url(#SVGID_2_);}
	.st8{fill:url(#SVGID_3_);}
	.st9{fill:url(#SVGID_4_);}
	.st10{fill:url(#SVGID_5_);}
	.st11{fill:url(#SVGID_6_);}
	.st12{fill:#A2A9AD;}
	.st13{fill:#BBC2C6;}
	.st14{fill:#212B2E;}
	.st15{opacity:0.2;fill:url(#SVGID_7_);enable-background:new    ;}
	.st16{opacity:0.2;fill:url(#SVGID_8_);enable-background:new    ;}
	.st17{fill:#626B6E;}
	.st18{fill:#3B4447;}
	.st19{fill:#151E21;}
	.st20{fill:#B17454;}
	.st21{fill:#1D1D1B;}
	.st22{fill:#2E383B;}
	.st23{fill:#CB8D6E;}
	.st24{fill:#F6F6F6;}
	.st25{fill:#FFFFFF;}
	.st26{fill:#D88F69;}
	.st27{fill:#F2A983;}
	.st28{fill:#994E18;}
	.st29{opacity:0.5;fill:#D88F69;enable-background:new    ;}
	.st30{fill-rule:evenodd;clip-rule:evenodd;fill:#1D1D1B;}
	.st31{fill-rule:evenodd;clip-rule:evenodd;fill:#051F41;}
	.st32{fill-rule:evenodd;clip-rule:evenodd;fill:#122C4E;}
	.st33{fill:#D5DCE0;}
	.st34{fill:#F36D00;}
	.st35{fill:#C95E0D;}
	.st36{fill:#414E52;}
	.st37{fill:#424A96;}
	.st38{fill:#979797;}
	.st39{fill:url(#SVGID_9_);}
	.st40{fill:url(#SVGID_10_);}
	.st41{fill:url(#SVGID_11_);}
	.st42{opacity:0.2;fill:url(#SVGID_12_);enable-background:new    ;}
	.st43{fill:#563317;}
	.st44{opacity:0.3;fill:#563317;enable-background:new    ;}
	.st45{opacity:0.3;enable-background:new    ;}
	.st46{opacity:0.1;enable-background:new    ;}
	.st47{opacity:0.15;fill:url(#SVGID_13_);enable-background:new    ;}
	.st48{opacity:0.2;enable-background:new    ;}
	.st49{fill:#FBFFFF;}
	.st50{opacity:0.15;fill:url(#SVGID_14_);enable-background:new    ;}
	.st51{opacity:0.15;fill:url(#SVGID_15_);enable-background:new    ;}
	.st52{opacity:0.15;enable-background:new    ;}
</style>
<g id="meeting_incon">
	<path class="st0" d="M100.9,8.7c0.1-0.7,1.7-0.9,1.7-0.9C140.4,5,182.3,13,214,31.3c27.3,15.7,41.3,35.9,41.6,55.2l0,0v145.4h-0.1
		c-0.1,2.2-0.4,4.4-0.9,6.6c0,0-0.3,1.1-1.9,1l-4.7-0.4c-1.1-0.1-1.2-0.9-1.2-0.9c0-0.2,0.1-0.3,0.1-0.5l-0.1,0.1v-16.3
		c-3.4-15.6-16.3-31.4-38.3-44.1c-29.9-17.3-69.6-24.8-105.2-22.1c0,0-1.5-0.1-1.6-0.7l-0.7-2.7c0-0.1,0-0.1,0-0.2l0,0L100.9,8.7
		L100.9,8.7z"/>
	<path class="st1" d="M248.1,96.2l4.7,0.4c1.6,0.1,1.9-1,1.9-1c0.7-3,1-6.1,0.9-9.1l0,0l0,0v145.4h-0.1c-0.1,2.2-0.4,4.4-0.9,6.6
		c0,0-0.3,1.1-1.9,1l-4.7-0.4c-1.1-0.1-1.2-0.9-1.2-0.9c0-0.2,0.1-0.3,0.1-0.5l-0.1,0.1v-16.3V95.2C246.9,95.2,247,96.1,248.1,96.2z
		"/>
	<path class="st2" d="M100.9,8.7L100.9,8.7c0,0.1,0,0.1,0,0.2l0.7,2.7c0.2,0.6,1.6,0.7,1.6,0.7c35.6-2.7,75.3,4.9,105.2,22.1
		c29.9,17.3,43,40.2,38.3,60.8v126.1c-3.4-15.6-16.3-31.4-38.3-44.1c-29.9-17.3-69.6-24.8-105.2-22.1c0,0-1.5-0.1-1.6-0.7l-0.7-2.7
		c0-0.1,0-0.1,0-0.2l0,0V8.7L100.9,8.7z"/>
	<path class="st1" d="M100.9,8.7L100.9,8.7c0,0.1,0,0.1,0,0.2l0.7,2.7c0.2,0.6,1.6,0.7,1.6,0.7c35.6-2.7,75.3,4.9,105.2,22.1
		c29.9,17.3,43,40.2,38.3,60.8v126.1c-3.4-15.6-16.3-31.4-38.3-44.1c-29.9-17.3-69.6-24.8-105.2-22.1c0,0-1.5-0.1-1.6-0.7l-0.7-2.7
		c0-0.1,0-0.1,0-0.2l0,0V8.7L100.9,8.7z"/>
	<g>
		<path class="st3" d="M100.9,151.6c0,0.1,0,0.1,0,0.2l0.7,2.7c0.2,0.6,1.6,0.7,1.6,0.7c35.6-2.7,75.3,4.9,105.2,22.1
			c22,12.7,34.9,28.5,38.3,44.1v-32.9c-3.4-15.6-16.3-31.4-38.3-44.1c-29.9-17.3-69.6-24.8-105.2-22.1c0,0-1.5-0.1-1.6-0.7l-0.7-2.7
			c0-0.1,0-0.1,0-0.2l0,0V151.6L100.9,151.6z"/>
		<path class="st3" d="M100.9,118.6L100.9,118.6L100.9,118.6z"/>
	</g>
	<g>
		<path class="st3" d="M100.9,33.6L100.9,33.6L100.9,33.6z"/>
		<path class="st3" d="M100.9,71.7L100.9,71.7L100.9,71.7c0,0.1,0,0.1,0,0.2l0.7,2.7c0.2,0.6,1.6,0.7,1.6,0.7
			c35.6-2.7,75.3,4.9,105.2,22.1c22,12.7,34.9,28.5,38.3,44.1v-21.4c4.7-20.5-8.4-43.5-38.3-60.8s-69.6-24.8-105.2-22.1
			c0,0-1.5-0.1-1.6-0.7l-0.7-2.7c0-0.1,0-0.1,0-0.2l0,0V71.7L100.9,71.7L100.9,71.7z"/>
	</g>
	<g>
		<path class="st3" d="M100.9,21.1L100.9,21.1L100.9,21.1z"/>
		<path class="st3" d="M100.9,59.3L100.9,59.3L100.9,59.3c0,0.1,0,0.1,0,0.2l0.7,2.7c0.2,0.6,1.6,0.7,1.6,0.7
			c35.6-2.7,75.3,4.9,105.2,22.1c22,12.7,34.9,28.5,38.3,44.1v-21.4c4.7-20.5-8.4-43.5-38.3-60.8s-69.6-24.8-105.2-22.1
			c0,0-1.5-0.1-1.6-0.7l-0.7-2.7c0-0.1,0-0.1,0-0.2l0,0V59.3L100.9,59.3L100.9,59.3z"/>
	</g>
	<g>
		<path class="st3" d="M100.9,8.7L100.9,8.7L100.9,8.7z"/>
		<path class="st3" d="M100.9,46.8L100.9,46.8L100.9,46.8c0,0.1,0,0.1,0,0.2l0.7,2.7c0.2,0.6,1.6,0.7,1.6,0.7
			c35.6-2.7,75.3,4.9,105.2,22.1c22,12.7,34.9,28.5,38.3,44.1V95.2c4.7-20.5-8.4-43.5-38.3-60.8S138.8,9.6,103.2,12.3
			c0,0-1.5-0.1-1.6-0.7l-0.7-2.7c0-0.1,0-0.1,0-0.2l0,0V46.8L100.9,46.8L100.9,46.8z"/>
	</g>
	<path class="st4" d="M255.6,107.6L255.6,107.6c0,3.1-0.3,6.1-0.9,9.1c0,0-0.3,1.1-1.9,1l-4.7-0.4c-1.1-0.1-1.2-0.9-1.2-0.9v23.5
		l0.1-0.1c0,0.2-0.1,0.3-0.1,0.5c0,0,0.1,0.8,1.2,0.9l4.7,0.4c1.6,0.1,1.9-1,1.9-1c0.5-2.2,0.8-4.4,0.9-6.6h0.1L255.6,107.6
		L255.6,107.6z"/>
	<path class="st5" d="M255.6,97.3L255.6,97.3c0,3.1-0.3,6.1-0.9,9.1c0,0-0.3,1.1-1.9,1l-4.7-0.4c-1.1-0.1-1.2-0.9-1.2-0.9v23.5
		l0.1-0.1c0,0.2-0.1,0.3-0.1,0.5c0,0,0.1,0.8,1.2,0.9l4.7,0.4c1.6,0.1,1.9-1,1.9-1c0.5-2.2,0.8-4.4,0.9-6.6h0.1L255.6,97.3
		L255.6,97.3z"/>
	<path class="st3" d="M255.6,86.5L255.6,86.5c0,3.1-0.3,6.1-0.9,9.1c0,0-0.3,1.1-1.9,1l-4.7-0.4c-1.1-0.1-1.2-0.9-1.2-0.9v23.5
		l0.1-0.1c0,0.2-0.1,0.3-0.1,0.5c0,0,0.1,0.8,1.2,0.9l4.7,0.4c1.6,0.1,1.9-1,1.9-1c0.5-2.2,0.8-4.4,0.9-6.6h0.1L255.6,86.5
		L255.6,86.5z"/>
	<path class="st3" d="M255.6,187.4L255.6,187.4c0,3.1-0.3,6.1-0.9,9.1c0,0-0.3,1.1-1.9,1l-4.7-0.4c-1.1-0.1-1.2-0.9-1.2-0.9v41.5
		l0.1-0.1c0,0.2-0.1,0.3-0.1,0.5c0,0,0.1,0.8,1.2,0.9l4.7,0.4c1.6,0.1,1.9-1,1.9-1c0.5-2.2,0.8-4.4,0.9-6.6h0.1L255.6,187.4
		L255.6,187.4z"/>
	<path class="st0" d="M248.1,96.2l4.7,0.4c1.6,0.1,1.9-1,1.9-1c0.7-3,1-6.1,0.9-9.1l0,0l0,0v145.4h-0.1c-0.1,2.2-0.4,4.4-0.9,6.6
		c0,0-0.3,1.1-1.9,1l-4.7-0.4c-1.1-0.1-1.2-0.9-1.2-0.9c0-0.2,0.1-0.3,0.1-0.5l-0.1,0.1v-16.3V95.2C246.9,95.2,247,96.1,248.1,96.2z
		"/>
	
		<linearGradient id="SVGID_1_" gradientUnits="userSpaceOnUse" x1="1031.5631" y1="134.8837" x2="1056.226" y2="146.2664" gradientTransform="matrix(-1 0 0 -1 1137.7734 164)">
		<stop  offset="2.673800e-03" style="stop-color:#9EA5A9"/>
		<stop  offset="0.2219" style="stop-color:#DEE5E9"/>
		<stop  offset="0.4118" style="stop-color:#D1D8DC"/>
		<stop  offset="0.8396" style="stop-color:#9EA5A9"/>
		<stop  offset="1" style="stop-color:#6F7980"/>
	</linearGradient>
	<polygon class="st6" points="90,26.5 100.9,24.7 100.9,21.8 90,23.7 	"/>
	
		<linearGradient id="SVGID_2_" gradientUnits="userSpaceOnUse" x1="1031.5709" y1="17.2874" x2="1056.2336" y2="28.67" gradientTransform="matrix(-1 0 0 -1 1137.7734 164)">
		<stop  offset="2.673800e-03" style="stop-color:#9EA5A9"/>
		<stop  offset="0.2219" style="stop-color:#DEE5E9"/>
		<stop  offset="0.4118" style="stop-color:#D1D8DC"/>
		<stop  offset="0.8396" style="stop-color:#9EA5A9"/>
		<stop  offset="1" style="stop-color:#6F7980"/>
	</linearGradient>
	<polygon class="st7" points="90,144.1 100.9,142.3 100.9,139.4 90,141.2 	"/>
	
		<linearGradient id="SVGID_3_" gradientUnits="userSpaceOnUse" x1="1046.6483" y1="81" x2="1051.6583" y2="81" gradientTransform="matrix(-1 0 0 -1 1137.7734 164)">
		<stop  offset="2.673800e-03" style="stop-color:#9EA5A9"/>
		<stop  offset="0.2219" style="stop-color:#DEE5E9"/>
		<stop  offset="0.4118" style="stop-color:#D1D8DC"/>
		<stop  offset="0.8396" style="stop-color:#9EA5A9"/>
		<stop  offset="1" style="stop-color:#6F7980"/>
	</linearGradient>
	<path class="st8" d="M86.8,10.6c1-0.6,2.6-0.6,3.5,0c0.5,0.3,0.7,0.7,0.7,1v142.8c0,0.4-0.2,0.7-0.7,1c-1,0.6-2.6,0.6-3.5,0
		c-0.5-0.3-0.7-0.7-0.7-1V11.6C86.1,11.3,86.4,10.9,86.8,10.6z"/>
	
		<linearGradient id="SVGID_4_" gradientUnits="userSpaceOnUse" x1="1044.2522" y1="150.1114" x2="1055.5012" y2="155.3032" gradientTransform="matrix(-1 0 0 -1 1137.7734 164)">
		<stop  offset="2.673800e-03" style="stop-color:#B8BFC3"/>
		<stop  offset="0.2219" style="stop-color:#F8FFFF"/>
		<stop  offset="0.4118" style="stop-color:#EBF2F6"/>
		<stop  offset="0.8396" style="stop-color:#B8BFC3"/>
		<stop  offset="1" style="stop-color:#89939A"/>
	</linearGradient>
	<path class="st9" d="M86.8,10.6c-1,0.6-1,1.5,0,2c1,0.6,2.6,0.6,3.5,0c1-0.6,1-1.5,0-2C89.4,10,87.8,10,86.8,10.6z"/>
	
		<linearGradient id="SVGID_5_" gradientUnits="userSpaceOnUse" x1="887.1488" y1="-11.1" x2="892.1589" y2="-11.1" gradientTransform="matrix(-1 0 0 -1 1137.7734 164)">
		<stop  offset="2.673800e-03" style="stop-color:#9EA5A9"/>
		<stop  offset="0.2219" style="stop-color:#DEE5E9"/>
		<stop  offset="0.4118" style="stop-color:#D1D8DC"/>
		<stop  offset="0.8396" style="stop-color:#9EA5A9"/>
		<stop  offset="1" style="stop-color:#6F7980"/>
	</linearGradient>
	<path class="st10" d="M246.3,102.7c1-0.6,2.6-0.6,3.5,0c0.5,0.3,0.7,0.7,0.7,1v142.8c0,0.4-0.2,0.7-0.7,1c-1,0.6-2.6,0.6-3.5,0
		c-0.5-0.3-0.7-0.7-0.7-1V103.7C245.6,103.3,245.9,103,246.3,102.7z"/>
	
		<linearGradient id="SVGID_6_" gradientUnits="userSpaceOnUse" x1="884.7562" y1="58.0133" x2="896.0054" y2="63.2052" gradientTransform="matrix(-1 0 0 -1 1137.7734 164)">
		<stop  offset="2.673800e-03" style="stop-color:#B8BFC3"/>
		<stop  offset="0.2219" style="stop-color:#F8FFFF"/>
		<stop  offset="0.4118" style="stop-color:#EBF2F6"/>
		<stop  offset="0.8396" style="stop-color:#B8BFC3"/>
		<stop  offset="1" style="stop-color:#89939A"/>
	</linearGradient>
	<path class="st11" d="M246.3,102.7c-1,0.6-1,1.5,0,2c1,0.6,2.6,0.6,3.5,0c1-0.6,1-1.5,0-2C248.9,102.1,247.3,102.1,246.3,102.7z"/>
	<polygon class="st2" points="68.8,26.8 95.2,42.1 98,40.5 71.6,25.2 	"/>
	<polygon class="st12" points="95.2,42.1 95.2,70.9 98,69.3 98,40.5 	"/>
	<polygon class="st13" points="68.8,55.6 95.2,70.9 95.2,42.1 68.8,26.8 	"/>
	<polygon class="st14" points="93.4,43.1 70.6,29.9 70.6,54.6 93.4,67.8 	"/>
	
		<linearGradient id="SVGID_7_" gradientUnits="userSpaceOnUse" x1="1059.2466" y1="131.9429" x2="1063.9268" y2="104.7131" gradientTransform="matrix(-1 0 0 -1 1137.7734 164)">
		<stop  offset="0" style="stop-color:#FFFFFF"/>
		<stop  offset="1" style="stop-color:#000000"/>
	</linearGradient>
	<path class="st15" d="M74.9,57.1l-4.3-2.5V29.9l15.1,8.7C82.6,42.9,77.6,50.2,74.9,57.1z"/>
	<polygon class="st2" points="228.2,111.8 254.6,127.1 257.4,125.5 231,110.2 	"/>
	<polygon class="st12" points="254.6,127.1 254.6,155.9 257.4,154.3 257.4,125.5 	"/>
	<polygon class="st13" points="228.2,140.6 254.6,155.9 254.6,127.1 228.2,111.8 	"/>
	<polygon class="st14" points="252.8,128.1 230,114.9 230,139.6 252.8,152.8 	"/>
	
		<linearGradient id="SVGID_8_" gradientUnits="userSpaceOnUse" x1="899.8604" y1="46.9625" x2="904.5406" y2="19.7327" gradientTransform="matrix(-1 0 0 -1 1137.7734 164)">
		<stop  offset="0" style="stop-color:#FFFFFF"/>
		<stop  offset="1" style="stop-color:#000000"/>
	</linearGradient>
	<path class="st16" d="M234.3,142l-4.3-2.5v-24.7l15.1,8.7C242,127.9,237,135.2,234.3,142z"/>
	<g>
		<g>
			<polygon class="st17" points="74.6,176.9 73.5,177.5 76,189.8 77.1,189.2 			"/>
		</g>
		<polygon class="st18" points="73.5,177.5 73,177 75.4,189.4 76,189.8 		"/>
	</g>
	<g>
		<g>
			<polygon class="st17" points="88.5,168.4 87.4,169 89.9,181.4 90.9,180.8 			"/>
		</g>
		<polygon class="st18" points="87.4,169 86.8,168.6 89.3,180.9 89.9,181.4 		"/>
	</g>
	<g>
		<path class="st18" d="M93.4,201l3.7-20.7c0.1-0.6,0.7-0.9,1.3-0.5l7.1,4.1c0.6,0.3,1.2,1.3,1.3,2l3.6,24.9l0.8,0.4l-3.6-25
			c-0.2-1.2-1.1-2.6-2.1-3.2l-7.1-4.1c-1-0.6-1.9-0.2-2.1,0.8l-3.7,20.8L93.4,201z"/>
		<path class="st17" d="M98.4,178.9l7.1,4.1c1,0.6,1.9,2,2.1,3.2l3.6,25l1-0.6l-3.6-25c-0.2-1.2-1.1-2.6-2.1-3.2l-7.1-4.1
			c-0.9-0.5-2.5,0-2.9,0.8C96.9,178.6,97.7,178.5,98.4,178.9z"/>
		<path class="st19" d="M97.1,180.3L93.4,201l1-0.6l3.7-20.7l0,0C97.6,179.5,97.2,179.8,97.1,180.3z"/>
	</g>
	<g>
		<path class="st0" d="M108.4,187.2L96,180.1c-1.6-0.9-4.2-0.9-5.8,0l-14.4,8.3c-1.1,0.6-1.4,1.5-1,2.3c-0.4,0.8,0,1.7,1,2.3
			l12.4,7.1c1.6,0.9,4.2,0.9,5.8,0l14.4-8.3c1.1-0.6,1.4-1.5,1-2.3C109.8,188.7,109.5,187.8,108.4,187.2z"/>
		<path class="st0" d="M108.4,190.5L94,198.7c-1.6,0.9-4.2,0.9-5.8,0l-12.4-7.1c-0.5-0.3-0.9-0.7-1-1c-0.4,0.8,0,1.7,1,2.3l12.4,7.1
			c1.6,0.9,4.2,0.9,5.8,0l14.4-8.3c1.1-0.6,1.4-1.5,1-2.3C109.3,189.8,108.9,190.2,108.4,190.5z"/>
	</g>
	<g>
		<path class="st19" d="M76,193.1l-3.7,20.7l1-0.6l3.7-20.7l0,0C76.5,192.3,76.1,192.5,76,193.1z"/>
		<g>
			<path class="st18" d="M72.3,213.7L76,193c0.1-0.6,0.7-0.9,1.3-0.5l7.1,4.1c0.6,0.3,1.2,1.3,1.3,2l3.6,24.9L90,224l-3.6-25
				c-0.2-1.2-1.1-2.6-2.1-3.2l-7.1-4.1c-1-0.6-1.9-0.2-2.1,0.8l-3.7,20.8L72.3,213.7z"/>
		</g>
		<path class="st17" d="M77.3,191.7l7.1,4.1c1,0.6,1.9,2,2.1,3.2l3.6,25l1-0.6l-3.6-25c-0.2-1.2-1.1-2.6-2.1-3.2l-7.1-4.1
			c-0.9-0.5-2.5,0-2.9,0.8C75.8,191.4,76.6,191.3,77.3,191.7z"/>
	</g>
	<g>
		<path class="st0" d="M90.5,164.6l-1.3-7.5c-0.2-1-0.7-1.6-1.4-1.9c-0.7-0.6-1.7-0.7-2.7-0.1c0,0-4.3,2-5.6,2.8
			c-1.5,0.8-4.4,2.5-5.8,3.5c-1,0.7-4,3-4,3c-1.6,0.9-2.6,3.2-2.3,5l1.3,7.8c0.2,1,0.8,1.8,1.6,2.1c0.7,0.6,1.7,0.8,2.7,0.4l5.8-2.3
			c1.7-0.7,4.2-2.2,5.5-3.4l4.2-3.8C90,168.9,90.8,166.4,90.5,164.6z"/>
		<path class="st0" d="M68.8,177.1c0.2,1,0.8,1.8,1.6,2.1c-0.4-0.4-0.8-1-0.9-1.7l-1.3-7.8c-0.2-1,0.1-2.2,0.6-3.2l-0.7-0.3
			c-0.5,1-0.8,2.1-0.6,3.1L68.8,177.1z"/>
		<path class="st0" d="M85.2,155.1c0,0-4.3,2-5.6,2.8c-1.5,0.8-4.4,2.5-5.8,3.5c-1,0.7-4,3-4,3c-0.7,0.4-1.3,1.1-1.7,1.9l0.7,0.3
			c0.4-0.7,1-1.4,1.6-1.8c0,0,3-2.3,4-3c1.4-0.9,4.3-2.7,5.8-3.5c1.4-0.7,5.6-2.8,5.6-2.8c0.7-0.4,1.4-0.5,2-0.3
			C87.2,154.6,86.2,154.5,85.2,155.1z"/>
	</g>
	<g>
		<g>
			<polygon class="st17" points="193.2,200.1 194.3,200.7 191.8,213 190.8,212.4 			"/>
		</g>
		<polygon class="st18" points="194.3,200.7 194.9,200.2 192.4,212.5 191.8,213 		"/>
	</g>
	<g>
		<g>
			<polygon class="st17" points="179.4,191.7 180.5,192.3 178,204.6 177,204 			"/>
		</g>
		<polygon class="st18" points="180.5,192.3 181,191.8 178.6,204.1 178,204.6 		"/>
	</g>
	<g>
		<path class="st18" d="M174.5,224.1l-3.7-20.6c-0.1-0.6-0.7-0.9-1.3-0.5l-7.1,4.1c-0.6,0.3-1.2,1.3-1.3,2l-3.5,24.7l-0.8,0.4
			l3.6-24.9c0.2-1.2,1.1-2.6,2.1-3.2l7.1-4.1c1-0.6,1.9-0.2,2.1,0.8l3.7,20.7L174.5,224.1z"/>
		<path class="st17" d="M169.5,202.1l-7.1,4.1c-1,0.6-1.9,2-2.1,3.2l-3.6,24.9l-1-0.6l3.6-24.9c0.2-1.2,1.1-2.6,2.1-3.2l7.1-4.1
			c0.9-0.5,2.5,0,2.9,0.8C171,201.8,170.3,201.7,169.5,202.1z"/>
		<path class="st19" d="M170.9,203.5l3.7,20.6l-1-0.6l-3.6-20.6l0,0C170.3,202.7,170.8,203,170.9,203.5z"/>
	</g>
	<g>
		<path class="st0" d="M159.6,210.3l12.3-7c1.6-0.9,4.2-0.9,5.7,0l14.4,8.2c1.1,0.6,1.4,1.5,1,2.3c0.4,0.8,0,1.7-1,2.3l-12.3,7
			c-1.6,0.9-4.2,0.9-5.7,0l-14.4-8.2c-1.1-0.6-1.4-1.5-1-2.3C158.2,211.8,158.5,210.9,159.6,210.3z"/>
		<path class="st0" d="M159.6,213.6l14.4,8.2c1.6,0.9,4.2,0.9,5.7,0l12.3-7c0.5-0.3,0.9-0.7,1-1c0.4,0.8,0,1.7-1,2.3l-12.3,7
			c-1.6,0.9-4.2,0.9-5.7,0l-14.4-8.2c-1.1-0.6-1.4-1.5-1-2.3C158.7,213,159.1,213.3,159.6,213.6z"/>
	</g>
	<g>
		<path class="st19" d="M191.9,216.2l3.7,20.6l-1-0.6l-3.6-20.6l0,0C191.3,215.4,191.8,215.7,191.9,216.2z"/>
		<g>
			<path class="st18" d="M195.5,236.8l-3.7-20.6c-0.1-0.6-0.7-0.9-1.3-0.5l-7.1,4.1c-0.6,0.3-1.2,1.3-1.3,2l-3.5,24.7l-0.8,0.4
				l3.6-24.9c0.2-1.2,1.1-2.6,2.1-3.2l7.1-4.1c1-0.6,1.9-0.2,2.1,0.8l3.7,20.7L195.5,236.8z"/>
		</g>
		<path class="st17" d="M190.5,214.8l-7.1,4.1c-1,0.6-1.9,2-2.1,3.2l-3.6,24.9l-1-0.6l3.6-24.9c0.2-1.2,1.1-2.6,2-3.2l7.1-4.1
			c0.9-0.5,2.5,0,2.9,0.8C192,214.5,191.3,214.4,190.5,214.8z"/>
	</g>
	<path class="st0" d="M177.4,187.9l1.3-7.5c0.2-1,0.7-1.6,1.4-1.9c0.7-0.6,1.7-0.7,2.7-0.1c0,0,4.2,2,5.6,2.8
		c1.5,0.8,4.4,2.5,5.8,3.4c1,0.7,4,3,4,3c1.6,0.9,2.6,3.2,2.3,4.9l-1.3,7.7c-0.2,1-0.8,1.7-1.6,2.1c-0.7,0.6-1.7,0.8-2.7,0.4
		l-5.8-2.3c-1.7-0.7-4.2-2.2-5.5-3.4l-4.2-3.7C177.9,192.1,177.1,189.7,177.4,187.9z"/>
	<path class="st0" d="M199,200.3c-0.2,1-0.8,1.7-1.6,2.1c0.4-0.4,0.8-1,0.9-1.6l1.3-7.7c0.2-1-0.1-2.2-0.6-3.2l0.7-0.3
		c0.5,1,0.7,2.1,0.6,3.1L199,200.3z"/>
	<path class="st0" d="M182.7,178.4c0,0,4.2,2,5.6,2.8c1.5,0.8,4.4,2.5,5.8,3.4c1,0.7,4,3,4,3c0.7,0.4,1.3,1.1,1.7,1.9l-0.7,0.3
		c-0.4-0.7-1-1.4-1.6-1.8c0,0-2.9-2.3-4-3c-1.4-0.9-4.3-2.6-5.8-3.4c-1.4-0.7-5.6-2.8-5.6-2.8c-0.7-0.4-1.4-0.5-2-0.3
		C180.7,177.9,181.7,177.8,182.7,178.4z"/>
	<g>
		<path class="st20" d="M175.4,205.8c-1.2-2.1-2.1-3-2.5-3s-4.8,2.5-9.2,6.1s-5.6,5.2-6.4,6.7c-0.8,1.5-0.7,4.1-0.6,5.6
			c0.1,1.6,0,5.1,0.3,8.2s0.5,5.5,0.5,5.5s-3.2,3.4-4.9,4.5c0,0-0.4,0.9,0.4,1.1c0.8,0.2,2.7-0.2,3.8-0.6c1.2-0.4,2.1-0.9,2.9-1.4
			c2.3-1.4,2.1-2.5,2.1-2.5c-0.1-0.4-0.3-1-0.4-1.5c-0.2-1.1,0.2-3.6,0.4-4.7c0.3-1,1.1-4.3,1.3-5.7c0.2-1.4,0-4,0-4l3.1-0.6
			l9.4-4.6l2.5-3.6C178.3,211.2,176.5,207.9,175.4,205.8z"/>
		<path class="st21" d="M174.4,243.3c0.2,1.4,0.3,1.8,0,2.5c-0.3,0.6-2.3,2.4-3.7,4.5c-1.5,2.1-4.3,2.8-6.4,2.1
			c-2-0.7,1.9-4.4,1.9-4.4s-1,1,0.8,1.4c2.6,0.6,4.4-1.2,5.2-2.2C173.4,245.8,174.4,243.3,174.4,243.3z"/>
		<path class="st21" d="M152.6,239.3c0,0-0.4,0.9,0.4,1.1c0.8,0.2,2.7-0.2,3.8-0.6c1.2-0.4,2.1-0.9,2.9-1.4c2.3-1.4,2.1-2.5,2.1-2.5
			s1.1,2.5-0.3,3.2c-1.4,0.7-2.3,0.6-3.4,1.1c-0.8,0.4-2.4,1.8-3.9,2.6c-2,1-4.6,1.2-4.7,0.2C149.5,242.4,150.3,240.4,152.6,239.3z"
			/>
		<path class="st22" d="M161.5,239.1c-1.4,0.7-2.3,0.6-3.4,1.1c-0.8,0.4-2.4,1.8-3.9,2.6c-1.9,0.9-4.5,1.2-4.7,0.3
			c0,0.1,0,0.2,0,0.2c0.1,1,2.7,0.8,4.7-0.2c1.5-0.7,3.1-2.2,3.9-2.6c0.2-0.1,0.4-0.2,0.6-0.2l0.1,0.4c0,0,2.2-0.6,2.6-0.8
			c0.4-0.2,0.9-0.5,0.7-1.5C162.1,238.6,161.9,238.9,161.5,239.1z"/>
		<path class="st23" d="M186.4,207.3c-1.8,0-8.4,1.7-10.7,3s-7.3,4.6-9.1,5.8c-1.8,1.2-3.8,3.6-4,6.4s3.2,6.6,4.2,9
			s3.2,10.8,3.2,11.4s-0.3,1.1-1.1,2.1s-2.6,2.9-2.6,2.9l-0.3,0.4c-0.1,0.3,0,0.7,1,1c2.6,0.6,4.4-1.2,5.2-2.2
			c1.1-1.3,2.2-3.8,2.2-3.8c-0.3-0.7-0.7-1.3-1.1-2.6c-0.4-1.4,0-6.6-0.5-10.9s-3.9-6.5-3.9-6.5s4.4-0.7,9.9-3.9
			c4.3-2.5,7.7-4.5,9.7-7.7C190.4,208.6,188.2,207.3,186.4,207.3z"/>
		<path class="st22" d="M174.4,245.8c-0.3,0.6-2.3,2.4-3.7,4.5c-1.5,2.1-4.3,2.8-6.4,2.1c-0.3-0.1-0.5-0.3-0.6-0.6
			c-0.1,0.4,0.1,0.8,0.6,0.9c2,0.7,4.9,0,6.4-2.1c0.7-1,1.5-1.9,2.3-2.7v0.4c0.7-0.8,1.3-1.4,1.5-1.7c0.2-0.4,0.2-0.8,0.1-1.3
			C174.5,245.5,174.5,245.6,174.4,245.8z"/>
		<path class="st3" d="M189.9,203.5l-9.7,0.5l-7.1-1.4c0,0-7,1.8-13.8,10.5c0,0,3.1,0.8,6.4,2.5c2,1.1,6.7,2.1,6.5,6.9
			c0,0,9-3.8,12.4-6.1C189.2,213.1,191.7,206.9,189.9,203.5z"/>
		<path class="st24" d="M176.5,178c0,0-2.5-1.1-4.1-1s-2,1.1-2.5,3.9c-0.6,2.8-1.5,5.6-1.9,7.1s-1.6,4.8-1.9,6.1
			c-0.3,1.3-0.6,4.1-0.6,4.1s1.6-0.1,2.8,0.3c1.3,0.4,1.6,0.7,1.6,0.7s0.9-2.3,1-3.4c0.2-1.1,0.4-3.2,0.7-3.9
			C171.8,191.3,176.5,178,176.5,178z"/>
		<path class="st24" d="M171.3,192.7c0,0,1.1,3.3,1.6,4.1c0.5,0.8,0.7,1.3,0.3,2.7c-0.3,1.3-0.5,3.1-0.5,3.1s-0.5,3.7,4.1,4.8
			c4.7,1.1,8.7,1,10.5-0.7s2.8-2.8,2.3-3.7c-0.5-0.9-2.3-3-2.4-5.7c-0.1-2.7-1.1-10.5-1.1-10.5L171.3,192.7z"/>
		<path class="st25" d="M173.5,178c0,0-1.4,3.4-1.9,4.6c-0.4,1.2-3.6,5.8-2.2,8.5c1.3,2.6,3.6,4.2,6,5.3c1.7,0.8,4.8,1.3,6.4-0.5
			c1.5-1.6,1.5-5.9,3.6-7.3c2.2-1.4,3.2-4.1,2.8-5s-1.4-1.3-1.8-1.7C186.2,181.4,177.1,175.9,173.5,178z"/>
		<path class="st26" d="M175,179.5c0,0-3.2,6.1,0.1,7s5.2-5.3,7.4-6.1C184.7,179.7,178.1,174.5,175,179.5z"/>
		<g>
			<path class="st27" d="M170.4,171.2c0,0,0,1.2-0.1,1.4c-0.2,0.2-0.8,1-1.1,1.2c-0.2,0.3-0.2,0.5,0.1,0.7s0.6,0.3,0.6,0.5
				s0,0.5-0.1,0.6c0,0.2,0.2,0.3,0.2,0.6c0,0.2,0,0.4,0.2,0.6c0.3,0.3,0.3,0.3,0.2,0.6c-0.1,0.3-0.3,1,0.8,1.2
				c1.1,0.3,3.6-0.1,3.6-0.1l1-4.8l-1.9-2.4L170.4,171.2z"/>
			<path class="st26" d="M175.9,173.7l-1.9-2.4l-3.5-0.2c0,0,0,1.2-0.1,1.4l0,0c0.2,0.2,0.4,0.6,0.4,0.8c0,0.4,0,0.9,0.5,0.9
				s2.3,0.6,2.4,1c0.1,0.3,0.2,2.3,0.7,3.3c0.4,0,0.6-0.1,0.6-0.1L175.9,173.7z"/>
			<path class="st28" d="M172.7,166.5c0,0-2.2,0.4-2.5,3.6c-0.4,3.2,3.2,4.7,3.2,4.7s-0.6-0.5-0.8-0.8c0,0,1.2,0.4,1.4,1
				s0,3.8,0.9,4.7c0.9,0.9,5.6,3.2,3.6,5.9c0,0,1.6-1.2,1.3-2.8c0,0,0.6,2.2-0.5,3.7c0,0,1.8-1.2,1.8-2.7s-0.4-2.1-0.4-2.1
				s1.8,0.5,2.8,0.5c0,0-1.7-0.5-1.9-0.8c0,0,1,0.3,1.9,0.2c1-0.1,2.2-0.3,3,0.1c0,0-3.1-2.7-3.4-4.1c-0.2-1.4,1.2-5.8,0.4-8.6
				c-0.8-2.8-3.9-4.1-5.8-4.2C175.7,164.9,173.4,165.6,172.7,166.5z"/>
		</g>
		<path class="st25" d="M183.8,191.9c0,0-1.1-4.1-0.7-5.6c0.3-1.5,1.5-2.9,3-3.1s3.4,0.1,3.4,3.6s-0.7,8.9-0.7,10.3s0,4.6,0,5
			c0,0.5-0.5,2.2-1.6,3.6s-2.2,2.2-2.2,2.2s-1.4-2.8-4.2-2.7c0,0,2.6-2.9,2.8-3.4C183.8,201.4,183.9,193.4,183.8,191.9z"/>
		<g>
			<path class="st27" d="M181.2,205.2c-0.5,0.6-0.9,1.1-1.1,1.4c-0.7,1-4.9,5.5-4.9,5.5s-2.1,0.1-2.7,0.2c-0.6,0.1-1.2,0-1.6,0.4
				c-0.5,0.4-0.9,1.5-0.9,1.5s-0.8,0.7-1.3,1.2c-0.5,0.6-1.4,1.7-1.2,1.9c0.2,0.2,0.4,0.2,0.4,0.2s-0.8,0.6-0.3,0.9s0.9,0,0.9,0
				s0,0.3,0.4,0.4c0.5,0.1,1.1-0.3,1.1-0.3s0.3,0.3,0.8,0.2c0.5-0.1,2.9-1.1,3.4-1.4s2-1.9,2.2-2.1c0.2-0.3,2.2-2.4,2.8-2.7
				c0.5-0.3,3.9-2.9,5.9-4.7C184.6,207.3,183.4,205.3,181.2,205.2z"/>
			<path class="st29" d="M181.7,205.3c1.8,0.7,2.5,2.4,2.5,2.4s-6.9,5.1-7.5,5.8c-0.7,0.7-1.9,2.5-2.1,2.7c-0.2,0.2-1.3,0.5-1.9,0.4
				c-0.6-0.2-1.1-0.5-1.6-0.7s-0.8,0.1-1.3,0.5c-0.4,0.4-1.8,1.2-1.8,1.2s-0.8,0.6-0.3,0.9s0.9,0,0.9,0s0,0.3,0.4,0.4
				c0.5,0.1,1.1-0.3,1.1-0.3s0.3,0.3,0.8,0.2c0.5-0.1,2.9-1.1,3.4-1.4s2-1.9,2.2-2.1c0.2-0.3,2.2-2.4,2.8-2.7
				c0.5-0.3,3.9-2.9,5.9-4.7C184.7,207.3,183.5,205.6,181.7,205.3z"/>
		</g>
		<g>
			<path class="st27" d="M169.7,199.1c-0.2-0.1-0.6-0.4-1.4-0.6c-1-0.3-2.2-0.3-2.6-0.3c-0.1,1-0.2,2.1-0.3,3.1
				c-0.1,2.3-0.4,6-0.4,6s-1.6,1-2,1.2s-1.2,1.1-1.6,1.9c-0.4,0.8-1.1,2-0.8,2.1c0,0-0.3,0.9,0.2,1.1c0,0-0.2,0.6,0.1,0.7
				s0.8-0.4,0.8-0.4s0.3,0.5,0.7,0.1s1-1.8,1.5-2.2c0.4-0.4,1.9-1.7,1.9-1.7s0.3,0,0.3,0.1c0,0.2-0.1,0.6-0.4,1
				c-0.3,0.4-0.5,1.2-0.1,1.4c0.4,0.2,0.8-0.2,1.1-0.8c0.4-0.5,0.9-1.2,1-1.5c0-0.3,0-2.2,0-3s0.7-4.2,1-5.3
				C168.8,201.4,169.3,200.2,169.7,199.1z"/>
			<path class="st29" d="M162.3,210.7c-0.2-0.2-0.5-0.2-0.6-0.8c0,0,0-0.1,0-0.2c-0.1,0.2-0.2,0.4-0.3,0.6c-0.4,0.8-1.1,2-0.8,2.1
				c0,0-0.3,0.9,0.2,1.1c0,0-0.2,0.6,0.1,0.7s0.8-0.4,0.8-0.4c0.1-0.6,0.9-2.1,0.9-2.4C162.6,211.1,162.5,210.9,162.3,210.7z"/>
			<path class="st26" d="M169.7,199.1c-0.2-0.1-0.6-0.4-1.4-0.6c-0.7-0.2-1.4-0.3-2-0.3c0.8,0.3,1.8,0.7,2,1c0.4,0.7-0.9,5.5-1,6.7
				c-0.1,0.8,0.1,1.9,0.5,2.7c0-0.5,0-1,0-1.3c0-0.8,0.7-4.2,1-5.3C168.8,201.4,169.3,200.2,169.7,199.1z"/>
		</g>
	</g>
	<g>
		<g>
			<path class="st30" d="M105.1,212.5c0,0,0.3-2.5,0.6-3.4c0,0,1.5,0.8,3.1,0.9s2.7-0.3,2.7-0.3s1.3,2.1,2.7,2.9
				c1.4,0.8,3,1.2,4.1,2.2c1.2,1,2.5,2.8,2.1,3.7c-0.4,0.9-3.4,1.6-5.9,0.1c-1.6-0.9-3-2.7-4.6-3.1
				C109.9,215.5,105.1,214.1,105.1,212.5z"/>
			<path class="st30" d="M105.1,212.7c0.4,1.5,4.8,2.7,4.8,2.7c1.6,0.5,3,2.2,4.6,3.1c2.5,1.4,5.5,0.8,5.9-0.1c0-0.1,0-0.1,0-0.2
				c0,0.2,0,0.5,0,0.6c-0.4,0.9-3.4,1.6-5.9,0.1c-1.6-0.9-3-2.7-4.6-3.1c0,0-0.7-0.2-1.6-0.5l-0.1,0.6c0,0-1.8-0.6-3-1.6l-0.2-1.2
				l0,0V213C105.1,213,105.1,212.9,105.1,212.7z"/>
		</g>
		<path class="st31" d="M87.5,186.6l1.3-5.8l-0.6-3.2c4.4-1.4,6.6-3.6,6.6-3.6c0.5,1.2,1.2,1.6,1.2,1.6s11,4.8,14.6,7.6
			c5,3.9,4.2,6.3,3.2,12.1c-1,5.8-0.1,15.9,0.4,17.2c0,0-5.7,2.1-9.1-0.8c0,0-1.2-13.3,0.2-19.3C105.3,192.4,90.3,187.9,87.5,186.6z
			"/>
		<g>
			<path class="st30" d="M104.4,217c0,0,0.8,3.1,2.1,4.1c1.3,1,4.1,5.2,2.2,6.2s-6.5-0.5-7-2.2c-0.6-1.7-1-3.3-1.5-4s-1.9-2.7-0.7-5
				c0,0,1.2,2,2.9,1.7C104.2,217.4,104.4,217,104.4,217z"/>
			<g>
				<path class="st30" d="M99.1,217.9c0,1.5,0.8,2.7,1.2,3.2c0.5,0.7,0.9,2.3,1.5,4c0.5,1.7,5.1,3.2,7,2.2c0.4-0.2,0.6-0.5,0.6-0.9
					c0.1,0.6-0.1,1.2-0.6,1.4c-1.9,1-6.5-0.5-7-2.2c-0.6-1.7-1-3.3-1.5-4C99.8,220.9,98.7,219.8,99.1,217.9z"/>
			</g>
		</g>
		<path class="st32" d="M78,178c0,0,5.3,0.8,10.2-0.4l1.4,3.9c2.7,2.4,11.8,7.2,13.1,8.6c1.5,1.6,2.4,7.3,2.4,13.7
			c0.1,6.4,0.6,14.3,0.6,14.3s0.1,2.3-2.1,2.4c-2.2,0.2-5.5-3.1-5.5-3.1s-2.4-7.6-2.5-11.2c-0.1-2.8,0-8,0-8s-12.9-6.1-15.8-9
			C77,186.4,77.1,180.9,78,178z"/>
	</g>
	<g>
		<path class="st33" d="M78.9,162.2c1.8-5.3,5.9-8.9,9.4-10.7c1.1-0.6,2.6-1.2,4.2-1.6c-0.2,0.6-0.6,1.8-0.4,3.2
			c0.3,2,3.9,4.9,4.9,4.9c1-0.1,2.5-1.2,2.2-3.7c-0.1-1.2-0.4-3.1-0.7-4.8c1.5,0.3,2.7,1.1,3.3,2.5c0,0,0,4-0.9,6.9
			s-2.9,7.3-3.8,8.2c-0.9,0.9-2,4-1.6,4.4c1.4,1.6,0,4.4-1.2,5c-0.7,0.4-3.7,4.7-9.9,4.2c-2-0.2-7.8-0.8-8.3-2.4
			C75.6,176.6,77.1,167.5,78.9,162.2z"/>
		<path class="st3" d="M97.7,161.4l1.1-2.8c0,0-0.6-1-1.8-0.8c-1.1,0.2-1.5,1.5-1.5,1.5l1.3,2.1c-0.1,0.4-0.3,2-0.6,3
			c-0.4,1.2-3.5,6.6-4.1,8.1c-0.5,1.5-0.4,5.9-0.4,5.9L94,179l0.8-2.4c0,0-0.1-2.8-0.1-4.2c0-1.4,1.4-4.6,2-6.5
			C97.3,164.2,97.6,161.9,97.7,161.4z"/>
		<path class="st34" d="M98.6,149.4c0.1,0.9,0.3,1.9,0.4,2.8c0.6,0.9,1,2,1.1,3.4c0.2,3.6-4.1,10.8-4.1,10.8s-4.4-8.3-5.3-11.2
			c-1-2.9-0.4-4,0.6-4.6c0.4-0.3,0.8-0.4,1.2-0.5c0-0.1,0.1-0.2,0.1-0.2c-1.6,0.4-3.1,1-4.2,1.6c-3.5,1.8-7.6,5.4-9.4,10.7
			c-1.8,5.3-3.2,14.5-2.8,16c1.3,4.6,5.8,4.1,7.9,4.2c6.2,0.5,9.9-3.2,10.6-3.6c1.2-0.6,2.3-5.9,1-7.5c-0.4-0.4,0.7-3.5,1.6-4.4
			s2.9-5.3,3.8-8.2c0.9-2.9,0.9-6.9,0.9-6.9C101.3,150.5,100.1,149.7,98.6,149.4z"/>
		<path class="st35" d="M93.9,173.9c0,1.3,1.2,2.5,0.4,4.5c-0.1,0.3-0.2,0.6-0.4,0.8c0.3-0.2,0.6-0.3,0.7-0.3c1.2-0.6,2.3-5.9,1-7.5
			c-0.4-0.4,0.7-3.5,1.6-4.4s2.9-5.3,3.8-8.2c0.9-2.9,0.9-6.9,0.9-6.9c-0.6-1.4-1.8-2.1-3.3-2.5c0.1,0.9,0.3,1.9,0.4,2.8
			c0.6,0.9,1,2,1.1,3.4c0.2,3.6-4.1,10.8-4.1,10.8s-0.9,3.1-1.5,3.9C93.9,171.2,93.9,172.6,93.9,173.9z"/>
		<g>
			<path class="st36" d="M96.1,168.6l-0.2-0.5c-0.2-0.5-5.4-12.6-5.2-15.5c0.2-3.1,1.8-3,1.9-3v0.4v-0.2v0.2l0,0
				c-0.1,0-1.2,0-1.4,2.6c-0.2,2.5,4,12.5,5,14.8c0.8-1.8,3.5-8.3,4-12.7h0.4c-0.5,5.2-4.2,13.3-4.2,13.3L96.1,168.6z"/>
		</g>
		<polygon class="st37" points="97.2,174.1 93.2,176 93.9,169.1 97.2,167.1 		"/>
		<polygon class="st2" points="97.7,173.9 94.4,175.8 94.4,168.8 97.7,166.9 		"/>
		<polygon class="st38" points="97,171.4 95.3,172.3 95.3,169.4 97,168.4 		"/>
		<polygon class="st38" points="97,172.1 95.3,173.1 95.3,172.8 97,171.9 		"/>
		<polygon class="st38" points="97,172.7 95.3,173.7 95.3,173.4 97,172.5 		"/>
	</g>
	<g>
		<g>
			<g>
				
					<linearGradient id="SVGID_9_" gradientUnits="userSpaceOnUse" x1="112.8" y1="-63.1" x2="136.9317" y2="-63.1" gradientTransform="matrix(1 0 0 -1 0 164)">
					<stop  offset="2.673800e-03" style="stop-color:#9EA5A9"/>
					<stop  offset="0.2219" style="stop-color:#DEE5E9"/>
					<stop  offset="0.4118" style="stop-color:#D1D8DC"/>
					<stop  offset="0.8396" style="stop-color:#9EA5A9"/>
					<stop  offset="1" style="stop-color:#6F7980"/>
				</linearGradient>
				<path class="st39" d="M133.4,221.6c-4.7-2.7-12.4-2.7-17.1,0c-2.4,1.4-3.5,3.1-3.5,4.9v1.2c0,1.8,1.2,3.6,3.5,4.9
					c4.7,2.7,12.4,2.7,17.1,0c2.4-1.4,3.5-3.1,3.5-4.9v-1.2C136.9,224.8,135.7,223,133.4,221.6z"/>
				
					<linearGradient id="SVGID_10_" gradientUnits="userSpaceOnUse" x1="113.0186" y1="-67.2983" x2="142.633" y2="-55.4132" gradientTransform="matrix(1 0 0 -1 0 164)">
					<stop  offset="2.673800e-03" style="stop-color:#ABB2B6"/>
					<stop  offset="0.2219" style="stop-color:#EBF2F6"/>
					<stop  offset="0.4118" style="stop-color:#DEE5E9"/>
					<stop  offset="0.8396" style="stop-color:#ABB2B6"/>
					<stop  offset="1" style="stop-color:#7C868D"/>
				</linearGradient>
				<path class="st40" d="M133.4,221.6c4.7,2.7,4.7,7.1,0,9.9c-4.7,2.7-12.4,2.7-17.1,0s-4.7-7.1,0-9.9
					C121,218.9,128.7,218.9,133.4,221.6z"/>
			</g>
			
				<linearGradient id="SVGID_11_" gradientUnits="userSpaceOnUse" x1="122.7026" y1="-55.4" x2="126.9858" y2="-55.4" gradientTransform="matrix(1 0 0 -1 0 164)">
				<stop  offset="2.673800e-03" style="stop-color:#9EA5A9"/>
				<stop  offset="0.2219" style="stop-color:#DEE5E9"/>
				<stop  offset="0.4118" style="stop-color:#D1D8DC"/>
				<stop  offset="0.8396" style="stop-color:#9EA5A9"/>
				<stop  offset="1" style="stop-color:#6F7980"/>
			</linearGradient>
			<path class="st41" d="M126.4,211.4c-0.8-0.5-2.2-0.5-3,0c-0.4,0.2-0.6,0.6-0.6,0.9v14.2c0,0.3,0.2,0.6,0.6,0.9
				c0.8,0.5,2.2,0.5,3,0c0.4-0.2,0.6-0.6,0.6-0.9v-14.2C127,212,126.8,211.7,126.4,211.4z"/>
		</g>
		<g>
			<path class="st22" d="M152.6,176.3c-15.4-8.9-40.3-8.9-55.7,0c-7.6,4.4-11.4,10.1-11.5,15.8v2.4c0.2,5.7,4,11.3,11.5,15.6
				c15.4,8.9,40.3,8.9,55.7,0c7.7-4.5,11.6-10.3,11.5-16.1v-1.7C164.1,186.5,160.3,180.7,152.6,176.3z"/>
			<path class="st36" d="M152.6,176.3c15.4,8.9,15.4,23.3,0,32.2c-15.4,8.9-40.3,8.9-55.7,0s-15.4-23.3,0-32.2
				C112.3,167.4,137.2,167.4,152.6,176.3z"/>
			
				<linearGradient id="SVGID_12_" gradientUnits="userSpaceOnUse" x1="136.0954" y1="2.7801" x2="98.3436" y2="-37.1121" gradientTransform="matrix(1 0 0 -1 0 164)">
				<stop  offset="0" style="stop-color:#FFFFFF"/>
				<stop  offset="1" style="stop-color:#000000"/>
			</linearGradient>
			<path class="st42" d="M96.9,176.3c-15.4,8.9-15.4,23.3,0,32.2c2.3,1.3,4.9,2.5,7.6,3.4c4.3-10.7,15.6-27.6,45.4-37
				C134.4,167.5,111.4,167.9,96.9,176.3z"/>
		</g>
	</g>
	<polygon class="st2" points="147.2,185.9 138.4,191 122.7,181.9 131.5,176.9 	"/>
	<polygon class="st3" points="135.6,179.2 131.5,176.9 122.7,181.9 126.8,184.3 	"/>
	<polygon class="st3" points="133.2,188 138.4,191 147.2,185.9 142,182.9 	"/>
	<polygon class="st3" points="134.2,188.6 138.4,191 147.2,185.9 143,183.5 	"/>
	<g>
		<polygon class="st2" points="139.9,194.4 131.1,199.5 115.5,190.4 124.3,185.3 		"/>
		<polygon class="st3" points="128.4,187.7 124.3,185.3 115.5,190.4 119.6,192.8 		"/>
		<polygon class="st3" points="126,196.5 131.1,199.5 139.9,194.4 134.8,191.4 		"/>
		<polygon class="st3" points="126.9,197 131.1,199.5 139.9,194.4 135.7,192 		"/>
	</g>
	<g>
		<polygon class="st2" points="123.4,197.9 114.6,203 98.9,193.9 107.7,188.8 		"/>
		<polygon class="st3" points="111.8,191.2 107.7,188.8 98.9,193.9 103,196.3 		"/>
		<polygon class="st3" points="109.4,200 114.6,203 123.4,197.9 118.2,194.9 		"/>
		<polygon class="st3" points="110.4,200.5 114.6,203 123.4,197.9 119.2,195.5 		"/>
	</g>
	<path class="st27" d="M99,184c2.5,0.7,6.6-0.2,6.6-0.2s0.1,0.6,0.6,0.6s1.4-1.9,1.4-1.9s0.7,1.4,1.2,1.4s0.2-1.5,0.2-1.5
		c0.3-0.3,0.4-1,0.4-1.7s0-1.9-0.4-2.2c-0.4-0.3-1.8-1.3-2.8-1.2c-1,0.1-3,0.5-3,0.5s0-1.1,0.2-1.6s0-1.2-0.6-1.2s-1.4,2.8-1.8,3.1
		c-0.4,0.4-2.4,2.4-2.4,2.4l-5-0.5l0.2,4.4L99,184z"/>
	<path class="st26" d="M107.5,180.9c-0.1-0.4-0.1-0.5,0.2-1c0.3-0.5-0.3-1.2-0.7-1.5c-0.2-0.2-0.3-0.6-0.3-1
		c0.9,0.2,1.8,0.9,2.1,1.1c0.4,0.3,0.4,1.5,0.4,2.2s-0.1,1.4-0.4,1.7c0,0,0.2,1.5-0.2,1.5c-0.5,0-1.2-1.4-1.2-1.4s-0.9,1.8-1.4,1.9
		c-0.5,0-0.6-0.6-0.6-0.6s0,0-0.1,0c1.1-0.5,2-1.4,2-1.4S107.6,181.3,107.5,180.9z"/>
	<path class="st25" d="M84.9,156.9c-1.7,0.2-3.1,0.4-4.5,4.9s-2.2,12.1-2.2,14.7c-0.1,2.6,0.3,6.5,4.1,7.3c3.8,0.8,10.9,2,12.9,0.7
		l3.7-0.3v-3.9l-2.7-0.1c-1.2-0.9-6.8-2.4-10.2-2.2c0,0,1.5-7.9,1.9-10.7C88.2,164.4,91.3,156.1,84.9,156.9z"/>
	<path class="st24" d="M113.2,173.2l-1.9-1.4c0-2-6.5-6.7-6.5-6.7s0-8-0.2-10.7s-1.9-2.5-1.9-2.5c-0.3,0-0.6,0-0.8,0.1
		c0,0.6-0.1,4.2-0.9,6.8c-0.5,1.7-1.4,3.8-2.3,5.6c0.2,2.1,0.6,4.2,1,4.9c0.7,1,4.8,4.7,6.9,5.4c0.8,0.2,1.6,0.7,2.4,0.7l1.9,0.8
		C110.7,175.2,113.2,173.2,113.2,173.2z"/>
	<path class="st27" d="M111,174c-0.3,0.3-0.7,0.9-1,1.5s-0.6,1.5-0.2,1.7s1.3-0.6,1.7-0.6c0.4-0.1,1.2,0.4,2.1,0.8
		c1,0.3,1.2,0.4,1.2,0.7c0,0.3,0.5,1.2,0.5,1.2s0,1.4,0.7,2s1.8-0.6,1.6-2.7c-0.1-2.1-0.3-3.2-1.8-4s-2.8-1.4-2.8-1.4
		S111.4,173.7,111,174z"/>
	<g>
		<path class="st26" d="M111.1,176.6c0-0.1,1.3-0.7,1.3-0.7V175c0,0,0.7-0.3,1-0.2c0.2,0.1,1.2,0.8,1.3,1.3c0,0.3,0.1,1,0.2,1.7
			c-0.2-0.1-0.5-0.3-1.1-0.5c-1-0.3-1.8-0.8-2.1-0.8c-0.1,0-0.4,0.1-0.6,0.3C111,176.7,111.1,176.6,111.1,176.6z"/>
		<path class="st26" d="M116.1,181.3c-0.5-0.4-0.6-1.1-0.7-1.6c0.1-0.1,0.2-0.3,0.4-0.3c0.3-0.1,0.5-0.7,0.4-1.1
			c-0.1-0.5,0.2-1,0.3-0.8c0.1,0.2,0.2,1,0.3,1.2c0.2,0.2,0.4,0.1,0.9,0.4C117.8,180.9,116.8,181.8,116.1,181.3z"/>
	</g>
	<path class="st26" d="M91.3,152.3c0,0,1.4-1.3,1.5-2.5c0.1-1.2,4.6,2.1,4.6,2.1l1.5,3.4c0,0,0.4,1.2-0.6,2.2
		C97.4,158.4,92.9,159.3,91.3,152.3z"/>
	<path class="st25" d="M90.9,152.4c0.1-1.8,1.9-2.7,1.9-2.7l-0.3,0.9c-0.6,5.5,4.8,7,4.8,7c1.6-0.7,1.2-2.4,1.2-2.4l1.6-0.3
		c0.5,3.6-1.6,4.8-1.6,4.8l-1.3-1.7l-1.3,2.5C92.5,159.2,90.8,154.3,90.9,152.4z"/>
	<g>
		<path class="st27" d="M92.5,150.7c0,0-1.8-4.4-0.9-7.1c0.9-2.8,4-5.1,8-3.7c4,1.4,4.6,4.5,4.9,5.9c0.3,1.3,0,2.4-0.4,3.1
			c-0.4,0.6-0.3,1.8-0.3,2.2s0.6,1.8,0,2c-0.5,0.2-0.6,0.2-0.6,0.2s-0.3,2.6-1.3,3.1s-4.9-0.6-6.9-2.5
			C93.1,151.9,92.5,150.7,92.5,150.7z"/>
		<path class="st43" d="M98.3,138.7c4.9,0.1,7,4.1,7.1,5.1s-1,1.7-1,1.7c-0.2,0.4-0.5,0.7-1,0.7c-1.1,0.1-4.6-0.9-5.3,0.2
			c-0.7,1-0.8,1.1-1.1,1.4c-0.3,0.3-0.9,0.6-0.9,1s-0.6,1-0.6,1s-1-1.7-2.4-1.2c-0.6,0.2-0.8,0.6-1,1c-0.3-0.9-0.6-2.2-0.7-3.5l0,0
			C90.3,142.6,93.4,138.6,98.3,138.7z"/>
		<path class="st44" d="M93.1,148.6c-0.6,0.2-0.8,0.6-1,1c-0.3-0.9-0.6-2.2-0.7-3.5c2.3,1.5,5.2,1.2,6.4,1c-0.4,0.5-0.5,0.6-0.7,0.8
			c-0.3,0.3-0.9,0.6-0.9,1s-0.6,1-0.6,1S94.5,148.1,93.1,148.6z"/>
		<path class="st26" d="M104.1,152.2c-0.3-0.9-0.8-2.2-0.7-2.5c0-0.3,0.6-0.8,0.9-1.1c-0.1,0.1-0.1,0.3-0.2,0.4
			c-0.4,0.6-0.3,1.8-0.3,2.2C103.9,151.3,104,151.7,104.1,152.2z"/>
		<path class="st27" d="M94.2,148.9c-0.2-0.4-1.3-1.1-1.8-0.4c-0.5,0.7,0.4,2.4,0.9,2.9c0.5,0.6,1.3,0.6,1.1-0.5
			C94.2,149.7,94.4,149.3,94.2,148.9z"/>
	</g>
	<path class="st22" d="M5.9,204.7c4.6-2.7,17.6,0.5,29,7.1c9.3,5.4,14.7,11.3,13.9,14.8v2.8c-0.2,0.8-0.7,1.5-1.5,2
		c-4.6,2.7-17.6-0.5-29-7.1c-8.8-5.1-14.1-10.7-14-14.3v-2.8C4.4,206.2,4.9,205.3,5.9,204.7z"/>
	<path class="st36" d="M5.9,204.7c-1,0.6-1.6,1.5-1.6,2.5c-0.2,3.5,5.1,9.2,14,14.3c11.4,6.6,24.4,9.8,29,7.1c0.9-0.5,1.4-1.2,1.5-2
		c0.8-3.5-4.6-9.4-13.9-14.8C23.5,205.3,10.5,202.1,5.9,204.7z"/>
	<path class="st22" d="M11.1,195c3.5-2,13.2,0.4,21.8,5.4c7,4,11,8.5,10.5,11.1v11.4c-0.1,0.6-0.5,1.1-1.2,1.5
		c-3.5,2-13.2-0.4-21.8-5.4c-6.6-3.8-10.6-8.1-10.5-10.7v-11.4C9.9,196.1,10.3,195.5,11.1,195z"/>
	<path class="st0" d="M7.4,52.6c4.3-2.5,16.4,0.5,27,6.7c8.6,5,13.7,10.5,13,13.8v143.6c-0.2,0.7-0.6,1.4-1.4,1.8
		c-4.3,2.5-16.4-0.5-27-6.7c-8.2-4.7-13.2-10-13-13.3V54.9C5.9,54,6.4,53.2,7.4,52.6z"/>
	<path class="st1" d="M18.9,68.2c10.6,6.1,22.7,9.1,27,6.7c0.8-0.5,1.3-1.1,1.4-1.8v143.6c-0.2,0.7-0.6,1.4-1.4,1.8
		c-4.3,2.5-16.4-0.5-27-6.7c-8.2-4.7-13.2-10-13-13.3V54.9C5.7,58.2,10.7,63.5,18.9,68.2z"/>
	<path class="st3" d="M18.9,192.3c10.6,6.1,22.7,9.1,27,6.7c0.8-0.5,1.3-1.1,1.4-1.8v19.4c-0.2,0.7-0.6,1.4-1.4,1.8
		c-4.3,2.5-16.4-0.5-27-6.7c-8.2-4.7-13.2-10-13-13.3V179C5.7,182.3,10.7,187.6,18.9,192.3z"/>
	<path class="st3" d="M18.9,91.4c10.6,6.1,22.7,9.1,27,6.7c0.8-0.5,1.3-1.1,1.4-1.8V130c-0.2,0.7-0.6,1.4-1.4,1.8
		c-4.3,2.5-16.4-0.5-27-6.7c-8.2-4.7-13.2-10-13-13.3V78C5.7,81.4,10.7,86.7,18.9,91.4z"/>
	<path class="st3" d="M18.9,79.8c10.6,6.1,22.7,9.1,27,6.7c0.8-0.5,1.3-1.1,1.4-1.8v33.8c-0.2,0.7-0.6,1.4-1.4,1.8
		c-4.3,2.5-16.4-0.5-27-6.7c-8.2-4.7-13.2-10-13-13.3V66.5C5.7,69.8,10.7,75.1,18.9,79.8z"/>
	<path class="st0" d="M18.9,68.2c10.6,6.1,22.7,9.1,27,6.7c0.8-0.5,1.3-1.1,1.4-1.8v33.8c-0.2,0.7-0.6,1.4-1.4,1.8
		c-4.3,2.5-16.4-0.5-27-6.7c-8.2-4.7-13.2-10-13-13.3V54.9C5.7,58.2,10.7,63.5,18.9,68.2z"/>
	<polygon class="st36" points="220,251.6 217.5,255.8 217.5,268 233,259.1 	"/>
	<path class="st2" d="M217.5,268v-12.2l12.9-22.3l-12.8-7.4l12.8-22.1l-12.8-7.4l12.7-21.9v-12.6l-15.2-8.8l-0.6,0.3V166l-12.9,22.3
		l12.7,7.4L201.6,218l12.8,7.4l-12.5,21.7l0,0v13.1L217,269l16-9.2v-0.7L217.5,268z"/>
	<polygon class="st45" points="233,259.8 217,269 217,255.9 229.6,234 216.8,226.6 229.6,204.5 216.8,197.1 229.7,174.8 
		229.7,162.5 230.3,162.2 230.3,174.7 217.7,196.6 230.4,204 217.7,226.1 230.4,233.5 217.5,255.8 217.5,268 233,259.1 	"/>
	<polygon class="st46" points="229.7,174.8 214.6,166 214.6,153.7 229.7,162.5 	"/>
	<polygon class="st46" points="217,269 201.8,260.2 201.8,247.1 217,255.9 	"/>
	
		<linearGradient id="SVGID_13_" gradientUnits="userSpaceOnUse" x1="224.4835" y1="-61.5343" x2="199.8954" y2="-103.5686" gradientTransform="matrix(1 0 0 -1 0 164)">
		<stop  offset="0" style="stop-color:#FFFFFF"/>
		<stop  offset="1" style="stop-color:#000000"/>
	</linearGradient>
	<polygon class="st47" points="217,255.9 201.8,247.1 214.4,225.2 229.6,234 	"/>
	<polygon class="st48" points="203.9,246.8 215.4,226.9 228.1,234.3 216.6,254.2 	"/>
	<polygon class="st49" points="203.6,246.8 215.1,226.9 227.8,234.3 216.3,254.2 	"/>
	<polygon class="st49" points="203.6,246.8 215.1,226.9 227.8,234.3 216.3,254.2 	"/>
	<polygon class="st3" points="223.7,241.5 227.8,234.3 215.1,226.9 210.9,234.1 	"/>
	<polygon class="st3" points="225,239.2 227.8,234.3 215.1,226.9 212.3,231.8 	"/>
	<polygon class="st36" points="202.3,246.2 217.5,255 218.1,253.9 202.9,245.1 	"/>
	<polygon class="st48" points="202.1,246.6 217.3,255.4 217.5,255 202.3,246.2 	"/>
	
		<linearGradient id="SVGID_14_" gradientUnits="userSpaceOnUse" x1="224.6382" y1="-2.2697" x2="199.5943" y2="-45.0833" gradientTransform="matrix(1 0 0 -1 0 164)">
		<stop  offset="0" style="stop-color:#FFFFFF"/>
		<stop  offset="1" style="stop-color:#000000"/>
	</linearGradient>
	<polygon class="st50" points="216.8,197.1 201.7,188.3 214.6,166 229.7,174.8 	"/>
	<polygon class="st48" points="204,187.6 215.5,167.8 228.2,175.1 216.7,195 	"/>
	<polygon class="st49" points="203.7,187.6 215.2,167.7 227.9,175.1 216.5,195 	"/>
	<polygon class="st48" points="202.2,187.4 217.4,196.2 217.6,195.8 202.4,187 	"/>
	
		<linearGradient id="SVGID_15_" gradientUnits="userSpaceOnUse" x1="224.4984" y1="-31.9523" x2="199.4549" y2="-74.7654" gradientTransform="matrix(1 0 0 -1 0 164)">
		<stop  offset="0" style="stop-color:#FFFFFF"/>
		<stop  offset="1" style="stop-color:#000000"/>
	</linearGradient>
	<polygon class="st51" points="216.7,226.8 201.6,218 214.4,195.7 229.6,204.5 	"/>
	<polygon class="st48" points="203.9,217.3 215.4,197.4 228.1,204.8 216.6,224.7 	"/>
	<polygon class="st49" points="203.6,217.3 215.1,197.4 227.8,204.8 216.3,224.7 	"/>
	<polygon class="st49" points="203.6,217.3 215.1,197.4 227.8,204.8 216.3,224.7 	"/>
	<polygon class="st3" points="223.7,212 227.8,204.8 215.1,197.4 210.9,204.6 	"/>
	<polygon class="st3" points="225,209.7 227.8,204.8 215.1,197.4 212.3,202.3 	"/>
	<polygon class="st36" points="202.3,216.7 217.5,225.5 218.1,224.4 202.9,215.6 	"/>
	
		<rect x="209.5" y="212.5" transform="matrix(0.5022 -0.8647 0.8647 0.5022 -86.9356 291.4942)" class="st48" width="0.4" height="17.5"/>
	<polygon class="st52" points="226.1,210.6 229.6,204.5 214.4,195.7 210.9,201.8 	"/>
	<polygon class="st52" points="216.8,226.6 216.7,226.8 214.3,225.4 210.9,231.3 226.1,240.1 229.6,234 	"/>
	<polygon class="st49" points="203.7,187.6 215.2,167.7 227.9,175.1 216.5,195 	"/>
	<polygon class="st3" points="223.8,182.3 227.9,175.1 215.2,167.7 211.1,174.9 	"/>
	<polygon class="st3" points="225.1,180 227.9,175.1 215.2,167.7 212.4,172.6 	"/>
	<polygon class="st36" points="202.4,187 217.6,195.8 218.2,194.7 203.1,185.9 	"/>
</g>
</svg>
