<?xml version="1.0" encoding="utf-8"?>
<!-- Generator: Adobe Illustrator 25.1.0, SVG Export Plug-In . SVG Version: 6.00 Build 0)  -->
<svg version="1.1" id="mosaic" xmlns="http://www.w3.org/2000/svg" xmlns:xlink="http://www.w3.org/1999/xlink" x="0px" y="0px"
	 viewBox="0 0 149 207" style="enable-background:new 0 0 149 207;" xml:space="preserve">
<style type="text/css">
	.st0{fill:#C35C0E;}
	.st1{fill:#3967A8;}
	.st2{fill:#637CC5;}
	.st3{fill:#60B9CB;}
	.st4{fill:#3A6AAD;}
	.st5{fill:#1574F5;}
	.st6{fill:#F36D00;}
	.st7{fill:#DB6610;}
</style>
<g id="mosaic_icon">
	<path class="st0" d="M48.8,148.5L34,157.1c-0.4,0.2-1,0.2-1.6-0.2l14.8-8.6C47.9,148.7,48.4,148.7,48.8,148.5L48.8,148.5z"/>
	<path class="st0" d="M4.9,106.5l14.8-8.6c-0.4,0.2-0.7,0.7-0.7,1.5L4.2,108C4.2,107.2,4.5,106.7,4.9,106.5L4.9,106.5z"/>
	<path class="st1" d="M48.8,148.5L34,157.1c0.4-0.2,0.7-0.7,0.7-1.5l14.8-8.6C49.5,147.7,49.3,148.2,48.8,148.5L48.8,148.5z"/>
	<polygon class="st0" points="8.8,83.2 23.6,74.6 23.5,99.4 8.8,108 	"/>
	<path class="st1" d="M4.9,106.5l14.8-8.6c0.4-0.2,1-0.2,1.6,0.2l-14.8,8.6C5.9,106.3,5.3,106.3,4.9,106.5L4.9,106.5z"/>
	<polygon class="st1" points="34.8,153 49.5,144.4 49.5,147 34.8,155.6 	"/>
	<polygon class="st1" points="6.5,106.6 21.2,98.1 23.5,99.4 8.8,108 	"/>
	<polygon class="st2" points="30.3,125.6 30.2,150.4 8.7,137.9 8.7,113.2 	"/>
	<polygon class="st1" points="8.7,113.2 23.5,104.6 45,117 30.3,125.6 	"/>
	<polygon class="st1" points="30.3,125.6 45,117 45,141.8 30.2,150.4 	"/>
	<polygon class="st2" points="30.3,125.6 45,117 45,141.8 30.2,150.4 	"/>
	<polygon class="st2" points="8.7,113.2 23.5,104.6 45,117 30.3,125.6 	"/>
	<path class="st1" d="M32.6,121.7c1.2,0.7,2.3,2.5,2.3,3.9v2.6L34.8,153v2.6c0,1.4-1,2-2.3,1.3L6.4,141.8c-1.2-0.7-2.3-2.5-2.3-3.9
		l0.1-30c0-1.4,1-2,2.3-1.3l2.3,1.3l21.5,12.4L32.6,121.7L32.6,121.7z"/>
	<polygon class="st1" points="30.2,150.4 8.7,137.9 8.7,113.2 30.3,125.6 	"/>
	<path class="st0" d="M56.3,168l14.8-8.6c0,1.4,1,3.2,2.3,3.9L58.6,172C57.3,171.2,56.3,169.5,56.3,168L56.3,168z"/>
	<path class="st0" d="M4.3,78l14.8-8.6c0,1.4,1,3.2,2.3,3.9L6.6,81.9C5.3,81.2,4.3,79.4,4.3,78L4.3,78z"/>
	<polygon class="st0" points="34.8,153 49.5,144.4 71.1,156.9 56.3,165.4 	"/>
	<polygon class="st1" points="34.8,128.2 49.6,119.7 49.5,144.4 34.8,153 	"/>
	<polygon class="st1" points="8.8,108 23.5,99.4 45.1,111.8 30.3,120.4 	"/>
	<polygon class="st1" points="34.8,125.6 49.6,117.1 49.6,119.7 34.8,128.2 	"/>
	<polygon class="st1" points="30.3,120.4 45.1,111.8 47.3,113.1 32.6,121.7 	"/>
	<polygon class="st3" points="30.4,95.6 45.1,87.1 45.1,111.8 30.3,120.4 	"/>
	<polygon class="st0" points="30.4,95.6 45.1,87.1 45.1,111.8 30.3,120.4 	"/>
	<polygon class="st1" points="34.9,98.3 49.7,89.7 49.6,114.4 34.8,123 	"/>
	<path class="st1" d="M32.6,121.7l14.8-8.6c1.2,0.7,2.3,2.5,2.3,3.9l-14.8,8.6C34.8,124.2,33.8,122.4,32.6,121.7L32.6,121.7z"/>
	<polygon class="st3" points="56.4,140.7 56.3,165.4 34.8,153 34.8,128.2 	"/>
	<polygon class="st0" points="34.8,128.2 49.6,119.7 71.1,132.1 56.4,140.7 	"/>
	<polygon class="st3" points="34.8,128.2 49.6,119.7 71.1,132.1 56.4,140.7 	"/>
	<polygon class="st3" points="56.4,140.7 71.1,132.1 71.1,156.9 56.3,165.4 	"/>
	<polygon class="st0" points="56.4,140.7 71.1,132.1 71.1,159.5 56.3,168 	"/>
	<path class="st0" d="M56.4,140.7L56.3,168c0,1.4,1,3.2,2.3,3.9l-26.1-15.1c1.2,0.7,2.3,0.1,2.3-1.3v-2.6l21.5,12.4L56.4,140.7
		l-21.5-12.4L56.4,140.7L56.4,140.7z"/>
	<polygon class="st3" points="8.8,83.2 23.6,74.6 45.1,87.1 30.4,95.6 	"/>
	<polygon class="st0" points="6.6,81.9 21.3,73.3 45.1,87.1 30.4,95.6 	"/>
	<polygon class="st1" points="30.4,93 45.1,84.5 45.1,87.1 30.4,95.6 	"/>
	<path class="st0" d="M4.3,78c0,1.4,1,3.2,2.3,3.9l23.8,13.8l-0.1,24.8l0.1-24.8L8.8,83.2V108l-2.3-1.3c-1.2-0.7-2.3-0.1-2.3,1.3
		L4.3,78L4.3,78z"/>
	<polygon class="st3" points="30.4,95.6 30.3,120.4 8.8,108 8.8,83.2 	"/>
	<polygon class="st1" points="56.4,138.1 71.1,129.5 71.1,132.1 56.4,140.7 	"/>
	<path class="st0" d="M101,178.6l-14.8,8.6c-0.4,0.2-1,0.2-1.6-0.2l14.8-8.6C100,178.8,100.6,178.8,101,178.6L101,178.6z"/>
	<path class="st1" d="M57,136.6l14.8-8.6c-0.4,0.2-0.7,0.7-0.7,1.5l-14.8,8.6C56.4,137.4,56.6,136.9,57,136.6L57,136.6z"/>
	<polygon class="st2" points="56.5,110.7 71.2,102.1 71.1,126.9 56.4,135.5 	"/>
	<polygon class="st1" points="34.8,123 49.6,114.4 71.1,126.9 56.4,135.5 	"/>
	<path class="st1" d="M31,91.6L45.8,83c-0.4,0.2-0.7,0.7-0.7,1.5L30.4,93C30.4,92.3,30.6,91.8,31,91.6L31,91.6z"/>
	<polygon class="st2" points="30.5,65.7 45.2,57.1 45.1,81.9 30.4,90.4 	"/>
	<polygon class="st1" points="8.8,78 23.6,69.4 45.1,81.9 30.4,90.4 	"/>
	<polygon class="st1" points="8.9,53.2 23.7,44.6 23.6,69.4 8.8,78 	"/>
	<path class="st0" d="M19.8,38c-0.4,0.2-0.7,0.7-0.7,1.5L4.4,48c0-0.7,0.3-1.2,0.7-1.5C9.5,44,15.4,40.5,19.8,38L19.8,38z"/>
	<path class="st1" d="M101,178.6l-14.8,8.6c0.4-0.2,0.7-0.7,0.7-1.5l14.8-8.6C101.7,177.9,101.4,178.4,101,178.6L101,178.6z"/>
	<polygon class="st1" points="58.7,136.8 73.4,128.2 75.7,129.5 60.9,138.1 	"/>
	<polygon class="st1" points="61,113.3 75.8,104.7 75.7,129.5 60.9,138.1 	"/>
	<path class="st1" d="M57,136.6l14.8-8.6c0.4-0.2,1-0.2,1.6,0.2l-14.8,8.6C58,136.4,57.5,136.4,57,136.6L57,136.6z"/>
	<polygon class="st1" points="32.7,91.7 47.4,83.2 49.7,84.5 34.9,93 	"/>
	<polygon class="st1" points="35,68.3 49.8,59.7 49.7,84.5 34.9,93 	"/>
	<path class="st1" d="M31,91.6L45.8,83c0.4-0.2,1-0.2,1.6,0.2l-14.8,8.6C32,91.4,31.5,91.3,31,91.6L31,91.6z"/>
	<polygon class="st0" points="9,23.2 23.8,14.7 23.7,39.4 8.9,48 	"/>
	<path class="st1" d="M5.1,46.5l14.8-8.6c0.4-0.2,1-0.2,1.6,0.2L6.7,46.7C6,46.3,5.5,46.3,5.1,46.5L5.1,46.5z"/>
	<polygon class="st1" points="86.9,183.1 101.7,174.5 101.7,177.2 86.9,185.7 	"/>
	<polygon class="st1" points="6.7,46.7 21.4,38.1 23.7,39.4 8.9,48 	"/>
	<polygon class="st1" points="60.9,143.3 75.7,134.7 97.2,147.2 82.5,155.7 	"/>
	<polygon class="st1" points="82.4,180.5 60.8,168.1 60.9,143.3 82.5,155.7 	"/>
	<polygon class="st1" points="82.5,155.7 97.2,147.2 97.2,171.9 82.4,180.5 	"/>
	<polygon class="st2" points="60.9,143.3 75.7,134.7 97.2,147.2 82.5,155.7 	"/>
	<polygon class="st2" points="82.5,155.7 82.4,180.5 60.8,168.1 60.9,143.3 	"/>
	<polygon class="st2" points="82.5,155.7 97.2,147.2 97.2,171.9 82.4,180.5 	"/>
	<polygon class="st2" points="34.9,98.3 49.7,89.7 71.2,102.1 56.5,110.7 	"/>
	<path class="st1" d="M56.4,135.5l0.1-24.8L35,98.3L34.8,123L56.4,135.5L56.4,135.5L56.4,135.5z M58.8,106.8
		c1.3,0.7,2.3,2.5,2.3,3.9v2.6L61,138.1l-2.3-1.3c-1.3-0.7-2.3-0.1-2.3,1.3v2.6l-21.5-12.4v-2.6c0-1.4-1-3.2-2.3-3.9l-2.3-1.3
		l0.1-24.8v-2.6c0-1.4,1-2,2.3-1.3l2.3,1.3l21.5,12.4L58.8,106.8L58.8,106.8z"/>
	<polygon class="st2" points="56.5,110.7 56.4,135.5 34.8,123 34.9,98.3 	"/>
	<polygon class="st2" points="8.9,53.2 23.7,44.6 45.2,57.1 30.5,65.7 	"/>
	<polygon class="st2" points="30.5,65.7 30.4,90.4 8.8,78 8.9,53.2 	"/>
	<polygon class="st0" points="86.9,183.1 101.7,174.5 123.2,187 108.5,195.6 	"/>
	<polygon class="st1" points="87,158.4 101.8,149.8 101.7,174.5 86.9,183.1 	"/>
	<polygon class="st3" points="82.6,125.8 97.3,117.2 97.2,142 82.5,150.5 	"/>
	<polygon class="st1" points="60.9,138.1 75.7,129.5 97.2,142 82.5,150.5 	"/>
	<polygon class="st3" points="56.5,80.7 71.3,72.1 71.2,96.9 56.5,105.5 	"/>
	<polygon class="st1" points="34.9,93 49.7,84.5 71.2,96.9 56.5,105.5 	"/>
	<path class="st0" d="M31.2,31.6L46,23c-0.4,0.2-0.7,0.7-0.7,1.5l-14.8,8.6C30.6,32.4,30.8,31.9,31.2,31.6L31.2,31.6z"/>
	<path class="st1" d="M31.2,31.6L46,23c0.4-0.2,1-0.2,1.6,0.2l-14.8,8.6C32.2,31.4,31.6,31.4,31.2,31.6L31.2,31.6z"/>
	<path class="st0" d="M32.8,31.8c-1.3-0.7-2.3-0.1-2.3,1.3l-0.1,27.4l0.1-24.8L9,23.2L8.9,48l-2.3-1.3C5.4,46,4.3,46.6,4.3,48
		l0.1-30c0-1.4,1-2,2.3-1.3L32.8,31.8L32.8,31.8z"/>
	<path class="st3" d="M32.8,31.8L32.8,31.8l-2.3,1.3c0-0.7,0.3-1.2,0.7-1.5l10.9-6.3L23.7,14.7L9,23.2l21.5,12.4L45.3,27l-2.2-1.3
		L32.8,31.8L32.8,31.8z"/>
	<path class="st0" d="M32.8,31.8L32.8,31.8l-2.3,1.3l-0.1,27.4l14.8-8.6l0.1-27.3L32.8,31.8L32.8,31.8z"/>
	<polygon class="st3" points="30.5,35.7 45.3,27.1 45.2,51.9 30.5,60.4 	"/>
	<path class="st1" d="M23.7,39.4L8.9,48l0,0l0,0l21.5,12.4V43.3L23.7,39.4L23.7,39.4z M30.5,43.4v17.1l14.8-8.6L30.5,43.4L30.5,43.4
		z"/>
	<path class="st0" d="M127.1,193.7l-14.8,8.6c0.4-0.2,0.7-0.7,0.7-1.5l14.8-8.6C127.8,192.9,127.5,193.4,127.1,193.7L127.1,193.7z"
		/>
	<polygon class="st1" points="87,155.8 101.8,147.2 101.8,149.8 87,158.4 	"/>
	<polygon class="st1" points="82.5,150.5 97.2,142 99.5,143.3 84.8,151.8 	"/>
	<polygon class="st1" points="61,110.7 75.8,102.1 75.8,104.7 61,113.3 	"/>
	<polygon class="st1" points="56.5,105.5 71.2,96.9 73.5,98.2 58.8,106.8 	"/>
	<polygon class="st1" points="35,65.7 49.8,57.1 49.8,59.7 35,68.3 	"/>
	<polygon class="st1" points="30.5,60.4 45.2,51.9 47.5,53.2 32.8,61.8 	"/>
	<path class="st0" d="M5.1,16.6L19.9,8c0.4-0.2,1-0.2,1.6,0.2L6.7,16.8C6.1,16.4,5.5,16.3,5.1,16.6L5.1,16.6z"/>
	<path class="st4" d="M84.8,151.8c1.3,0.7,2.3,2.5,2.3,3.9v2.6L87,183.1v2.6c0,1.4-1,2-2.3,1.3l-26.1-15c-1.3-0.7-2.3-2.5-2.3-3.9
		l0.1-27.4v-2.6c0-1.4,1-2,2.3-1.3l2.3,1.3l21.6,12.4L84.8,151.8L84.8,151.8z"/>
	<polygon class="st1" points="87.1,128.4 101.8,119.8 101.8,144.6 87,153.1 	"/>
	<path class="st1" d="M84.8,151.8l14.8-8.6c1.3,0.7,2.3,2.5,2.3,3.9L87,155.8C87,154.3,86,152.6,84.8,151.8L84.8,151.8z"/>
	<path class="st1" d="M58.8,106.8l14.8-8.6c1.3,0.7,2.3,2.5,2.3,3.9L61,110.7C61,109.3,60,107.5,58.8,106.8L58.8,106.8z"/>
	<polygon class="st1" points="35.1,38.3 49.8,29.7 49.8,54.5 35,63.1 	"/>
	<path class="st1" d="M32.8,61.8l14.8-8.6c1.2,0.7,2.3,2.5,2.3,3.9L35,65.7C35,64.2,34,62.5,32.8,61.8L32.8,61.8z"/>
	<path class="st1" d="M30.4,90.4l0.1-24.8L8.9,53.2L8.8,78L30.4,90.4L30.4,90.4L30.4,90.4z M32.8,61.8c1.2,0.7,2.3,2.5,2.3,3.9v2.6
		L34.9,93l-2.3-1.3c-1.3-0.7-2.3-0.1-2.3,1.3v2.6L6.6,81.9c-1.2-0.7-2.3-2.5-2.3-3.9l0.1-30c0-1.4,1-2,2.3-1.3L9,48l21.5,12.4
		L32.8,61.8L32.8,61.8z"/>
	<polygon class="st3" points="108.6,170.8 123.3,162.2 123.2,187 108.5,195.6 	"/>
	<polygon class="st3" points="108.6,170.8 108.5,195.6 86.9,183.1 87,158.4 	"/>
	<polygon class="st3" points="87,158.4 101.8,149.8 123.3,162.2 108.6,170.8 	"/>
	<polygon class="st3" points="61,113.3 75.8,104.7 97.3,117.2 82.6,125.8 	"/>
	<polygon class="st1" points="82.6,123.2 97.3,114.6 97.3,117.2 82.6,125.8 	"/>
	<polygon class="st3" points="82.6,125.8 82.5,150.5 60.9,138.1 61,113.3 	"/>
	<polygon class="st3" points="35,68.3 49.8,59.7 71.3,72.1 56.5,80.7 	"/>
	<polygon class="st3" points="56.5,80.7 56.5,105.5 34.9,93 35,68.3 	"/>
	<polygon class="st3" points="30.5,35.7 30.5,60.4 8.9,48 9,23.2 	"/>
	<polygon class="st0" points="87,158.4 101.8,149.8 125.6,163.5 110.8,172.1 	"/>
	<polygon class="st1" points="56.6,78.1 71.3,69.5 71.3,72.1 56.5,80.7 	"/>
	<polygon class="st1" points="87,153.1 101.8,144.6 123.3,157 108.6,165.6 	"/>
	<polygon class="st2" points="108.6,140.8 123.4,132.3 123.3,157 108.6,165.6 	"/>
	<polygon class="st1" points="113.2,140.8 127.9,132.3 127.9,162.2 113.1,170.8 	"/>
	<path class="st0" d="M127.2,163.7l-14.8,8.6c-0.4,0.2-1,0.2-1.6-0.2l14.8-8.6C126.2,163.9,126.8,163.9,127.2,163.7L127.2,163.7z"/>
	<path class="st1" d="M83.2,121.7l14.8-8.6c-0.4,0.2-0.7,0.7-0.7,1.5l-14.8,8.6C82.6,122.4,82.8,121.9,83.2,121.7L83.2,121.7z"/>
	<path class="st1" d="M57.2,76.7L72,68.1c-0.4,0.2-0.7,0.7-0.7,1.5l-14.8,8.6C56.6,77.4,56.8,76.9,57.2,76.7L57.2,76.7z"/>
	<polygon class="st2" points="56.6,50.7 71.4,42.2 71.3,66.9 56.6,75.5 	"/>
	<polygon class="st1" points="35,63.1 49.8,54.5 71.3,66.9 56.6,75.5 	"/>
	<polygon class="st0" points="113.1,170.8 127.9,162.2 127.8,192.2 113,200.8 	"/>
	<path class="st1" d="M127.2,163.7l-14.8,8.6c0.4-0.2,0.7-0.7,0.7-1.5l14.8-8.6C127.8,163,127.6,163.5,127.2,163.7L127.2,163.7z"/>
	<polygon class="st2" points="87.1,128.4 101.8,119.8 123.4,132.3 108.6,140.8 	"/>
	<polygon class="st2" points="108.6,140.8 108.6,165.6 87,153.1 87.1,128.4 	"/>
	<path class="st1" d="M108.6,165.6l0.1-24.8l-21.5-12.4L87,153.1L108.6,165.6L108.6,165.6L108.6,165.6z M110.9,136.9
		c1.2,0.7,2.3,2.5,2.3,3.9l-0.1,30c0,1.4-1,2-2.3,1.3L87,158.4v-2.6c0-1.4-1-3.2-2.3-3.9l-2.3-1.3l0.1-24.8v-2.6c0-1.4,1-2,2.3-1.3
		l2.3,1.3l21.5,12.4L110.9,136.9L110.9,136.9z"/>
	<path class="st0" d="M113.1,170.8l-0.1,30c0,1.4-1,2-2.3,1.3l-26-15.1c1.3,0.7,2.3,0.1,2.3-1.3v-2.6l21.5,12.4l0.1-24.8L87,158.4
		l23.8,13.8C112.1,172.8,113.1,172.3,113.1,170.8L113.1,170.8z"/>
	<polygon class="st1" points="84.8,121.9 99.6,113.3 101.9,114.6 87.1,123.2 	"/>
	<polygon class="st1" points="82.6,95.8 97.4,87.2 97.3,112 82.6,120.6 	"/>
	<polygon class="st2" points="82.6,95.8 97.4,87.2 97.3,112 82.6,120.6 	"/>
	<polygon class="st1" points="87.2,98.4 101.9,89.8 101.9,114.6 87.1,123.2 	"/>
	<path class="st1" d="M83.2,121.7l14.8-8.6c0.4-0.2,1-0.2,1.6,0.2l-14.8,8.6C84.2,121.5,83.6,121.5,83.2,121.7L83.2,121.7z"/>
	<polygon class="st1" points="58.8,76.8 73.6,68.2 75.9,69.6 61.1,78.1 	"/>
	<polygon class="st1" points="61.2,53.4 75.9,44.8 75.9,69.6 61.1,78.1 	"/>
	<path class="st1" d="M57.2,76.7L72,68.1c0.4-0.2,1-0.2,1.6,0.2l-14.8,8.6C58.2,76.5,57.6,76.4,57.2,76.7L57.2,76.7z"/>
	<polygon class="st0" points="6.7,16.7 21.5,8.1 47.6,23.2 32.8,31.8 	"/>
	<polygon class="st1" points="61.1,83.3 75.8,74.8 97.4,87.2 82.6,95.8 	"/>
	<polygon class="st1" points="82.6,120.6 61,108.1 61.1,83.3 82.6,95.8 	"/>
	<polygon class="st2" points="61.1,83.3 75.8,74.8 97.4,87.2 82.6,95.8 	"/>
	<polygon class="st2" points="82.6,95.8 82.6,120.6 61,108.1 61.1,83.3 	"/>
	<polygon class="st2" points="35.1,38.3 49.8,29.7 71.4,42.2 56.6,50.7 	"/>
	<polygon class="st2" points="56.6,50.7 56.6,75.5 35,63.1 35.1,38.3 	"/>
	<polygon class="st3" points="108.7,110.8 123.5,102.3 123.4,127 108.7,135.6 	"/>
	<polygon class="st1" points="87.1,123.2 101.9,114.6 123.4,127 108.7,135.6 	"/>
	<polygon class="st1" points="61.2,50.8 75.9,42.2 75.9,44.8 61.2,53.4 	"/>
	<path class="st0" d="M83.4,61.7l14.8-8.6c-0.4,0.2-0.7,0.7-0.7,1.5l-14.8,8.6C82.7,62.5,83,62,83.4,61.7L83.4,61.7z"/>
	<path class="st1" d="M83.4,61.7l14.8-8.6c0.4-0.2,1-0.2,1.6,0.2L85,61.9C84.4,61.5,83.8,61.5,83.4,61.7L83.4,61.7z"/>
	<polygon class="st0" points="58.9,46.8 73.7,38.3 99.8,53.3 85,61.9 	"/>
	<path class="st1" d="M58.9,46.8l14.8-8.6c1.3,0.7,2.3,2.5,2.3,3.9l-14.8,8.6C61.2,49.3,60.2,47.6,58.9,46.8L58.9,46.8z"/>
	<path class="st0" d="M85,61.9c-1.2-0.7-2.3-0.1-2.3,1.3l-0.1,27.4l0.1-24.8L61.1,53.4v-2.6c0-1.4-1-3.2-2.3-3.9L85,61.9L85,61.9z"
		/>
	<path class="st3" d="M85,61.9L85,61.9l-2.3,1.3c0-0.7,0.3-1.2,0.7-1.5l0,0l0,0l0.7-0.4L65.7,50.7l-4.5,2.6l21.6,12.4l14.8-8.6
		l-2.2-1.3L85,61.9L85,61.9z"/>
	<path class="st0" d="M85,61.9L85,61.9l-2.3,1.3l-0.1,27.4L97.4,82l0.1-27.3L85,61.9L85,61.9z"/>
	<polygon class="st3" points="82.7,65.8 97.5,57.2 97.4,82 82.7,90.6 	"/>
	<path class="st1" d="M75.9,69.6l-14.8,8.6l21.6,12.4V73.5L75.9,69.6L75.9,69.6z M82.7,73.5v17.1L97.5,82L82.7,73.5L82.7,73.5z"/>
	<polygon class="st1" points="108.7,135.6 123.4,127 125.7,128.4 110.9,136.9 	"/>
	<polygon class="st1" points="87.2,95.8 101.9,87.2 101.9,89.8 87.2,98.4 	"/>
	<polygon class="st1" points="82.7,90.6 97.4,82 99.7,83.3 84.9,91.9 	"/>
	<polygon class="st1" points="32.8,31.8 47.6,23.2 73.7,38.3 58.9,46.8 	"/>
	<polygon class="st0" points="87.2,98.4 101.9,89.8 125.7,103.6 111,112.2 	"/>
	<polygon class="st3" points="87.2,98.4 101.9,89.8 123.5,102.3 108.7,110.8 	"/>
	<polygon class="st1" points="87.3,68.4 102,59.9 101.9,84.6 87.2,93.2 	"/>
	<path class="st1" d="M84.9,91.9l14.8-8.6c1.3,0.7,2.3,2.5,2.3,3.9l-14.8,8.6C87.2,94.4,86.2,92.6,84.9,91.9L84.9,91.9z"/>
	<polygon class="st2" points="108.8,80.9 123.6,72.3 123.5,97.1 108.7,105.6 	"/>
	<polygon class="st1" points="87.2,93.2 101.9,84.6 123.5,97.1 108.7,105.6 	"/>
	<polygon class="st1" points="113.4,80.9 128.1,72.3 128,102.3 113.3,110.9 	"/>
	<path class="st0" d="M127.4,103.7l-14.8,8.6c-0.4,0.2-1,0.2-1.6-0.2l14.8-8.6C126.4,103.9,126.9,104,127.4,103.7L127.4,103.7z"/>
	<polygon class="st0" points="113.3,110.9 128,102.3 127.9,132.3 113.2,140.8 	"/>
	<path class="st1" d="M110.9,136.9l14.8-8.6c1.2,0.7,2.3,2.5,2.3,3.9l-14.8,8.6C113.2,139.4,112.2,137.6,110.9,136.9L110.9,136.9z"
		/>
	<path class="st1" d="M84.9,91.9c1.3,0.7,2.3,2.5,2.3,3.9v2.6l-0.1,24.8l-2.3-1.3c-1.2-0.7-2.3-0.1-2.3,1.3v2.6L61,113.3v-2.6
		c0-1.4-1-3.2-2.3-3.9l-2.3-1.3l0.1-24.8v-2.6c0-1.4,1-2,2.3-1.3l2.3,1.3l21.6,12.4L84.9,91.9L84.9,91.9z"/>
	<path class="st4" d="M56.6,75.5l0.1-24.8L35.2,38.3L35,63.1L56.6,75.5L56.6,75.5L56.6,75.5z M58.9,46.8c1.3,0.7,2.3,2.5,2.3,3.9
		v2.6l-0.1,24.8l-2.3-1.3c-1.3-0.7-2.3-0.1-2.3,1.3v2.6L35,68.3v-2.6c0-1.4-1-3.2-2.3-3.9l-2.3-1.3l0.1-27.4c0-1.4,1-2,2.3-1.3
		L58.9,46.8L58.9,46.8z"/>
	<polygon class="st3" points="108.7,110.8 108.7,135.6 87.1,123.2 87.2,98.4 	"/>
	<polygon class="st2" points="87.3,68.4 102,59.9 123.6,72.3 108.8,80.9 	"/>
	<path class="st1" d="M108.7,105.6l0.1-24.8L87.3,68.4l-0.1,24.8L108.7,105.6L108.7,105.6L108.7,105.6z M111.1,77
		c1.2,0.7,2.3,2.5,2.3,3.9l-0.1,30c0,1.4-1,2-2.3,1.3L87.2,98.4v-2.6c0-1.4-1-3.2-2.3-3.9l-2.3-1.3l0.1-27.4c0-1.4,1-2,2.3-1.3
		L111.1,77L111.1,77z"/>
	<polygon class="st3" points="82.7,65.8 82.7,90.6 61.1,78.1 61.2,53.4 	"/>
	<path class="st1" d="M127.4,103.7l-14.8,8.6c0.4-0.2,0.7-0.7,0.7-1.5l14.8-8.6C128,103,127.8,103.5,127.4,103.7L127.4,103.7z"/>
	<path class="st0" d="M113.3,110.9l-0.1,30c0-1.4-1-3.2-2.3-3.9l-2.3-1.3l0.1-24.8L87.2,98.5l23.8,13.8
		C112.2,112.9,113.3,112.3,113.3,110.9L113.3,110.9z"/>
	<polygon class="st2" points="108.8,80.9 108.7,105.6 87.2,93.2 87.3,68.4 	"/>
	<polygon class="st1" points="85,61.9 99.8,53.3 125.8,68.4 111.1,77 	"/>
	<path class="st1" d="M111.1,77l14.8-8.6c1.2,0.7,2.3,2.5,2.3,3.9l-14.8,8.6C113.4,79.4,112.3,77.7,111.1,77L111.1,77z"/>
	<polygon class="st4" points="56.6,75.4 35.1,63 35.1,38.2 56.7,50.7 	"/>
	<polygon class="st5" points="56.7,50.7 56.6,75.4 35.1,63 35.1,38.2 	"/>
	<polygon class="st6" points="108.6,170.7 108.5,195.5 87,183 87.1,158.3 	"/>
	<path class="st7" d="M113.1,170.7l-0.1,30c0,1.4-1,2-2.3,1.3l-26.1-15.1c1.3,0.7,2.3,0.1,2.3-1.3V183l21.5,12.4l0.1-24.8L87,158.2
		l23.8,13.8C112.1,172.7,113.1,172.2,113.1,170.7L113.1,170.7z"/>
	<path class="st4" d="M32.6,121.6c1.2,0.7,2.3,2.5,2.3,3.9v2.6l-0.1,24.8v2.6c0,1.4-1,2-2.3,1.3L6.4,141.7c-1.2-0.7-2.3-2.5-2.3-3.9
		l0.1-30c0-1.4,1-2,2.3-1.3l2.3,1.3l21.5,12.4L32.6,121.6L32.6,121.6z"/>
	<polygon class="st5" points="30.3,125.5 30.3,150.3 8.7,137.8 8.8,113.1 	"/>
	<path class="st4" d="M58.8,106.7c1.3,0.7,2.3,2.5,2.3,3.9v2.6L61,138l-2.3-1.3c-1.3-0.7-2.3-0.1-2.3,1.3v2.6l-21.6-12.4v-2.6
		c0-1.4-1-3.2-2.3-3.9l-2.3-1.3l0.1-24.8V93c0-1.4,1-2,2.3-1.3l2.3,1.3l21.6,12.4L58.8,106.7L58.8,106.7z"/>
	<path class="st7" d="M56.4,140.6L56.3,168c0,1.4,1,3.2,2.3,3.9l-26.1-15.1c1.2,0.7,2.3,0.1,2.3-1.3v-2.6l21.6,12.4V140.6
		l-21.6-12.4L56.4,140.6L56.4,140.6z"/>
	<polygon class="st6" points="56.4,140.6 56.4,165.3 34.8,152.9 34.9,128.1 	"/>
	<path class="st4" d="M30.4,90.3l0.1-24.8L9,53.1L8.9,77.9L30.4,90.3L30.4,90.3L30.4,90.3z M32.8,61.7c1.2,0.7,2.3,2.5,2.3,3.9v2.6
		L35,92.9l-2.3-1.3c-1.3-0.7-2.3-0.1-2.3,1.3v2.6L6.6,81.8c-1.2-0.7-2.3-2.5-2.3-3.9l0.1-30c0-1.4,1-2,2.3-1.3L9,47.9l21.5,12.4
		L32.8,61.7L32.8,61.7z"/>
	<path class="st7" d="M4.4,77.9c0,1.4,1,3.2,2.3,3.9l23.8,13.8l-0.1,24.8l0.1-24.8L8.9,83.1l-0.1,24.8l-2.3-1.3
		c-1.2-0.7-2.3-0.1-2.3,1.3L4.4,77.9L4.4,77.9z"/>
	<polygon class="st6" points="30.4,95.5 30.4,120.3 8.8,107.9 8.9,83.1 	"/>
	<polygon class="st4" points="56.4,135.4 34.9,122.9 35,98.2 56.5,110.6 	"/>
	<polygon class="st5" points="56.5,110.6 56.4,135.4 34.9,122.9 35,98.2 	"/>
	<polygon class="st5" points="30.5,65.6 30.4,90.3 8.9,77.9 9,53.1 	"/>
	<polygon class="st6" points="56.6,80.6 56.5,105.4 35,92.9 35,68.2 	"/>
	<polygon class="st6" points="30.6,35.6 30.5,60.3 9,47.9 9,23.1 	"/>
	<path class="st7" d="M32.9,31.7c-1.3-0.7-2.3-0.1-2.3,1.3l-0.1,27.4l0.1-24.8L9,23.1v24.8l-2.3-1.3c-1.2-0.7-2.3-0.1-2.3,1.3
		l0.1-30c0-1.4,1-2,2.3-1.3L32.9,31.7L32.9,31.7z"/>
	<polygon class="st5" points="108.7,140.7 108.6,165.5 87.1,153 87.1,128.3 	"/>
	<polygon class="st5" points="82.7,95.7 82.6,120.5 61.1,108 61.1,83.2 	"/>
	<path class="st4" d="M108.6,165.5l0.1-24.8l-21.5-12.4L87.1,153L108.6,165.5L108.6,165.5L108.6,165.5z M111,136.8
		c1.2,0.7,2.3,2.5,2.3,3.9l-0.1,30c0,1.4-1,2-2.3,1.3l-23.8-13.8v-2.6c0-1.4-1-3.2-2.3-3.9l-2.3-1.3l0.1-24.8V123c0-1.4,1-2,2.3-1.3
		l2.3,1.3l21.5,12.4L111,136.8L111,136.8z"/>
	<path class="st4" d="M82.6,120.5l0.1-24.8L61.2,83.3L61.1,108L82.6,120.5L82.6,120.5L82.6,120.5z M85,91.8c1.3,0.7,2.3,2.5,2.3,3.9
		v2.6l-0.1,24.8l-2.3-1.3c-1.2-0.7-2.3-0.1-2.3,1.3v2.6l-21.5-12.4v-2.6c0-1.4-1-3.2-2.3-3.9l-2.3-1.3l0.1-24.8v-2.6
		c0-1.4,1-2,2.3-1.3l2.3,1.3l21.5,12.4L85,91.8L85,91.8z"/>
	<polygon class="st6" points="108.8,110.7 108.7,135.5 87.2,123.1 87.2,98.3 	"/>
	<polygon class="st6" points="82.8,65.7 82.7,90.5 61.2,78 61.2,53.3 	"/>
	<path class="st7" d="M113.3,110.8l-0.1,30c0-1.4-1-3.2-2.3-3.9l-2.3-1.3l0.1-24.8L87.2,98.4l23.8,13.8
		C112.3,112.8,113.3,112.2,113.3,110.8L113.3,110.8z"/>
	<path class="st4" d="M108.8,105.5l0.1-24.8L87.4,68.3l-0.1,24.8L108.8,105.5L108.8,105.5L108.8,105.5z M111.1,76.9
		c1.2,0.7,2.3,2.5,2.3,3.9l-0.1,30c0,1.4-1,2-2.3,1.3L87.2,98.3v-2.6c0-1.4-1-3.2-2.3-3.9l-2.3-1.3l0.1-27.4c0-1.4,1-2,2.3-1.3
		L111.1,76.9L111.1,76.9z"/>
	<path class="st7" d="M85.1,61.8c-1.2-0.7-2.3-0.1-2.3,1.3l-0.1,27.4l0.1-24.8L61.3,53.3v-2.6c0-1.4-1-3.2-2.3-3.9L85.1,61.8
		L85.1,61.8z"/>
	<polygon class="st6" points="82.6,125.7 82.5,150.4 61,138 61.1,113.2 	"/>
	<polygon class="st5" points="108.9,80.8 108.8,105.5 87.2,93.1 87.3,68.3 	"/>
	<polygon class="st5" points="30.3,150.3 8.7,137.8 8.8,113.1 30.3,125.5 	"/>
	<polygon class="st5" points="82.4,180.4 60.9,168 61,143.2 82.5,155.6 	"/>
	<polygon class="st5" points="82.5,155.6 82.4,180.4 60.9,168 61,143.2 	"/>
</g>
</svg>
