<?xml version="1.0" encoding="utf-8"?>
<!-- Generator: Adobe Illustrator 25.1.0, SVG Export Plug-In . SVG Version: 6.00 Build 0)  -->
<svg version="1.1" id="hub" xmlns="http://www.w3.org/2000/svg" xmlns:xlink="http://www.w3.org/1999/xlink" x="0px" y="0px"
	 viewBox="0 0 122 197" style="enable-background:new 0 0 122 197;" xml:space="preserve">
<style type="text/css">
	.st0{fill:#0A3847;}
	.st1{fill:#F36D00;}
	.st2{fill:#FFFFFF;}
	.st3{enable-background:new    ;}
	.st4{clip-path:url(#SVGID_2_);fill:#FFAE80;}
	.st5{clip-path:url(#SVGID_4_);fill:#FFFFFF;}
	.st6{clip-path:url(#SVGID_6_);}
	.st7{fill:#0B1017;}
	.st8{fill:#E89768;}
	.st9{fill:#FFAE80;}
	.st10{opacity:0.5;fill:#2D2856;enable-background:new    ;}
	.st11{fill:#DB6610;}
	.st12{opacity:0.5;fill:#FFAE80;enable-background:new    ;}
</style>
<g id="hub_icon">
	<g>
		<g>
			<path class="st0" d="M8.9,134.3L9,170.2c0,0.5,0.1,1,0.4,1.6c2.6,5.2,7.6,9.9,14.4,13.6c9.9,5.4,22.9,8.3,36.6,8.2
				c13.7-0.1,26.7-3.1,36.4-8.6c0.2-0.1,0.4-0.2,0.6-0.3c10.4-6,15.6-13.9,15.6-21.8l-0.1-35.9v0.1c0-7.8-5.1-15.6-15.3-21.6
				c-6.1-3.6-13.7-6.2-21.9-7.6c-3.5-0.6-7.4-0.1-10,1.4c-1.8,1.1-2.9,2.5-2.9,4v0.3l0.1,35.9c0,2.5,2.8,4.6,7,5.4
				c0.3,0.1,0.6,0.1,0.8,0.2c-10.9,2.2-23.4,1-32.5-3.6c-4.6-2.3-7.9-5.3-9.7-8.7c-1.3-2.5-5.1-4.1-9.4-4.1h-0.4
				c-2.6,0-5.1,0.6-7,1.7C9.9,131.3,8.9,132.8,8.9,134.3L8.9,134.3z M105.6,142.6c0.2-0.2,0.4-0.4,0.6-0.6
				C106,142.2,105.8,142.4,105.6,142.6z M112.9,128.4c0-0.2,0-0.5,0-0.7C112.9,128,112.9,128.2,112.9,128.4z M112.7,129.9
				c0-0.2,0.1-0.5,0.1-0.7C112.8,129.4,112.8,129.7,112.7,129.9z M112.4,131.4c0.1-0.2,0.1-0.5,0.1-0.7
				C112.5,130.9,112.5,131.1,112.4,131.4z M112,132.8c0.1-0.2,0.1-0.5,0.2-0.7C112.1,132.4,112.1,132.6,112,132.8z M111.4,134.3
				c0.1-0.2,0.2-0.5,0.3-0.7C111.6,133.8,111.5,134.1,111.4,134.3z M110.8,135.7c0.1-0.2,0.2-0.5,0.3-0.7
				C111,135.3,110.9,135.5,110.8,135.7z M110,137.1c0.1-0.2,0.2-0.4,0.4-0.7C110.2,136.7,110.1,136.9,110,137.1z M109.1,138.5
				c0.2-0.2,0.3-0.4,0.4-0.7C109.3,138.1,109.2,138.3,109.1,138.5z M108,139.9c0.2-0.2,0.3-0.4,0.5-0.6
				C108.3,139.5,108.2,139.7,108,139.9z M106.9,141.3c0.2-0.2,0.4-0.4,0.5-0.6C107.2,140.9,107.1,141.1,106.9,141.3z M99.8,147.2
				c-0.2,0.1-0.4,0.3-0.6,0.4C99.5,147.4,99.6,147.3,99.8,147.2z M101.7,145.9c-0.2,0.2-0.4,0.3-0.6,0.5
				C101.3,146.2,101.5,146.1,101.7,145.9z M103.3,144.6c-0.2,0.2-0.4,0.4-0.6,0.5C102.9,145,103.1,144.8,103.3,144.6z M104.8,143.3
				c-0.2,0.2-0.4,0.4-0.6,0.6C104.4,143.7,104.6,143.5,104.8,143.3z M9,134.8c0,0.1,0,0.2,0,0.3C9,135,9,134.9,9,134.8z"/>
			<path class="st1" d="M6.3,130.5c0-2,1.4-3.8,3.7-5.1c2.2-1.3,5.4-2.1,8.9-2.1h0.4c5.5,0,10.3,2.1,11.9,5.2c1.6,3,4.5,5.8,8.9,8
				c11.6,5.9,29.4,5.7,40.7-0.5c0.2-0.1,0.4-0.2,0.6-0.3c5.2-3,8.1-6.8,8.8-10.7c-0.7-3.8-3.6-7.6-8.6-10.5
				c-3.6-2.1-7.9-3.5-12.4-4.3c-5.2-0.9-8.9-3.7-8.9-6.8v-3.6v-0.3c0-2,1.4-3.8,3.7-5.1c3.1-1.8,7.9-2.6,12.6-1.8
				c8.4,1.5,16.4,4.2,23,8c10.8,6.3,16.2,14.5,16.1,22.7v-0.1v3.6c0,8.3-5.4,16.6-16.4,22.9c-0.2,0.1-0.4,0.2-0.6,0.3
				c-21.2,11.9-55.2,12.1-76.7,0.4c-7.4-4.1-12.5-9-15.2-14.3c-0.3-0.7-0.5-1.4-0.5-2L6.3,130.5C6.3,130.4,6.3,130.4,6.3,130.5z"/>
			<g>
				<path class="st2" d="M10,125.3c-3.1,1.8-4.5,4.4-3.2,7.1c2.7,5.3,7.7,10.2,15.2,14.3c21.4,11.7,55.5,11.5,76.7-0.4
					c0.2-0.1,0.4-0.2,0.6-0.3c21.8-12.6,21.9-32.9,0.3-45.5c-6.7-3.9-14.6-6.5-23-8c-4.7-0.8-9.5,0-12.6,1.8
					c-2.2,1.3-3.6,3.1-3.7,5.1v0.3c0,3.2,3.6,5.9,8.9,6.8c4.6,0.8,8.8,2.3,12.4,4.3c11.8,6.8,11.7,17.9-0.2,24.8
					c-0.2,0.1-0.4,0.2-0.6,0.3c-11.3,6.2-29.1,6.4-40.7,0.5c-4.4-2.2-7.3-5-8.9-8c-1.6-3.1-6.4-5.2-11.9-5.2h-0.4
					C15.4,123.2,12.3,124,10,125.3z"/>
			</g>
		</g>
		<g>
			<rect x="15.9" y="62.1" class="st1" width="2.7" height="66.1"/>
			<path class="st1" d="M18.3,127.7c0.5,0.3,0.5,0.8,0,1.1c-0.5,0.3-1.4,0.3-1.9,0s-0.5-0.8,0-1.1S17.7,127.4,18.3,127.7z"/>
			<ellipse class="st1" cx="17.3" cy="62.1" rx="1.4" ry="0.8"/>
		</g>
		<g>
			<rect x="96.6" y="73.9" class="st1" width="2.7" height="66.1"/>
			<ellipse class="st1" cx="97.9" cy="140" rx="1.4" ry="0.8"/>
			<path class="st1" d="M98.9,73.3c0.5,0.3,0.5,0.8,0,1.1s-1.4,0.3-1.9,0s-0.5-0.8,0-1.1S98.3,73,98.9,73.3z"/>
		</g>
		<g>
			<rect x="68.1" y="6.5" class="st1" width="2.7" height="91.3"/>
			<path class="st1" d="M70.4,97.3c0.5,0.3,0.5,0.8,0,1.1c-0.5,0.3-1.4,0.3-1.9,0s-0.5-0.8,0-1.1C69,96.9,69.9,96.9,70.4,97.3z"/>
			<path class="st1" d="M70.4,5.9c0.5,0.3,0.5,0.8,0,1.1S69,7.3,68.5,7s-0.5-0.8,0-1.1C69,5.6,69.9,5.6,70.4,5.9z"/>
		</g>
		<g class="st3">
			<g>
				<path class="st1" d="M8,36.5l0.1,21.6c0-7.9,5.2-15.8,15.6-21.8c20.7-12,54.2-12,74.8,0c10.2,5.9,15.4,13.7,15.4,21.5l-0.1-21.6
					c0-7.8-5.1-15.6-15.4-21.5c-20.6-12-54.1-12-74.8,0C13.2,20.7,8,28.6,8,36.5z"/>
			</g>
			<g>
				<path class="st0" d="M5.4,36.5l0.1,21.6c0,8.2,5.4,16.4,16.1,22.6c21.6,12.6,56.8,12.6,78.6,0c11-6.3,16.4-14.6,16.4-22.9
					l-0.1-21.6c0,8.3-5.4,16.6-16.4,22.9c-21.8,12.6-56.9,12.6-78.6,0C10.8,52.9,5.4,44.7,5.4,36.5z"/>
			</g>
			<g>
				<path class="st2" d="M100.4,13.6c21.6,12.6,21.5,32.9-0.3,45.5s-56.9,12.6-78.6,0C-0.1,46.5,0,26.2,21.8,13.6S78.7,1,100.4,13.6
					z M98.2,58c20.7-12,20.8-31.4,0.2-43.3c-20.6-12-54.1-12-74.8,0S2.8,46.1,23.4,58C44,70,77.5,70,98.2,58L98.2,58z"/>
			</g>
		</g>
	</g>
	<g>
		<g>
			<defs>
				<path id="SVGID_1_" d="M87.8,116.2l3.6-12.3l-3.6-13.8l-23-7.8L43.1,92.9l-11.9,35.5c1.6,3,4.5,5.8,8.9,8
					c11.6,5.9,29.4,5.7,40.7-0.5c0.2-0.1,0.4-0.2,0.6-0.3C90.5,130.3,92.6,122.6,87.8,116.2L87.8,116.2z"/>
			</defs>
			<clipPath id="SVGID_2_">
				<use xlink:href="#SVGID_1_"  style="overflow:visible;"/>
			</clipPath>
			<path class="st4" d="M78.8,114.1l2-1.3c0.1-1,0.3-2,0.6-2.9c0.3-0.8,0.4-1.2,0.5-1.9c0.1-0.8,0.8-0.9,0.8-0.1
				c-0.1,0.8-0.1,1.2-0.2,1.8c0,0.2,0.2,0.4,0.4,0.6c0.5-0.1,1-0.3,1.2-0.6l1.1-1.3l0.8-1.1c0.3-0.5,0.9-0.2,0.6,0.4l-0.7,1.2
				l-1.1,1.3l1-0.5l1.2-1.2c0.4-0.4,0.8-0.1,0.5,0.5l-1.2,1.4l-1.2,0.8l1.2-0.5l0.9-0.6c0.6-0.3,0.7,0.2,0.2,0.6l-1.2,0.9
				c0.5-0.3,0.6,0.3-0.1,0.8l-1.7,1.1l-1.1,0.7l-1.3,0.4l-3.8,1.5L78.8,114.1z"/>
		</g>
		<g>
			<defs>
				<path id="SVGID_3_" d="M87.8,116.2l3.6-12.3l-3.6-13.8l-23-7.8L43.1,92.9l-11.9,35.5c1.6,3,4.5,5.8,8.9,8
					c11.6,5.9,29.4,5.7,40.7-0.5c0.2-0.1,0.4-0.2,0.6-0.3C90.5,130.3,92.6,122.6,87.8,116.2L87.8,116.2z"/>
			</defs>
			<clipPath id="SVGID_4_">
				<use xlink:href="#SVGID_3_"  style="overflow:visible;"/>
			</clipPath>
			<path class="st5" d="M81.6,115.3c-0.6,0.5-2.1,1.1-3.1,1.5c-2.1,0.8-5.8,2.6-6.1,2.7c-0.9,0.2-1.6,0-2.3-0.9
				c-1-2.7-4.4-9.5-4.4-9.7c0-0.1,1.9-5.9,1.9-5.9c1.1,1.9,5.3,11.2,5.3,11.2l7.6-1.3h0.2C80.5,113.5,80.8,114.8,81.6,115.3z"/>
		</g>
		<g>
			<defs>
				<path id="SVGID_5_" d="M87.8,116.2l3.6-12.3l-3.6-13.8l-23-7.8L43.1,92.9l-11.9,35.5c1.6,3,4.5,5.8,8.9,8
					c11.6,5.9,29.4,5.7,40.7-0.5c0.2-0.1,0.4-0.2,0.6-0.3C90.5,130.3,92.6,122.6,87.8,116.2L87.8,116.2z"/>
			</defs>
			<clipPath id="SVGID_6_">
				<use xlink:href="#SVGID_5_"  style="overflow:visible;"/>
			</clipPath>
			<g class="st6">
				<path d="M61.7,95c3.3,0.4,3.9,3.6,5.1,5.4C71.6,97.5,68.3,91.7,61.7,95z"/>
				<path class="st7" d="M57.7,170.3c0.7,1.6,1.7,3,2.9,4c1.6,1.3,3.1,2.1,4.4,1.9c1.2-0.5,1.2-1.5,0.7-2.9c-0.7-1.5-2.2-2.8-4-4
					c0,0-1.9-1.6-1.9-1.7C59.8,167.6,57.7,170.3,57.7,170.3z"/>
				<path class="st8" d="M66.6,153.7c-1.3,3.9-3.7,8.9-6.5,14.3c0,0,3.4,2.9,2,4c-2,1.6-4.7-3.4-4.7-3.4l3.9-13.6L66.6,153.7z"/>
				<path class="st7" d="M55,172.8v0.2c-0.6,0-1.3,2-1.1,3.5c0.8,2.2,0,4,0.3,6.5c0.2,1.6,0.7,2.7,2,3.5c2.1,1.2,3.6,1.5,3.8-0.3
					c0.2-1.2,0-2.3-0.5-4.2l-1-4.8L55,172.8z"/>
				<path class="st9" d="M58,182.4c-2.8,0.3-3.3-3.1-3.3-6.2c0-0.9,0-1.8,0-2.5c2.5-6.3-1.9-11.9,1.1-17.3l-0.4-2.2l-1-6l7.2-0.9
					l1.3,6.6l0.5,3.9c-0.8,5.3-4.3,11.2-5,16.8C58.2,177.3,59.6,182.2,58,182.4z"/>
				<path class="st9" d="M58.7,157.4c-3.3,2.7-0.4,13.7-4.1,18.9c0-0.9,0-1.8,0-2.5c2.5-6.3-1.9-11.9,1.1-17.3l-0.4-2.2
					C56.9,155.6,58.7,157.4,58.7,157.4z"/>
				<path class="st0" d="M68.8,137.4c0.2,7.7-2,8.8-1.8,14.2c0,0.4,0,0.9-0.1,1.3c-0.4,1.8-1.7,3.8-3.3,4.5
					c-0.2,0.1-0.3,0.1-0.5,0.2c-1.6,0.2-3.2,0.2-4.5,0c-1.5-0.3-2.7-1.1-3.3-2.7c0-5.7-4.3-9.7-4.8-17.3c-0.2-3.2,0.6-6.3,2.6-8.5
					h2.5l12.6-0.2L68.8,137.4z"/>
				<path class="st1" d="M67.3,121.5c0,0.2,0,0.5,0,0.7c-0.1,2.2,0.2,4.4,1,6.5c-0.3,1.9-1.3,3.3-3.8,3.7c-1,0.2-1.9,0.3-2.8,0.3
					c-4,0.2-7.3-1-9-3.2c1.9-2,1.9-5,0.7-7.8c-0.9-1.6-1.6-3.2-1.9-5c-0.5-2.2-0.6-4.6-0.4-7.1c2.5-2.6,5.2-4.7,8.2-5.4l6.7-2.5
					c2,0.3,3.6,3.9,3,6.5c0.3,4.1,2.3,5.9,2.3,8.4c0,2.1-1.3,3.4-3.7,3.6c0,0.3-0.1,0.5-0.1,0.8C67.3,121.2,67.3,121.3,67.3,121.5z"
					/>
				<path class="st10" d="M58.7,157.4c0,0-0.1,0-0.2,0c-1.5-0.3-2.7-1.1-3.3-2.7c0-5.7-4.3-9.7-4.8-17.3c-0.2-2.9,0.4-5.7,2.1-7.9
					v-0.1c1.7,2.3,5,3.4,9,3.2c0.1,0.4,0.3,0.9,0.4,1.3c-1.2-0.1-2.7-0.5-4.2-1C51.6,138.1,55.2,151.6,58.7,157.4z"/>
				<path class="st11" d="M67.4,120.2c0,0.3-0.1,0.5-0.1,0.8c0,0.1,0,0.3,0,0.4c0,0.2,0,0.5,0,0.7c-6.2,2.6-6.9,5.9-5.6,10.6
					c-4,0.2-7.3-1-9-3.2c1.9-2,1.9-5,0.7-7.8c-0.9-1.6-1.6-3.2-1.9-5l4.1-2.2c0.7,10.6,9,10,8.7,3.9
					C64.9,119.3,66.4,120.3,67.4,120.2z"/>
				<polygon class="st2" points="63.7,102.5 65.4,105.2 64.2,106 65.7,107 64.2,115.5 62.6,112 61.4,101.7 				"/>
				<path class="st9" d="M56.1,105.4c0.9-1.5,1.2-2.9,1.4-4.7l5.3,0.4l-0.1,3.8c0.9,2.4,0.7,4.1,0.8,8.4
					C61.7,111,56.4,107.4,56.1,105.4z"/>
				<path class="st12" d="M59.8,101.7c0.4,3.1,1.6,7,3.3,6.9c1.2,0,0.9-3.8,1.3-6.1L59.8,101.7z"/>
				<path class="st9" d="M57.3,101.7c-3-5-1.4-9.3,2.6-10.2c4.4-1,7.4,2.2,7.4,6c0.1,4.1-0.9,7-2.5,7.2c-2.6,0.4-4.4-0.7-5.2-2.4
					L57.3,101.7z"/>
				<path class="st7" d="M58.1,103.4c0.8-2.3,0.5-1.3,0.6-2l0.2-1.3l1.2,0.5c2.4,0.1,2.8-4.1,7.3-3.5c0.4-4-2.6-6.2-6.2-6.1
					C53.3,91.6,53,99.1,58.1,103.4z"/>
				<path class="st9" d="M60.1,102c0.2-0.6,0.3-0.5,0.2-0.8c-0.3-0.8-0.8-1.4-1.2-1.3c-0.3,0.1-0.7,0.2-0.8,0.5
					c-0.2,0.4,0,0.8,0.1,1.1c0.1,0.3,0.2,0.5,0.4,0.7c0.2,0.2,0.5,0.3,0.7,0.3C59.7,102.4,60,102.2,60.1,102z"/>
				<path class="st10" d="M66.8,152.8c-0.4,1.8-1.7,3.8-3.3,4.5c0.2-0.5,0.3-1.1,0.4-1.5c0.5-3.8-1.1-7.1-0.4-9.3
					c0.2,1.4,0.5,2.6,1.1,3.8C65.1,151.5,65.9,152,66.8,152.8z"/>
				<polygon class="st2" points="64.2,115.5 63.5,113.3 56.8,103.9 54.5,106.3 56.6,110.2 58.8,109 58.1,111.2 				"/>
			</g>
		</g>
	</g>
	<g>
		<path class="st9" d="M66.5,138.6c-0.2,0.1-0.5,0.1-0.8-0.1c-0.6-0.7-1.3-1.2-2.2-0.9c-0.2,0.3-0.2,0.7-0.1,1.1v0.1
			c0.2,0.9,0.9,2.2,1.5,3.4c0.1,0.2,0,0.4-0.1,0.5s-0.4,0.1-0.6,0c0,0.3-0.4,0.5-0.7,0.2l-0.4-0.5c-0.1,0.4-0.5,0.3-0.7,0l-0.8-1.1
			c-0.6-0.6-1.1-1.2-1.5-2c-0.1-0.1-0.1-0.2-0.2-0.3c-0.4-1.2-0.6-2.5-0.6-3.7c0.3-1,1.2-1.2,2.4-0.6l1.4,0.7c1.3,0.7,2,1.6,3.4,2.8
			C66.8,138.2,66.7,138.4,66.5,138.6z"/>
		<path class="st9" d="M64.9,142.6c-0.1,0.1-0.4,0.1-0.6,0c0,0.3-0.4,0.5-0.7,0.2l-0.4-0.5c-0.1,0.4-0.5,0.3-0.7,0l-0.8-1.1
			c-0.6-0.6-1.1-1.2-1.5-2c0.7,0.3,1.4,0.1,2.1-0.3C62.9,140.4,64.1,142.4,64.9,142.6z"/>
		<path class="st9" d="M66.5,138.6c-0.2,0.1-0.5,0.1-0.8-0.1c-0.6-0.7-1.3-1.2-2.2-0.9c-0.2,0.3-0.2,0.7-0.1,1.1l-0.4-1.5
			C64.7,136.8,65.8,138.3,66.5,138.6z"/>
		<path class="st2" d="M50.9,109.6c-1.9,4.6,0.7,9.2,1.3,14.8c1.8,4.9,4.4,8.7,7.2,12.2c0.2-1,1.3-2.3,2.9-1.9l-5.4-11.1
			c-0.1-3.4-0.5-5.8-0.7-10.6c0,0-0.1-2.8-2-3.8C52,108.1,50.9,109.6,50.9,109.6z"/>
	</g>
	<g>
		<path class="st0" d="M5.4,36.5l0.1,21.6c0,8.2,5.4,16.4,16.1,22.6c21.6,12.6,56.8,12.6,78.6,0c11-6.3,16.4-14.6,16.4-22.9
			l-0.1-21.6c0,8.3-5.4,16.6-16.4,22.9c-21.8,12.6-56.9,12.6-78.6,0C10.8,52.9,5.4,44.7,5.4,36.5z"/>
	</g>
	<path class="st2" d="M112.9,55.8c-2.7,4.1-7,8-12.7,11.4c-21.7,12.5-56.8,12.6-78.5,0.1v7.4c21.6,12.5,56.7,12.5,78.5-0.1
		c5.8-3.3,10-7.2,12.7-11.3V55.8z"/>
	<path class="st2" d="M97,164.4c-20.4,11.2-52.5,11-72.4-0.5v7c19.9,11.5,52,11.7,72.4,0.5V164.4z"/>
	<path class="st2" d="M107.9,161.4c0,3.3-0.9,6-2,6s-2-2.7-2-6s0.9-6,2-6S107.9,158,107.9,161.4z"/>
</g>
</svg>
