<?xml version="1.0" encoding="utf-8"?>
<!-- Generator: Adobe Illustrator 25.1.0, SVG Export Plug-In . SVG Version: 6.00 Build 0)  -->
<svg version="1.1" id="workshops" xmlns="http://www.w3.org/2000/svg" xmlns:xlink="http://www.w3.org/1999/xlink" x="0px" y="0px"
	 viewBox="0 0 277 351" style="enable-background:new 0 0 277 351;" xml:space="preserve">
<style type="text/css">
	.st0{fill:#0A3847;}
	.st1{fill:#FFAE80;}
	.st2{fill:#FFBB7D;}
	.st3{fill:#07303D;}
	.st4{fill:#0B1017;}
	.st5{fill:#1574F5;}
	.st6{opacity:0.15;fill:#1D1D1B;}
	.st7{fill:#EDEDED;}
	.st8{fill:#3767AC;}
	.st9{opacity:0.15;}
	.st10{opacity:0.1;fill:#1D1D1B;}
	.st11{fill:#CECECE;}
	.st12{fill:#373737;}
	.st13{enable-background:new    ;}
	.st14{fill:#F36D00;}
	.st15{fill:#FFFFFF;}
	.st16{fill:#DB6610;}
	.st17{fill:#CCCCCC;}
	.st18{fill:#F8F5F2;}
	.st19{fill:#3F76AB;}
	.st20{fill:#1D1D1B;}
	.st21{opacity:0.5;fill:#FFAE80;}
	.st22{fill:#D6EEEB;}
	.st23{fill:#FFFFFF;stroke:#0A3847;stroke-width:2.3;stroke-miterlimit:10;}
</style>
<g id="workshops_icon">
	<g>
		<g>
			<path class="st0" d="M14.8,255.5c3.6-0.2,2.8-6.4,1.8-9.7c-0.4-1.2-1.8-1.8-3-1.4c-1.2,0.4-1.9,2.7-1.9,3.9
				C11.8,249.5,10.5,255.8,14.8,255.5z"/>
			<path class="st1" d="M16.8,249.1c0.6-5.2-5-5.6-4.3,0c0.2,1.5,1.1,2.6,2.1,2.6C16.1,251.8,16.6,250.2,16.8,249.1z"/>
			<g>
				<g>
					<path class="st1" d="M33.6,247.1c1.6,1.3,3.6,1.9,5.5,1.9c0.3,0,0.6,0,0.7-0.3c0.3-0.3,0.1-0.8-0.1-1.2c-1.8-3-5.2-5.5-6.7-8.7
						c-0.2-0.4-0.3-0.8-0.6-1c-0.5-0.4-1.1-0.3-1.7-0.4c-0.5-0.1-1.1-0.5-1.6-0.2c-0.4,0.2-0.5,0.8-0.7,1.3
						c-0.1,0.5-0.4,1.9-0.6,2.4c-0.2,0.5-0.3,1.1-0.1,1.6c0.2,0.7,0.7,1.1,1.3,1.5c0.6,0.3,1.2,0.5,1.8,0.8
						C31.9,245.4,32.6,246.3,33.6,247.1z"/>
					<path class="st0" d="M39.8,248.7c-0.2,0.2-0.5,0.2-0.7,0.3c-2,0.1-4-0.6-5.5-1.9c-0.9-0.7-1.7-1.7-2.7-2.2
						c-0.6-0.3-1.2-0.5-1.8-0.8c-0.6-0.3-1.1-0.8-1.3-1.5c-0.2-0.5-0.1-1.1,0.1-1.6c0.2-0.5,0.4-1.7,0.5-2.2c0-0.1,0.1-0.1,0.1-0.2
						c0.1-0.5,0.2-1.1,0.7-1.3c0.5-0.3,1,0.1,1.6,0.2c0.6,0.1,1.2,0.1,1.7,0.4c0.3,0.3,0.5,0.6,0.6,1c0.6,1.3,1.5,2.3,2.5,3.2
						c1.5,1.5,3.2,3.6,4.3,5.4C39.9,247.9,40.1,248.4,39.8,248.7z"/>
					<path class="st1" d="M36.5,243.8c0,0.2,0,0.4-0.2,0.5c-0.1,0.1-0.3,0.1-0.5,0.1c-1.8-0.1-3.3-1.2-4.7-2.3
						c-0.7-0.6-1.4-1.2-2-1.9c-0.3-0.4-0.6-0.9-0.9-1.5c0-0.1,0.1-0.1,0.1-0.2c0.1-0.5,0.2-1.5,0.6-1.8c0.5-0.3,1.1,0,1.7,0.2
						c0.6,0.1,1.4-0.2,1.9,0.2c0.3,0.3,0.2,1.1,0.4,1.5c0.6,1.3,1.6,2.6,2.5,3.5c0.3,0.4,0.6,0.8,0.8,1.2
						C36.3,243.4,36.4,243.6,36.5,243.8z"/>
				</g>
				<path class="st1" d="M34.8,207.9c-0.1,0.8-0.1,1.7-0.2,2.8c-0.1,1-0.1,2-0.2,3.1c-0.1,0.9-0.1,1.8-0.2,2.8
					c-0.6,9.7-1.4,21.8-1.4,21.9c-0.9,1.7-4.2,2.1-4.5,0c-0.4-6.4-1.5-12-2.3-17.1c-0.3-1.7-0.5-3.4-0.7-5.1
					c-0.1-1.4-0.2-2.8-0.2-4.2v-0.2c0-1.2,0.1-2.4,0.3-3.5c0.1-0.3,0.1-0.7,0.2-1l7.5-4.8C33.2,202.8,34.8,207.7,34.8,207.9z"/>
			</g>
			<g>
				<g>
					<path class="st1" d="M26.1,197.2c-1.2,6.3-1.9,11.4-2.7,15.2c-0.1,0.3-0.1,0.6-0.2,0.9c-0.3,1.5-0.6,2.8-1,3.9
						c-0.1,0.3-0.2,0.5-0.3,0.7l-0.6,3l-0.3,1.3l-4.8,23l-0.2,0.8l-0.2,0.8c0,1.8-2.8,1.2-2.9-0.3c0-0.1,0-0.2,0-0.3
						c0-0.3-0.1-0.7-0.1-1c-1.5-13.9-1.1-19.4-0.1-24.7c0.1-0.7,0.2-1.3,0.4-2c0.2-1,0.4-2,0.6-3c-0.1-0.3-0.1-0.7-0.1-1
						c0-0.1,0-0.2,0-0.3c0-0.1,0-0.1,0-0.1c-0.8-7.2-0.6-12.7-0.4-16.6H26.1z"/>
				</g>
				<g>
					<path class="st2" d="M26.1,197.2c-1.2,6.3-1.9,11.4-2.7,15.2c-0.1,0.3-0.1,0.6-0.2,0.9c-0.3,1.5-0.6,2.8-1,3.9
						c-0.1,0.3-0.2,0.5-0.3,0.7l-0.6,3l-0.3,1.3l-4.8,23l-0.2,0.8l-0.2,0.8c0,1.8-2.8,1.2-2.9-0.3c0-0.1,0-0.2,0-0.3
						c0-0.3-0.1-0.7-0.1-1c-1.5-13.9-1.1-19.4-0.1-24.7c0.1-0.7,0.2-1.3,0.4-2c0.2-1,0.4-2,0.6-3c-0.1-0.3-0.1-0.7-0.1-1
						c0-0.1,0-0.2,0-0.3c0-0.1,0-0.1,0-0.1c-0.8-7.2-0.6-12.7-0.4-16.6H26.1z"/>
				</g>
			</g>
		</g>
		<path class="st1" d="M34.7,210.7c-0.1,1-0.1,2-0.2,3.1c-0.1,0.9-0.1,1.8-0.2,2.8c-1.9,2.1-4.8,3.8-8.2,4.8
			c-0.3-1.7-0.5-3.4-0.7-5.1c-0.1-1.4-0.2-2.8-0.2-4.2L34.7,210.7z"/>
		<path class="st0" d="M34.5,213.2c-1.1,3.1-16.4,9.3-21.3,4.5l-1.4-21.2c-1.3-6.9-0.2-10.5,3.4-13.9c0.4-0.4,0.9-0.8,1.4-1.2
			l10.8-0.4l4.2-0.2C35.2,192.5,35.3,205.2,34.5,213.2z"/>
		<path class="st3" d="M31.6,180.8c-1,2.5-2.4,4.4-5.1,5.1c-2.7,0.7-8.2,0.1-11.3-3.2c-3.6,3.4-4.8,6.9-3.4,13.9l1.4,21.2
			c0.4,0.4,1.2,0.9,2.4,1.4c-1-7.4,0.1-24.4,1.7-30.2c8.9,0.3,12.7-1.7,14.8-6.7L31.6,180.8z"/>
		<path class="st4" d="M21.6,149.9c0,2.5-2,4.5-4.5,4.5c-2.5,0-4.5-2-4.5-4.5c0-2.5,2-4.5,4.5-4.5C19.6,145.4,21.6,147.4,21.6,149.9
			z"/>
		<path class="st5" d="M52.7,177l-1.4,2.6c-0.5-0.1-1-0.3-1.6-0.5c-4.8-1.5-9.6-3.7-14.3-6.6l-7.6-9.4l-1.3-1.7l1.2-10.7
			c2.9,0.1,7.4,8.1,12,17L52.7,177z"/>
		<path class="st5" d="M49.7,179.1c-4.8-1.5-9.6-3.7-14.3-6.6l-7.6-9.4c0.4-1,1.2-3.2,1.2-2.9c-0.2,0.6,7.3,11,7.4,11.6L49.7,179.1z
			"/>
		<path class="st1" d="M61.1,184.1c0.2,0.6-0.1,0.9-0.8,0.6l-0.6-0.3c0.1,0.3-0.1,0.4-0.5,0.3c0,0-0.1,0-0.2,0l-7.2-3.6
			c-0.7-0.4-1.1-0.9-1.2-1.4c-0.2-0.6-0.1-1.2,0.2-1.9c0,0,1.5-2.9,5,0.2c1.9,1.7,3.1,2.6,3.7,3.1c0.1,0,0.1,0.1,0.2,0.1
			c0.4,0.3,0.6,0.4,0.6,0.4c0.4,0.5,0.4,0.9,0,1l0.8,0.6C61.4,183.7,61.5,184,61.1,184.1z"/>
		<path class="st6" d="M59.7,181.2c0,0-0.6,3.6-0.6,3.6c0,0-0.1,0-0.2,0l-7.2-3.6c-0.7-0.4-1.1-0.9-1.2-1.4c1.5,0.6,2.3-0.4,2.9-1.3
			c0.7-1.1,5.1,2.1,6.1,2.8C59.7,181.2,59.7,181.2,59.7,181.2z"/>
		<polygon class="st7" points="56,169 52.5,189.4 63,195.7 66.6,174.6 		"/>
		<path class="st1" d="M51.4,179.2c0,0,1.3,1.3,3.5,0.6l2.2,0.6c1.5,0.4,1.3-0.8,0.2-1.1c0,0-3.2-1.3-4.1-2.4L51.4,179.2z"/>
		<path class="st5" d="M36.1,170.1c0,2.2-2.1,4.2-4.6,3.8c0,0.2,0,0.4,0,0.5c-0.1,1.3-0.3,2.9-0.3,4.4c0,0.2,0,0.3,0,0.4
			c0,0.4,0.1,0.8,0.1,1.1c0,0.2,0.1,0.3,0.1,0.5c-1.1,2.5-2.4,4.4-5.2,5.1c-0.7,0.2-1.6,0.3-2.5,0.3c-2.9,0-6.6-1-9-3.6
			c0.5-3.9-0.8-8.9-2.2-13c-1.1-3.2-2.2-6-2.4-7.4c2.5-3.2,5.6-5.8,8.8-8.1c3.2-2.3,4.7-5.1,8.4-3.8c3.7,1.4,4.1,8.8,5.5,11.7
			C34.3,165,36.1,167.1,36.1,170.1z"/>
		<path class="st8" d="M31.3,180.3c0,0.2,0.1,0.3,0.1,0.5c-1.4,4-4,5.9-7.7,5.4c-2.9,0-6.6-1-9-3.6c0.5-3.9-0.8-8.9-2.2-13l3.4-0.9
			l3.6,5.8c2.8,4.8,10.2,3.8,10.5-1l1.3,0.4c0,0.2,0,0.3,0,0.5c0,1.9-0.3,3.2-0.3,4.4c0,0.2,0,0.3,0,0.4
			C31.2,179.6,31.2,180,31.3,180.3z"/>
		<g>
			<path class="st5" d="M10.2,162.3c-3.1,5.3-4.8,11.3-5.3,17.9c-0.8,4.8,0.1,13.7,2.3,18.3c0.5-0.7,1.5-1,3.1-0.8
				c0.4-6.5,0.8-12.8,0-16.1l4.9-10.7C18.4,163.7,12.9,158.8,10.2,162.3z"/>
			<path class="st1" d="M16.1,202.8c-0.3,0.2-0.7,0.2-1-0.1c-0.8-0.9-1.7-1.5-2.8-1.1c-0.2,0.4-0.2,0.8-0.1,1.4l0,0.1
				c0.3,1.2,1.1,2.8,1.9,4.3c0.1,0.3,0,0.5-0.1,0.6c-0.2,0.2-0.5,0.2-0.8,0c0,0.4-0.5,0.6-0.9,0.2l-0.6-0.6c-0.1,0.5-0.7,0.4-0.9,0
				l-1.1-1.3c-0.7-0.7-1.3-1.6-1.8-2.5c-0.1-0.1-0.1-0.3-0.2-0.4c-0.5-1.6-0.8-3.2-0.7-4.7c0.4-1.3,1.5-1.5,3.1-0.8l1.8,0.9
				c1.7,0.8,2.5,2,4.3,3.5C16.5,202.4,16.4,202.7,16.1,202.8z"/>
			<path class="st9" d="M14.1,207.9c-0.2,0.2-0.5,0.2-0.8,0c0,0.4-0.5,0.6-0.9,0.2l-0.6-0.6c-0.1,0.5-0.7,0.4-0.9,0l-1.1-1.3
				c-0.7-0.7-1.3-1.6-1.8-2.5c0.9,0.4,1.8,0.1,2.7-0.4C11.6,205.1,13,207.6,14.1,207.9z"/>
			<path class="st9" d="M16.1,202.8c-0.3,0.2-0.7,0.2-1-0.1c-0.8-0.9-1.7-1.5-2.8-1.1c-0.2,0.4-0.2,0.8-0.1,1.4l-0.5-1.9
				C13.8,200.5,15.2,202.4,16.1,202.8z"/>
		</g>
		<path class="st10" d="M33.8,173.6c0.5-0.2,1-0.6,1.5-1.1C35,173,34.4,173.4,33.8,173.6z"/>
		<path class="st1" d="M19.4,149.5c-0.5,1.7-0.9,4-1.5,5.8c-0.4,2,3.3,5.9,5.8,5.8c1.7-0.3,1.7-3.7,2-5.8L19.4,149.5z"/>
		<g>
			<path class="st1" d="M20,152.2c1.7,2.2,3.6,4,6.7,3.6c1.1-0.2,2.2-1.9,2.1-8.6c0-2.3-1.3-5-2.3-6.3c-1.5-1.8-4.1-2.5-6.5-1.9
				c-3.5,0.8-5.1,3.5-4.7,6.8C16,150.3,18,152,20,152.2z"/>
			<path class="st4" d="M18.9,151.7c0,0,0.8-0.2,1.5-1.3c0.7-1.1,0.8-2.3,0.9-3.7c3.2-0.3,6.5-2.6,6.5-3.7c-0.1-1.5-1-2.8-3.7-3.9
				c-3-1.1-5.7-0.4-7.8,1.9c-3.3,3.6-0.3,10.1,2.5,11.2L18.9,151.7z"/>
			<path class="st1" d="M19.6,150.9c-0.2-0.3-0.5-0.7-0.8-0.9c-0.3-0.3-0.7-0.4-1.1-0.4c-0.1,0-0.2,0-0.3,0.1
				c-0.2,0.1-0.3,0.4-0.3,0.6c0,0.2,0.1,0.5,0.2,0.7c0.2,0.4,0.4,0.8,0.8,1.1c0.3,0.3,0.8,0.5,1.3,0.5c0.2,0,0.4,0,0.5-0.2
				c0.1-0.1,0.2-0.2,0.2-0.4C20.1,151.7,19.8,151.2,19.6,150.9z"/>
		</g>
	</g>
	<g>
		<path class="st11" d="M107.8,229.6l107.4,62l0.3-111.6c0-6.5-4.5-14.4-10.2-17.6L135.5,122l-17.1-9.9c-3.8-2.2-7.1-1.7-8.8,0.8
			c-0.9,1.2-1.4,2.9-1.4,5.1L107.8,229.6z"/>
		<g>
			<g>
				<path class="st12" d="M155.5,209.3l7.6-4.4l50.7,29.3c0.6,0.3,1.1,0.7,1.7,1.1l-27.4,15.8l-32.6-18.8
					C146.7,227.2,146.7,214.4,155.5,209.3z"/>
			</g>
			<g>
				<path class="st0" d="M155.5,209.3l7.6-4.4l50.7,29.3c0.6,0.3,1.1,0.7,1.7,1.1l-27.4,15.8l-32.6-18.8
					C146.7,227.2,146.7,214.4,155.5,209.3z"/>
			</g>
		</g>
		<g>
			<path class="st0" d="M155.5,206.4l7.6-4.4l50.7,29.3c0.6,0.3,1.1,0.7,1.7,1.1l-27.4,15.8l-32.6-18.8
				C146.7,224.3,146.7,211.5,155.5,206.4z"/>
		</g>
		<g>
			<path class="st12" d="M164.9,221.9C165,222,165,222,164.9,221.9l15.6,9.1c0,0-0.1,0-0.1-0.1c0.2,0.2,0.5,0.2,0.8,0l11.7-6.8
				c0.5-0.3,0.9-1,0.9-1.6c0-0.3-0.1-0.5-0.3-0.6l-8.4-4.9l3.5-14c0.1-0.5,0-0.8-0.2-1l-15.5-9c-0.1-0.1-0.2-0.1-0.4-0.1
				c-0.1,0-0.2,0.1-0.3,0.1c-0.4,0.2-0.8,0.7-0.9,1.2l-6.6,26.6C164.7,221.4,164.8,221.8,164.9,221.9z"/>
			<g>
				<g class="st13">
					<path class="st14" d="M177.4,213c0.3-0.2,0.5-0.2,0.7-0.1l15.5,9c-0.2-0.1-0.4-0.1-0.7,0.1l-10.4,6l-15.5-9L177.4,213z"/>
					<path class="st14" d="M164.8,221l6.6-26.6c0.1-0.5,0.5-1,0.9-1.2c0.1-0.1,0.2-0.1,0.3-0.1c0.1,0,0.3,0,0.4,0.1l15.5,9
						c-0.1-0.1-0.2-0.1-0.4-0.1c-0.1,0-0.2,0.1-0.3,0.1c-0.4,0.2-0.8,0.7-0.9,1.2l-6.6,26.6c-0.1,0.4,0,0.7,0.1,0.9
						c0,0,0.1,0.1,0.1,0.1l-15.5-9c0,0-0.1,0-0.1-0.1C164.8,221.8,164.7,221.4,164.8,221z"/>
					<path class="st15" d="M184.8,203c0-0.1,0.1-0.2,0.1-0.3l-11.6-6.7l-6.1,24.8l11.6,6.7L184.8,203z"/>
					<g>
						<path class="st16" d="M187.8,202.2c-0.4,0.2-0.8,0.7-0.9,1.2l-6.6,26.6c-0.1,0.4,0,0.7,0.1,0.9c0.2,0.2,0.5,0.2,0.8,0
							l11.7-6.8c0.5-0.3,0.9-1,0.9-1.6c0-0.6-0.4-0.8-0.9-0.5l-10.4,6l6.2-24.9c0.2-0.7-0.1-1.1-0.6-1
							C188,202.1,187.9,202.2,187.8,202.2z"/>
					</g>
				</g>
			</g>
		</g>
	</g>
	<path class="st0" d="M83.2,132.4c0-3.2,1.2-5.5,3-6.6c0,0,24.9-14.5,24.9-14.5c1.9-1.1,4.4-0.9,7.3,0.7l86.9,50.2
		c5.6,3.3,10.2,11.1,10.2,17.6l-0.3,111.6L190.2,306l-2.5-1.4l0.3-111.6c0-4.9-3.4-10.9-7.7-13.3l-74.1-42.8l4,94.1l-24.9,14.5
		l-2.5-1.5L83.2,132.4z"/>
	<g>
		<path class="st0" d="M85.3,245.5l24.9-14.5l0.3-91.7l-17.1-9.9c-4.3-2.5-7.7-0.5-7.7,4.4L85.3,245.5z"/>
	</g>
	<g>
		<path class="st15" d="M82.8,244l2.5,1.5l0.3-111.6c0-4.9,3.5-6.9,7.7-4.4l17.1,9.9l69.8,40.3c4.2,2.5,7.7,8.4,7.7,13.3l-0.3,111.6
			l2.5,1.4l0.3-111.6c0-6.5-4.5-14.4-10.2-17.6l-69.8-40.3l-17.1-9.9c-3.8-2.2-7.1-1.7-8.8,0.8c-0.9,1.2-1.4,2.9-1.4,5.1L82.8,244z"
			/>
	</g>
	<g>
		<path class="st0" d="M49.2,235.4C43.6,238.7,39,246.6,39,253l0.3,46.4c0,0-24.9-14.5-24.9-14.5l-0.3-46.4
			c0-6.5,4.5-14.4,10.2-17.6l86-49.7l25,14.4L49.2,235.4z"/>
		<path class="st17" d="M41.5,251.6c0-4.9,3.4-10.9,7.7-13.3C45,240.8,41.5,246.7,41.5,251.6l0.3,46.4l-1.8,1.1l1.8-1.1L41.5,251.6z
			"/>
		<path class="st15" d="M49.2,238.3c-4.2,2.5-7.7,8.4-7.7,13.3l0.3,46.4l-1.8,1.1l-0.7,0.4c0,0-0.3-46.4-0.3-46.4
			c0-6.5,4.5-14.4,10.2-17.6l86.1-49.7v2.9L49.2,238.3z"/>
	</g>
	<g>
		<path class="st12" d="M27.6,221.5C27.7,221.5,27.7,221.6,27.6,221.5l15.6,9.1c0,0-0.1,0-0.1-0.1c0.2,0.2,0.5,0.2,0.8,0l11.7-6.8
			c0.5-0.3,0.9-1,0.9-1.6c0-0.3-0.1-0.5-0.3-0.6l-8.4-4.9l3.5-14c0.1-0.5,0-0.8-0.2-1l-15.5-9c-0.1-0.1-0.2-0.1-0.4-0.1
			c-0.1,0-0.2,0.1-0.3,0.1c-0.4,0.2-0.8,0.7-0.9,1.2l-6.6,26.6C27.4,221,27.4,221.3,27.6,221.5z"/>
		<g>
			<g class="st13">
				<path class="st16" d="M40.1,212.6c0.3-0.2,0.5-0.2,0.7-0.1l15.5,9c-0.2-0.1-0.4-0.1-0.7,0.1l-10.4,6l-15.5-9L40.1,212.6z"/>
				<path class="st14" d="M27.5,220.6l6.6-26.6c0.1-0.5,0.5-1,0.9-1.2c0.1-0.1,0.2-0.1,0.3-0.1c0.1,0,0.3,0,0.4,0.1l15.5,9
					c-0.1-0.1-0.2-0.1-0.4-0.1c-0.1,0-0.2,0.1-0.3,0.1c-0.4,0.2-0.8,0.7-0.9,1.2L43,229.6c-0.1,0.4,0,0.7,0.1,0.9
					c0,0,0.1,0.1,0.1,0.1l-15.5-9c0,0-0.1,0-0.1-0.1C27.4,221.3,27.4,221,27.5,220.6z"/>
				<path class="st15" d="M47.5,202.5c0-0.1,0.1-0.2,0.1-0.3L36,195.5l-6.1,24.8l11.6,6.7L47.5,202.5z"/>
				<g>
					<path class="st16" d="M50.5,201.8c-0.4,0.2-0.8,0.7-0.9,1.2L43,229.6c-0.1,0.4,0,0.7,0.1,0.9c0.2,0.2,0.5,0.2,0.8,0l11.7-6.8
						c0.5-0.3,0.9-1,0.9-1.6s-0.4-0.8-0.9-0.5l-10.4,6l6.2-24.9c0.2-0.7-0.1-1.1-0.6-1C50.7,201.7,50.6,201.8,50.5,201.8z"/>
				</g>
			</g>
		</g>
	</g>
	<path class="st15" d="M196.2,210.2c0,4.2,3.4,5.6,7.6,3.2c4.2-2.4,7.6-7.7,7.6-11.9s-3.4-5.6-7.6-3.2
		C199.6,200.7,196.2,206,196.2,210.2z"/>
	<polygon class="st0" points="196.2,226.5 211.4,217.8 211.4,212 196.2,220.7 	"/>
	<polygon class="st15" points="196.2,235.2 211.4,226.5 211.4,223.5 196.2,232.3 	"/>
	<polygon class="st15" points="196.2,240.6 211.4,231.9 211.4,228.9 196.2,237.7 	"/>
	<polygon class="st15" points="199,241.5 211.4,234.3 211.4,237.2 199,244.4 	"/>
	<polygon class="st15" points="196.2,251.4 211.4,242.6 211.4,239.7 196.2,248.4 	"/>
	<g>
		<g>
			<path class="st1" d="M145,245.5c-0.5,1.2-1,2.4-1.5,3.5c-0.4,1.7-1.2,3.2-2,4.7c-0.3,1.1,0.3,1.1,1.3,0.6l2.2-3.2
				c0.6,0.5,1,1.4,1.4,2.5l-0.6,4.9c0.2,1,0.5,0.9,1,0.3l0.9-4.5l0.1,4.8c0.3,0.4,0.6,0.3,0.8-0.4l0.3-1.4c0.2,0.5,0.5,0.4,0.7-0.1
				c0,0,0.2-5.8,0.2-5.9c0-0.1-1.9-6.7-1.9-6.7l-0.7-1.4l-2.9,0.8L145,245.5z"/>
			<path class="st15" d="M135.7,217.9c1,3.9,0.8,8.6,2.1,14.2c1.8,5.6,4,8.4,6.6,14.8c0.4,0.6,4-0.2,3.8-0.8
				c-2.7-12.3-1.1-8.3-2.8-13.6c-0.8-4.1-0.8-9.3-1.3-14.2c-0.3-3.2-1.5-5-3.2-5.8C137,211.2,133.5,214.2,135.7,217.9z"/>
			<path class="st4" d="M136,299.6c0,0-0.5,2.9-0.3,4.2c0.3,1.3,3.6,2.1,3.6,2.1s2.8,3.4,6.7,3.1c2.3-0.2,3.1-0.8,3.5-1.5
				c0.4-0.7,0-1.6-0.4-2.2c-0.5-0.6-3.4-1.7-4.6-3.6c-0.6-0.9-1.6-2.9-1.6-2.9l-0.1-1.1c-0.2-1.5-1.4-2.7-2.9-2.7
				c-2-0.1-3.6,1.6-3.5,3.5l0,0.6L136,299.6z"/>
			<path class="st4" d="M122.3,308.4c-0.5,0.9-0.5,2.5-0.5,4.7c0.6,1.2,1.5,2.3,2.7,2.6c0,0,0.9,4,6.3,4.2c5.1,0.1,5-1.9,5-1.9
				c0,0,0-1.2-1.2-2.1c-0.7-0.6-3.4-2.9-4.1-3.8c-0.7-0.9-1.2-2.2-1.2-2.2l-0.2-3.7h-6.8L122.3,308.4z"/>
			<path class="st3" d="M141.8,245l-9,12.2c0.4,3.4,1.1,12.7,1.9,15.8c-1.7,12,0.5,25.7,1.5,26.5c1.4,1.1,4.7,1.8,6.6-1
				c0,0-0.9-13.2,0.8-27L141.8,245z"/>
			<path class="st0" d="M135.5,254.8l-2.5,22.6c-2.8,14-4,32.2-4,32.2c-1.6,2.9-5.9,1.7-7.3,0c-0.2-1.8-0.3-3.7-0.4-5.6
				c-0.5-8.4-0.5-17.7,2.7-25.7c-1-5.9-2.1-16.9-1.5-22.2c-1-3.1-1.4-7.4,0.4-11.8c0-0.1,0-0.1,0.1-0.2c0,0,0.1,0.1,0.2,0.1
				c0.7,0.6,1.6,1.1,2.5,1.4c6.5,2.1,16.2-3.2,16.3-3.1C142.1,249.2,139.7,251.7,135.5,254.8z"/>
			<path class="st3" d="M126.3,278.8c-3.1,5.5-4.3,14.9-5,25.2c-0.5-8.4-0.5-17.7,2.7-25.7c-1-5.9-2.1-16.9-1.5-22.2
				c-1-3.1-1.4-7.4,0.4-11.8l0.2,0l3.3-0.5c-0.3,0.6-0.5,1.3-0.7,1.9c-1.2,3.5-1.3,6.9-0.2,10C124.1,262.3,124.9,270.4,126.3,278.8z
				"/>
			<path class="st15" d="M143.4,234.4c-0.4,2.7-1,5.3-1.5,7.8c0,0,0,0.7-0.4,1.5c-0.6,1.4-2.3,3.3-6.6,3.7c-2.9,0.4-5.1,0.4-6.7,0.2
				c-1.2-0.2-2.2-0.4-3-0.8c0,0-0.1,0-0.1-0.1l-0.5-0.2c-2.2-1.3-2.1-3.1-2.1-3.1c-0.9-4.5-1.5-9.1-1.8-13.7c-0.1-1.2-0.1-2.8,0-4.6
				c0.1-3.4,1.1-7.2,1.1-9.5c4.7-1.8,5.8-2.8,9.7-5c4-0.8,7.8-0.5,11.2,0.1C144.9,219.1,144.6,227.1,143.4,234.4z"/>
			<path class="st18" d="M125.2,246.7c0,0-0.1-0.1-0.1-0.1l-0.5-0.2c-2.2-1.3-2.1-3.1-2.1-3.1c-0.9-4.5-1.5-9.1-1.8-13.7
				c-0.1-1.2-0.1-2.8,0-4.6c1.8-1,3.8-2.1,3.8-2.1C122.9,230.4,123.4,238.4,125.2,246.7z"/>
			<polygon class="st0" points="135,218.6 135.7,220.7 136.9,220.2 136.9,217.9 135.7,217.1 			"/>
			<path class="st0" d="M135.7,220.7c0.3,4.4,0.3,12.7,0,17.3l2,1.9l1.3-3c-0.3-4.5-1.1-12.3-2.1-16.6L135.7,220.7z"/>
			<path class="st1" d="M132.3,208.5c-0.1,0-2.4,2.9-2.4,2.9c-3.1,1.7,0.9,8.2,5.1,7.6l3.5-2.4L132.3,208.5z"/>
			<path class="st18" d="M130.6,210.5c-0.6,0.4-1.6,1.1-2.4,1.9c0,0,1.7,7.9,6.8,8.3c0.4-1.4,0.9-2.4,0.9-2.4
				C132.7,217.7,130.6,212.9,130.6,210.5z"/>
			<path class="st18" d="M135.9,218.2l1.9,1.8c0,0,1.8-7.4,0.2-9C136.5,209.5,135.9,218.2,135.9,218.2z"/>
			<path class="st1" d="M137.5,200.7c-3.8,0-5.9,1.8-6.1,5.7c0.1,4.1,0.3,6.6,2.3,9.4c1.2,1.6,2.9,2.7,4.9,2.6
				c2.3-0.1,5.7-5.6,6-9.6C145.1,204.9,141.7,201.8,137.5,200.7z"/>
			<path d="M144.1,211.8c-0.9,2-5.8,1.6-8-0.8l-0.2,1.5l-2-1.7l-1.8,2.3l-0.6-0.9c-1.6-3.2-1.5-8.5,3-11.1
				C140.5,198.6,148.1,205.7,144.1,211.8z"/>
			<path class="st1" d="M133.2,212.5c-0.2-0.4-0.4-0.8-0.5-1.3c0-0.5,0.1-1,0.4-1.3c0.4-0.3,0.9-0.4,1.3-0.1
				c0.3,0.2,0.4,0.5,0.4,0.9c0,0.3-0.1,0.6-0.2,0.9c-0.1,0.3-0.2,0.6-0.2,0.8c-0.1,0.2-0.1,0.4-0.3,0.5c-0.2,0.1-0.4,0-0.5-0.1
				C133.4,212.8,133.3,212.7,133.2,212.5z"/>
			<path class="st1" d="M113.6,253.9l-0.2,3.5l0.1,3.1l0.9,2.3c0.2,0.6,0.8,0.7,0.6,0l0.8,2.5c0.2,0.8,0.9,0.8,0.9,0l-0.6-3.4
				l2.1,4.6c0.3,0.7,1.2,0.8,1-0.2l-1.5-5l1.6,2.7l1.5,1.8c0.6,0.6,1.5,0.3,1.1-0.5l-1.6-2.6c0,0-0.7-2-1-2.9c0-0.2,0.4-2,0.4-2
				l3.6,1.9c1,0.3,1.4-0.5,0.5-1.2l-3.7-3.2c0,0-2.1-1.3-2.3-1.4c-0.2-0.1-0.2-0.1-0.2-0.1l-0.5-1.7l-3.5,0.3L113.6,253.9z"/>
			<path class="st15" d="M120.4,216.4c-3.9,4.2-5.9,9.1-8.8,16.4c-0.7,6,0.4,13.5,1.9,21.4c1.1,0.6,2.3,0.1,3.9-0.6
				c-0.1-5.9,1.3-11.9,0.7-17.7c3.1-2,6.2-7.6,9.6-12.6C128.7,216.5,124.6,212.7,120.4,216.4z"/>
		</g>
		<g>
			<g>
				<path class="st0" d="M169.8,326.9c-3.7-0.2-2.9-6.5-1.9-9.9c0.4-1.2,1.8-1.8,3-1.4c1.2,0.4,2,2.7,1.9,4
					C172.9,320.8,174.2,327.2,169.8,326.9z"/>
				<path class="st1" d="M167.8,320.5c-0.6-5.3,5.1-5.7,4.4,0c-0.2,1.5-1.2,2.6-2.1,2.7C168.5,323.2,167.9,321.6,167.8,320.5z"/>
				<g>
					<g>
						<path class="st1" d="M150.8,318.4c-1.6,1.3-3.6,2-5.6,1.9c-0.3,0-0.6,0-0.8-0.3c-0.3-0.3-0.1-0.8,0.1-1.2
							c1.9-3,5.3-5.6,6.9-8.8c0.2-0.4,0.3-0.8,0.6-1c0.5-0.4,1.2-0.3,1.7-0.4c0.5-0.1,1.1-0.5,1.6-0.2c0.4,0.2,0.5,0.9,0.7,1.4
							c0.1,0.5,0.4,1.9,0.6,2.4c0.2,0.5,0.3,1.1,0.1,1.7c-0.2,0.7-0.8,1.2-1.4,1.5c-0.6,0.3-1.3,0.5-1.9,0.9
							C152.5,316.7,151.7,317.6,150.8,318.4z"/>
						<path class="st0" d="M144.4,320c0.2,0.2,0.5,0.2,0.8,0.3c2,0.1,4-0.6,5.6-1.9c0.9-0.7,1.7-1.7,2.8-2.3
							c0.6-0.3,1.3-0.5,1.9-0.8c0.6-0.3,1.2-0.8,1.4-1.5c0.2-0.5,0.1-1.1-0.1-1.7c-0.2-0.5-0.4-1.8-0.5-2.2c0-0.1-0.1-0.1-0.1-0.2
							c-0.1-0.5-0.2-1.1-0.7-1.4c-0.5-0.3-1.1,0.1-1.6,0.2c-0.6,0.1-1.3,0.1-1.7,0.4c-0.3,0.3-0.5,0.7-0.6,1
							c-0.6,1.3-1.5,2.3-2.5,3.3c-1.5,1.5-3.2,3.7-4.4,5.5C144.3,319.2,144.1,319.7,144.4,320z"/>
						<path class="st1" d="M147.8,315c0,0.2,0,0.4,0.2,0.5c0.1,0.1,0.3,0.1,0.5,0.1c1.8-0.1,3.4-1.2,4.8-2.4c0.7-0.6,1.4-1.2,2-1.9
							c0.3-0.5,0.7-0.9,0.9-1.5c0-0.1-0.1-0.1-0.1-0.2c-0.1-0.5-0.2-1.6-0.6-1.8c-0.5-0.3-1.1,0-1.7,0.2c-0.6,0.1-1.5-0.2-1.9,0.2
							c-0.3,0.3-0.2,1.1-0.4,1.5c-0.6,1.3-1.6,2.6-2.6,3.6c-0.3,0.4-0.6,0.8-0.8,1.2C147.9,314.7,147.8,314.8,147.8,315z"/>
					</g>
					<path class="st1" d="M149.5,278.6c0.1,0.8,0.1,1.8,0.2,2.8c0.1,1,0.1,2.1,0.2,3.2c0.1,0.9,0.1,1.9,0.2,2.9
						c0.6,9.9,1.4,22.2,1.4,22.2c0.9,1.7,4.3,2.1,4.6,0c0.4-6.5,1.5-12.2,2.3-17.4c0.3-1.8,0.5-3.5,0.7-5.2c0.1-1.4,0.2-2.8,0.2-4.2
						v-0.2c0-1.2-0.1-2.4-0.3-3.6c-0.1-0.4-0.1-0.7-0.2-1l-7.6-4.9C151.1,273.3,149.5,278.4,149.5,278.6z"/>
				</g>
				<g>
					<g>
						<path class="st1" d="M158.4,267.7c1.3,6.4,2,11.5,2.7,15.5c0.1,0.3,0.1,0.6,0.2,0.9c0.3,1.5,0.6,2.8,1,3.9
							c0.1,0.3,0.2,0.5,0.3,0.7l0.6,3l0.3,1.3l4.9,23.3l0.2,0.8l0.2,0.8c0,1.8,2.8,1.2,3-0.3c0-0.1,0-0.2,0-0.4c0-0.3,0.1-0.7,0.1-1
							c1.5-14.1,1.1-19.8,0.1-25.1c-0.1-0.7-0.2-1.4-0.4-2c-0.2-1-0.4-2-0.6-3.1c0.1-0.3,0.1-0.7,0.1-1c0-0.1,0-0.2,0-0.3
							c0-0.1,0-0.1,0-0.1c0.8-7.3,0.6-13,0.4-16.8H158.4z"/>
					</g>
					<g>
						<path class="st1" d="M158.4,267.7c1.3,6.4,2,11.5,2.7,15.5c0.1,0.3,0.1,0.6,0.2,0.9c0.3,1.5,0.6,2.8,1,3.9
							c0.1,0.3,0.2,0.5,0.3,0.7l0.6,3l0.3,1.3l4.9,23.3l0.2,0.8l0.2,0.8c0,1.8,2.8,1.2,3-0.3c0-0.1,0-0.2,0-0.4c0-0.3,0.1-0.7,0.1-1
							c1.5-14.1,1.1-19.8,0.1-25.1c-0.1-0.7-0.2-1.4-0.4-2c-0.2-1-0.4-2-0.6-3.1c0.1-0.3,0.1-0.7,0.1-1c0-0.1,0-0.2,0-0.3
							c0-0.1,0-0.1,0-0.1c0.8-7.3,0.6-13,0.4-16.8H158.4z"/>
					</g>
				</g>
			</g>
			<path class="st19" d="M141.7,250.4l11.8-2.4c0,0,4.5-14.9,4.3-15.1c-0.2-0.2-4.5-9.2-4.5-9.2l-3.4,18.7l-10.2,5.1L141.7,250.4z"
				/>
			<path class="st15" d="M141.7,250.4l11.8-2.4c0,0,4.5-14.9,4.3-15.1c-0.2-0.2-4.5-9.2-4.5-9.2l-3.4,18.7l-10.2,5.1L141.7,250.4z"
				/>
			<path class="st20" d="M164.8,214.6c7.5,2.4,5.9,9.6,3.9,15.1l-5.3-5L164.8,214.6z"/>
			<path class="st0" d="M149.8,284c1.1,3.1,16.7,9.4,21.7,4.5l1.4-21.5c1.3-7.1,0.2-10.7-3.5-14.1c-0.4-0.4-0.9-0.8-1.4-1.2
				l-10.9-0.4l-4.3-0.2C149,262.9,148.9,275.8,149.8,284z"/>
			<path class="st15" d="M148.1,240.3c0,2.2,2.1,4.2,4.6,3.8c0,2.1,0.6,5,0,6.9c1,2.5,2.4,4.4,5.2,5.1c2.8,0.7,8.3,0.1,11.5-3.3
				c-0.5-3.9,0.8-8.8,2.2-13c1.1-3.2,1.4-7.3,1.7-8.7c-2.5-3.2-4.9-4.5-8.1-6.8c-3.2-2.3-5.7-4.9-9.4-3.5c-3.7,1.4-3.1,8.5-4.5,11.4
				C149.9,235.3,148.1,237.3,148.1,240.3z"/>
			<path class="st3" d="M152.7,251c1,2.5,2.4,4.4,5.2,5.1c2.8,0.7,8.3,0.1,11.5-3.3c3.7,3.4,4.8,7.1,3.5,14.1l-1.4,21.5
				c-0.4,0.4-1.2,1-2.4,1.4c1-7.5-0.1-24.8-1.7-30.7c-9.1,0.4-12.9-1.8-15-6.8L152.7,251z"/>
			<path class="st18" d="M152.7,251c1,2.5,2.4,4.4,5.2,5.1c2.8,0.7,8.3,0.1,11.5-3.3c-0.5-3.9,0.8-8.8,2.2-13l-2.7-2.3l-4.3,7.2
				c-2.8,4.8-10.2,3.8-10.5-1l-1.3,0.4C152.8,246.2,153.4,249.1,152.7,251z"/>
			<path class="st1" d="M161.8,248.3c-0.4,0.7-1.1,1.3-2.2,1.7l-1.5,0.3c-0.1,0.5-0.8,0.5-1.5,0.6c-0.5-0.1-0.7-0.3-0.7-0.7
				c-0.4-0.3-0.6-0.6-0.5-1c-0.4-0.3-0.5-0.6-0.3-1.1c-0.3-0.4-0.5-0.7-0.2-1.2l-3.8,0.4c-0.8,0.1-1.1-0.7,0-0.9l7-1.3
				c1-0.2,2-0.2,3,0l2.4,0.6l-0.1,2.9L161.8,248.3z"/>
			<path class="st15" d="M173.3,231.2c4,4.9,8.2,18.5,5.3,20.5c-3.3,2.9-10.4-0.3-16.9-3c0.3-1.6,0.4-2.7-0.6-3.5l12.1,1.4l-4.8-7.7
				C166.5,232.6,169.7,228.8,173.3,231.2z"/>
			<path class="st1" d="M163.8,219.5c0.5,1.6,1.8,4.2,2.1,5.8c0.4,1.9-3.2,4.9-5.6,4.8c-1.7-0.3-2.1-2.5-2.4-4.5L163.8,219.5z"/>
			<path class="st21" d="M162.5,220.7c0,0,1.4,11.6-4.2,10.6c-3.6-0.6-2.9-6.6-2.9-6.6L162.5,220.7z"/>
			<path class="st20" d="M156.1,213.5c-4.8,0.7-10.1,6.6-2.1,9.8C153.8,220.7,153.3,218.7,156.1,213.5z"/>
			<path class="st1" d="M159,210.1c-5.6,0.8-7.3,4-6.7,8.5c0.1,3.7,3.2,8.6,5.3,8.6c3.1,0.2,4.6-3.4,7.2-7.3
				C166.9,213.5,164.2,209.4,159,210.1z"/>
			<path class="st20" d="M152.4,218.7c1.2,1.2,3,1.9,5.3,2.5c2,0.8,3.8,0.7,4.6,1.8l2.3-0.9c2.3-2.6,2.5-10.1-1.4-11.7
				C156.9,207.8,149.5,214.1,152.4,218.7z"/>
			<path class="st1" d="M162.4,221.9c0.3-1.4,1.3-2.3,2.1-1.5c0.4,0.4,0.4,1,0,1.9c-0.3,0.7-0.7,1-1.2,1.1
				C162.5,223.4,162.1,222.9,162.4,221.9z"/>
			<path class="st22" d="M145.1,238.6c3.5,3.3,5.9,8.3,7.7,15.6l-12.2,0.4c0.2-5.7-3.5-11-8.2-16H145.1z"/>
			<path class="st1" d="M140.9,247.8c1.3,0.1,1.3,1.1,0.3,1.2c1.4,0,1.7,1.2,0.5,1.3c0.8,0,1,1-0.2,1.1c0.9,0.3,1,0.8,0,1l-1.4,0.1
				c-0.5,0.1-1.3-0.3-1.1-1c-0.5,0-0.8-1.1-0.6-1.2c-0.4-0.2-0.7-1-0.4-1.3c-0.6-0.3-0.7-1.2,0.2-2.1l0.4-0.4l0.6,1.2L140.9,247.8z"
				/>
		</g>
	</g>
	<polygon class="st1" points="68.3,184.2 68.3,187.8 63,187.7 63.7,183.4 	"/>
	<path class="st1" d="M65.6,181.7l-2.1-1.2l-2.8,1.5c-0.7,0.4-0.9,1.5,0.2,1.2l1.9-0.4c-0.1,1.3,0.2,1.8,0.9,2.6l1,0.9l3.3-0.1
		l0.4-2L65.6,181.7z"/>
	<path class="st18" d="M77.9,184.9l-9.6-0.7c-1.7,0.7-2.1,2.8-1.4,4.3l8.8,3.7L77.9,184.9z"/>
	<g>
		<path class="st4" d="M68,270.9c0-1.9,1.5-2.6,3.6-2.8c1.9,0,4.4,0.8,7.7,1.6l3.8,2.1c0.7,1.9,0.7,3.7,0.3,5.3
			c-1.1,0.9-2.4,1.5-3.7,1.2l-4.3-1.8l-0.3-0.6C71.7,275.4,68,273.9,68,270.9z"/>
		<path class="st4" d="M81.8,263.4c0-1.5,1.4-1.8,3.4-2c3.7,0,3.9,1.9,7.3,1.8l3.4,2c0.7,2,0.5,4.1,0.1,5.7c-1,0.9-2.6,1.1-3.7,0.9
			l-3.5-2l-0.3-0.6C85.3,268.6,81.8,266.2,81.8,263.4z"/>
		<path class="st3" d="M94,210.8L81.6,216c0,2.2,0,4.3,0.2,5.8c0.8,5.7,3.1,14.3,3.1,14.3c1.7,7.3,2.3,16.4,2.7,26
			c0.1,3.5,5.2,6.5,8.5,3.2c0.9-11.7,0.9-23.1-1.8-30.6c1.3-5.9,0.1-12.6-0.3-19.4C94.4,215.2,93.6,211,94,210.8z"/>
		<path class="st0" d="M84.7,223.1c0,6.8,0.1,12.4-1.6,18.3c2.3,7.5,1.7,18.7,0.1,30.4c-2,2.2-4.9,2.2-6.7,0.9
			c-1.2-0.8-1.9-2.2-1.6-4l-1.3-26c0,0-1.8-8.6-2.3-14.3c-0.5-5.7,1.5-18.7,1.5-18.7c1.1,0.3,2.2,0.5,3.3,0.7
			c7.4,0.9,14.1-1.7,16.3-5.9c0.1,0.3,0.2,0.6,0.3,0.9c0.8,2.5,1.3,5.2,1.4,7.9C94.4,219.3,88.5,221.6,84.7,223.1z"/>
		<path class="st15" d="M71.8,186.9c0.3,3.8,0,7.5-0.2,11c-0.1,1.3-0.2,2.6-0.2,3.9c-0.1,2.4-0.1,4.8,0.3,7c1,0.6,2,1,3,1.4
			c6.2,2.5,12,2,17.1-4.2c1.3-2.6,5.1-11.5,6.6-21c0.3-4.4-0.8-7.6-4.5-8.9c-6.7,1.1-13.8,4.6-21.1,10
			C72.6,186.4,72.2,186.7,71.8,186.9z"/>
		<path class="st1" d="M78.4,175.9l0.6,6c3.9,0,9.9-2.7,9.1-4.8l-2-3.9L78.4,175.9z"/>
		<path class="st1" d="M76.6,176.7c1.5,1.7,3.8,1.5,6.2,0.9c3.4-1.6,5.9-3.9,5.6-8.4c0.3-3.2-1.2-6.6-6.7-6.5
			c-3.5,0.1-6.5,1.4-6.7,5.2C74.9,167.8,74.7,174.9,76.6,176.7z"/>
		<path class="st18" d="M78.8,179.8l-1.4,3.2c6.6-0.7,12.5-3.2,11-6.3l-1.2-1.4C88.2,177.6,81.7,180.2,78.8,179.8z"/>
		<path class="st4" d="M74.9,166.9c0.3,1.3,1.1,2.3,2.2,3.1c0,0-0.3,2.9-0.1,3c0.2,0.1,1.7,1.4,1.7,1.4l0.8,2.2
			c2.6,1.9,6.5,0.5,7.7-1.3c0.7-0.9,1.5-4.5,1.3-7.9c-0.4-2.9-2.5-5.7-6.9-5.8C77.2,161.4,74.5,164,74.9,166.9z"/>
		<path class="st1" d="M77.5,173.5c-0.4-0.5,0.2-1.6,0.7-1.7c0.7-0.2,1,0.7,1.1,1.3c0.1,0.7,0,1.2-0.4,1.8c-0.4,0.7-1.2,0-1.4-0.5
			C77.4,173.9,77.8,173.8,77.5,173.5z"/>
		<path class="st3" d="M71.4,228.5c0.5,5.7,2.3,14.3,2.3,14.3l1.3,26c-0.2,1.7,0.5,3.1,1.6,4c-1.1-10.9-1.6-21.2,0-29.1
			c-2.4-9-3.6-18.4-0.7-25.4c0-2.8-0.3-5.3,0.3-7.3c-1-0.3-2.1-0.7-3.1-1.2C72.9,209.8,70.9,222.8,71.4,228.5z"/>
		<polygon class="st18" points="79.3,193.4 80.8,211.9 74.2,221.4 73.2,205.6 		"/>
		<path class="st1" d="M67.7,223l3.4-1.1l0.2-0.1l0.2,0.4c0.1,0.3,1.1,5.6,1.1,5.8c-0.2,1.5-0.9,2.9-1.7,4.3l-2.7,1.9
			c0,0-1.5,0.6-1.6-0.3l0.9-1.4l-0.5-2l-0.5-1.1l-0.5,1.3c-0.9,2-2.3,1.8-2.1,0.9l0.8-1.9l0.5-3.1L67.7,223z"/>
		<path class="st15" d="M74,185.5c-2.9,1.8-4.2,3-4.4,8.7l0.7,15.3l-3.4,14.5c0.3,1.6,3.8,2.5,5.1,1.5c2.3-3.8,3.5-7.1,6-13.5
			l1.4-16.8C79.8,189,79.9,184.7,74,185.5z"/>
	</g>
	<g>
		<path class="st0" d="M135.8,268.6l-44.2-25.5c-2.6-1.5-4.9-1.6-6.6-0.6L60,256.9c0.1,0,0.1,0,0.2-0.1c-1.8,0.9-2.9,3-2.9,6
			l-0.1,47.4l2.3,1.3l24.9-14.5l0.1-26.6l26.4,15.2c3.9,2.2,7,7.6,7,12.1l-0.1,47.4c0,0,2.3,1.3,2.3,1.3l24.9-14.5l0.1-47.4
			C145,278.8,140.9,271.6,135.8,268.6z M120.1,299.1l0,0.1L120.1,299.1L120.1,299.1z"/>
		<path class="st0" d="M84.5,270.5l-0.1,26.6l-24.9,14.5l0.1-47.4c0-0.2,0-0.4,0-0.6c0-0.1,0-0.2,0-0.3c0-0.4,0.1-0.8,0.2-1.2
			c0-0.1,0.1-0.2,0.1-0.3c0-0.1,0.1-0.3,0.2-0.4c0.1-0.1,0.1-0.2,0.2-0.4c0-0.1,0.1-0.2,0.2-0.2c0.1-0.1,0.2-0.2,0.3-0.3
			c0.1-0.2,0.3-0.3,0.4-0.4c0.1-0.1,0.3-0.2,0.4-0.3c0.1-0.1,0.2-0.1,0.3-0.2c1.2-0.6,2.9-0.4,4.7,0.6L84.5,270.5z"/>
		<g>
			<path class="st15" d="M120.1,299.1l-0.1,47.4l-2.3-1.3l0.1-47.4c0-4.4-3.1-9.8-7-12.1l-26.4-15.2l-17.9-10.3
				c-1.8-1-3.5-1.2-4.7-0.6c-0.1,0-0.2,0.1-0.3,0.2c-0.2,0.1-0.3,0.2-0.4,0.3c-0.1,0.1-0.3,0.2-0.4,0.4c-0.1,0.1-0.2,0.2-0.3,0.4
				c-0.1,0.1-0.1,0.1-0.2,0.2c-0.1,0.1-0.1,0.2-0.2,0.4c-0.1,0.1-0.1,0.3-0.2,0.4c0,0.1-0.1,0.2-0.1,0.3c-0.1,0.4-0.2,0.8-0.2,1.2
				c0,0.1,0,0.2,0,0.3c0,0.2,0,0.4,0,0.6l-0.1,47.4l-2.3-1.3l0.1-47.4c0-5.6,3.8-8,8.6-5.7c0.2,0.1,0.4,0.2,0.7,0.4l17.8,10.3
				l26.4,15.2C116,286.1,120.1,293.2,120.1,299.1z"/>
		</g>
	</g>
	<g>
		<path class="st12" d="M119.4,265.3l-6.6-26.6c-0.1-0.5-0.5-1-0.9-1.2c-0.1-0.1-0.2-0.1-0.3-0.1c-0.1,0-0.3,0-0.4,0.1
			c0,0-15.5,9-15.5,9c-0.3,0.1-0.4,0.5-0.2,1l3.5,14c0,0-8.4,4.9-8.4,4.9c-0.2,0.1-0.3,0.3-0.3,0.6c0,0.6,0.4,1.3,0.9,1.6l11.7,6.8
			c0.3,0.2,0.6,0.2,0.8,0c0,0-0.1,0.1-0.1,0.1l15.5-9c0,0,0.1,0,0.1-0.1C119.4,266.1,119.5,265.7,119.4,265.3z"/>
		<g>
			<g class="st13">
				<path class="st14" d="M106.8,257.3c-0.3-0.2-0.5-0.2-0.7-0.1l-15.5,9c0.2-0.1,0.4-0.1,0.7,0.1l10.4,6l15.5-9L106.8,257.3z"/>
				<path class="st14" d="M119.4,265.3l-6.6-26.6c-0.1-0.5-0.5-1-0.9-1.2c-0.1-0.1-0.2-0.1-0.3-0.1c-0.1,0-0.3,0-0.4,0.1l-15.5,9
					c0.1-0.1,0.2-0.1,0.4-0.1c0.1,0,0.2,0.1,0.3,0.1c0.4,0.2,0.8,0.7,0.9,1.2l6.6,26.6c0.1,0.4,0,0.7-0.1,0.9c0,0-0.1,0.1-0.1,0.1
					l15.5-9c0,0,0.1,0,0.1-0.1C119.4,266.1,119.5,265.7,119.4,265.3z"/>
				<path class="st15" d="M99.4,247.3c0-0.1-0.1-0.2-0.1-0.3l11.6-6.7L117,265l-11.6,6.7L99.4,247.3z"/>
				<g>
					<path class="st16" d="M96.4,246.6c0.4,0.2,0.8,0.7,0.9,1.2l6.6,26.6c0.1,0.4,0,0.7-0.1,0.9c-0.2,0.2-0.5,0.2-0.8,0l-11.7-6.8
						c-0.5-0.3-0.9-1-0.9-1.6c0-0.6,0.4-0.8,0.9-0.5l10.4,6l-6.2-24.9c-0.2-0.7,0.1-1.1,0.6-1C96.2,246.5,96.3,246.5,96.4,246.6z"/>
				</g>
			</g>
		</g>
	</g>
	<path class="st15" d="M125.2,310c0,4.2,3.4,5.6,7.6,3.2c4.2-2.4,7.6-7.7,7.6-11.9s-3.4-5.6-7.6-3.2
		C128.6,300.5,125.2,305.8,125.2,310z"/>
	<polygon class="st0" points="125.2,326.3 140.3,317.6 140.3,311.8 125.2,320.5 	"/>
</g>
<g id="workshops_bubble">
	<polygon class="st23" points="207.8,95.5 271.6,95.5 271.6,4.4 72.5,4.4 72.5,95.7 137.7,95.6 146.6,95.5 153.6,95.5 171.8,127 
		191,95.5 197.5,95.5 	"/>
	<g>
		<path class="st0" d="M80,36h4.8l2.6,10.6c0.5,2.1,1,4.3,1.5,6.4H89c0.5-2.1,1-4.3,1.6-6.4L93.3,36h3.3l2.7,10.6
			c0.5,2.1,1.1,4.3,1.6,6.4h0.1c0.5-2.1,1-4.4,1.6-6.5l2.7-10.5h4.6l-6.4,24.8h-4.8l-2.2-8.7c-0.5-2.1-1-3.9-1.5-5.9h-0.1
			c-0.5,2-0.9,3.9-1.5,6l-2.2,8.6h-4.8L80,36z"/>
		<path class="st0" d="M109.4,48.4c0-7.2,4.7-12.8,10.9-12.8s10.9,5.5,10.9,12.8c0,7.2-4.7,12.8-10.9,12.8S109.4,55.7,109.4,48.4z
			 M126.5,48.4c0-4.4-2.7-7.8-6.3-7.8s-6.3,3.5-6.3,7.8s2.7,7.8,6.3,7.8S126.5,52.8,126.5,48.4z"/>
		<path class="st0" d="M133.3,36h6.5c2.5,0,4.8,0.4,6.5,1.6c1.5,1.1,2.5,3,2.5,5.8c0,3.2-1.5,5.8-4.2,6.8l5.9,10.5h-5.3l-5.3-9.8h-2
			v9.8h-4.6V36z M140.1,47c1.2,0,2.2-0.2,2.9-0.6c0.8-0.5,1.2-1.3,1.2-2.5c0-1.2-0.3-1.9-1.2-2.4c-0.7-0.4-1.8-0.6-3.4-0.6h-1.8V47
			H140.1z"/>
		<path class="st0" d="M151.3,36h4.6V47l0.1,0l7.3-11h5.4l-7.9,11.5l8.5,13.3h-5.6L156,48.4l-0.1,0v12.3h-4.6V36z"/>
		<path class="st0" d="M169.7,53.9c2.2,1.8,5,2.6,6.6,2.6c1.7,0,2.9-0.8,2.9-2.6c0-2.3-2-2.5-4.6-3.5c-2.9-1.1-5.5-2.8-5.5-7.1
			c0-4.6,2.9-7.5,7.3-7.5c2,0,4.5,0.6,6.4,1.8v5.4c-2.2-1.6-4.8-2.4-6.4-2.4c-1.6,0-2.7,0.7-2.7,2.3c0,2.2,1.9,2.4,4.4,3.4
			c3.1,1.2,5.7,3,5.7,7.4c0,4.8-3.1,7.7-7.6,7.7c-2.1,0-4.6-0.6-6.6-1.8V53.9z"/>
		<path class="st0" d="M185.8,36h4.6v9.6h9V36h4.6v24.8h-4.6V50.4h-9v10.4h-4.6V36z"/>
		<path class="st0" d="M206.1,48.4c0-7.2,4.7-12.8,10.9-12.8c6.2,0,10.9,5.5,10.9,12.8c0,7.2-4.7,12.8-10.9,12.8
			C210.8,61.2,206.1,55.7,206.1,48.4z M223.3,48.4c0-4.4-2.7-7.8-6.3-7.8c-3.6,0-6.3,3.5-6.3,7.8s2.7,7.8,6.3,7.8
			C220.6,56.3,223.3,52.8,223.3,48.4z"/>
		<path class="st0" d="M230,36h6.2c2.5,0,4.5,0.3,6.2,1.3c1.8,1.1,3.4,3.2,3.4,6.6c0,3-1.2,5.2-3,6.5c-1.6,1.1-3.7,1.5-6.7,1.5h-1.4
			v8.9H230V36z M236.3,47.5c1.8,0,2.8-0.1,3.6-0.6c0.8-0.5,1.3-1.5,1.3-2.7c0-1.4-0.5-2.4-1.5-2.9c-0.8-0.4-2-0.5-3.6-0.5h-1.6v6.7
			H236.3z"/>
		<path class="st0" d="M247.4,53.9c2.2,1.8,5,2.6,6.6,2.6c1.7,0,2.9-0.8,2.9-2.6c0-2.3-2-2.5-4.6-3.5c-2.9-1.1-5.5-2.8-5.5-7.1
			c0-4.6,2.9-7.5,7.3-7.5c2,0,4.5,0.6,6.4,1.8v5.4c-2.2-1.6-4.8-2.4-6.4-2.4c-1.6,0-2.7,0.7-2.7,2.3c0,2.2,1.9,2.4,4.4,3.4
			c3.1,1.2,5.7,3,5.7,7.4c0,4.8-3.1,7.7-7.6,7.7c-2.1,0-4.6-0.6-6.6-1.8V53.9z"/>
	</g>
</g>
</svg>
