<?xml version="1.0" encoding="utf-8"?>
<!-- Generator: Adobe Illustrator 25.1.0, SVG Export Plug-In . SVG Version: 6.00 Build 0)  -->
<svg version="1.1" id="yoga" xmlns="http://www.w3.org/2000/svg" xmlns:xlink="http://www.w3.org/1999/xlink" x="0px" y="0px"
	 viewBox="0 0 275 232" style="enable-background:new 0 0 275 232;" xml:space="preserve">
<style type="text/css">
	.st0{fill:#3E8885;}
	.st1{fill:#0A3847;}
	.st2{fill:#F36D00;}
	.st3{fill:#DB6610;}
	.st4{fill:#F2C7AD;}
	.st5{fill:#DCB79E;}
	.st6{fill:#EEBFA2;}
	.st7{fill:#BD9C87;}
	.st8{fill:#E7BDA4;}
	.st9{fill:#D7DEE6;}
	.st10{fill:#EFF3F5;}
	.st11{fill:#662622;}
	.st12{fill:#483527;}
	.st13{fill:#7B5B43;}
	.st14{fill:#6C513C;}
	.st15{fill:#F9D69C;}
	.st16{fill:#8D5C2A;}
	.st17{fill:#71461D;}
	.st18{fill:#DDBE8A;}
	.st19{fill:#513B2B;}
</style>
<g id="yoga_icon">
	<polygon class="st0" points="32.7,181.6 98.8,143.4 68.9,126.2 69.3,126.2 99.2,143.5 33.1,181.6 	"/>
	<polygon class="st1" points="32.7,180.3 2.8,163 68.9,124.9 98.8,142.1 	"/>
	<polygon class="st1" points="2.8,163 2.8,164.3 32.7,181.6 32.7,180.3 	"/>
	<polygon class="st1" points="98.8,142.1 98.8,143.4 32.7,181.6 32.7,180.3 	"/>
	<path class="st2" d="M69.4,101.9c-0.7-0.4-1.5-0.4-2.3-0.4c-3,0.2-5.6,0.7-8.4,1.7c-2.4,0.9-4.9,1.8-7.3,2.7
		c-1.8,0.6-3.1,1.1-3.1,1.1c0,0.1,0.7,7,0.7,7c1.8-0.3,3.9-0.6,5.4-1.2c1.2-0.5,2.4-0.8,3.6-1.4c0.7-0.3,1.5-0.8,2.2-0.9
		c-0.2,0.9-1.4,1.8-2.1,2.4c-2.6,2.4-4.5,5.3-6.3,8.3c-0.3,0.4-0.5,0.8-0.8,1.2c0.1,0.8,0.6,1.7,1.9,2.4c0.4-0.4,0.7-0.7,1.1-1.1
		c0.7-0.6,1.4-1.2,1.9-1.7c3.4-3.4,6.9-6.7,10.4-10c1.7-1.6,3.2-2.8,4.1-5.1C71,105.4,71.3,103,69.4,101.9z"/>
	<path class="st3" d="M70.7,103.4c-0.2-0.6-0.6-1.1-1.3-1.5c-0.7-0.4-1.5-0.4-2.3-0.4c-3,0.2-5.6,0.7-8.4,1.7
		c-2.4,0.9-4.9,1.8-7.3,2.7c-1.8,0.6-3.1,1.1-3.1,1.1s0.1,0.6,0.3,1.4c0.5-0.4,1.1-0.6,1.8-1c1.4-0.7,2.6-0.7,4.1-1.1
		c4-1.2,6.2-2.1,10.3-3.2c1.2-0.3,4-0.7,5.1-0.2C69.9,103.1,70.7,103.4,70.7,103.4L70.7,103.4z"/>
	<path class="st4" d="M50.8,122.5c-0.1,0.1-0.1,0.2-0.2,0.3c-0.1,0.1-0.1,0.2-0.2,0.3c-0.1,0.1-0.3,0.1-0.5,0.1c-0.6,0-1.1,0-1.7,0
		c-0.1,0-0.2,0-0.3,0c-0.6,0.3-0.8,3.5-1,4.2c-0.2,1-0.4,2-0.6,2.9c-0.2,1.2-0.3,3.1,0,4.3c0.7-0.3,1.5-0.7,1.9-1.3
		c0.2-0.3,0.4-0.5,0.6-0.8c1-1.7,1.7-3.7,2.3-5.5c0.3-0.7,0.8-1.4,1.4-2C51.4,124.2,50.9,123.3,50.8,122.5z"/>
	<path class="st5" d="M46.5,130.3c-0.2,1.2-0.3,3.1,0,4.3c0.7-0.3,1.5-0.7,1.9-1.3c0.2-0.3,0.4-0.5,0.6-0.8c1-1.7,1.7-3.7,2.3-5.5
		c0.3-0.7,0.8-1.4,1.4-2c-0.7-0.4-1.1-0.8-1.4-1.2l-2,0.5h-1.8c-0.3,1.1-0.4,2.7-0.5,3.1C46.8,128.4,46.6,129.3,46.5,130.3z"/>
	<path class="st2" d="M49.5,111.5l-0.6-0.2l-0.7-3.3l-6.2,1.3l0,0c-1.8,3.8-1.8,8.9-1.6,13.1c0.2,2.7,0.5,5,0.9,7.6
		c0.1,0.8,0.4,2.1,0.4,2.9s-0.4,1.5-0.5,2.3c-0.2,1.7-0.3,3.6-0.3,5.3c0.1,1.9,0.5,3.5,0.8,5.4c0.3,1.5,0.8,3,0.9,4.6
		c0,0.1,0,0.2,0,0.2c0.5,0.3,1.7,0.8,3,0.1l0,0c0-0.1,0-0.2,0-0.3c-0.1-0.8,0.1-1.4,0.2-2.2c0.6-3.5,0.3-7.1,0.5-10.6
		c0.1-1.6,0.2-3.1,0.3-4.7c0.2-2.8,1-5.5,1.6-8.2c0.7-2.7,1-5.5,1.3-8.4C49.7,114,49.9,112.9,49.5,111.5z"/>
	<path class="st3" d="M43.6,109l-1.6,0.4c-1.8,3.8-1.8,8.9-1.6,13.1c0.2,2.7,0.5,5,0.9,7.6c0.1,0.8,0.4,2.1,0.4,2.9
		s-0.4,1.5-0.5,2.3c-0.2,1.7-0.3,3.6-0.3,5.3c0.1,1.9,0.5,3.5,0.8,5.4c0.3,1.5,0.8,3,0.9,4.6c0,0.1,0,0.2,0,0.2
		c0.2,0.2,0.6,0.3,1.1,0.4c-0.5-3-1.3-6.1-1.6-9.1c-0.3-2.8,0.4-5.6,0.8-8.4c0.3-2.9-0.1-5.7-0.4-8.6c-0.3-3.1-0.4-6.1-0.3-9.2
		C42.2,113.3,43,111.2,43.6,109z"/>
	<path class="st6" d="M58.5,76.1c-1.1,0.3-2.3,0.2-3.1-0.9c-0.3-0.3-0.4-0.6-0.4-1.1c0-0.2,0.1-0.7,0.1-0.9c0.1-0.3,0.4-0.7,0.6-1
		c0.3-0.4,0.6-0.8,1-1.2c0.6-0.6,1.2-1,1.9-1.4c2.6-1.6,5.6-2.2,8.3-3.8c0.2-0.1,0.3-0.2,0.5-0.3l2.7-1.2l5.8-2.4l4.9-1.8l2.7-0.5
		c0.4-0.1,1.8-0.7,2.2-0.9c0.5-0.2,1-0.4,1.5-0.6c0.6-0.2,2.6-0.7,3.6-0.2c0.3,0.2,1.2,0.6,1.2,0.7c0,1.1-1.3,1.3-2,1.7
		s-1.8,0.9-1.8,1s0.7,0,0.9,0c0.3,0,0.5-0.1,0.9,0c0.2,0.1,0.3,0.3,0.3,0.3c-0.1,0.3-1,0.4-1.5,0.5s-1.1,0.1-1.7,0.2
		c-0.8,0.2-1.6,0.1-2.5,0.1c-1-0.1-1.6,0.2-2.5,0.6c-1.3,0.6-2.5,1.3-3.7,2c-2.1,1.2-4.2,2.2-6.5,2.9c-1.2,0.3-2.2,1.5-3.2,2.3
		c-1.6,1.3-3.6,2-5.3,3.2C61.8,74.5,60.3,75.6,58.5,76.1z"/>
	<path class="st7" d="M68.5,70.3c1-0.8,2-1.9,3.2-2.3c2.3-0.7,4.4-1.7,6.5-2.9c1.2-0.7,2.4-1.4,3.7-2c0.9-0.4,1.5-0.7,2.5-0.6
		c0.8,0.1,1.6,0.1,2.5-0.1c0.5-0.1,1.1-0.1,1.7-0.2c0.6-0.1,1.5-0.2,1.5-0.5c0-0.1-0.1-0.3-0.3-0.3c-0.3-0.1-0.5-0.1-0.9,0
		c-0.3,0-0.9,0.1-0.9,0s1.1-0.6,1.8-1c0.6-0.3,1.7-0.6,1.9-1.3l-0.5-0.8l0,0L70.8,66l-15.6,8.9V75c0,0.1,0.1,0.1,0.1,0.2
		c0.8,1.1,2,1.2,3.1,0.9c1.8-0.4,3.3-1.6,4.8-2.6C65,72.3,67,71.6,68.5,70.3z"/>
	<path class="st8" d="M42.5,82.7c0.9-0.7,1.5-1.8,1.1-3.1c-0.1-0.4-0.3-0.7-0.6-1c-0.2-0.1-0.6-0.3-0.8-0.4c-0.3-0.2-0.8,0-1.1,0
		c-0.5,0-1,0-1.5,0.1c-0.8,0.1-1.5,0.4-2.3,0.7c-2.8,1.2-5.1,3.2-7.9,4.4c-0.2,0.1-0.4,0.2-0.6,0.2l-2.6,1.5l-5.4,3.3l-4.4,2.9
		l-2,1.9c-0.3,0.3-1.6,1-2,1.2c-0.5,0.3-0.9,0.5-1.4,0.8S8.9,96.9,8.7,98c-0.1,0.4-0.2,1.3-0.1,1.4c0.7,0.8,1.7,0,2.5-0.4
		c0.7-0.3,1.9-1.2,1.9-1.1c0.1,0.1-0.4,0.5-0.6,0.7c-0.2,0.3-0.3,0.4-0.4,0.8c-0.1,0.2,0.1,0.4,0.1,0.4c0.3,0.1,0.9-0.6,1.3-1
		c0.4-0.4,0.8-0.8,1.2-1.2c0.6-0.6,1.1-1.2,1.5-2c0.5-0.9,1.1-1.1,2-1.6c1.2-0.7,2.5-1.2,3.8-1.8c2.2-1,4.2-2.1,6.1-3.6
		c1-0.8,2.5-0.9,3.7-1.2c2-0.5,3.7-1.7,5.6-2.4C39.3,84.4,41.1,83.8,42.5,82.7z"/>
	<path class="st7" d="M11.2,99c0.7-0.3,1.9-1.2,1.9-1.1c0.1,0.1-0.4,0.5-0.6,0.7c-0.2,0.3-0.3,0.4-0.4,0.8c-0.1,0.2,0.1,0.4,0.1,0.4
		c0.3,0.1,0.9-0.6,1.3-1c0.4-0.4,0.8-0.8,1.2-1.2c0.6-0.6,1.1-1.2,1.5-2c0.5-0.9,1.1-1.1,2-1.6c1.2-0.7,2.5-1.2,3.8-1.8
		c2.2-1,4.2-2.1,6.1-3.6c1-0.8,2.5-0.9,3.7-1.2c2-0.5,3.7-1.7,5.6-2.4c1.7-0.6,3.5-1.2,4.9-2.3c0.8-0.7,1.4-1.6,1.2-2.8l-15.6,6.3
		L8.7,99c0,0.2,0,0.3,0,0.3C9.5,100.2,10.5,99.3,11.2,99z"/>
	<path class="st4" d="M50.1,158.2l-1.6-2.1l-1.9-2.5c-0.6-0.8-0.9-1.9-1-2.9c-1.3,0.7-2.4,0.2-3-0.1c0,0.1,0,0.2,0,0.4
		c-0.1,1.2-1,1.9-1.2,3.1c-0.2,0.9,0.3,1.9,0.9,2.6c0.6,0.7,1,1.3,1.5,2s1.2,1.4,2,1.8c0.8,0.5,1.8,0.7,2.7,0.7
		c0.8,0,1.6-0.2,2.2-0.7C51.2,159.5,50.5,158.9,50.1,158.2z"/>
	<path class="st9" d="M46,72.7c0.2-0.1,0.4-0.2,0.6-0.3C46.3,72.4,46.2,72.5,46,72.7z"/>
	<path class="st9" d="M54.5,73.8c0.1,0,0.1-0.1,0.2-0.1l0,0L54.5,73.8z"/>
	<path class="st9" d="M49.2,71.6c-0.3,0-0.7,0.1-1,0.1c-0.3,0.1-0.7,0.2-1,0.3c0.3-0.2,0.7-0.3,1-0.3C48.6,71.6,48.9,71.6,49.2,71.6
		z"/>
	<path class="st9" d="M40.4,77.5L40.4,77.5L40.4,77.5z"/>
	<path class="st9" d="M54,71.6c0.2,0,0.3,0,0.5,0.1C54.3,71.6,54.1,71.6,54,71.6z"/>
	<path class="st9" d="M49.5,71.5c0.2,0,0.5,0,0.7,0C50,71.5,49.7,71.5,49.5,71.5z"/>
	<path class="st9" d="M47.1,72L47.1,72L47.1,72z"/>
	<path class="st9" d="M51.6,71.4c0.3,0,0.6,0,0.9,0C52.2,71.5,51.9,71.4,51.6,71.4z"/>
	<path class="st9" d="M53,71.5c0.2,0,0.4,0,0.5,0C53.3,71.5,53.1,71.5,53,71.5z"/>
	<path class="st9" d="M40.7,77.2L40.7,77.2c-0.1,0.1-0.1,0.1-0.2,0.2C40.6,77.3,40.7,77.3,40.7,77.2L40.7,77.2z"/>
	<path class="st9" d="M50.6,71.5c0.2,0,0.5,0,0.7,0C51.1,71.4,50.8,71.4,50.6,71.5z"/>
	<path class="st9" d="M40.7,84.6c0,0.1,0.1,0.2,0.1,0.3C40.8,84.8,40.8,84.7,40.7,84.6L40.7,84.6z"/>
	<path class="st9" d="M41.1,85.4L41.1,85.4c0.2,0.4,0.3,0.8,0.5,1.2C41.4,86.2,41.2,85.8,41.1,85.4L41.1,85.4z"/>
	<path class="st10" d="M38.1,84.8L38.1,84.8L38.1,84.8z"/>
	<path class="st10" d="M43.6,78.6L43.6,78.6L43.6,78.6L43.6,78.6z"/>
	<path class="st10" d="M61.8,72.2c0-0.3-0.1-0.6-0.2-0.9v-0.1v0.1C61.6,71.6,61.7,71.9,61.8,72.2z"/>
	<path class="st10" d="M61.7,73.8c-0.1,0.3-0.2,0.6-0.3,1C61.5,74.4,61.7,74.1,61.7,73.8z"/>
	<polygon class="st10" points="56.9,78.7 56.9,78.7 55.3,74.8 55.3,74.8 55.3,74.8 	"/>
	<path class="st10" d="M50.2,71.5c0.1,0,0.2,0,0.4,0C50.4,71.5,50.3,71.5,50.2,71.5z"/>
	<path class="st10" d="M40.4,77.5l0.1-0.1C40.5,77.4,40.5,77.4,40.4,77.5z"/>
	<path class="st10" d="M49.2,71.6c0.1,0,0.2,0,0.3,0C49.4,71.5,49.3,71.5,49.2,71.6z"/>
	<path class="st10" d="M46.5,72.3c0.2-0.1,0.4-0.2,0.5-0.3C46.9,72.1,46.7,72.2,46.5,72.3z"/>
	<path class="st10" d="M47.1,72L47.1,72L47.1,72z"/>
	<path class="st10" d="M40.4,77.5c-0.2,0.2-0.4,0.3-0.5,0.5l0,0C40.1,77.8,40.3,77.6,40.4,77.5z"/>
	<path class="st10" d="M55,71.7c-0.2,0-0.3,0-0.5-0.1C54.6,71.7,54.8,71.7,55,71.7L55,71.7z"/>
	<path class="st10" d="M51.3,71.4c0.1,0,0.2,0,0.3,0C51.5,71.4,51.4,71.4,51.3,71.4z"/>
	<path class="st10" d="M44.4,73.7c-0.4,0.3-0.8,0.7-1.2,1.1c-0.8,0.8-1.7,1.6-2.5,2.4c0.8-0.8,1.7-1.6,2.5-2.4
		C43.6,74.3,44,74,44.4,73.7z"/>
	<path class="st10" d="M46,72.7c-0.2,0.1-0.5,0.3-0.7,0.4c-0.3,0.2-0.6,0.4-0.8,0.6c0.3-0.2,0.5-0.4,0.8-0.6
		C45.5,73,45.7,72.8,46,72.7z"/>
	<path class="st10" d="M53.5,71.5c0.2,0,0.3,0,0.5,0C53.8,71.6,53.6,71.5,53.5,71.5z"/>
	<path class="st10" d="M52.5,71.5c0.1,0,0.3,0,0.4,0C52.8,71.5,52.7,71.5,52.5,71.5z"/>
	<path class="st10" d="M42.8,106c0.1-2.1,0.4-3.8,0.9-5.8c0.3-1.2,0.6-2.4,0.9-3.5c0.5-2.1,1.3-4.3,0.7-6.4
		c-0.3-1.1-0.9-2.1-1.2-3.3c-0.3-1.1-2.2-2.1-3-2.5c-0.2-0.1-0.4-0.2-0.4-0.2c0,0.1,0,0.1,0.1,0.2c0,0.1,0.1,0.2,0.1,0.3
		c0.1,0.2,0.1,0.4,0.2,0.5l0,0c0.2,0.4,0.3,0.8,0.5,1.2s0.3,0.8,0.5,1.2c0.6,1.4,1.1,2.8,1.4,4.2c0.1,0.4,0.2,0.8,0.2,1.2
		c0.1,0.6,0.1,1.3,0.1,1.9c0,0.7-0.2,1.4-0.4,2.1c0,0.1,0,0.1,0,0.2c-0.1,0.2-0.1,0.3-0.2,0.5c-0.1,0.3-0.2,0.6-0.3,0.9
		c0,0.1-0.1,0.2-0.1,0.3c-0.1,0.3-0.2,0.6-0.2,0.9c-0.4,1.9-0.8,3.2-0.9,5.1v0.1v0.1c0,0.1,0,0.1,0,0.2c-0.1,0.8-0.2,2.5-0.2,3.6
		v0.1v0.1v0.1c0,0.1,0,0.1,0,0.2l0,0c0,0,0.5,0.1,1.2,0.3C42.4,109.9,42.8,106.3,42.8,106z"/>
	<path class="st10" d="M61.2,70.7c-0.2-0.2-0.3-0.4-0.5-0.5c-0.1-0.1-0.2-0.2-0.3-0.3c-0.1,0-0.2-0.1-0.3-0.1
		c-0.3-0.1-0.7-0.3-1.1-0.3c-0.1,0-0.1,0-0.2,0c-0.2,0-0.6,0-0.7,0.1l-1.6,1l-1.7,1.1l0,0c-0.2,0-0.3,0-0.5-0.1
		c-0.2,0-0.3,0-0.5-0.1c-0.2,0-0.3,0-0.5,0s-0.4,0-0.5,0s-0.3,0-0.4,0c-0.3,0-0.6,0-0.9,0c-0.1,0-0.2,0-0.3,0c-0.2,0-0.5,0-0.7,0
		c-0.1,0-0.2,0-0.4,0s-0.5,0-0.7,0c-0.1,0-0.2,0-0.3,0c-0.3,0-0.7,0.1-1,0.1c-0.3,0.1-0.7,0.2-1,0.3H47l0,0
		c-0.2,0.1-0.4,0.2-0.5,0.3c-0.2,0.1-0.4,0.2-0.6,0.3c-0.2,0.1-0.5,0.3-0.7,0.4c-0.3,0.2-0.6,0.4-0.8,0.6c-0.4,0.3-0.8,0.7-1.2,1.1
		c-0.8,0.8-1.7,1.6-2.5,2.4l0,0c-0.1,0.1-0.1,0.1-0.2,0.2l-0.1,0.1l0,0c-0.2,0.2-0.4,0.3-0.5,0.5c-0.6,0.1-1.1,0.3-1.7,0.4
		c-0.3,0.1-0.8,0.3-1.1,0.4c-0.1,0.1-1,0.5-1.1,0.6c0,0-0.1,0.1-0.2,0.1c0.2,0,0.6-0.1,0.8-0.1h0.1c0.8,0.4,1.3,1.3,1.6,2.1
		c0.1,0.4,0.1,0.9,0.1,1.3c0,0.2-0.2,1.8-0.3,1.8c0.1,0,0.4-1.8,0.4-2c0.1-0.5,0.1-0.7-0.1-1.2l1-0.5l4.2-2.4l0,0l0,0l3.9-2.9l3-0.4
		l3.6-1.3l0,0c0,0,0.1-0.1,0.4-0.2l0.2-0.1l0,0c1.7-0.7,6.6-2.8,6.7-2.7C61.4,70.9,61.3,70.8,61.2,70.7z"/>
	<path class="st9" d="M61.8,73.2c0-0.3,0-0.6-0.1-0.9c0-0.3-0.1-0.6-0.2-0.9v-0.1c0-0.1,0-0.2-0.1-0.2c0-0.1-5,2-6.7,2.7
		c-0.1,0-0.2,0.1-0.2,0.1L54.3,74h-0.1l-3.6,1.3l-3,0.4l-3.9,2.9l0,0l0,0l0,0L39.5,81l-1,0.5c0.1,0.5,0.1,0.7,0.1,1.2
		c0,0.2-0.3,2-0.4,2l0,0l0,0c0,0,1.5,0,2.7-0.2l0,0c0-0.1,0-0.1-0.1-0.2c0,0,0.1,0.1,0.4,0.2c0.8,0.4,2.8,1.4,3,2.5
		c0.3,1.1,0.9,2.1,1.2,3.3c0.6,2.1-0.2,4.3-0.7,6.4c-0.3,1.2-0.6,2.4-0.9,3.5c-0.5,2-0.8,3.7-0.9,5.8c0,0.3-0.4,3.9-0.1,4
		c-0.7-0.2-1.2-0.3-1.2-0.3s3.7,1,6.1,0.9c2.5-0.1,4-0.9,4-0.9c1.2-0.7,2.2-1,2.8-2.3l0.9-1.9c0.1-2.2,0-5.2-0.3-8.4
		c-0.3-2.4,0.7-6.1,1-8.5c0.1-0.9,0.8-2.5,1-4.1c0.4-2.6,0.2-5.3,0.3-5.4c0.1-0.8,0.2-1,0.2-1.2c0.2-0.2,0.4-0.4,0.6-0.6
		c0.4-0.3,0.9-0.6,1.4-0.8c0.1,0,0.1-0.1,0.2-0.1c0.1-0.1,0.2-0.2,0.4-0.3c0.2-0.2,0.5-0.4,0.7-0.6c0.2-0.2,0.5-0.4,0.7-0.6
		c0.1-0.3,0.2-0.6,0.3-1C61.8,73.6,61.8,73.4,61.8,73.2L61.8,73.2L61.8,73.2L61.8,73.2z"/>
	<path class="st10" d="M54.2,73.9L54.2,73.9l0.3-0.1C54.3,73.9,54.2,73.9,54.2,73.9L54.2,73.9z"/>
	<path class="st7" d="M53,72.2l-6-1.6L45.4,70v0.1v0.4c1,1.1,3.6,3.6,7.6,3.8C53.2,73.8,53.1,72.8,53,72.2z"/>
	<path class="st8" d="M53,60.8L53,60.8c-1.2-1.5-2.7-3.1-4.6-3.5c-1.7-0.3-3.6-0.1-5,0.9c-1.6,1-2.4,3.2-2.3,5.1
		c0.2,2,1.2,3.8,2.6,5.2c1.4,1.4,2.9,2.7,4.8,3.4c1.5,0.5,2.8,1,4.5,0.7c2.2-0.5,2-3.4,1.9-5.1c-0.1-0.9-0.2-1.9-0.3-2.8
		C54.2,63.2,53.9,62,53,60.8z"/>
	<path class="st8" d="M45.4,70.6v1.5v1.6c0,0.1,0.4,0.7,0.5,0.8c0.3,0.3,0.5,0.4,0.8,0.6c0.5,0.4,0.9,0.6,1.5,0.9
		c0.9,0.6,2.3,0.6,3.2,0c0.6-0.3,1.1-0.8,1.5-1.4c0.1-0.1,0.1-0.2,0.1-0.3C49.1,74.2,46.4,71.7,45.4,70.6z"/>
	<path class="st11" d="M44.2,66.2L44.2,66.2C44,66.2,44.2,66.2,44.2,66.2z"/>
	<path class="st12" d="M43.7,151L43.7,151L43.7,151z"/>
	<path class="st4" d="M43.7,151c-0.5-0.1-0.8-0.3-1.1-0.4c0,0.1,0,0.2,0,0.4c-0.1,1.2-1,1.9-1.2,3.1c-0.1,0.6,0.1,1.3,0.4,1.8
		c0.2-1.1,0.7-1.9,0.7-1.9L43.7,151z"/>
	<path class="st3" d="M57.9,113c-2.6,2.4-4.5,5.3-6.3,8.3c-0.3,0.4-0.5,0.8-0.8,1.2c0.1,0.4,0.2,0.8,0.5,1.2
		c0.7-1.5,1.5-2.9,2.5-4.3c2.1-3.3,4.9-6.1,7.6-9.1c0.1-0.1,0.2-0.3,0.3-0.4l-1.7,0.6C59.8,111.6,58.6,112.4,57.9,113z"/>
	<path class="st5" d="M50.1,158.2l-1.6-2.1l-1.9-2.5c-0.6-0.8-0.9-1.9-1-2.9c-0.7,0.4-1.4,0.4-1.9,0.3l-1.2,2.9c0,0-0.5,0.8-0.7,1.9
		c0.1,0.3,0.3,0.5,0.5,0.7c0,0,0,0,0.1,0.1c0.5,0.7,1,1.3,1.5,1.9c0.5,0.7,1.2,1.4,2,1.8c0.1,0,0.2,0.1,0.2,0.1
		c0.7,0.4,1.7,0.5,2.4,0.5c0.8,0,1.6-0.2,2.2-0.7C51.2,159.5,50.5,158.9,50.1,158.2z"/>
	<path class="st13" d="M52,58.5c-0.5-0.5-1.1-1-1.8-1.3c-1.3-0.6-2.8-1-4.3-0.9c-0.8,0.1-1.9,0.3-2.6,0.7c-0.5,0.3-0.7,0.4-1.2,0.8
		c-0.2,0.2-0.4,0.4-0.6,0.6c-0.3,0.3-0.5,0.9-0.6,1.3c-0.2,0.5-0.3,1-0.4,1.4c-0.1,0.8-0.1,1.5,0,2.1c0,0.8,0.2,1.5,0.2,1.9
		c0.2,1.2,0.6,2.2,1,3.3c0.1,0.3,0.8,2.8,1.1,2.8c0.1,0,4,2.7,4,2.7c-0.1-0.1-0.2-0.5-0.2-0.7c-0.1-0.2-0.1-0.5-0.2-0.7
		c-0.3-1.1-0.7-2.2-0.9-3.3c-0.2-1.2-0.1-3.4,0.2-4.5c0-0.2,0.1-0.3,0.1-0.5c0.4-1.2,1.4-2.3,2.5-2.9c0.6-0.3,1.2-0.5,1.8-0.7
		c0.6-0.1,1.2-0.1,1.8-0.1c0.1,0,1.1,0,1.1,0C52.7,60,52.6,59.2,52,58.5z"/>
	<path class="st14" d="M52,58.5c-0.5-0.5-1.1-1-1.8-1.3c-0.2-0.1-0.3-0.1-0.5-0.2c-2,2.3-3.8,5.3-4.9,9l0,0l0,0l0,0
		c-0.1,0.6-0.1,1.2-0.2,1.7c0,2,0.4,4.1,1.4,5.9c0.4,0.3,0.6,0.4,0.6,0.4c-0.1-0.1-0.2-0.5-0.2-0.7c-0.1-0.2-0.1-0.5-0.2-0.7
		c-0.3-1.1-0.7-2.2-0.9-3.3c-0.2-1.2-0.1-3.4,0.2-4.5l0,0c0-0.2,0.1-0.3,0.1-0.5c0.4-1.2,1.4-2.3,2.5-2.9c0.6-0.3,1.2-0.5,1.8-0.7
		c0.6-0.1,1.2-0.1,1.8-0.1c0.1,0,1.1,0,1.1,0C52.7,60,52.6,59.2,52,58.5z"/>
	<polygon class="st0" points="115.8,133.6 181.9,95.5 152,78.2 152.4,78.2 182.3,95.5 116.2,133.6 	"/>
	<polygon class="st1" points="115.8,132.3 85.9,115.1 152,76.9 181.9,94.2 	"/>
	<polygon class="st1" points="85.9,115.1 85.9,116.4 115.8,133.6 115.8,132.3 	"/>
	<polygon class="st1" points="181.9,94.2 181.9,95.5 115.8,133.6 115.8,132.3 	"/>
	<path class="st2" d="M152.5,53.9c-0.7-0.4-1.5-0.4-2.3-0.4c-3,0.2-5.6,0.7-8.4,1.7c-2.4,0.9-4.9,1.8-7.3,2.7
		c-1.8,0.6-3.1,1.1-3.1,1.1c0,0.1,0.7,7,0.7,7c1.8-0.3,3.9-0.6,5.4-1.2c1.2-0.5,2.4-0.8,3.6-1.4c0.7-0.3,1.5-0.8,2.2-0.9
		c-0.2,0.9-1.4,1.8-2.1,2.4c-2.6,2.4-4.5,5.3-6.3,8.3c-0.3,0.4-0.5,0.8-0.8,1.2c0.1,0.8,0.6,1.7,1.9,2.4c0.4-0.4,0.7-0.7,1.1-1.1
		c0.7-0.6,1.4-1.2,1.9-1.7c3.4-3.4,6.9-6.7,10.4-10c1.7-1.6,3.2-2.8,4.1-5.1C154.1,57.4,154.4,55,152.5,53.9z"/>
	<path class="st3" d="M153.8,55.4c-0.2-0.6-0.6-1.1-1.3-1.5s-1.5-0.4-2.3-0.4c-3,0.2-5.6,0.7-8.4,1.7c-2.4,0.9-4.9,1.8-7.3,2.7
		c-1.8,0.6-3.1,1.1-3.1,1.1s0.1,0.6,0.3,1.4c0.5-0.4,1.1-0.6,1.8-1c1.4-0.7,2.6-0.7,4.1-1.1c4-1.2,6.2-2.1,10.3-3.2
		c1.2-0.3,4-0.7,5.1-0.2C153,55.1,153.8,55.4,153.8,55.4L153.8,55.4z"/>
	<path class="st4" d="M133.9,74.5c-0.1,0.1-0.1,0.2-0.2,0.3c-0.1,0.1-0.1,0.2-0.2,0.3c-0.1,0.1-0.3,0.1-0.5,0.1c-0.6,0-1.1,0-1.7,0
		c-0.1,0-0.2,0-0.3,0c-0.6,0.3-0.8,3.5-1,4.2c-0.2,1-0.4,2-0.6,2.9c-0.2,1.2-0.3,3.1,0,4.3c0.7-0.3,1.5-0.7,1.9-1.3
		c0.2-0.3,0.4-0.5,0.6-0.8c1-1.7,1.7-3.7,2.3-5.5c0.3-0.7,0.8-1.4,1.4-2C134.5,76.2,134,75.3,133.9,74.5z"/>
	<path class="st5" d="M129.6,82.3c-0.2,1.2-0.3,3.1,0,4.3c0.7-0.3,1.5-0.7,1.9-1.3c0.2-0.3,0.4-0.5,0.6-0.8c1-1.7,1.7-3.7,2.3-5.5
		c0.3-0.7,0.8-1.4,1.4-2c-0.7-0.4-1.1-0.8-1.4-1.2l-2,0.5h-1.8c-0.3,1.1-0.4,2.7-0.5,3.1C129.9,80.4,129.7,81.4,129.6,82.3z"/>
	<path class="st2" d="M132.6,63.5l-0.6-0.2l-0.7-3.3l-6.2,1.3l0,0c-1.8,3.8-1.8,8.9-1.6,13.1c0.2,2.7,0.5,5,0.9,7.6
		c0.1,0.8,0.4,2.1,0.4,2.9c0,0.8-0.4,1.5-0.5,2.3c-0.2,1.7-0.3,3.6-0.3,5.3c0.1,1.9,0.5,3.5,0.8,5.4c0.3,1.5,0.8,3,0.9,4.6
		c0,0.1,0,0.2,0,0.2c0.5,0.3,1.7,0.8,3,0.1l0,0c0-0.1,0-0.2,0-0.3c-0.1-0.8,0.1-1.4,0.2-2.2c0.6-3.5,0.3-7.1,0.5-10.6
		c0.1-1.6,0.2-3.1,0.3-4.7c0.2-2.8,1-5.5,1.6-8.2c0.7-2.7,1-5.5,1.3-8.4C132.8,66,133,64.9,132.6,63.5z"/>
	<path class="st3" d="M126.7,61l-1.6,0.4c-1.8,3.8-1.8,8.9-1.6,13.1c0.2,2.7,0.5,5,0.9,7.6c0.1,0.8,0.4,2.1,0.4,2.9
		c0,0.8-0.4,1.5-0.5,2.3c-0.2,1.7-0.3,3.6-0.3,5.3c0.1,1.9,0.5,3.5,0.8,5.4c0.3,1.5,0.8,3,0.9,4.6c0,0.1,0,0.2,0,0.2
		c0.2,0.2,0.6,0.3,1.1,0.4c-0.5-3-1.3-6.1-1.6-9.1c-0.3-2.8,0.4-5.6,0.8-8.4c0.3-2.9-0.1-5.7-0.4-8.6c-0.3-3.1-0.4-6.1-0.3-9.2
		C125.3,65.3,126.1,63.2,126.7,61z"/>
	<path class="st8" d="M141.6,28.1c-1.1,0.3-2.3,0.2-3.1-0.9c-0.3-0.3-0.4-0.6-0.4-1.1c0-0.2,0.1-0.7,0.1-0.9c0.1-0.3,0.4-0.7,0.6-1
		c0.3-0.4,0.6-0.8,1-1.2c0.6-0.6,1.2-1,1.9-1.4c2.6-1.6,5.6-2.2,8.3-3.8c0.2-0.1,0.3-0.2,0.5-0.3l2.7-1.2l5.8-2.4l4.9-1.8l2.7-0.5
		c0.4-0.1,1.8-0.7,2.2-0.9c0.5-0.2,1-0.4,1.5-0.6c0.6-0.2,2.6-0.7,3.6-0.2c0.3,0.2,1.2,0.6,1.2,0.7c0,1.1-1.3,1.3-2,1.7
		s-1.8,0.9-1.8,1s0.7,0,0.9,0c0.3,0,0.5-0.1,0.9,0c0.2,0.1,0.3,0.3,0.3,0.3c-0.1,0.3-1,0.4-1.5,0.5s-1.1,0.1-1.7,0.2
		c-0.8,0.2-1.6,0.1-2.5,0.1c-1-0.1-1.6,0.2-2.5,0.6c-1.3,0.6-2.5,1.3-3.7,2c-2.1,1.2-4.2,2.2-6.5,2.9c-1.2,0.3-2.2,1.5-3.2,2.3
		c-1.6,1.3-3.6,2-5.3,3.2C144.9,26.5,143.4,27.7,141.6,28.1z"/>
	<path class="st7" d="M151.6,22.3c1-0.8,2-1.9,3.2-2.3c2.3-0.7,4.4-1.7,6.5-2.9c1.2-0.7,2.4-1.4,3.7-2c0.9-0.4,1.5-0.7,2.5-0.6
		c0.8,0.1,1.6,0.1,2.5-0.1c0.5-0.1,1.1-0.1,1.7-0.2c0.6-0.1,1.5-0.2,1.5-0.5c0-0.1-0.1-0.3-0.3-0.3c-0.3-0.1-0.5-0.1-0.9,0
		c-0.3,0-0.9,0.1-0.9,0s1.1-0.6,1.8-1c0.6-0.3,1.7-0.6,1.9-1.3l-0.5-0.8l0,0L153.9,18l-15.6,8.9V27c0,0.1,0.1,0.1,0.1,0.2
		c0.8,1.1,2,1.2,3.1,0.9c1.8-0.4,3.3-1.6,4.8-2.6C148.1,24.3,150.1,23.6,151.6,22.3z"/>
	<path class="st8" d="M125.6,34.7c0.9-0.7,1.5-1.8,1.1-3.1c-0.1-0.4-0.3-0.7-0.6-1c-0.2-0.1-0.6-0.3-0.8-0.4c-0.3-0.2-0.8,0-1.1,0
		c-0.5,0-1,0-1.5,0.1c-0.8,0.1-1.5,0.4-2.3,0.7c-2.8,1.2-5.1,3.2-7.9,4.4c-0.2,0.1-0.4,0.2-0.6,0.2l-2.6,1.5l-5.4,3.3l-4.4,2.9
		l-2,1.9c-0.3,0.3-1.6,1-2,1.2c-0.5,0.3-0.9,0.5-1.4,0.8S92,48.9,91.8,50c-0.1,0.4-0.2,1.3-0.1,1.4c0.7,0.8,1.7,0,2.5-0.4
		c0.7-0.3,1.9-1.2,1.9-1.1c0.1,0.1-0.4,0.5-0.6,0.7c-0.2,0.3-0.3,0.4-0.4,0.8c-0.1,0.2,0.1,0.4,0.1,0.4c0.3,0.1,0.9-0.6,1.3-1
		s0.8-0.8,1.2-1.2c0.6-0.6,1.1-1.2,1.5-2c0.5-0.9,1.1-1.1,2-1.6c1.2-0.7,2.5-1.2,3.8-1.8c2.2-1,4.2-2.1,6.1-3.6
		c1-0.8,2.5-0.9,3.7-1.2c2-0.5,3.7-1.7,5.6-2.4C122.4,36.4,124.2,35.9,125.6,34.7z"/>
	<path class="st7" d="M94.3,51c0.7-0.3,1.9-1.2,1.9-1.1c0.1,0.1-0.4,0.5-0.6,0.7c-0.2,0.3-0.3,0.4-0.4,0.8c-0.1,0.2,0.1,0.4,0.1,0.4
		c0.3,0.1,0.9-0.6,1.3-1s0.8-0.8,1.2-1.2c0.6-0.6,1.1-1.2,1.5-2c0.5-0.9,1.1-1.1,2-1.6c1.2-0.7,2.5-1.2,3.8-1.8
		c2.2-1,4.2-2.1,6.1-3.6c1-0.8,2.5-0.9,3.7-1.2c2-0.5,3.7-1.7,5.6-2.4c1.7-0.6,3.5-1.2,4.9-2.3c0.8-0.7,1.4-1.6,1.2-2.8L111,38.2
		L91.8,51c0,0.2,0,0.3,0,0.3C92.6,52.2,93.6,51.4,94.3,51z"/>
	<path class="st10" d="M125.9,58c0.1-2.1,0.4-3.8,0.9-5.8c0.3-1.2,0.6-2.4,0.9-3.5c0.5-2.1,1.3-4.3,0.7-6.4
		c-0.3-1.1-0.9-2.1-1.2-3.3c-0.3-1.1-2.2-2.1-3-2.5c-0.2-0.1-0.4-0.2-0.4-0.2c0,0.1,0,0.1,0.1,0.2c0,0.1,0.1,0.2,0.1,0.3
		c0.1,0.2,0.1,0.4,0.2,0.5l0,0c0.2,0.4,0.3,0.8,0.5,1.2s0.3,0.8,0.5,1.2c0.6,1.4,1.1,2.8,1.4,4.2c0.1,0.4,0.2,0.8,0.2,1.2
		c0.1,0.6,0.1,1.3,0.1,1.9c0,0.7-0.2,1.4-0.4,2.1c0,0.1,0,0.1,0,0.2c-0.1,0.2-0.1,0.3-0.2,0.5c-0.1,0.3-0.2,0.6-0.3,0.9
		c0,0.1-0.1,0.2-0.1,0.3c-0.1,0.3-0.2,0.6-0.2,0.9c-0.4,1.9-0.8,3.2-0.9,5.1v0.1v0.1c0,0.1,0,0.1,0,0.2c-0.1,0.8-0.2,2.5-0.2,3.6
		v0.1v0.1v0.1c0,0.1,0,0.1,0,0.2l0,0c0,0,0.5,0.1,1.2,0.3C125.5,62,125.8,58.3,125.9,58z"/>
	<path class="st10" d="M144.3,22.7c-0.2-0.2-0.3-0.4-0.5-0.5c-0.1-0.1-0.2-0.2-0.3-0.3c-0.1,0-0.2-0.1-0.3-0.1
		c-0.3-0.1-0.7-0.3-1.1-0.3c-0.1,0-0.1,0-0.2,0c-0.2,0-0.6,0-0.7,0.1l-1.6,1l-1.7,1.1l0,0c-0.2,0-0.3,0-0.5-0.1
		c-0.2,0-0.3,0-0.5-0.1c-0.2,0-0.3,0-0.5,0s-0.4,0-0.5,0s-0.3,0-0.4,0c-0.3,0-0.6,0-0.9,0c-0.1,0-0.2,0-0.3,0c-0.2,0-0.5,0-0.7,0
		c-0.1,0-0.2,0-0.4,0s-0.5,0-0.7,0c-0.1,0-0.2,0-0.3,0c-0.3,0-0.7,0.1-1,0.1c-0.3,0.1-0.7,0.2-1,0.3h-0.1l0,0
		c-0.2,0.1-0.4,0.2-0.5,0.3c-0.2,0.1-0.4,0.2-0.6,0.3c-0.2,0.1-0.5,0.3-0.7,0.4c-0.3,0.2-0.6,0.4-0.8,0.6c-0.4,0.3-0.8,0.7-1.2,1.1
		c-0.8,0.8-1.7,1.6-2.5,2.4l0,0c-0.1,0.1-0.1,0.1-0.2,0.2l-0.1,0.1l0,0c-0.2,0.2-0.4,0.3-0.5,0.5c-0.6,0.1-1.1,0.3-1.7,0.4
		c-0.3,0.1-0.8,0.3-1.1,0.4c-0.1,0.1-1,0.5-1.1,0.6c0,0-0.1,0.1-0.2,0.1c0.2,0,0.6-0.1,0.8-0.1h0.1c0.8,0.4,1.3,1.3,1.6,2.1
		c0.1,0.4,0.1,0.9,0.1,1.3c0,0.2-0.2,1.8-0.3,1.8c0.1,0,0.4-1.8,0.4-2c0.1-0.5,0.1-0.7-0.1-1.2l1-0.5l4.2-2.4l0,0l0,0l3.9-2.9l3-0.4
		l3.6-1.3l0,0c0,0,0.1-0.1,0.4-0.2l0.2-0.1l0,0c1.7-0.7,6.6-2.8,6.7-2.7C144.5,22.9,144.4,22.8,144.3,22.7z"/>
	<path class="st9" d="M144.9,25.2c0-0.3,0-0.6-0.1-0.9c0-0.3-0.1-0.6-0.2-0.9v-0.1c0-0.1,0-0.2-0.1-0.2c0-0.1-5,2-6.7,2.7
		c-0.1,0-0.2,0.1-0.2,0.1l-0.2,0.1h-0.1l-3.6,1.3l-3,0.4l-3.9,2.9l0,0l0,0l0,0l-4.2,2.4l-1,0.5c0.1,0.5,0.1,0.7,0.1,1.2
		c0,0.2-0.3,2-0.4,2l0,0l0,0c0,0,1.5,0,2.7-0.2l0,0c0-0.1,0-0.1-0.1-0.2c0,0,0.1,0.1,0.4,0.2c0.8,0.4,2.8,1.4,3,2.5
		c0.3,1.1,0.9,2.1,1.2,3.3c0.6,2.1-0.2,4.3-0.7,6.4c-0.3,1.2-0.6,2.4-0.9,3.5c-0.5,2-0.8,3.7-0.9,5.8c0,0.3-0.4,3.9-0.1,4
		c-0.7-0.2-1.2-0.3-1.2-0.3s3.7,1,6.1,0.9c2.5-0.1,4-0.9,4-0.9c1.2-0.7,2.2-1,2.8-2.3l0.9-1.9c0.1-2.2,0-5.2-0.3-8.4
		c-0.3-2.4,0.7-6.1,1-8.5c0.1-0.9,0.8-2.5,1-4.1c0.4-2.6,0.2-5.3,0.3-5.4c0.1-0.8,0.2-1,0.2-1.2c0.2-0.2,0.4-0.4,0.6-0.6
		c0.4-0.3,0.9-0.6,1.4-0.8c0.1,0,0.1-0.1,0.2-0.1c0.1-0.1,0.2-0.2,0.4-0.3c0.2-0.2,0.5-0.4,0.7-0.6c0.2-0.2,0.5-0.4,0.7-0.6
		c0.1-0.3,0.2-0.6,0.3-1C144.9,25.6,144.9,25.4,144.9,25.2L144.9,25.2L144.9,25.2L144.9,25.2z"/>
	<path class="st4" d="M133.2,110.2l-1.6-2.1l-1.9-2.5c-0.6-0.8-0.9-1.9-1-2.9c-1.3,0.7-2.4,0.2-3-0.1c0,0.1,0,0.2,0,0.4
		c-0.1,1.2-1,1.9-1.2,3.1c-0.2,0.9,0.3,1.9,0.9,2.6c0.6,0.7,1,1.3,1.5,2s1.2,1.4,2,1.8c0.8,0.5,1.8,0.7,2.7,0.7
		c0.8,0,1.6-0.2,2.2-0.7C134.3,111.5,133.6,110.9,133.2,110.2z"/>
	<path class="st7" d="M136.1,24.2l-6-1.6l-1.6-0.6v0.1v0.4c1,1.1,3.6,3.6,7.6,3.8C136.3,25.8,136.2,24.8,136.1,24.2z"/>
	<path class="st8" d="M138,19.5c-0.1-0.9-0.2-1.9-0.3-2.8c-0.3-1.5-0.6-2.6-1.5-3.8l0,0c-1.1-1.5-2.6-3.1-4.6-3.4
		c-1.7-0.3-3.6-0.1-5,0.9c-1.6,1-2.4,3.2-2.3,5.1c0.2,2,1.2,3.8,2.6,5.2s2.9,2.7,4.8,3.4c1.5,0.5,2.8,1,4.5,0.7
		C138.2,24.1,138.1,21.2,138,19.5z"/>
	<path class="st8" d="M128.5,22.6v1.5v1.6c0,0.1,0.4,0.7,0.5,0.8c0.3,0.3,0.5,0.4,0.8,0.6c0.5,0.4,0.9,0.6,1.5,0.9
		c0.9,0.6,2.3,0.6,3.2,0c0.6-0.3,1.1-0.8,1.5-1.4c0.1-0.1,0.1-0.2,0.1-0.3C132.2,26.2,129.5,23.7,128.5,22.6z"/>
	<path class="st11" d="M127.3,18.2L127.3,18.2C127.1,18.2,127.3,18.2,127.3,18.2z"/>
	<path class="st15" d="M127.3,18.2L127.3,18.2C127.1,18.2,127.3,18.2,127.3,18.2z"/>
	<path class="st12" d="M126.8,103L126.8,103L126.8,103z"/>
	<path class="st4" d="M126.8,103c-0.5-0.1-0.8-0.3-1.1-0.4c0,0.1,0,0.2,0,0.4c-0.1,1.2-1,1.9-1.2,3.1c-0.1,0.6,0.1,1.3,0.4,1.8
		c0.2-1.1,0.7-1.9,0.7-1.9L126.8,103z"/>
	<path class="st3" d="M141,65c-2.6,2.4-4.5,5.3-6.3,8.3c-0.3,0.4-0.5,0.8-0.8,1.2c0.1,0.4,0.2,0.8,0.5,1.2c0.7-1.5,1.5-2.9,2.5-4.3
		c2.1-3.3,4.9-6.1,7.6-9.1c0.1-0.1,0.2-0.3,0.3-0.4l-1.7,0.6C142.9,63.6,141.7,64.4,141,65z"/>
	<path class="st5" d="M133.2,110.2l-1.6-2.1l-1.9-2.5c-0.6-0.8-0.9-1.9-1-2.9c-0.7,0.4-1.4,0.4-1.9,0.3l-1.2,2.9
		c0,0-0.5,0.8-0.7,1.9c0.1,0.3,0.3,0.5,0.5,0.7c0,0,0,0,0.1,0.1c0.5,0.7,1,1.3,1.5,1.9c0.5,0.7,1.2,1.4,2,1.8c0.1,0,0.2,0.1,0.2,0.1
		c0.7,0.4,1.7,0.5,2.4,0.5c0.8,0,1.6-0.2,2.2-0.7C134.3,111.5,133.6,110.9,133.2,110.2z"/>
	<path class="st16" d="M125.9,9.9l-0.8-1.3c-0.6-1-1.7-1.6-2.8-1.6c-0.9,0-1.7,0.4-2.2,1.1l-0.5,0.7c-1.1,2.3-1.5,3.5-0.3,7.4
		c0.3,0.8,0.8,2.3,1.5,3c0.2-0.4,0.2-1.8,0.2-2.1c0-1.5-0.1-2.3,0-3.6c0-1,0.3-2,1-2.8s1.8-1,2.8-0.6l0.4,0.1L125.9,9.9z"/>
	<path class="st16" d="M135.2,10.6c-0.5-0.5-1.1-1-1.8-1.3c-1.3-0.6-2.8-1-4.3-0.9c-0.8,0.1-1.9,0.3-2.6,0.7
		c-0.5,0.3-0.7,0.4-1.2,0.8c-0.2,0.2-0.4,0.4-0.6,0.6c-0.3,0.3-0.4,0.9-0.5,1.3c-0.2,0.5-0.3,0.9-0.4,1.4c-0.2,1-0.2,2,0,2.9
		c0.3,1.4,1,2.6,1.8,3.7c0.4,0.5,0.7,0.9,1.3,1.3c0.2,0.1,1.5,0.7,1.5,0.7l-1.1-1.5l-0.1-0.1c-0.2-0.1-0.3-0.2-0.4-0.4l-0.6-0.9
		c-0.1-0.2-0.1-0.4-0.1-0.5c0.1-0.4,0.7-0.6,1-0.3l0.2,0.1c0,0-0.2,0,0,0s0.4-0.1,0.7-0.2c0.1,0,0.1,0,0.2-0.1l0.1-0.1
		c0.3-0.3,0.4-0.5,0.5-0.9c0.1-0.2,0.1-0.4,0.2-0.5c0.4-1.2,1.4-2.3,2.5-2.9c0.6-0.3,1.2-0.5,1.8-0.7c0.6-0.1,1.2-0.1,1.8-0.1
		c0.1,0,1.1,0,1.1,0C135.9,12,135.8,11.2,135.2,10.6z"/>
	<path class="st17" d="M128.4,21.9c0,0-0.6-0.9-0.9-1.3c0,0.2-0.1,0.5-0.1,0.8C127.7,21.6,128.4,21.9,128.4,21.9z"/>
	<path class="st17" d="M133.3,9.3c-0.2-0.1-0.3-0.1-0.5-0.2c-2,2.3-3.8,5.3-4.9,9l0,0c0.1,0,0.1,0,0.2-0.1l0.1-0.1
		c0.3-0.3,0.4-0.5,0.5-0.9c0.1-0.2,0.1-0.4,0.2-0.5c0.4-1.2,1.4-2.3,2.5-2.9c0.6-0.3,1.2-0.5,1.8-0.7c0.6-0.1,1.2-0.1,1.8-0.1
		c0.1,0,1.1,0,1.1,0c-0.2-0.8-0.4-1.6-1-2.3C134.6,10.1,134,9.6,133.3,9.3z"/>
	<polygon class="st0" points="177.1,169 243.2,130.9 213.3,113.6 213.7,113.6 243.6,130.9 177.5,169 	"/>
	<polygon class="st1" points="177.1,167.7 147.2,150.5 213.3,112.3 243.2,129.6 	"/>
	<polygon class="st1" points="147.2,150.5 147.2,151.8 177.1,169 177.1,167.7 	"/>
	<polygon class="st1" points="243.2,129.6 243.2,130.9 177.1,169 177.1,167.7 	"/>
	<path class="st1" d="M216.6,137.3c-6.1-3.5-15.9-3.5-22,0c-5.1,2.9-5.9,7.3-2.5,10.7l-1,0.2c0,0,4.2,2,4.3,2.1
		c2.4,1.2,5.2,1.9,8.2,2.1l17.5-10.1C220.6,140.5,219.1,138.8,216.6,137.3z"/>
	<path class="st2" d="M213.8,89.4c-0.7-0.4-1.5-0.4-2.3-0.4c-3,0.2-5.6,0.7-8.4,1.7c-2.4,0.9-4.9,1.8-7.3,2.7
		c-1.8,0.6-3.1,1.1-3.1,1.1c0,0.1,0.7,7,0.7,7c1.8-0.3,3.9-0.6,5.4-1.2c1.2-0.5,2.4-0.8,3.6-1.4c0.7-0.3,1.5-0.8,2.2-0.9
		c-0.2,0.9-1.4,1.8-2.1,2.4c-2.6,2.4-4.5,5.3-6.3,8.3c-0.3,0.4-0.5,0.8-0.8,1.2c0.1,0.8,0.6,1.7,1.9,2.4c0.4-0.4,0.7-0.7,1.1-1.1
		c0.7-0.6,1.4-1.2,1.9-1.7c3.4-3.4,6.9-6.7,10.4-10c1.7-1.6,3.2-2.8,4.1-5.1C215.4,92.8,215.7,90.4,213.8,89.4z"/>
	<path class="st3" d="M215.1,90.8c-0.2-0.6-0.6-1.1-1.3-1.5s-1.5-0.4-2.3-0.4c-3,0.2-5.6,0.7-8.4,1.7c-2.4,0.9-4.9,1.8-7.3,2.7
		c-1.8,0.6-3.1,1.1-3.1,1.1s0.1,0.6,0.3,1.4c0.5-0.4,1.1-0.6,1.8-1c1.4-0.7,2.6-0.7,4.1-1.1c4-1.2,6.2-2.1,10.3-3.2
		c1.2-0.3,4-0.7,5.1-0.2C214.3,90.5,215.1,90.8,215.1,90.8L215.1,90.8z"/>
	<path class="st4" d="M195.2,109.9c-0.1,0.1-0.1,0.2-0.2,0.3c-0.1,0.1-0.1,0.2-0.2,0.3c-0.1,0.1-0.3,0.1-0.5,0.1c-0.6,0-1.1,0-1.7,0
		c-0.1,0-0.2,0-0.3,0c-0.6,0.3-0.8,3.5-1,4.2c-0.2,1-0.4,2-0.6,2.9c-0.2,1.2-0.3,3.1,0,4.3c0.7-0.3,1.5-0.7,1.9-1.3
		c0.2-0.3,0.4-0.5,0.6-0.8c1-1.7,1.7-3.7,2.3-5.5c0.3-0.7,0.8-1.4,1.4-2C195.8,111.6,195.3,110.7,195.2,109.9z"/>
	<path class="st5" d="M190.9,117.7c-0.2,1.2-0.3,3.1,0,4.3c0.7-0.3,1.5-0.7,1.9-1.3c0.2-0.3,0.4-0.5,0.6-0.8c1-1.7,1.7-3.7,2.3-5.5
		c0.3-0.7,0.8-1.4,1.4-2c-0.7-0.4-1.1-0.8-1.4-1.2l-2,0.5h-1.8c-0.3,1.1-0.4,2.7-0.5,3.1C191.2,115.8,191,116.8,190.9,117.7z"/>
	<path class="st2" d="M193.9,98.9l-0.6-0.2l-0.7-3.3l-6.2,1.3l0,0c-1.8,3.8-1.8,8.9-1.6,13.1c0.2,2.7,0.5,5,0.9,7.6
		c0.1,0.8,0.4,2.1,0.4,2.9c0,0.8-0.4,1.5-0.5,2.3c-0.2,1.7-0.3,3.6-0.3,5.3c0.1,1.9,0.5,3.5,0.8,5.4c0.3,1.5,0.8,3,0.9,4.6
		c0,0.1,0,0.2,0,0.2c0.5,0.3,1.7,0.8,3,0.1l0,0c0-0.1,0-0.2,0-0.3c-0.1-0.8,0.1-1.4,0.2-2.2c0.6-3.5,0.3-7.1,0.5-10.6
		c0.1-1.6,0.2-3.1,0.3-4.7c0.2-2.8,1-5.5,1.6-8.2c0.7-2.7,1-5.5,1.3-8.4C194.1,101.4,194.3,100.3,193.9,98.9z"/>
	<path class="st3" d="M188,96.4l-1.6,0.4c-1.8,3.8-1.8,8.9-1.6,13.1c0.2,2.7,0.5,5,0.9,7.6c0.1,0.8,0.4,2.1,0.4,2.9
		c0,0.8-0.4,1.5-0.5,2.3c-0.2,1.7-0.3,3.6-0.3,5.3c0.1,1.9,0.5,3.5,0.8,5.4c0.3,1.5,0.8,3,0.9,4.6c0,0.1,0,0.2,0,0.2
		c0.2,0.2,0.6,0.3,1.1,0.4c-0.5-3-1.3-6.1-1.6-9.1c-0.3-2.8,0.4-5.6,0.8-8.4c0.3-2.9-0.1-5.7-0.4-8.6c-0.3-3.1-0.4-6.1-0.3-9.2
		C186.6,100.7,187.4,98.6,188,96.4z"/>
	<path class="st8" d="M202.9,63.5c-1.1,0.3-2.3,0.2-3.1-0.9c-0.3-0.3-0.4-0.6-0.4-1.1c0-0.2,0.1-0.7,0.1-0.9c0.1-0.3,0.4-0.7,0.6-1
		c0.3-0.4,0.6-0.8,1-1.2c0.6-0.6,1.2-1,1.9-1.4c2.6-1.6,5.6-2.2,8.3-3.8c0.2-0.1,0.3-0.2,0.5-0.3l2.7-1.2l5.8-2.4l4.9-1.8l2.7-0.5
		c0.4-0.1,1.8-0.7,2.2-0.9c0.5-0.2,1-0.4,1.5-0.6c0.6-0.2,2.6-0.7,3.6-0.2c0.3,0.2,1.2,0.6,1.2,0.7c0,1.1-1.3,1.3-2,1.7
		s-1.8,0.9-1.8,1s0.7,0,0.9,0c0.3,0,0.5-0.1,0.9,0c0.2,0.1,0.3,0.3,0.3,0.3c-0.1,0.3-1,0.4-1.5,0.5s-1.1,0.1-1.7,0.2
		c-0.8,0.2-1.6,0.1-2.5,0.1c-1-0.1-1.6,0.2-2.5,0.6c-1.3,0.6-2.5,1.3-3.7,2c-2.1,1.2-4.2,2.2-6.5,2.9c-1.2,0.3-2.2,1.5-3.2,2.3
		c-1.6,1.3-3.6,2-5.3,3.2C206.2,61.9,204.7,63.1,202.9,63.5z"/>
	<path class="st7" d="M212.9,57.7c1-0.8,2-1.9,3.2-2.3c2.3-0.7,4.4-1.7,6.5-2.9c1.2-0.7,2.4-1.4,3.7-2c0.9-0.4,1.5-0.7,2.5-0.6
		c0.8,0.1,1.6,0.1,2.5-0.1c0.5-0.1,1.1-0.1,1.7-0.2c0.6-0.1,1.5-0.2,1.5-0.5c0-0.1-0.1-0.3-0.3-0.3c-0.3-0.1-0.5-0.1-0.9,0
		c-0.3,0-0.9,0.1-0.9,0s1.1-0.6,1.8-1c0.6-0.3,1.7-0.6,1.9-1.3l-0.5-0.8l0,0l-20.4,7.7l-15.6,8.9v0.1c0,0.1,0.1,0.1,0.1,0.2
		c0.8,1.1,2,1.2,3.1,0.9c1.8-0.4,3.3-1.6,4.8-2.6C209.4,59.7,211.4,59,212.9,57.7z"/>
	<path class="st8" d="M186.9,70.1c0.9-0.7,1.5-1.8,1.1-3.1c-0.1-0.4-0.3-0.7-0.6-1c-0.2-0.1-0.6-0.3-0.8-0.4c-0.3-0.2-0.8,0-1.1,0
		c-0.5,0-1,0-1.5,0.1c-0.8,0.1-1.5,0.4-2.3,0.7c-2.8,1.2-5.1,3.2-7.9,4.4c-0.2,0.1-0.4,0.2-0.6,0.2l-2.6,1.5l-5.4,3.3l-4.4,2.9
		l-2,1.9c-0.3,0.3-1.6,1-2,1.2c-0.5,0.3-0.9,0.5-1.4,0.8s-2.1,1.7-2.3,2.8c-0.1,0.4-0.2,1.3-0.1,1.4c0.7,0.8,1.7,0,2.5-0.4
		c0.7-0.3,1.9-1.2,1.9-1.1s-0.4,0.5-0.6,0.7c-0.2,0.3-0.3,0.4-0.4,0.8c-0.1,0.2,0.1,0.4,0.1,0.4c0.3,0.1,0.9-0.6,1.3-1
		c0.4-0.4,0.8-0.8,1.2-1.2c0.6-0.6,1.1-1.2,1.5-2c0.5-0.9,1.1-1.1,2-1.6c1.2-0.7,2.5-1.2,3.8-1.8c2.2-1,4.2-2.1,6.1-3.6
		c1-0.8,2.5-0.9,3.7-1.2c2-0.5,3.7-1.7,5.6-2.4C183.7,71.8,185.5,71.3,186.9,70.1z"/>
	<path class="st7" d="M155.6,86.4c0.7-0.3,1.9-1.2,1.9-1.1c0.1,0.1-0.4,0.5-0.6,0.7c-0.2,0.3-0.3,0.4-0.4,0.8
		c-0.1,0.2,0.1,0.4,0.1,0.4c0.3,0.1,0.9-0.6,1.3-1c0.4-0.4,0.8-0.8,1.2-1.2c0.6-0.6,1.1-1.2,1.5-2c0.5-0.9,1.1-1.1,2-1.6
		c1.2-0.7,2.5-1.2,3.8-1.8c2.2-1,4.2-2.1,6.1-3.6c1-0.8,2.5-0.9,3.7-1.2c2-0.5,3.7-1.7,5.6-2.4c1.7-0.6,3.5-1.2,4.9-2.3
		c0.8-0.7,1.4-1.6,1.2-2.8l-15.6,6.3l-19.4,12.9c0,0.2,0,0.3,0,0.3C153.9,87.6,154.9,86.8,155.6,86.4z"/>
	<path class="st10" d="M187.2,93.4c0.1-2.1,0.4-3.8,0.9-5.8c0.3-1.2,0.6-2.4,0.9-3.5c0.5-2.1,1.3-4.3,0.7-6.4
		c-0.3-1.1-0.9-2.1-1.2-3.3c-0.3-1.1-2.2-2.1-3-2.5c-0.2-0.1-0.4-0.2-0.4-0.2c0,0.1,0,0.1,0.1,0.2c0,0.1,0.1,0.2,0.1,0.3
		c0.1,0.2,0.1,0.4,0.2,0.5l0,0c0.2,0.4,0.3,0.8,0.5,1.2s0.3,0.8,0.5,1.2c0.6,1.4,1.1,2.8,1.4,4.2c0.1,0.4,0.2,0.8,0.2,1.2
		c0.1,0.6,0.1,1.3,0.1,1.9c0,0.7-0.2,1.4-0.4,2.1c0,0.1,0,0.1,0,0.2c-0.1,0.2-0.1,0.3-0.2,0.5c-0.1,0.3-0.2,0.6-0.3,0.9
		c0,0.1-0.1,0.2-0.1,0.3c-0.1,0.3-0.2,0.6-0.2,0.9c-0.4,1.9-0.8,3.2-0.9,5.1v0.1v0.1c0,0.1,0,0.1,0,0.2c-0.1,0.8-0.2,2.5-0.2,3.6
		v0.1v0.1v0.1c0,0.1,0,0.1,0,0.2l0,0c0,0,0.5,0.1,1.2,0.3C186.8,97.4,187.1,93.7,187.2,93.4z"/>
	<path class="st10" d="M205.6,58.1c-0.2-0.2-0.3-0.4-0.5-0.5c-0.1-0.1-0.2-0.2-0.3-0.3c-0.1,0-0.2-0.1-0.3-0.1
		c-0.3-0.1-0.7-0.3-1.1-0.3c-0.1,0-0.1,0-0.2,0c-0.2,0-0.6,0-0.7,0.1l-1.6,1l-1.7,1.1l0,0c-0.2,0-0.3,0-0.5-0.1
		c-0.2,0-0.3,0-0.5-0.1c-0.2,0-0.3,0-0.5,0s-0.4,0-0.5,0s-0.3,0-0.4,0c-0.3,0-0.6,0-0.9,0c-0.1,0-0.2,0-0.3,0c-0.2,0-0.5,0-0.7,0
		c-0.1,0-0.2,0-0.4,0s-0.5,0-0.7,0c-0.1,0-0.2,0-0.3,0c-0.3,0-0.7,0.1-1,0.1c-0.3,0.1-0.7,0.2-1,0.3h-0.1l0,0
		c-0.2,0.1-0.4,0.2-0.5,0.3c-0.2,0.1-0.4,0.2-0.6,0.3c-0.2,0.1-0.5,0.3-0.7,0.4c-0.3,0.2-0.6,0.4-0.8,0.6c-0.4,0.3-0.8,0.7-1.2,1.1
		c-0.8,0.8-1.7,1.6-2.5,2.4l0,0c-0.1,0.1-0.1,0.1-0.2,0.2l-0.1,0.1l0,0c-0.2,0.2-0.4,0.3-0.5,0.5c-0.6,0.1-1.1,0.3-1.7,0.4
		c-0.3,0.1-0.8,0.3-1.1,0.4c-0.1,0.1-1,0.5-1.1,0.6c0,0-0.1,0.1-0.2,0.1c0.2,0,0.6-0.1,0.8-0.1h0.1c0.8,0.4,1.3,1.3,1.6,2.1
		c0.1,0.4,0.1,0.9,0.1,1.3c0,0.2-0.2,1.8-0.3,1.8c0.1,0,0.4-1.8,0.4-2c0.1-0.5,0.1-0.7-0.1-1.2l1-0.5l4.2-2.4l0,0l0,0l3.9-2.9l3-0.4
		l3.6-1.3l0,0c0,0,0.1-0.1,0.4-0.2l0.2-0.1l0,0c1.7-0.7,6.6-2.8,6.7-2.7C205.8,58.3,205.7,58.2,205.6,58.1z"/>
	<path class="st9" d="M206.2,60.6c0-0.3,0-0.6-0.1-0.9c0-0.3-0.1-0.6-0.2-0.9v-0.1c0-0.1,0-0.2-0.1-0.2c0-0.1-5,2-6.7,2.7
		c-0.1,0-0.2,0.1-0.2,0.1l-0.2,0.1h-0.1l-3.6,1.3l-3,0.4l-4,2.9l0,0l0,0l0,0l-4.2,2.4l-1,0.5c0.1,0.5,0.1,0.7,0.1,1.2
		c0,0.2-0.3,2-0.4,2l0,0l0,0c0,0,1.5,0,2.7-0.2l0,0c0-0.1,0-0.1-0.1-0.2c0,0,0.1,0.1,0.4,0.2c0.8,0.4,2.8,1.4,3,2.5
		c0.3,1.1,0.9,2.1,1.2,3.3c0.6,2.1-0.2,4.3-0.7,6.4c-0.3,1.2-0.6,2.4-0.9,3.5c-0.5,2-0.8,3.7-0.9,5.8c0,0.3-0.4,3.9-0.1,4
		c-0.7-0.2-1.2-0.3-1.2-0.3s3.7,1,6.1,0.9c2.5-0.1,4-0.9,4-0.9c1.2-0.7,2.2-1,2.8-2.3l0.9-1.9c0.1-2.2,0-5.2-0.3-8.4
		c-0.3-2.4,0.7-6.1,1-8.5c0.1-0.9,0.8-2.5,1-4.1c0.4-2.6,0.2-5.3,0.3-5.4c0.1-0.8,0.2-1,0.2-1.2c0.2-0.2,0.4-0.4,0.6-0.6
		c0.4-0.3,0.9-0.6,1.4-0.8c0.1,0,0.1-0.1,0.2-0.1c0.1-0.1,0.2-0.2,0.4-0.3c0.2-0.2,0.5-0.4,0.7-0.6c0.2-0.2,0.5-0.4,0.7-0.6
		c0.1-0.3,0.2-0.6,0.3-1C206.2,61,206.2,60.8,206.2,60.6L206.2,60.6L206.2,60.6L206.2,60.6z"/>
	<path class="st4" d="M194.5,145.6l-1.6-2.1L191,141c-0.6-0.8-0.9-1.9-1-2.9c-1.3,0.7-2.4,0.2-3-0.1c0,0.1,0,0.2,0,0.4
		c-0.1,1.2-1,1.9-1.2,3.1c-0.2,0.9,0.3,1.9,0.9,2.6c0.6,0.7,1,1.3,1.5,2s1.2,1.4,2,1.8c0.8,0.5,1.8,0.7,2.7,0.7
		c0.8,0,1.6-0.2,2.2-0.7C195.6,146.9,194.9,146.3,194.5,145.6z"/>
	<path class="st7" d="M197.4,59.6l-6-1.6l-1.6-0.6v0.1v0.4c1,1.1,3.6,3.6,7.6,3.8C197.6,61.2,197.5,60.2,197.4,59.6z"/>
	<path class="st8" d="M197.4,48.3C197.4,48.2,197.4,48.2,197.4,48.3c-1.2-1.5-2.7-3.1-4.6-3.5c-1.7-0.3-3.6-0.1-5,0.9
		c-1.6,1-2.4,3.2-2.3,5.1c0.2,2,1.2,3.8,2.6,5.2c1.4,1.4,2.9,2.7,4.8,3.4c1.5,0.5,2.8,1,4.5,0.7c2.2-0.5,2-3.4,1.9-5.1
		c-0.1-0.9-0.2-1.9-0.3-2.8C198.6,50.6,198.3,49.4,197.4,48.3z"/>
	<path class="st8" d="M189.8,58v1.5v1.6c0,0.1,0.4,0.7,0.5,0.8c0.3,0.3,0.5,0.4,0.8,0.6c0.5,0.4,0.9,0.6,1.5,0.9
		c0.9,0.6,2.3,0.6,3.2,0c0.6-0.3,1.1-0.8,1.5-1.4c0.1-0.1,0.1-0.2,0.1-0.3C193.5,61.6,190.8,59.1,189.8,58z"/>
	<path class="st11" d="M188.6,53.6L188.6,53.6C188.4,53.6,188.6,53.6,188.6,53.6z"/>
	<path class="st15" d="M196.4,46c-0.5-0.5-1.1-1-1.8-1.3c-1.3-0.6-2.8-1-4.3-0.9c-0.3,0-0.7,0.1-1.1,0.2c0-0.4-0.1-0.8-0.2-1
		c-0.1-0.4-0.3-0.8-0.7-1c-0.3-0.1-0.6-0.2-0.8-0.2c-0.5,0-1-0.1-1.4,0.1c-1.2,0.6-1.8,1.8-1.7,3c0.1,0.7,0.5,1,0.6,1
		c0.3,0.2,0.5,0.3,0.8,0.3c-0.2,0.3-0.2,0.7-0.3,1c-0.2,0.5-0.3,0.9-0.4,1.4c-0.2,1-0.2,2,0,2.9c0.3,1.4,1,2.6,1.8,3.7
		c0.4,0.5,0.7,0.9,1.3,1.3c0.2,0.1,1.5,0.7,1.5,0.7l-1.1-1.5l-0.1-0.1c-0.2-0.1-0.3-0.2-0.4-0.4l-0.6-0.9c-0.1-0.2-0.1-0.4-0.1-0.5
		c0.1-0.4,0.7-0.6,1-0.3l0.2,0.1l0,0c0.2,0,0.4-0.1,0.7-0.2c0.1,0,0.1,0,0.2-0.1l0.1-0.1c0.3-0.3,0.4-0.5,0.5-0.9
		c0.1-0.2,0.1-0.4,0.2-0.5c0.4-1.2,1.4-2.3,2.5-2.9c0.6-0.3,1.2-0.5,1.8-0.7c0.6-0.1,1.2-0.1,1.8-0.1c0.1,0,1.1,0,1.1,0
		C197.1,47.4,197,46.6,196.4,46z"/>
	<path class="st15" d="M188.6,53.6L188.6,53.6C188.4,53.6,188.6,53.6,188.6,53.6z"/>
	<path class="st18" d="M189.6,57.3c0,0-0.6-0.9-0.9-1.3c0,0.2-0.1,0.5-0.1,0.8C188.9,56.9,189.6,57.2,189.6,57.3z"/>
	<path class="st18" d="M194.6,44.7c-0.2-0.1-0.3-0.1-0.5-0.2c-2,2.3-3.8,5.3-4.9,9l0,0c0.1,0,0.1,0,0.2-0.1l0.1-0.1
		c0.3-0.3,0.4-0.5,0.5-0.9c0.1-0.2,0.1-0.4,0.2-0.5c0.4-1.2,1.4-2.3,2.5-2.9c0.6-0.3,1.2-0.5,1.8-0.7c0.6-0.1,1.2-0.1,1.8-0.1
		c0.1,0,1.1,0,1.1,0c-0.2-0.8-0.4-1.6-1-2.3C195.9,45.4,195.2,45,194.6,44.7z"/>
	<path class="st12" d="M188.1,138.4L188.1,138.4L188.1,138.4z"/>
	<path class="st4" d="M188.1,138.4c-0.5-0.1-0.8-0.3-1.1-0.4c0,0.1,0,0.2,0,0.4c-0.1,1.2-1,1.9-1.2,3.1c-0.1,0.6,0.1,1.3,0.4,1.8
		c0.2-1.1,0.7-1.9,0.7-1.9L188.1,138.4z"/>
	<path class="st3" d="M202.3,100.4c-2.6,2.4-4.5,5.3-6.3,8.3c-0.3,0.4-0.5,0.8-0.8,1.2c0.1,0.4,0.2,0.8,0.5,1.2
		c0.7-1.5,1.5-2.9,2.5-4.3c2.1-3.3,4.9-6.1,7.6-9.1c0.1-0.1,0.2-0.3,0.3-0.4l-1.7,0.6C204.2,99,203,99.8,202.3,100.4z"/>
	<path class="st5" d="M194.5,145.6l-1.6-2.1L191,141c-0.6-0.8-0.9-1.9-1-2.9c-0.7,0.4-1.4,0.4-1.9,0.3l-1.2,2.9c0,0-0.5,0.8-0.7,1.9
		c0.1,0.3,0.3,0.5,0.5,0.7c0,0,0,0,0.1,0.1c0.5,0.7,1,1.3,1.5,1.9c0.5,0.7,1.2,1.4,2,1.8c0.1,0,0.2,0.1,0.2,0.1
		c0.7,0.4,1.7,0.5,2.4,0.5c0.8,0,1.6-0.2,2.2-0.7C195.6,146.9,194.9,146.3,194.5,145.6z"/>
	<polygon class="st0" points="191.6,229 257.7,190.8 227.8,173.6 228.2,173.6 258.1,190.9 192,229 	"/>
	<polygon class="st1" points="191.6,227.7 161.7,210.4 227.8,172.3 257.7,189.5 	"/>
	<polygon class="st1" points="161.7,210.4 161.7,211.7 191.6,229 191.6,227.7 	"/>
	<polygon class="st1" points="257.7,189.5 257.7,190.8 191.6,229 191.6,227.7 	"/>
	<path class="st2" d="M228.3,149.3c-0.7-0.4-1.5-0.4-2.3-0.4c-3,0.2-5.6,0.7-8.4,1.7c-2.4,0.9-4.9,1.8-7.3,2.7
		c-1.8,0.6-3.1,1.1-3.1,1.1c0,0.1,0.7,7,0.7,7c1.8-0.3,3.9-0.6,5.4-1.2c1.2-0.5,2.4-0.8,3.6-1.4c0.7-0.3,1.5-0.8,2.2-0.9
		c-0.2,0.9-1.4,1.8-2.1,2.4c-2.6,2.4-4.5,5.3-6.3,8.3c-0.3,0.4-0.5,0.8-0.8,1.2c0.1,0.8,0.6,1.7,1.9,2.4c0.4-0.4,0.7-0.7,1.1-1.1
		c0.7-0.6,1.4-1.2,1.9-1.7c3.4-3.4,6.9-6.7,10.4-10c1.7-1.6,3.2-2.8,4.1-5.1C229.9,152.8,230.2,150.4,228.3,149.3z"/>
	<path class="st3" d="M229.6,150.8c-0.2-0.6-0.6-1.1-1.3-1.5s-1.5-0.4-2.3-0.4c-3,0.2-5.6,0.7-8.4,1.7c-2.4,0.9-4.9,1.8-7.3,2.7
		c-1.8,0.6-3.1,1.1-3.1,1.1s0.1,0.6,0.3,1.4c0.5-0.4,1.1-0.6,1.8-1c1.4-0.7,2.6-0.7,4.1-1.1c4-1.2,6.2-2.1,10.3-3.2
		c1.2-0.3,4-0.7,5.1-0.2C228.8,150.5,229.6,150.8,229.6,150.8L229.6,150.8z"/>
	<path class="st4" d="M209.7,169.9c-0.1,0.1-0.1,0.2-0.2,0.3c-0.1,0.1-0.1,0.2-0.2,0.3c-0.1,0.1-0.3,0.1-0.5,0.1c-0.6,0-1.1,0-1.7,0
		c-0.1,0-0.2,0-0.3,0c-0.6,0.3-0.8,3.5-1,4.2c-0.2,1-0.4,2-0.6,2.9c-0.2,1.2-0.3,3.1,0,4.3c0.7-0.3,1.5-0.7,1.9-1.3
		c0.2-0.3,0.4-0.5,0.6-0.8c1-1.7,1.7-3.7,2.3-5.5c0.3-0.7,0.8-1.4,1.4-2C210.3,171.6,209.8,170.7,209.7,169.9z"/>
	<path class="st5" d="M205.4,177.7c-0.2,1.2-0.3,3.1,0,4.3c0.7-0.3,1.5-0.7,1.9-1.3c0.2-0.3,0.4-0.5,0.6-0.8c1-1.7,1.7-3.7,2.3-5.5
		c0.3-0.7,0.8-1.4,1.4-2c-0.7-0.4-1.1-0.8-1.4-1.2l-2,0.5h-1.8c-0.3,1.1-0.4,2.7-0.5,3.1C205.7,175.8,205.6,176.7,205.4,177.7z"/>
	<path class="st2" d="M208.4,158.9l-0.6-0.2l-0.7-3.3l-6.2,1.3l0,0c-1.8,3.8-1.8,8.9-1.6,13.1c0.2,2.7,0.5,5,0.9,7.6
		c0.1,0.8,0.4,2.1,0.4,2.9s-0.4,1.5-0.5,2.3c-0.2,1.7-0.3,3.6-0.3,5.3c0.1,1.9,0.5,3.5,0.8,5.4c0.3,1.5,0.8,3,0.9,4.6
		c0,0.1,0,0.2,0,0.2c0.5,0.3,1.7,0.8,3,0.1l0,0c0-0.1,0-0.2,0-0.3c-0.1-0.8,0.1-1.4,0.2-2.2c0.6-3.5,0.3-7.1,0.5-10.6
		c0.1-1.6,0.2-3.1,0.3-4.7c0.2-2.8,1-5.5,1.6-8.2c0.7-2.7,1-5.5,1.3-8.4C208.7,161.4,208.8,160.3,208.4,158.9z"/>
	<path class="st3" d="M202.6,156.4l-1.6,0.4c-1.8,3.8-1.8,8.9-1.6,13.1c0.2,2.7,0.5,5,0.9,7.6c0.1,0.8,0.4,2.1,0.4,2.9
		s-0.4,1.5-0.5,2.3c-0.2,1.7-0.3,3.6-0.3,5.3c0.1,1.9,0.5,3.5,0.8,5.4c0.3,1.5,0.8,3,0.9,4.6c0,0.1,0,0.2,0,0.2
		c0.2,0.2,0.6,0.3,1.1,0.4c-0.5-3-1.3-6.1-1.6-9.1c-0.3-2.8,0.4-5.6,0.8-8.4c0.3-2.9-0.1-5.7-0.4-8.6c-0.3-3.1-0.4-6.1-0.3-9.2
		C201.2,160.7,201.9,158.6,202.6,156.4z"/>
	<path class="st8" d="M217.4,123.5c-1.1,0.3-2.3,0.2-3.1-0.9c-0.3-0.3-0.4-0.6-0.4-1.1c0-0.2,0.1-0.7,0.1-0.9c0.1-0.3,0.4-0.7,0.6-1
		c0.3-0.4,0.6-0.8,1-1.2c0.6-0.6,1.2-1,1.9-1.4c2.6-1.6,5.6-2.2,8.3-3.8c0.2-0.1,0.3-0.2,0.5-0.3l2.7-1.2l5.8-2.4l4.9-1.8l2.7-0.5
		c0.4-0.1,1.8-0.7,2.2-0.9c0.5-0.2,1-0.4,1.5-0.6c0.6-0.2,2.6-0.7,3.6-0.2c0.3,0.2,1.2,0.6,1.2,0.7c0,1.1-1.3,1.3-2,1.7
		s-1.8,0.9-1.8,1s0.7,0,0.9,0c0.3,0,0.5-0.1,0.9,0c0.2,0.1,0.3,0.3,0.3,0.3c-0.1,0.3-1,0.4-1.5,0.5s-1.1,0.1-1.7,0.2
		c-0.8,0.2-1.6,0.1-2.5,0.1c-1-0.1-1.6,0.2-2.5,0.6c-1.3,0.6-2.5,1.3-3.7,2c-2.1,1.2-4.2,2.2-6.5,2.9c-1.2,0.3-2.2,1.5-3.2,2.3
		c-1.6,1.3-3.6,2-5.3,3.2C220.7,121.9,219.2,123.1,217.4,123.5z"/>
	<path class="st7" d="M227.5,117.7c1-0.8,2-1.9,3.2-2.3c2.3-0.7,4.4-1.7,6.5-2.9c1.2-0.7,2.4-1.4,3.7-2c0.9-0.4,1.5-0.7,2.5-0.6
		c0.8,0.1,1.6,0.1,2.5-0.1c0.5-0.1,1.1-0.1,1.7-0.2c0.6-0.1,1.5-0.2,1.5-0.5c0-0.1-0.1-0.3-0.3-0.3c-0.3-0.1-0.5-0.1-0.9,0
		c-0.3,0-0.9,0.1-0.9,0s1.1-0.6,1.8-1c0.6-0.3,1.7-0.6,1.9-1.3l-0.5-0.8l0,0l-20.4,7.7l-15.6,8.9v0.1c0,0.1,0.1,0.1,0.1,0.2
		c0.8,1.1,2,1.2,3.1,0.9c1.8-0.4,3.3-1.6,4.8-2.6C223.9,119.7,225.9,119,227.5,117.7z"/>
	<path class="st8" d="M201.4,130.1c0.9-0.7,1.5-1.8,1.1-3.1c-0.1-0.4-0.3-0.7-0.6-1c-0.2-0.1-0.6-0.3-0.8-0.4c-0.3-0.2-0.8,0-1.1,0
		c-0.5,0-1,0-1.5,0.1c-0.8,0.1-1.5,0.4-2.3,0.7c-2.8,1.2-5.1,3.2-7.9,4.4c-0.2,0.1-0.4,0.2-0.6,0.2l-2.6,1.5l-5.4,3.3l-4.4,2.9
		l-2,1.9c-0.3,0.3-1.6,1-2,1.2c-0.5,0.3-0.9,0.5-1.4,0.8s-2.1,1.7-2.3,2.8c-0.1,0.4-0.2,1.3-0.1,1.4c0.7,0.8,1.7,0,2.5-0.4
		c0.7-0.3,1.9-1.2,1.9-1.1c0.1,0.1-0.4,0.5-0.6,0.7c-0.2,0.3-0.3,0.4-0.4,0.8c-0.1,0.2,0.1,0.4,0.1,0.4c0.3,0.1,0.9-0.6,1.3-1
		c0.4-0.4,0.8-0.8,1.2-1.2c0.6-0.6,1.1-1.2,1.5-2c0.5-0.9,1.1-1.1,2-1.6c1.2-0.7,2.5-1.2,3.8-1.8c2.2-1,4.2-2.1,6.1-3.6
		c1-0.8,2.5-0.9,3.7-1.2c2-0.5,3.7-1.7,5.6-2.4C198.2,131.8,200,131.2,201.4,130.1z"/>
	<path class="st7" d="M170.2,146.4c0.7-0.3,1.9-1.2,1.9-1.1c0.1,0.1-0.4,0.5-0.6,0.7c-0.2,0.3-0.3,0.4-0.4,0.8
		c-0.1,0.2,0.1,0.4,0.1,0.4c0.3,0.1,0.9-0.6,1.3-1c0.4-0.4,0.8-0.8,1.2-1.2c0.6-0.6,1.1-1.2,1.5-2c0.5-0.9,1.1-1.1,2-1.6
		c1.2-0.7,2.5-1.2,3.8-1.8c2.2-1,4.2-2.1,6.1-3.6c1-0.8,2.5-0.9,3.7-1.2c2-0.5,3.7-1.7,5.6-2.4c1.7-0.6,3.5-1.2,4.9-2.3
		c0.8-0.7,1.4-1.6,1.2-2.8l-15.6,6.3l-19.4,12.9c0,0.2,0,0.3,0,0.3C168.4,147.6,169.4,146.7,170.2,146.4z"/>
	<path class="st4" d="M209,205.6l-1.6-2.1l-1.9-2.5c-0.6-0.8-0.9-1.9-1-2.9c-1.3,0.7-2.4,0.2-3-0.1c0,0.1,0,0.2,0,0.4
		c-0.1,1.2-1,1.9-1.2,3.1c-0.2,0.9,0.3,1.9,0.9,2.6c0.6,0.7,1,1.3,1.5,2s1.2,1.4,2,1.8c0.8,0.5,1.8,0.7,2.7,0.7
		c0.8,0,1.6-0.2,2.2-0.7C210.1,206.9,209.4,206.3,209,205.6z"/>
	<path class="st9" d="M216.7,123.5c0,0.2-0.1,0.4-0.1,0.7c-0.3,1.3-0.2,1-0.4,2.3c0,0.1,0.1,2.8-0.3,5.4c-0.2,1.6-0.9,3.3-1,4.1
		c-0.3,2.4-1.3,6.1-1,8.5c0.4,3.1,0.4,6.2,0.3,8.4l-0.9,1.9c-0.6,1.2-1.6,1.6-2.8,2.3c0,0-1.5,0.8-4,0.9s-6.1-0.9-6.1-0.9
		c-0.1-1,0.2-4.1,0.3-4.6c0.1-1.9,0.5-3.2,0.9-5.1c0.3-1.7,1.1-3.2,1.2-4.9c0.2-3.4-1.4-6.6-2.7-9.6c-0.6-1.5-1.1-3.5-2-4.9
		c-0.1-0.2-0.2-0.4-0.2-0.6c-0.1-1.1,1.2-2.1,1.9-2.8c0.8-0.8,1.7-1.6,2.5-2.5c0.7-0.7,1.2-1.1,2.1-1.7c0.9-0.5,1.9-1.3,2.9-1.4
		c2.9-0.4,6-0.2,8.8,0.4c0.2,0,0.4,0.1,0.6,0.3c0.4,0.3,0.4,1.1,0.4,1.6C216.9,122.1,216.8,122.8,216.7,123.5z"/>
	<path class="st10" d="M216.5,119.8C216.5,119.8,216.5,119.7,216.5,119.8c-0.2-0.2-0.4-0.2-0.6-0.3c-2.8-0.6-5.9-0.8-8.8-0.4
		c-1,0.2-2.1,0.9-2.9,1.4c-0.8,0.5-1.4,1-2.1,1.7c-0.8,0.8-1.7,1.6-2.5,2.5c-0.7,0.7-2,1.6-1.9,2.8c0,0.2,0.1,0.4,0.2,0.6
		c0.3,0.4,0.5,0.8,0.7,1.3c1.3-0.8,2.6-1.6,2.6-1.6l1.2-1.8l3.9-2.9l3-0.4l3.7-1.3L216.5,119.8z"/>
	<path class="st7" d="M211.9,119.6l-6-1.6l-1.6-0.6v0.1v0.4c1,1.1,3.6,3.6,7.6,3.8C212.1,121.2,212,120.2,211.9,119.6z"/>
	<path class="st8" d="M211.9,108.2L211.9,108.2c-1.2-1.5-2.7-3.1-4.6-3.5c-1.7-0.3-3.6-0.1-5,0.9c-1.6,1-2.4,3.2-2.3,5.1
		c0.2,2,1.2,3.8,2.6,5.2c1.4,1.4,2.9,2.7,4.8,3.4c1.5,0.5,2.8,1,4.5,0.7c2.2-0.5,2-3.4,1.9-5.1c-0.1-0.9-0.2-1.9-0.3-2.8
		C213.2,110.6,212.8,109.4,211.9,108.2z"/>
	<path class="st10" d="M195.6,127c0.8,0.4,1.3,1.3,1.6,2.1c0.1,0.4,0.1,0.9,0.1,1.3c0,0.2-0.2,1.8-0.3,1.8c0,0,1.7-0.1,2.6-0.3
		c0.9-0.3,1.4-0.5,1.5-0.7c0.8-0.7,1.3-1.1,1.8-2.1c0.2-0.3,0.2-0.8,0.2-1.1c0-0.3,0-0.6-0.1-0.9c-0.2-0.4-0.4-0.9-0.8-1.2
		c-0.7-0.7-2.2-0.6-3.4-0.4c-0.7,0.1-1.2,0.3-1.8,0.4c-0.3,0.1-0.8,0.3-1.1,0.4c-0.1,0.1-1,0.5-1.1,0.6c0,0-0.1,0.1-0.2,0.1
		C195,127,195.3,126.9,195.6,127L195.6,127z"/>
	<path class="st10" d="M218,116.9c0.4,0,0.7,0.2,1.1,0.3c0.1,0,0.2,0,0.3,0.1s0.2,0.2,0.3,0.3c0.2,0.2,0.3,0.4,0.5,0.5
		c0.1,0.1,0.2,0.2,0.2,0.3c0.1,0.1,0.1,0.2,0.1,0.3c0.1,0.6,0.3,1.2,0.2,1.9c0,0.6-0.2,1.1-0.4,1.6c-0.5,0.4-0.9,0.8-1.4,1.2
		c-0.6,0.5-1.4,0.8-2,1.3c-0.5,0.3-0.7,0.8-1.2,1.6l-1.6-3.9l-1.1-2.6l2.4-1.6c0,0,1.6-0.9,1.6-1c0.2-0.1,0.5-0.1,0.7-0.1
		C217.9,116.9,218,116.9,218,116.9z"/>
	<path class="st19" d="M201.6,105.3l-0.8-1.3c-0.6-1-1.7-1.6-2.8-1.6c-0.9,0-1.7,0.4-2.2,1.1l-0.5,0.7c-2.7,3.8-0.8,13.7,0.4,17.6
		c0.3,0.8,0.8,1.7,0.8,2.6c-0.1-0.3,0.1-1,0.2-1.3c0.4-3,0.2-11.2,0-14.2c-0.1-1,0.3-2,1-2.8s1.8-1,2.8-0.6l0.4,0.1L201.6,105.3z"/>
	<path class="st8" d="M204.3,118v1.5v1.6c0,0.1,0.4,0.7,0.5,0.8c0.3,0.3,0.5,0.4,0.8,0.6c0.5,0.4,0.9,0.6,1.5,0.9
		c0.9,0.6,2.3,0.6,3.2,0c0.6-0.3,1.1-0.8,1.5-1.4c0.1-0.1,0.1-0.2,0.1-0.3C208,121.6,205.3,119.1,204.3,118z"/>
	<path class="st9" d="M197.4,130.2c0,0.2-0.3,2-0.4,2c0,0,2.3-0.1,3.4-0.3c1.2-0.3,1.8-0.6,2-0.8c1.1-0.8,1.2,0.6,2-0.5
		c0.2-0.3-0.4-2.1-0.4-2.5c0-0.2-0.9-2.1-1-2.4l-5.7,3.3C197.4,129.5,197.4,129.7,197.4,130.2z"/>
	<path class="st10" d="M199.6,131.8c0.1,0.4,0.3,0.7,0.4,1.1c1.3,3.1,2.9,6.2,2.7,9.6c-0.1,1.7-0.9,3.2-1.2,4.9
		c-0.4,1.9-0.8,3.2-0.9,5.1c0,0.5-0.3,3.6-0.3,4.6c0,0,0.5,0.1,1.2,0.3c-0.3-0.1,0.1-3.7,0.1-4c0.1-2.1,0.4-3.8,0.9-5.8
		c0.3-1.2,0.6-2.4,0.9-3.5c0.5-2.1,1.3-4.3,0.7-6.4c-0.3-1.1-0.9-2.1-1.2-3.3C202.6,133.1,199.6,131.8,199.6,131.8z"/>
	<path class="st9" d="M220.4,118.4c-0.1-0.1-7.3,3-7.3,3l1.1,0.9l1.6,3.9c0.5-0.8,0.7-1.2,1.2-1.6c0.6-0.5,1.4-0.7,2-1.3
		c0.5-0.4,0.9-0.8,1.4-1.2c0.2-0.5,0.4-1,0.4-1.6s-0.1-1.3-0.2-1.9C220.5,118.6,220.4,118.5,220.4,118.4z"/>
	<path class="st19" d="M210.9,105.9c-0.5-0.5-1.1-1-1.8-1.3c-1.3-0.6-2.8-1-4.3-0.9c-0.8,0.1-1.9,0.3-2.6,0.7
		c-0.5,0.3-0.7,0.4-1.2,0.8c-0.2,0.2-0.4,0.4-0.6,0.6c-0.3,0.3-0.4,0.9-0.5,1.3c-0.2,0.5-0.3,0.9-0.4,1.4c-0.2,1-0.2,2,0,2.9
		c0.3,1.4,1,2.6,1.8,3.7c0.4,0.5,0.7,0.9,1.3,1.3c0.2,0.1,1.5,0.7,1.5,0.7l-1.1-1.5l-0.1-0.1c-0.2-0.1-0.3-0.2-0.4-0.4l-0.6-0.9
		c-0.1-0.2-0.1-0.4-0.1-0.5c0.1-0.4,0.7-0.6,1-0.3l0.2,0.1c0,0-0.2,0,0,0s0.4-0.1,0.7-0.2c0.1,0,0.1,0,0.2-0.1l0.1-0.1
		c0.3-0.3,0.4-0.5,0.5-0.9c0.1-0.2,0.1-0.4,0.2-0.5c0.4-1.2,1.4-2.3,2.5-2.9c0.6-0.3,1.2-0.5,1.8-0.7c0.6-0.1,1.2-0.1,1.8-0.1
		c0.1,0,1.1,0,1.1,0C211.7,107.4,211.5,106.6,210.9,105.9z"/>
	<path class="st11" d="M203.1,113.6L203.1,113.6C202.9,113.6,203.1,113.6,203.1,113.6z"/>
	<path class="st12" d="M204.1,117.3c0,0-0.6-0.9-0.9-1.3c0,0.2-0.1,0.5-0.1,0.8C203.5,116.9,204.1,117.2,204.1,117.3z"/>
	<path class="st12" d="M209.1,104.7c-0.2-0.1-0.3-0.1-0.5-0.2c-2,2.3-3.8,5.3-4.9,9l0,0c0.1,0,0.1,0,0.2-0.1l0.1-0.1
		c0.3-0.3,0.4-0.5,0.5-0.9c0.1-0.2,0.1-0.4,0.2-0.5c0.4-1.2,1.4-2.3,2.5-2.9c0.6-0.3,1.2-0.5,1.8-0.7c0.6-0.1,1.2-0.1,1.8-0.1
		c0.1,0,1.1,0,1.1,0c-0.2-0.8-0.4-1.6-1-2.3C210.4,105.4,209.7,105,209.1,104.7z"/>
	<path class="st12" d="M202.6,198.4L202.6,198.4L202.6,198.4z"/>
	<path class="st4" d="M202.6,198.4c-0.5-0.1-0.8-0.3-1.1-0.4c0,0.1,0,0.2,0,0.4c-0.1,1.2-1,1.9-1.2,3.1c-0.1,0.6,0.1,1.3,0.4,1.8
		c0.2-1.1,0.7-1.9,0.7-1.9L202.6,198.4z"/>
	<path class="st3" d="M216.8,160.4c-2.6,2.4-4.5,5.3-6.3,8.3c-0.3,0.4-0.5,0.8-0.8,1.2c0.1,0.4,0.2,0.8,0.5,1.2
		c0.7-1.5,1.5-2.9,2.5-4.3c2.1-3.3,4.9-6.1,7.6-9.1c0.1-0.1,0.2-0.3,0.3-0.4l-1.7,0.6C218.7,159,217.5,159.8,216.8,160.4z"/>
	<path class="st5" d="M209,205.6l-1.6-2.1l-1.9-2.5c-0.6-0.8-0.9-1.9-1-2.9c-0.7,0.4-1.4,0.4-1.9,0.3l-1.2,2.9c0,0-0.5,0.8-0.7,1.9
		c0.1,0.3,0.3,0.5,0.5,0.7c0,0,0,0,0.1,0.1c0.5,0.7,1,1.3,1.5,1.9c0.5,0.7,1.2,1.4,2,1.8c0.1,0,0.2,0.1,0.2,0.1
		c0.7,0.4,1.7,0.5,2.4,0.5c0.8,0,1.6-0.2,2.2-0.7C210.1,206.9,209.4,206.3,209,205.6z"/>
	<polygon class="st0" points="93.9,216.9 160,178.7 130.1,161.5 130.5,161.5 160.4,178.8 94.3,216.9 	"/>
	<polygon class="st1" points="93.9,215.6 64,198.3 130.1,160.2 160,177.4 	"/>
	<polygon class="st1" points="64,198.3 64,199.6 93.9,216.9 93.9,215.6 	"/>
	<polygon class="st1" points="160,177.4 160,178.7 93.9,216.9 93.9,215.6 	"/>
	<path class="st1" d="M133.4,185.2c-6.1-3.5-15.9-3.5-22,0c-5.1,2.9-5.9,7.3-2.5,10.7l-1,0.2c0,0,4.2,2,4.3,2.1
		c2.4,1.2,5.2,1.9,8.2,2.1l17.5-10.1C137.4,188.4,135.9,186.6,133.4,185.2z"/>
	<path class="st2" d="M130.6,137.2c-0.7-0.4-1.5-0.4-2.3-0.4c-3,0.2-5.6,0.7-8.4,1.7c-2.4,0.9-4.9,1.8-7.3,2.7
		c-1.8,0.6-3.1,1.1-3.1,1.1c0,0.1,0.7,7,0.7,7c1.8-0.3,3.9-0.6,5.4-1.2c1.2-0.5,2.4-0.8,3.6-1.4c0.7-0.3,1.5-0.8,2.2-0.9
		c-0.2,0.9-1.4,1.8-2.1,2.4c-2.6,2.4-4.5,5.3-6.3,8.3c-0.3,0.4-0.5,0.8-0.8,1.2c0.1,0.8,0.6,1.7,1.9,2.4c0.4-0.4,0.7-0.7,1.1-1.1
		c0.7-0.6,1.4-1.2,1.9-1.7c3.4-3.4,6.9-6.7,10.4-10c1.7-1.6,3.2-2.8,4.1-5.1C132.2,140.7,132.5,138.3,130.6,137.2z"/>
	<path class="st3" d="M131.8,138.7c-0.2-0.6-0.6-1.1-1.3-1.5s-1.5-0.4-2.3-0.4c-3,0.2-5.6,0.7-8.4,1.7c-2.4,0.9-4.9,1.8-7.3,2.7
		c-1.8,0.6-3.1,1.1-3.1,1.1s0.1,0.6,0.3,1.4c0.5-0.4,1.1-0.6,1.8-1c1.4-0.7,2.6-0.7,4.1-1.1c4-1.2,6.2-2.1,10.3-3.2
		c1.2-0.3,4-0.7,5.1-0.2C131.1,138.4,131.8,138.7,131.8,138.7L131.8,138.7z"/>
	<path class="st4" d="M112,157.8c-0.1,0.1-0.1,0.2-0.2,0.3c-0.1,0.1-0.1,0.2-0.2,0.3c-0.1,0.1-0.3,0.1-0.5,0.1c-0.6,0-1.1,0-1.7,0
		c-0.1,0-0.2,0-0.3,0c-0.6,0.3-0.8,3.5-1,4.2c-0.2,1-0.4,2-0.6,2.9c-0.2,1.2-0.3,3.1,0,4.3c0.7-0.3,1.5-0.7,1.9-1.3
		c0.2-0.3,0.4-0.5,0.6-0.8c1-1.7,1.7-3.7,2.3-5.5c0.3-0.7,0.8-1.4,1.4-2C112.6,159.5,112.1,158.6,112,157.8z"/>
	<path class="st5" d="M107.6,165.6c-0.2,1.2-0.3,3.1,0,4.3c0.7-0.3,1.5-0.7,1.9-1.3c0.2-0.3,0.4-0.5,0.6-0.8c1-1.7,1.7-3.7,2.3-5.5
		c0.3-0.7,0.8-1.4,1.4-2c-0.7-0.4-1.1-0.8-1.4-1.2l-2,0.5h-1.8c-0.3,1.1-0.4,2.7-0.5,3.1C108,163.7,107.8,164.6,107.6,165.6z"/>
	<path class="st2" d="M110.6,146.8l-0.6-0.2l-0.7-3.3l-6.2,1.3l0,0c-1.8,3.8-1.8,8.9-1.6,13.1c0.2,2.7,0.5,5,0.9,7.6
		c0.1,0.8,0.4,2.1,0.4,2.9s-0.4,1.5-0.5,2.3c-0.2,1.7-0.3,3.6-0.3,5.3c0.1,1.9,0.5,3.5,0.8,5.4c0.3,1.5,0.8,3,0.9,4.6
		c0,0.1,0,0.2,0,0.2c0.5,0.3,1.7,0.8,3,0.1l0,0c0-0.1,0-0.2,0-0.3c-0.1-0.8,0.1-1.4,0.2-2.2c0.6-3.5,0.3-7.1,0.5-10.6
		c0.1-1.6,0.2-3.1,0.3-4.7c0.2-2.8,1-5.5,1.6-8.2c0.7-2.7,1-5.5,1.3-8.4C110.9,149.3,111.1,148.2,110.6,146.8z"/>
	<path class="st3" d="M104.8,144.3l-1.6,0.4c-1.8,3.8-1.8,8.9-1.6,13.1c0.2,2.7,0.5,5,0.9,7.6c0.1,0.8,0.4,2.1,0.4,2.9
		s-0.4,1.5-0.5,2.3c-0.2,1.7-0.3,3.6-0.3,5.3c0.1,1.9,0.5,3.5,0.8,5.4c0.3,1.5,0.8,3,0.9,4.6c0,0.1,0,0.2,0,0.2
		c0.2,0.2,0.6,0.3,1.1,0.4c-0.5-3-1.3-6.1-1.6-9.1c-0.3-2.8,0.4-5.6,0.8-8.4c0.3-2.9-0.1-5.7-0.4-8.6c-0.3-3.1-0.4-6.1-0.3-9.2
		C103.4,148.6,104.2,146.5,104.8,144.3z"/>
	<path class="st8" d="M119.7,111.4c-1.1,0.3-2.3,0.2-3.1-0.9c-0.3-0.3-0.4-0.6-0.4-1.1c0-0.2,0.1-0.7,0.1-0.9c0.1-0.3,0.4-0.7,0.6-1
		c0.3-0.4,0.6-0.8,1-1.2c0.6-0.6,1.2-1,1.9-1.4c2.6-1.6,5.6-2.2,8.3-3.8c0.2-0.1,0.3-0.2,0.5-0.3l2.7-1.2l5.8-2.4l4.9-1.8l2.7-0.5
		c0.4-0.1,1.8-0.7,2.2-0.9c0.5-0.2,1-0.4,1.5-0.6c0.6-0.2,2.6-0.7,3.6-0.2c0.3,0.2,1.2,0.6,1.2,0.7c0,1.1-1.3,1.3-2,1.7
		s-1.8,0.9-1.8,1s0.7,0,0.9,0c0.3,0,0.5-0.1,0.9,0c0.2,0.1,0.3,0.3,0.3,0.3c-0.1,0.3-1,0.4-1.5,0.5s-1.1,0.1-1.7,0.2
		c-0.8,0.2-1.6,0.1-2.5,0.1c-1-0.1-1.6,0.2-2.5,0.6c-1.3,0.6-2.5,1.3-3.7,2c-2.1,1.2-4.2,2.2-6.5,2.9c-1.2,0.3-2.2,1.5-3.2,2.3
		c-1.6,1.3-3.6,2-5.3,3.2C123,109.8,121.4,111,119.7,111.4z"/>
	<path class="st7" d="M129.7,105.6c1-0.8,2-1.9,3.2-2.3c2.3-0.7,4.4-1.7,6.5-2.9c1.2-0.7,2.4-1.4,3.7-2c0.9-0.4,1.5-0.7,2.5-0.6
		c0.8,0.1,1.6,0.1,2.5-0.1c0.5-0.1,1.1-0.1,1.7-0.2c0.6-0.1,1.5-0.2,1.5-0.5c0-0.1-0.1-0.3-0.3-0.3c-0.3-0.1-0.5-0.1-0.9,0
		c-0.3,0-0.9,0.1-0.9,0s1.1-0.6,1.8-1c0.6-0.3,1.7-0.6,1.9-1.3l-0.5-0.8l0,0l-20.4,7.7l-15.6,8.9v0.1c0,0.1,0.1,0.1,0.1,0.2
		c0.8,1.1,2,1.2,3.1,0.9c1.8-0.4,3.3-1.6,4.8-2.6C126.1,107.6,128.1,106.9,129.7,105.6z"/>
	<path class="st8" d="M103.7,118c0.9-0.7,1.5-1.8,1.1-3.1c-0.1-0.4-0.3-0.7-0.6-1c-0.2-0.1-0.6-0.3-0.8-0.4c-0.3-0.2-0.8,0-1.1,0
		c-0.5,0-1,0-1.5,0.1c-0.8,0.1-1.5,0.4-2.3,0.7c-2.8,1.2-5.1,3.2-7.9,4.4c-0.2,0.1-0.4,0.2-0.6,0.2l-2.6,1.5l-5.4,3.3l-4.4,2.9
		l-2,1.9c-0.3,0.3-1.6,1-2,1.2c-0.5,0.3-0.9,0.5-1.4,0.8s-2.1,1.7-2.3,2.8c-0.1,0.4-0.2,1.3-0.1,1.4c0.7,0.8,1.7,0,2.5-0.4
		c0.7-0.3,1.9-1.2,1.9-1.1c0.1,0.1-0.4,0.5-0.6,0.7c-0.2,0.3-0.3,0.4-0.4,0.8c-0.1,0.2,0.1,0.4,0.1,0.4c0.3,0.1,0.9-0.6,1.3-1
		s0.8-0.8,1.2-1.2c0.6-0.6,1.1-1.2,1.5-2c0.5-0.9,1.1-1.1,2-1.6c1.2-0.7,2.5-1.2,3.8-1.8c2.2-1,4.2-2.1,6.1-3.6
		c1-0.8,2.5-0.9,3.7-1.2c2-0.5,3.7-1.7,5.6-2.4C100.4,119.7,102.3,119.1,103.7,118z"/>
	<path class="st7" d="M72.4,134.3c0.7-0.3,1.9-1.2,1.9-1.1c0.1,0.1-0.4,0.5-0.6,0.7c-0.2,0.3-0.3,0.4-0.4,0.8
		c-0.1,0.2,0.1,0.4,0.1,0.4c0.3,0.1,0.9-0.6,1.3-1s0.8-0.8,1.2-1.2c0.6-0.6,1.1-1.2,1.5-2c0.5-0.9,1.1-1.1,2-1.6
		c1.2-0.7,2.5-1.2,3.8-1.8c2.2-1,4.2-2.1,6.1-3.6c1-0.8,2.5-0.9,3.7-1.2c2-0.5,3.7-1.7,5.6-2.4c1.7-0.6,3.5-1.2,4.9-2.3
		c0.8-0.7,1.4-1.6,1.2-2.8l-15.6,6.3l-19.4,12.9c0,0.2,0,0.3,0,0.3C70.6,135.5,71.7,134.6,72.4,134.3z"/>
	<path class="st4" d="M111.3,193.5l-1.6-2.1l-1.9-2.5c-0.6-0.8-0.9-1.9-1-2.9c-1.3,0.7-2.4,0.2-3-0.1c0,0.1,0,0.2,0,0.4
		c-0.1,1.2-1,1.9-1.2,3.1c-0.2,0.9,0.3,1.9,0.9,2.6s1,1.3,1.5,2s1.2,1.4,2,1.8c0.8,0.5,1.8,0.7,2.7,0.7c0.8,0,1.6-0.2,2.2-0.7
		C112.4,194.8,111.7,194.2,111.3,193.5z"/>
	<path class="st10" d="M103.9,141.3c0.1-2.1,0.4-3.8,0.9-5.8c0.3-1.2,0.6-2.4,0.9-3.5c0.5-2.1,1.3-4.3,0.7-6.4
		c-0.3-1.1-0.9-2.1-1.2-3.3c-0.3-1.1-2.2-2.1-3-2.5c-0.2-0.1-0.4-0.2-0.4-0.2c0,0.1,0,0.1,0.1,0.2c0,0.1,0.1,0.2,0.1,0.3
		c0.1,0.2,0.1,0.4,0.2,0.5l0,0c0.2,0.4,0.3,0.8,0.5,1.2s0.3,0.8,0.5,1.2c0.6,1.4,1.1,2.8,1.4,4.2c0.1,0.4,0.2,0.8,0.2,1.2
		c0.1,0.6,0.1,1.3,0.1,1.9c0,0.7-0.2,1.4-0.4,2.1c0,0.1,0,0.1,0,0.2c-0.1,0.2-0.1,0.3-0.2,0.5c-0.1,0.3-0.2,0.6-0.3,0.9
		c0,0.1-0.1,0.2-0.1,0.3c-0.1,0.3-0.2,0.6-0.2,0.9c-0.4,1.9-0.8,3.2-0.9,5.1v0.1v0.1c0,0.1,0,0.1,0,0.2c-0.1,0.8-0.2,2.5-0.2,3.6
		v0.1v0.1v0.1c0,0.1,0,0.1,0,0.2l0,0c0,0,0.5,0.1,1.2,0.3C103.5,145.2,103.9,141.6,103.9,141.3z"/>
	<path class="st10" d="M122.4,106c-0.2-0.2-0.3-0.4-0.5-0.5c-0.1-0.1-0.2-0.2-0.3-0.3c-0.1,0-0.2-0.1-0.3-0.1
		c-0.3-0.1-0.7-0.3-1.1-0.3c-0.1,0-0.1,0-0.2,0c-0.2,0-0.6,0-0.7,0.1l-1.6,1L116,107l0,0c-0.2,0-0.3,0-0.5-0.1c-0.2,0-0.3,0-0.5-0.1
		c-0.2,0-0.3,0-0.5,0s-0.4,0-0.5,0s-0.3,0-0.4,0c-0.3,0-0.6,0-0.9,0c-0.1,0-0.2,0-0.3,0c-0.2,0-0.5,0-0.7,0c-0.1,0-0.2,0-0.4,0
		c-0.2,0-0.5,0-0.7,0c-0.1,0-0.2,0-0.3,0c-0.3,0-0.7,0.1-1,0.1c-0.3,0.1-0.7,0.2-1,0.3h-0.1l0,0c-0.2,0.1-0.4,0.2-0.5,0.3
		c-0.2,0.1-0.4,0.2-0.6,0.3s-0.5,0.3-0.7,0.4c-0.3,0.2-0.6,0.4-0.8,0.6c-0.4,0.3-0.8,0.7-1.2,1.1c-0.8,0.8-1.7,1.6-2.5,2.4l0,0
		c-0.1,0.1-0.1,0.1-0.2,0.2l-0.1,0.1l0,0c-0.2,0.2-0.4,0.3-0.5,0.5c-0.6,0.1-1.1,0.3-1.7,0.4c-0.3,0.1-0.8,0.3-1.1,0.4
		c-0.1,0.1-1,0.5-1.1,0.6c0,0-0.1,0.1-0.2,0.1c0.2,0,0.6-0.1,0.8-0.1h0.1c0.8,0.4,1.3,1.3,1.6,2.1c0.1,0.4,0.1,0.9,0.1,1.3
		c0,0.2-0.2,1.8-0.3,1.8c0.1,0,0.4-1.8,0.4-2c0.1-0.5,0.1-0.7-0.1-1.2l1-0.5l4.2-2.4l0,0l0,0l3.9-2.9l3-0.4l3.6-1.3l0,0
		c0,0,0.1-0.1,0.4-0.2l0.2-0.1l0,0c1.7-0.7,6.6-2.8,6.7-2.7C122.6,106.2,122.5,106.1,122.4,106z"/>
	<path class="st9" d="M123,108.5c0-0.3,0-0.6-0.1-0.9c0-0.3-0.1-0.6-0.2-0.9v-0.1c0-0.1,0-0.2-0.1-0.2c0-0.1-5,2-6.7,2.7
		c-0.1,0-0.2,0.1-0.2,0.1l-0.2,0.1h-0.1l-3.6,1.3l-3,0.4l-3.9,2.9l0,0l0,0l0,0l-4.2,2.4l-1,0.5c0.1,0.5,0.1,0.7,0.1,1.2
		c0,0.2-0.3,2-0.4,2l0,0l0,0c0,0,1.5,0,2.7-0.2l0,0c0-0.1,0-0.1-0.1-0.2c0,0,0.1,0.1,0.4,0.2c0.8,0.4,2.8,1.4,3,2.5
		c0.3,1.1,0.9,2.1,1.2,3.3c0.6,2.1-0.2,4.3-0.7,6.4c-0.3,1.2-0.6,2.4-0.9,3.5c-0.5,2-0.8,3.7-0.9,5.8c0,0.3-0.4,3.9-0.1,4
		c-0.7-0.2-1.2-0.3-1.2-0.3s3.7,1,6.1,0.9c2.5-0.1,4-0.9,4-0.9c1.2-0.7,2.2-1,2.8-2.3l0.9-1.9c0.1-2.2,0-5.2-0.3-8.4
		c-0.3-2.4,0.7-6.1,1-8.5c0.1-0.9,0.8-2.5,1-4.1c0.4-2.6,0.2-5.3,0.3-5.4c0.1-0.8,0.2-1,0.2-1.2c0.2-0.2,0.4-0.4,0.6-0.6
		c0.4-0.3,0.9-0.6,1.4-0.8c0.1,0,0.1-0.1,0.2-0.1c0.1-0.1,0.2-0.2,0.4-0.3c0.2-0.2,0.5-0.4,0.7-0.6c0.2-0.2,0.5-0.4,0.7-0.6
		c0.1-0.3,0.2-0.6,0.3-1C122.9,108.9,123,108.7,123,108.5L123,108.5L123,108.5L123,108.5z"/>
	<path class="st19" d="M111.3,92.5c0-0.4-0.1-0.9-0.2-1.3c-0.1-0.8-0.6-1.3-1.3-1.6c-0.7-0.3-1.5-0.3-2.2,0.1c-0.4,0.2-0.8,0.6-1,1
		c-0.3,0.6-0.5,1.3-0.4,1.9c0.1,0.6,0.3,1.2,0.7,1.7c0.2,0.3,0.6,0.4,1,0.6c0.5,0.2,1.1,0,1.4-0.1c0.9-0.1,0.6,0.1,1.5,0.1h0.1
		c0,0,0,0,0-0.1c0.1-0.6,0.3-1.2,0.4-1.8C111.3,92.8,111.3,92.6,111.3,92.5z"/>
	<path class="st7" d="M114.2,107.5l-6-1.6l-1.6-0.6v0.1v0.4c1,1.1,3.6,3.6,7.6,3.8C114.3,109.1,114.2,108.1,114.2,107.5z"/>
	<path class="st8" d="M114.2,96.1L114.2,96.1c-1.2-1.5-2.7-3.1-4.6-3.5c-1.7-0.3-3.6-0.1-5,0.9c-1.6,1-2.4,3.2-2.3,5.1
		c0.2,2,1.2,3.8,2.6,5.2s2.9,2.7,4.8,3.4c1.5,0.5,2.8,1,4.5,0.7c2.2-0.5,2-3.4,1.9-5.1c-0.1-0.9-0.2-1.9-0.3-2.8
		C115.4,98.5,115.1,97.3,114.2,96.1z"/>
	<path class="st8" d="M106.6,105.9v1.5v1.6c0,0.1,0.4,0.7,0.5,0.8c0.3,0.3,0.5,0.4,0.8,0.6c0.5,0.4,0.9,0.6,1.5,0.9
		c0.9,0.6,2.3,0.6,3.2,0c0.6-0.3,1.1-0.8,1.5-1.4c0.1-0.1,0.1-0.2,0.1-0.3C110.2,109.5,107.6,107,106.6,105.9z"/>
	<path class="st19" d="M113.1,93.8c-0.5-0.5-1.1-1-1.8-1.3c-1.3-0.6-2.8-1-4.3-0.9c-0.8,0.1-1.9,0.3-2.6,0.7
		c-0.5,0.3-0.7,0.4-1.2,0.8c-0.2,0.2-0.4,0.4-0.6,0.6c-0.3,0.3-0.4,0.9-0.5,1.3c-0.2,0.5-0.3,0.9-0.4,1.4c-0.2,1-0.2,2,0,2.9
		c0.3,1.4,1,2.6,1.8,3.7c0.4,0.5,0.7,0.9,1.3,1.3c0.2,0.1,1.5,0.7,1.5,0.7l-1.1-1.5l-0.1-0.1c-0.2-0.1-0.3-0.2-0.4-0.4l-0.6-0.9
		c-0.1-0.2-0.1-0.4-0.1-0.5c0.1-0.4,0.7-0.6,1-0.3l0.2,0.1c0,0-0.2,0,0,0s0.4-0.1,0.7-0.2c0.1,0,0.1,0,0.2-0.1l0.1-0.1
		c0.3-0.3,0.4-0.5,0.5-0.9c0.1-0.2,0.1-0.4,0.2-0.5c0.4-1.2,1.4-2.3,2.5-2.9c0.6-0.3,1.2-0.5,1.8-0.7c0.6-0.1,1.2-0.1,1.8-0.1
		c0.1,0,1.1,0,1.1,0C113.9,95.3,113.7,94.5,113.1,93.8z"/>
	<path class="st11" d="M105.3,101.5L105.3,101.5C105.2,101.5,105.3,101.5,105.3,101.5z"/>
	<path class="st12" d="M106.3,105.2c0,0-0.6-0.9-0.9-1.3c0,0.2-0.1,0.5-0.1,0.8C105.7,104.8,106.3,105.1,106.3,105.2z"/>
	<path class="st12" d="M111.3,92.6c-0.2-0.1-0.3-0.1-0.5-0.2c-2,2.3-3.8,5.3-4.9,9l0,0c0.1,0,0.1,0,0.2-0.1l0.1-0.1
		c0.3-0.3,0.4-0.5,0.5-0.9c0.1-0.2,0.1-0.4,0.2-0.5c0.4-1.2,1.4-2.3,2.5-2.9c0.6-0.3,1.2-0.5,1.8-0.7c0.6-0.1,1.2-0.1,1.8-0.1
		c0.1,0,1.1,0,1.1,0c-0.2-0.8-0.4-1.6-1-2.3C112.6,93.3,112,92.9,111.3,92.6z"/>
	<path class="st12" d="M104.9,186.3L104.9,186.3L104.9,186.3z"/>
	<path class="st4" d="M104.9,186.3c-0.5-0.1-0.8-0.3-1.1-0.4c0,0.1,0,0.2,0,0.4c-0.1,1.2-1,1.9-1.2,3.1c-0.1,0.6,0.1,1.3,0.4,1.8
		c0.2-1.1,0.7-1.9,0.7-1.9L104.9,186.3z"/>
	<path class="st3" d="M119.1,148.3c-2.6,2.4-4.5,5.3-6.3,8.3c-0.3,0.4-0.5,0.8-0.8,1.2c0.1,0.4,0.2,0.8,0.5,1.2
		c0.7-1.5,1.5-2.9,2.5-4.3c2.1-3.3,4.9-6.1,7.6-9.1c0.1-0.1,0.2-0.3,0.3-0.4l-1.7,0.6C121,146.9,119.8,147.7,119.1,148.3z"/>
	<path class="st5" d="M111.3,193.5l-1.6-2.1l-1.9-2.5c-0.6-0.8-0.9-1.9-1-2.9c-0.7,0.4-1.4,0.4-1.9,0.3l-1.2,2.9
		c0,0-0.5,0.8-0.7,1.9c0.1,0.3,0.3,0.5,0.5,0.7c0,0,0,0,0.1,0.1c0.5,0.7,1,1.3,1.5,1.9c0.5,0.7,1.2,1.4,2,1.8c0.1,0,0.2,0.1,0.2,0.1
		c0.7,0.4,1.7,0.5,2.4,0.5c0.8,0,1.6-0.2,2.2-0.7C112.4,194.8,111.7,194.2,111.3,193.5z"/>
	<path class="st19" d="M103.4,95.8c-0.2-0.4-0.4-0.8-0.6-1.2c-0.4-0.7-1-1.1-1.8-1.1c-0.7,0-1.5,0.3-2,0.8c-0.3,0.4-0.5,0.8-0.6,1.3
		c-0.1,0.7,0,1.4,0.3,2c0.3,0.5,0.7,1,1.2,1.4c0.3,0.2,0.8,0.2,1.1,0.2c0.5,0,1-0.4,1.3-0.5c0.8-0.4,0.7-0.1,1.5-0.4c0,0,0,0,0.1,0
		v-0.1c-0.1-0.6-0.1-1.2-0.3-1.9C103.6,96.1,103.5,95.9,103.4,95.8z"/>
</g>
</svg>
