<?xml version="1.0" encoding="utf-8"?>
<!-- Generator: Adobe Illustrator 25.0.1, SVG Export Plug-In . SVG Version: 6.00 Build 0)  -->
<svg version="1.1" id="Layer_1" xmlns="http://www.w3.org/2000/svg" xmlns:xlink="http://www.w3.org/1999/xlink" x="0px" y="0px"
	 viewBox="0 0 260 260" style="enable-background:new 0 0 260 260;" xml:space="preserve">
<style type="text/css">
	.st0{fill:#ED7203;}
</style>
<path class="st0" d="M123,14.7c4.6-3,10.3-3,14.9,0c11.5,7.3,22.5,15.2,33.1,23.7c0,0,2.7,2.1,3-1.5c0,0-0.6-10,0.6-13.1
	c0.9-2.4,3-4,5.5-4c0,0,13.1,0.6,21.3,1.8c3.6,0.6,6.4,3.6,6.7,7.3c0,0,5.2,35.3,6.4,48c0,0,0.9,6.4,10.3,17.6
	c0,0,18.8,26.7,21.3,31.9c0,0,4.6,9.4-5.2,10.6c0,0-17.3,1.8-19.1,2.1c-2.4,0.3-4.3,2.4-4,4.9l0,0c0,0-0.9,61.4-5.5,91.2
	c0,0-1.2,11.9-7.6,11.5c0,0-17.9-0.6-22.2-0.6c0,0-1.8,0-1.5-2.4c0,0,9.1-96,3-144.7c0,0-0.3-6.4-5.2-7.6c0,0-4.3-1.8-8.5,4
	c0,0-28.3,36.2-28.3,86.6c0,0-0.6,15.5,1.8,19.1c0,0,1.5,2.7,8.8,3.3l9.4,1.2c0,0,1.8,0,1.5,2.4c0,0-2.1,28.3-2.7,33.1
	c0,1.2-0.3,2.1-0.6,3.3c0,0-0.3,0.9-3.3,0.9c0,0-41.3-0.3-46.2,0c0,0-1.8,0.3-2.4-0.9c-0.3-1.2-2.7-36.5-2.7-41.3
	c0-0.9,0.6-2.1,1.5-2.4c6.4-4,10.6-10.6,11.5-18.2c0,0,0.6-3,0.3-16.1c0,0,1.5-54.1,1.8-62.6c0,0,0.3-3-3.6-3.3
	c-1.8-0.3-4,0.6-4.3,2.7v0.3c0,0-2.7,35.6-2.1,49.8c0,0,0.9,9.1-5.5,9.4c0,0-6.1,0.9-6.4-6.7c0,0,0.3-34.6,1.8-51.7
	c0-1.8-1.5-3.6-3.3-3.6c-2.1-0.3-4,0.9-4.3,3v0.3c0,0-2.7,33.1-2.1,50.8c0,0,0.9,8.5-6.1,8.2c0,0-5.8,0.6-6.1-7
	c0,0,1.5-47.4,1.8-51.1c0.3-2.1-1.2-4-3.3-4.3h-0.3c-2.1-0.3-4,1.2-4.3,3v0.3c0,0-2.4,56.8-2.1,73.2c0,0-0.3,17,12.5,24
	c0,0,1.8,1.2,1.8,2.7c0,0,1.5,30.1,2.7,39.8c0,0,0.6,2.4-1.5,2.4l-31.9,0.9c0,0-5.2,0.3-6.4-6.1c-0.9-6.1-7-56.2-5.8-96
	c0.3-2.4-1.5-4.9-4-5.2c0,0-16.4-1.5-20.4-2.4c-3.6-0.9-5.8-4.6-4.9-8.2c1.2-1.2,1.5-1.8,1.8-2.4C14.8,127.2,50.1,60,123,14.7"/>
</svg>
