<?xml version="1.0" encoding="utf-8"?>
<!-- Generator: Adobe Illustrator 25.1.0, SVG Export Plug-In . SVG Version: 6.00 Build 0)  -->
<svg version="1.1" id="game" xmlns="http://www.w3.org/2000/svg" xmlns:xlink="http://www.w3.org/1999/xlink" x="0px" y="0px"
	 viewBox="0 0 122 215" style="enable-background:new 0 0 122 215;" xml:space="preserve">
<style type="text/css">
	.st0{fill-rule:evenodd;clip-rule:evenodd;fill:#344758;}
	.st1{fill-rule:evenodd;clip-rule:evenodd;fill:#131824;}
	.st2{fill-rule:evenodd;clip-rule:evenodd;fill:#0A3847;}
	.st3{fill-rule:evenodd;clip-rule:evenodd;fill:#F36D00;}
	.st4{fill-rule:evenodd;clip-rule:evenodd;fill:#E84909;}
	.st5{fill-rule:evenodd;clip-rule:evenodd;}
	.st6{fill-rule:evenodd;clip-rule:evenodd;fill:#241512;}
	.st7{fill-rule:evenodd;clip-rule:evenodd;fill:#332423;}
	.st8{fill-rule:evenodd;clip-rule:evenodd;fill:#0F121C;}
	.st9{fill:#F36D00;}
	.st10{fill:#FFFFFF;}
	.st11{fill:#FF6600;}
	.st12{fill-rule:evenodd;clip-rule:evenodd;fill:#0F121A;}
	.st13{fill-rule:evenodd;clip-rule:evenodd;fill:#1C2432;}
	.st14{fill:#0F121C;}
	.st15{fill-rule:evenodd;clip-rule:evenodd;fill:#205E9B;}
	.st16{fill:#1574F5;}
	.st17{fill-rule:evenodd;clip-rule:evenodd;fill:#243140;}
	.st18{fill-rule:evenodd;clip-rule:evenodd;fill:#3A5669;}
	.st19{fill-rule:evenodd;clip-rule:evenodd;fill:#1574F5;}
	.st20{fill-rule:evenodd;clip-rule:evenodd;fill:#2F9DC3;}
	.st21{fill-rule:evenodd;clip-rule:evenodd;fill:#A3BDC3;}
	.st22{fill-rule:evenodd;clip-rule:evenodd;fill:#D1DBD7;}
	.st23{fill-rule:evenodd;clip-rule:evenodd;fill:#525E61;}
	.st24{fill-rule:evenodd;clip-rule:evenodd;fill:#FFFFFF;}
</style>
<g id="game_icon">
	<path class="st0" d="M15.8,13.5l-0.2-0.4c0,0,20.9-5.1,21.2-5.1c0.3-0.1,3.6,0.9,3.6,0.9l-21.6,5.6L15.8,13.5z"/>
	<polygon class="st1" points="18.6,17.4 40.4,11.3 40.4,8.9 18.2,14.7 	"/>
	<path class="st2" d="M29.7,28.6l8.5,2.8c0.1,0,2.5,1,2.5,1.1L29,99.4c0,0.2-4.3,0.9-4.3,0.8l-4.9-4.1c-0.1-0.1-0.2-0.2-0.2-0.4
		l9.9-66.8C29.5,28.7,29.6,28.6,29.7,28.6z"/>
	<polygon class="st3" points="36.3,37.4 85.3,58.4 77.7,115.6 28.6,94.6 	"/>
	<g>
		<path class="st4" d="M81.9,70.2l-3,22c-2.3-3.4-3.5-8.2-2.9-12.9C76.7,74.6,79,71.3,81.9,70.2z"/>
		<path class="st2" d="M41.6,49.2L73.9,63c1.2,0.5,2,2.5,1.8,4.4L72,94.9c-0.3,1.9-1.5,3-2.7,2.5L37,83.5c-1.2-0.5-2-2.5-1.8-4.4
			l3.7-27.4C39.1,49.8,40.3,48.7,41.6,49.2z"/>
		<path class="st2" d="M75.1,64.3c0.5,0.9,0.7,2,0.5,3.2L72,94.9c-0.3,1.9-1.5,3-2.7,2.5L37,83.5c-0.7-0.3-1.2-1-1.5-1.9L75.1,64.3z
			"/>
		<path class="st5" d="M42.7,51.2l29.6,12.7c1.1,0.5,1.9,2.3,1.6,4l-3.4,25.2c-0.2,1.7-1.3,2.7-2.5,2.3L38.4,82.7
			c-1.1-0.5-1.9-2.3-1.6-4l3.4-25.2C40.5,51.7,41.6,50.7,42.7,51.2z"/>
		<path class="st6" d="M43.8,53l27.1,11.6c1,0.4,1.7,2.1,1.5,3.7l-3.1,23c-0.2,1.6-1.2,2.5-2.3,2.1L39.9,81.8
			c-1-0.4-1.7-2.1-1.5-3.7l3.1-23C41.7,53.5,42.8,52.5,43.8,53z"/>
		<path class="st7" d="M62.2,60.9l7.5,3.2L44.6,83.7l-4.6-2c-1-0.4-1.7-2.1-1.5-3.7l0.1-0.4L62.2,60.9z"/>
		<polygon class="st8" points="86.7,59 86.2,63.3 82.9,61.9 83.4,57.6 		"/>
		<polygon class="st9" points="43.4,61.2 42.3,73.6 45.2,75 47.2,69.8 48,76.3 50.7,77 52.9,65 50.3,63.8 49.2,70.5 48.8,65 
			47,64.3 45.3,69.1 46.1,62.1 		"/>
		<polygon class="st9" points="54,65.7 52.4,78.1 55.3,79.1 56.9,66.7 		"/>
		<polygon class="st9" points="65.4,70.4 62.8,69.3 62.2,73.3 60.7,68.4 58.2,67.7 56.7,79.6 59.2,80.7 60.2,73.7 61.6,77.8 
			61.1,81.6 63.7,82.7 		"/>
		<path class="st9" d="M65.6,80.4l-0.4,3.3l2.6,1l0.5-3.3L65.6,80.4L65.6,80.4z"/>
		<path class="st3" d="M43.5,74.1l1.7,0.8l1.1-2.8L43.5,74.1L43.5,74.1z M47.4,71.3l0.6,4.9l2.6,0.7l1.7-9.2l-3,2.1l-0.1,0.5v-0.5
			L47.4,71.3L47.4,71.3z M62.9,69.4l-0.2,0.1v-0.2L62.9,69.4L62.9,69.4z M61.4,70.6l-3.9,3.1l0.8-6l2.5,0.7L61.4,70.6L61.4,70.6z
			 M55.8,74.9l-3.3,2.6l1.4-10.7L55,66l1.9,0.7L55.8,74.9z"/>
		<path class="st10" d="M66.1,75.4L66.1,75.4L65.8,79v0.3l0.2,0.1l2.2,0.8l0.2,0.1v-0.2l0.7-3.4l0,0l0,0l0.6-4.2v-0.3l-0.2-0.1
			l-2.7-1L66.6,71v0.3L66.1,75.4z M43.5,61.6l-1,11.8l2.5,1.2l2-5l0.3-0.7l0.1,0.8l0.8,6.3l2.3,0.7l2.1-11.5l-2.1-1l-1.1,6.4
			l-0.3,1.6L49,70.5l-0.4-5.4l-1.5-0.6l-1.6,4.6l-0.6,1.7l0.2-1.9l0.8-6.7L43.5,61.6L43.5,61.6z M42.1,73.5l1-12.4v-0.3l0.2,0.1
			l2.7,0.9l0.2,0.1v0.3l-0.6,5.1l1.1-3.1l0.1-0.2l0.2,0l1.8,0.7l0.1,0.1V65l0.3,3.9l0.8-5.1v-0.3l0.2,0.1l2.5,1.2l0.2,0.1l-0.1,0.3
			l-2.2,12v0.2h-0.2l-2.6-0.7h-0.1v-0.2L47,70.8l-1.8,4.5l-0.1,0.2L45,75.4L42.1,74l-0.2-0.1L42.1,73.5L42.1,73.5z M54.2,66
			l-1.5,11.9l2.4,0.8l1.5-11.8L54.2,66L54.2,66z M52.2,78.1l1.6-12.5v-0.3l0.2,0.1l2.9,1.1l0.2,0.1v0.3l-1.6,12.4v0.3l-0.2-0.1
			l-2.8-0.9l-0.2-0.1L52.2,78.1L52.2,78.1z M65.2,70.6l-2.3-0.9l-0.5,3.7l-0.1,0.9L62,73.5l-1.5-4.8l-2.2-0.6l-1.5,11.4l2.1,1l1-6.7
			L60,73l0.3,0.8l1.4,4.1V78v0.1l-0.4,3.5l2.2,0.9L65.2,70.6L65.2,70.6z M62.8,69l2.7,1.1l0.2,0.1v0.3L64,82.7V83l-0.2-0.1l-2.6-1
			L61,81.8v-0.3l0.4-3.7l-1.1-3.3l-0.9,6.2V81l-0.2-0.1l-2.5-1.1l-0.2-0.1v-0.3L58,67.5v-0.3l0.2,0.1l2.5,0.7h0.1v0.2l1.3,4.1
			l0.4-3.1v-0.3L62.8,69L62.8,69z M65.8,80.7l-0.3,2.8l2.2,0.9l0.4-2.7L65.8,80.7L65.8,80.7z M65.1,83.6l0.4-3.3V80l0.2,0.1l2.7,1
			l0.2,0.1v0.3l-0.5,3.3v0.3L67.9,85l-2.6-1l-0.2-0.1V83.6L65.1,83.6z"/>
	</g>
	<path class="st11" d="M73.4,52.1L73.4,52.1V52V52.1L73.4,52.1z M73.6,50.4v-0.1V50.4L73.6,50.4z"/>
	<polygon class="st0" points="18.8,17.1 40.4,11.3 93.1,32.7 68.9,38.5 	"/>
	<path class="st12" d="M29.2,94.3L78,114.5c1.3,0.5,2.4,2.8,2.3,5l-3.8,86.3c-0.1,2.2-2.3,4.9-3.6,4.3l-46.8-24.2
		c-1.3-0.7-2.4-2.8-2.3-5l2.8-83.6C26.7,95.1,27.9,93.8,29.2,94.3z"/>
	<path class="st2" d="M8.9,101.8l67.9,12.6c1.3,0.3,2.2,2.7,2.2,4.8L76.3,199c-0.1,2.1-1.2,3.4-2.4,2.9l-46.6-19.3
		c-1.3-0.5-1.7-2.7-2.2-4.8L7.9,103.4C7.4,101.3,7.6,101.5,8.9,101.8z"/>
	<polygon class="st2" points="30.6,35.2 80.3,55.8 81.2,57.8 69.9,57.5 29.3,41.1 	"/>
	<path class="st13" d="M28.1,31l2.2,1.2c0.1,0.1,0.2,0.2,0.2,0.4L21,100.4c0,0.2-0.1,0.4-0.2,0.3l-1.4-3.1c-0.1-0.1-0.2-0.2-0.2-0.4
		l0.9-4.8l7.8-61.1C28,31.1,28,31,28.1,31z"/>
	<path class="st14" d="M26.3,133.5l17,8.4c1.2,0.6,2.3,1.7,3.3,3.1c0.9,1.4,1.7,3,2,4.5l2.3,12.8c0.3,1.5,0.1,2.7-0.5,3.3
		c-0.6,0.6-1.5,0.7-2.7,0.2l-17-8.4c-1.2-0.6-2.3-1.7-3.3-3.1c-0.9-1.4-1.7-3-2-4.5L23.1,137c-0.3-1.5-0.1-2.7,0.5-3.3
		C24.2,133,25.2,132.9,26.3,133.5L26.3,133.5z M43.5,143.4l-17-8.4c-0.8-0.4-1.5-0.3-1.9,0.1c-0.4,0.5-0.6,1.3-0.4,2.4l2.3,12.8
		c0.2,1.1,0.7,2.3,1.4,3.3c0.7,1,1.5,1.8,2.4,2.2l17,8.4c0.8,0.4,1.5,0.3,1.9-0.1c0.4-0.5,0.6-1.3,0.4-2.4l-2.3-12.8
		c-0.2-1.1-0.7-2.3-1.4-3.3S44.4,143.8,43.5,143.4z"/>
	<path class="st3" d="M27.3,141L27.3,141c0.7,0.4,1.5,1.4,1.7,2.4l0.7,3.9c0.2,1-0.3,1.5-1,1.1l0,0C28,148,27.2,147,27,146l-0.7-3.9
		C26.1,141.1,26.6,140.6,27.3,141z"/>
	<path class="st8" d="M28.1,143.5l0.5,2.8c0.1,0.6-0.6,0.3-0.7-0.4l-0.5-2.8C27.3,142.5,28,142.8,28.1,143.5z"/>
	<polygon class="st15" points="18.7,18.5 68.5,39.1 68,52.9 18.2,32.3 	"/>
	<polygon class="st13" points="16.6,17.7 16.7,16.2 68.9,37.8 68.9,39.3 	"/>
	<polygon class="st16" points="18.6,19.9 19,19.4 18.9,20.5 19.7,21.2 18.9,21.2 18.9,22.3 18.6,21.5 	"/>
	<polygon class="st16" points="20.9,22 20.1,22 20.6,21.3 20.2,20.2 21,20.9 21.5,20.2 21.4,21.3 22.2,22 21.4,22 21.4,23.1 	"/>
	<polygon class="st16" points="23.4,23.1 22.6,23.1 23.1,22.4 22.7,21.3 23.4,21.9 23.9,21.3 23.9,22.4 24.7,23 23.9,23.1 
		23.8,24.2 	"/>
	<polygon class="st16" points="25.9,24.1 25.1,24.1 25.6,23.4 25.1,22.3 25.9,23 26.4,22.3 26.4,23.4 27.1,24.1 26.3,24.1 
		26.3,25.2 	"/>
	<polygon class="st16" points="28.3,25.2 27.5,25.2 28.1,24.5 27.6,23.4 28.4,24.1 28.9,23.4 28.9,24.5 29.6,25.2 28.8,25.2 
		28.8,26.3 	"/>
	<polygon class="st16" points="30.8,26.2 30,26.2 30.5,25.5 30.1,24.4 30.9,25.1 31.4,24.4 31.3,25.5 32.1,26.2 31.3,26.2 
		31.3,27.3 	"/>
	<polygon class="st16" points="33.3,27.3 32.5,27.3 33,26.6 32.6,25.5 33.3,26.2 33.8,25.5 33.8,26.6 34.6,27.3 33.8,27.3 
		33.7,28.4 	"/>
	<polygon class="st16" points="35.8,28.3 35,28.4 35.5,27.7 35,26.5 35.8,27.2 36.3,26.5 36.3,27.6 37,28.3 36.2,28.3 36.2,29.5 	
		"/>
	<polygon class="st16" points="38.2,29.4 37.4,29.4 38,28.7 37.5,27.6 38.3,28.3 38.8,27.6 38.8,28.7 39.5,29.4 38.7,29.4 
		38.7,30.5 	"/>
	<polygon class="st16" points="40.7,30.5 39.9,30.5 40.4,29.8 40,28.7 40.8,29.3 41.3,28.6 41.2,29.8 42,30.4 41.2,30.4 41.2,31.6 	
		"/>
	<polygon class="st16" points="43.2,31.5 42.4,31.5 42.9,30.8 42.5,29.7 43.2,30.4 43.7,29.7 43.7,30.8 44.5,31.5 43.7,31.5 
		43.6,32.6 	"/>
	<polygon class="st16" points="45.7,32.6 44.9,32.6 45.4,31.9 44.9,30.8 45.7,31.4 46.2,30.7 46.2,31.9 46.9,32.5 46.1,32.6 
		46.1,33.7 	"/>
	<polygon class="st16" points="48.1,33.6 47.3,33.6 47.9,32.9 47.4,31.8 48.2,32.5 48.7,31.8 48.7,32.9 49.4,33.6 48.6,33.6 
		48.6,34.7 	"/>
	<polygon class="st16" points="50.6,34.7 49.8,34.7 50.3,34 49.9,32.9 50.7,33.5 51.2,32.9 51.1,34 51.9,34.6 51.1,34.7 51.1,35.8 	
		"/>
	<polygon class="st16" points="53.1,35.7 52.3,35.7 52.8,35 52.4,33.9 53.1,34.6 53.6,33.9 53.6,35 54.4,35.7 53.6,35.7 53.5,36.8 	
		"/>
	<polygon class="st16" points="55.6,36.8 54.8,36.8 55.3,36.1 54.8,35 55.6,35.7 56.1,35 56.1,36.1 56.8,36.8 56,36.8 56,37.9 	"/>
	<polygon class="st16" points="58,37.8 57.2,37.8 57.8,37.1 57.3,36 58.1,36.7 58.6,36 58.6,37.1 59.3,37.8 58.5,37.8 58.5,38.9 	
		"/>
	<polygon class="st16" points="60.5,38.9 59.7,38.9 60.2,38.2 59.8,37.1 60.6,37.8 61.1,37.1 61,38.2 61.8,38.9 61,38.9 61,40 	"/>
	<polygon class="st16" points="63,39.9 62.2,40 62.7,39.3 62.3,38.1 63,38.8 63.5,38.1 63.5,39.2 64.3,39.9 63.5,39.9 63.4,41.1 	
		"/>
	<polygon class="st16" points="65.5,41 64.7,41 65.2,40.3 64.7,39.2 65.5,39.9 66,39.2 66,40.3 66.7,41 65.9,41 65.9,42.1 	"/>
	<polygon class="st16" points="67.9,42.1 67.1,42.1 67.7,41.4 67.2,40.3 68,40.9 68.4,40.3 68.3,43 	"/>
	<polygon class="st16" points="19.6,23.8 18.8,23.8 19.3,23.1 18.9,22 19.6,22.7 20.1,22 20.1,23.1 20.9,23.8 20.1,23.8 20,24.9 	
		"/>
	<polygon class="st16" points="22.1,24.9 21.3,24.9 21.8,24.2 21.3,23.1 22.1,23.7 22.6,23.1 22.6,24.2 23.3,24.8 22.5,24.9 
		22.5,26 	"/>
	<polygon class="st16" points="24.5,25.9 23.7,25.9 24.3,25.2 23.8,24.1 24.6,24.8 25.1,24.1 25,25.2 25.8,25.9 25,25.9 25,27 	"/>
	<polygon class="st16" points="27,27 26.2,27 26.7,26.3 26.3,25.2 27,25.9 27.6,25.2 27.5,26.3 28.3,27 27.5,27 27.4,28.1 	"/>
	<polygon class="st16" points="29.5,28 28.7,28 29.2,27.3 28.8,26.2 29.5,26.9 30,26.2 30,27.3 30.8,28 30,28 29.9,29.1 	"/>
	<polygon class="st16" points="32,29.1 31.2,29.1 31.7,28.4 31.2,27.3 32,28 32.5,27.3 32.5,28.4 33.2,29.1 32.4,29.1 32.4,30.2 	
		"/>
	<polygon class="st16" points="34.4,30.1 33.6,30.2 34.2,29.5 33.7,28.3 34.5,29 35,28.3 34.9,29.4 35.7,30.1 34.9,30.1 34.9,31.3 	
		"/>
	<polygon class="st16" points="36.9,31.2 36.1,31.2 36.6,30.5 36.2,29.4 36.9,30.1 37.5,29.4 37.4,30.5 38.2,31.2 37.4,31.2 
		37.3,32.3 	"/>
	<polygon class="st16" points="39.4,32.3 38.6,32.3 39.1,31.6 38.7,30.5 39.4,31.1 39.9,30.4 39.9,31.6 40.7,32.2 39.9,32.2 
		39.8,33.4 	"/>
	<polygon class="st16" points="41.9,33.3 41.1,33.3 41.6,32.6 41.1,31.5 41.9,32.2 42.4,31.5 42.4,32.6 43.1,33.3 42.3,33.3 
		42.3,34.4 	"/>
	<polygon class="st16" points="44.3,34.4 43.5,34.4 44.1,33.7 43.6,32.6 44.4,33.2 44.9,32.5 44.8,33.7 45.6,34.3 44.8,34.4 
		44.8,35.5 	"/>
	<polygon class="st16" points="46.8,35.4 46,35.4 46.5,34.7 46.1,33.6 46.8,34.3 47.4,33.6 47.3,34.7 48.1,35.4 47.3,35.4 
		47.2,36.5 	"/>
	<polygon class="st16" points="49.3,36.5 48.5,36.5 49,35.8 48.6,34.7 49.3,35.3 49.8,34.7 49.8,35.8 50.6,36.4 49.8,36.5 
		49.7,37.6 	"/>
	<polygon class="st16" points="51.8,37.5 51,37.5 51.5,36.8 51,35.7 51.8,36.4 52.3,35.7 52.3,36.8 53,37.5 52.2,37.5 52.2,38.6 	
		"/>
	<polygon class="st16" points="54.2,38.6 53.4,38.6 54,37.9 53.5,36.8 54.3,37.5 54.8,36.8 54.7,37.9 55.5,38.6 54.7,38.6 
		54.7,39.7 	"/>
	<polygon class="st16" points="56.7,39.6 55.9,39.6 56.4,38.9 56,37.8 56.7,38.5 57.3,37.8 57.2,38.9 58,39.6 57.2,39.6 57.1,40.7 	
		"/>
	<polygon class="st16" points="59.2,40.7 58.4,40.7 58.9,40 58.5,38.9 59.2,39.6 59.7,38.9 59.7,40 60.5,40.7 59.7,40.7 59.6,41.8 	
		"/>
	<polygon class="st16" points="61.7,41.7 60.9,41.8 61.4,41.1 60.9,39.9 61.7,40.6 62.2,39.9 62.2,41 62.9,41.7 62.1,41.7 
		62.1,42.9 	"/>
	<polygon class="st16" points="64.1,42.8 63.3,42.8 63.9,42.1 63.4,41 64.2,41.7 64.7,41 64.6,42.1 65.4,42.8 64.6,42.8 64.6,43.9 	
		"/>
	<polygon class="st16" points="66.6,43.9 65.8,43.9 66.3,43.2 65.9,42.1 66.6,42.7 67.2,42 67.1,43.2 67.9,43.8 67.1,43.8 67,45 	
		"/>
	<polygon class="st16" points="19.8,19.4 19,19.4 19.3,19 20.2,19.5 20.2,20.5 	"/>
	<polygon class="st16" points="22.2,20.2 21.5,20.2 21.8,19.8 22.7,20.2 22.7,21.3 	"/>
	<polygon class="st16" points="24.7,21.3 23.9,21.3 24.3,20.8 25.3,21.3 25.2,21.3 25.2,22.4 	"/>
	<polygon class="st16" points="27.2,22.3 26.4,22.3 26.7,21.9 27.8,22.3 27.7,22.3 27.6,23.4 	"/>
	<polygon class="st16" points="29.7,23.4 28.9,23.4 29.2,22.9 30.4,23.4 30.2,23.4 30.1,24.5 	"/>
	<polygon class="st16" points="32.1,24.4 31.4,24.4 31.7,23.9 32.9,24.4 32.6,24.4 32.6,25.5 	"/>
	<polygon class="st16" points="34.6,25.5 33.8,25.5 34.2,25 35.5,25.5 35.1,25.5 35.1,26.6 	"/>
	<polygon class="st16" points="37.1,26.5 36.3,26.6 36.7,26 38,26.5 37.6,26.5 37.5,27.6 	"/>
	<polygon class="st16" points="39.6,27.6 38.8,27.6 39.2,27 40.6,27.6 40.1,27.6 40,28.7 	"/>
	<polygon class="st16" points="42,28.6 41.3,28.7 41.7,28.1 43.1,28.6 42.5,28.6 42.5,29.8 	"/>
	<polygon class="st16" points="44.5,29.7 43.7,29.7 44.2,29.1 45.6,29.7 45,29.7 45,30.8 	"/>
	<polygon class="st16" points="47,30.8 46.2,30.8 46.7,30.1 48.2,30.7 47.5,30.7 47.4,31.9 	"/>
	<polygon class="st16" points="49.5,31.8 48.7,31.8 49.2,31.1 50.7,31.8 50,31.8 49.9,32.9 	"/>
	<polygon class="st16" points="51.9,32.9 51.2,32.9 51.7,32.2 51.7,32.2 53.2,32.8 53.2,32.8 52.4,32.9 52.4,34 	"/>
	<polygon class="st16" points="54.4,33.9 53.6,33.9 54.1,33.2 54.1,33.2 55.6,33.8 55.7,33.9 54.9,33.9 54.9,35 	"/>
	<polygon class="st16" points="56.9,35 56.1,35 56.6,34.3 56.6,34.2 58,34.8 58.2,35 57.4,35 57.3,36.1 	"/>
	<polygon class="st16" points="59.4,36 58.6,36 59.1,35.3 59,35.2 60.4,35.8 60.6,36 59.9,36 59.8,37.1 	"/>
	<polygon class="st16" points="61.8,37.1 61.1,37.1 61.6,36.4 61.5,36.2 62.8,36.8 63.1,37.1 62.3,37.1 62.3,38.2 	"/>
	<polygon class="st16" points="64.3,38.1 63.5,38.2 64,37.5 64,37.3 65.2,37.8 65.6,38.1 64.8,38.1 64.8,39.2 	"/>
	<polygon class="st16" points="66.8,39.2 66,39.2 66.5,38.5 66.4,38.3 67.6,38.8 68.1,39.2 67.3,39.2 67.2,40.3 	"/>
	<polygon class="st16" points="19.3,28.5 18.5,28.5 19,27.8 18.6,26.7 19.4,27.3 19.9,26.6 19.8,27.8 20.6,28.4 19.8,28.5 
		19.8,29.6 	"/>
	<polygon class="st16" points="21.8,29.5 21,29.5 21.5,28.8 21.1,27.7 21.8,28.4 22.4,27.7 22.3,28.8 23.1,29.5 22.3,29.5 
		22.2,30.6 	"/>
	<polygon class="st16" points="24.3,30.6 23.5,30.6 24,29.9 23.6,28.8 24.3,29.4 24.8,28.7 24.8,29.9 25.5,30.5 24.8,30.6 
		24.7,31.7 	"/>
	<polygon class="st16" points="26.7,31.6 26,31.6 26.5,30.9 26,29.8 26.8,30.5 27.3,29.8 27.3,30.9 28,31.6 27.2,31.6 27.2,32.7 	
		"/>
	<polygon class="st16" points="29.2,32.7 28.4,32.7 28.9,32 28.5,30.9 29.3,31.6 29.8,30.9 29.7,32 30.5,32.7 29.7,32.7 29.7,33.8 	
		"/>
	<polygon class="st16" points="31.7,33.7 30.9,33.7 31.4,33 31,31.9 31.7,32.6 32.3,31.9 32.2,33 33,33.7 32.2,33.7 32.1,34.8 	"/>
	<polygon class="st16" points="34.2,34.8 33.4,34.8 33.9,34.1 33.5,33 34.2,33.7 34.7,33 34.7,34.1 35.4,34.8 34.7,34.8 34.6,35.9 	
		"/>
	<polygon class="st16" points="36.6,35.8 35.9,35.9 36.4,35.2 35.9,34 36.7,34.7 37.2,34 37.2,35.1 37.9,35.8 37.1,35.8 37.1,37 	
		"/>
	<polygon class="st16" points="39.1,36.9 38.3,36.9 38.8,36.2 38.4,35.1 39.2,35.8 39.7,35.1 39.6,36.2 40.4,36.9 39.6,36.9 
		39.6,38 	"/>
	<polygon class="st16" points="41.6,37.9 40.8,38 41.3,37.3 40.9,36.2 41.6,36.8 42.2,36.1 42.1,37.3 42.9,37.9 42.1,37.9 42,39.1 	
		"/>
	<polygon class="st16" points="44.1,39 43.3,39 43.8,38.3 43.4,37.2 44.1,37.9 44.6,37.2 44.6,38.3 45.3,39 44.6,39 44.5,40.1 	"/>
	<polygon class="st16" points="46.5,40.1 45.8,40.1 46.3,39.4 45.8,38.3 46.6,38.9 47.1,38.2 47.1,39.4 47.8,40 47,40.1 47,41.2 	
		"/>
	<polygon class="st16" points="49,41.1 48.2,41.1 48.7,40.4 48.3,39.3 49.1,40 49.6,39.3 49.5,40.4 50.3,41.1 49.5,41.1 49.5,42.2 	
		"/>
	<polygon class="st16" points="51.5,42.2 50.7,42.2 51.2,41.5 50.8,40.4 51.5,41 52.1,40.3 52,41.5 52.8,42.1 52,42.2 51.9,43.3 	
		"/>
	<polygon class="st16" points="54,43.2 53.2,43.2 53.7,42.5 53.3,41.4 54,42.1 54.5,41.4 54.5,42.5 55.2,43.2 54.5,43.2 54.4,44.3 	
		"/>
	<polygon class="st16" points="56.4,44.3 55.7,44.3 56.2,43.6 55.7,42.5 56.5,43.2 57,42.5 57,43.6 57.7,44.3 56.9,44.3 56.9,45.4 	
		"/>
	<polygon class="st16" points="58.9,45.3 58.1,45.3 58.6,44.6 58.2,43.5 59,44.2 59.5,43.5 59.4,44.6 60.2,45.3 59.4,45.3 
		59.4,46.4 	"/>
	<polygon class="st16" points="61.4,46.4 60.6,46.4 61.1,45.7 60.7,44.6 61.4,45.3 62,44.6 61.9,45.7 62.7,46.4 61.9,46.4 
		61.8,47.5 	"/>
	<polygon class="st16" points="63.9,47.4 63.1,47.5 63.6,46.8 63.2,45.6 63.9,46.3 64.4,45.6 64.4,46.7 65.1,47.4 64.4,47.4 
		64.3,48.6 	"/>
	<polygon class="st16" points="66.3,48.5 65.6,48.5 66.1,47.8 65.6,46.7 66.4,47.4 66.9,46.7 66.9,47.8 67.6,48.5 66.8,48.5 
		66.8,49.6 	"/>
	<polygon class="st16" points="18.3,29 18.5,28.7 18.5,29.8 19.3,30.5 18.5,30.5 18.4,31.6 18.2,31.2 	"/>
	<polygon class="st16" points="20.5,31.3 19.7,31.3 20.2,30.6 19.7,29.5 20.5,30.2 21,29.5 21,30.6 21.7,31.3 20.9,31.3 20.9,32.4 	
		"/>
	<polygon class="st16" points="22.9,32.4 22.1,32.4 22.7,31.7 22.2,30.6 23,31.2 23.5,30.5 23.5,31.7 24.2,32.3 23.4,32.4 
		23.4,33.5 	"/>
	<polygon class="st16" points="25.4,33.4 24.6,33.4 25.1,32.7 24.7,31.6 25.5,32.3 26,31.6 25.9,32.7 26.7,33.4 25.9,33.4 
		25.9,34.5 	"/>
	<polygon class="st16" points="27.9,34.5 27.1,34.5 27.6,33.8 27.2,32.7 27.9,33.4 28.4,32.7 28.4,33.8 29.2,34.5 28.4,34.5 
		28.3,35.6 	"/>
	<polygon class="st16" points="30.4,35.5 29.6,35.5 30.1,34.8 29.6,33.7 30.4,34.4 30.9,33.7 30.9,34.8 31.6,35.5 30.8,35.5 
		30.8,36.6 	"/>
	<polygon class="st16" points="32.8,36.6 32,36.6 32.6,35.9 32.1,34.8 32.9,35.5 33.4,34.8 33.4,35.9 34.1,36.6 33.3,36.6 
		33.3,37.7 	"/>
	<polygon class="st16" points="35.3,37.6 34.5,37.7 35,37 34.6,35.8 35.4,36.5 35.9,35.8 35.8,36.9 36.6,37.6 35.8,37.6 35.8,38.8 	
		"/>
	<polygon class="st16" points="37.8,38.7 37,38.7 37.5,38 37.1,36.9 37.8,37.6 38.3,36.9 38.3,38 39.1,38.7 38.3,38.7 38.2,39.8 	
		"/>
	<polygon class="st16" points="40.3,39.8 39.5,39.8 40,39.1 39.5,38 40.3,38.6 40.8,37.9 40.8,39.1 41.5,39.7 40.7,39.7 40.7,40.9 	
		"/>
	<polygon class="st16" points="42.7,40.8 41.9,40.8 42.5,40.1 42,39 42.8,39.7 43.3,39 43.3,40.1 44,40.8 43.2,40.8 43.2,41.9 	"/>
	<polygon class="st16" points="45.2,41.9 44.4,41.9 44.9,41.2 44.5,40.1 45.3,40.7 45.8,40 45.7,41.2 46.5,41.8 45.7,41.9 45.7,43 	
		"/>
	<polygon class="st16" points="47.7,42.9 46.9,42.9 47.4,42.2 47,41.1 47.7,41.8 48.2,41.1 48.2,42.2 49,42.9 48.2,42.9 48.1,44 	
		"/>
	<polygon class="st16" points="50.2,44 49.4,44 49.9,43.3 49.4,42.2 50.2,42.8 50.7,42.2 50.7,43.3 51.4,43.9 50.6,44 50.6,45.1 	
		"/>
	<polygon class="st16" points="52.6,45 51.8,45 52.4,44.3 51.9,43.2 52.7,43.9 53.2,43.2 53.2,44.3 53.9,45 53.1,45 53.1,46.1 	"/>
	<polygon class="st16" points="55.1,46.1 54.3,46.1 54.8,45.4 54.4,44.3 55.2,45 55.7,44.3 55.6,45.4 56.4,46.1 55.6,46.1 
		55.6,47.2 	"/>
	<polygon class="st16" points="57.6,47.1 56.8,47.1 57.3,46.4 56.9,45.3 57.6,46 58.1,45.3 58.1,46.4 58.9,47.1 58.1,47.1 58,48.2 	
		"/>
	<polygon class="st16" points="60.1,48.2 59.3,48.2 59.8,47.5 59.3,46.4 60.1,47.1 60.6,46.4 60.6,47.5 61.3,48.2 60.5,48.2 
		60.5,49.3 	"/>
	<polygon class="st16" points="62.5,49.2 61.7,49.3 62.3,48.6 61.8,47.4 62.6,48.1 63.1,47.4 63.1,48.5 63.8,49.2 63,49.2 63,50.4 	
		"/>
	<polygon class="st16" points="65,50.3 64.2,50.3 64.7,49.6 64.3,48.5 65.1,49.2 65.6,48.5 65.5,49.6 66.3,50.3 65.5,50.3 
		65.5,51.4 	"/>
	<polygon class="st16" points="67.5,51.4 66.7,51.4 67.2,50.7 66.8,49.6 67.5,50.2 68,49.5 68,50.7 68.1,50.7 68,51.3 68,51.3 
		67.9,52.5 	"/>
	<polygon class="st16" points="18.5,24.4 18.7,24 18.7,25.2 19.4,25.8 18.7,25.9 18.6,27 18.4,26.4 	"/>
	<polygon class="st16" points="20.7,26.7 19.9,26.7 20.4,26 19.9,24.9 20.7,25.5 21.2,24.8 21.2,26 21.9,26.6 21.1,26.6 21.1,27.8 	
		"/>
	<polygon class="st16" points="23.1,27.7 22.3,27.7 22.9,27 22.4,25.9 23.2,26.6 23.7,25.9 23.6,27 24.4,27.7 23.6,27.7 23.6,28.8 	
		"/>
	<polygon class="st16" points="25.6,28.8 24.8,28.8 25.3,28.1 24.9,27 25.6,27.6 26.2,26.9 26.1,28.1 26.9,28.7 26.1,28.8 26,29.9 	
		"/>
	<polygon class="st16" points="28.1,29.8 27.3,29.8 27.8,29.1 27.4,28 28.1,28.7 28.6,28 28.6,29.1 29.4,29.8 28.6,29.8 28.5,30.9 	
		"/>
	<polygon class="st16" points="30.6,30.9 29.8,30.9 30.3,30.2 29.8,29.1 30.6,29.8 31.1,29.1 31.1,30.2 31.8,30.8 31,30.9 31,32 	
		"/>
	<polygon class="st16" points="33,31.9 32.2,31.9 32.8,31.2 32.3,30.1 33.1,30.8 33.6,30.1 33.5,31.2 34.3,31.9 33.5,31.9 33.5,33 	
		"/>
	<polygon class="st16" points="35.5,33 34.7,33 35.2,32.3 34.8,31.2 35.5,31.9 36.1,31.2 36,32.3 36.8,33 36,33 35.9,34.1 	"/>
	<polygon class="st16" points="38,34 37.2,34 37.7,33.4 37.3,32.2 38,32.9 38.5,32.2 38.5,33.3 39.3,34 38.5,34 38.4,35.1 	"/>
	<polygon class="st16" points="40.5,35.1 39.7,35.1 40.2,34.4 39.7,33.3 40.5,34 41,33.3 41,34.4 41.7,35.1 40.9,35.1 40.9,36.2 	
		"/>
	<polygon class="st16" points="42.9,36.1 42.1,36.2 42.7,35.5 42.2,34.3 43,35 43.5,34.3 43.4,35.4 44.2,36.1 43.4,36.1 43.4,37.3 	
		"/>
	<polygon class="st16" points="45.4,37.2 44.6,37.2 45.1,36.5 44.7,35.4 45.4,36.1 46,35.4 45.9,36.5 46.7,37.2 45.9,37.2 
		45.8,38.3 	"/>
	<polygon class="st16" points="47.9,38.3 47.1,38.3 47.6,37.6 47.2,36.5 47.9,37.1 48.4,36.4 48.4,37.6 49.2,38.2 48.4,38.2 
		48.3,39.4 	"/>
	<polygon class="st16" points="50.4,39.3 49.6,39.3 50.1,38.6 49.6,37.5 50.4,38.2 50.9,37.5 50.9,38.6 51.6,39.3 50.8,39.3 
		50.8,40.4 	"/>
	<polygon class="st16" points="52.8,40.4 52,40.4 52.6,39.7 52.1,38.6 52.9,39.2 53.4,38.5 53.3,39.7 54.1,40.3 53.3,40.4 
		53.3,41.5 	"/>
	<polygon class="st16" points="55.3,41.4 54.5,41.4 55,40.7 54.6,39.6 55.3,40.3 55.9,39.6 55.8,40.7 56.6,41.4 55.8,41.4 
		55.7,42.5 	"/>
	<polygon class="st16" points="57.8,42.5 57,42.5 57.5,41.8 57.1,40.7 57.8,41.4 58.3,40.7 58.3,41.8 59.1,42.4 58.3,42.5 
		58.2,43.6 	"/>
	<polygon class="st16" points="60.3,43.5 59.5,43.5 60,42.8 59.5,41.7 60.3,42.4 60.8,41.7 60.8,42.8 61.5,43.5 60.7,43.5 
		60.7,44.6 	"/>
	<polygon class="st16" points="62.7,44.6 61.9,44.6 62.5,43.9 62,42.8 62.8,43.5 63.3,42.8 63.2,43.9 64,44.6 63.2,44.6 63.2,45.7 	
		"/>
	<polygon class="st16" points="65.2,45.6 64.4,45.7 64.9,45 64.5,43.8 65.2,44.5 65.8,43.8 65.7,44.9 66.5,45.6 65.7,45.6 
		65.6,46.7 	"/>
	<polygon class="st16" points="67.7,46.7 66.9,46.7 67.4,46 67,44.9 67.7,45.6 68.2,44.9 68.2,46 68.2,46 68.2,46.7 68.2,46.7 
		68.1,47.8 	"/>
	<polygon class="st13" points="16,31.4 16.1,30 68.3,51.6 68.3,53.1 	"/>
	<path class="st17" d="M15.7,13.2l3,1.2c0.1,0,0.2,0.2,0.2,0.4l-0.6,17.6L14.9,31l0.6-17.6C15.5,13.2,15.6,13.1,15.7,13.2z"/>
	<path class="st17" d="M68.6,35.5l3,1.2c0.1,0,0.2,0.2,0.2,0.4L71.2,54l-3.4-1.4l0.6-16.9C68.4,35.6,68.5,35.5,68.6,35.5z"/>
	<polygon class="st0" points="16.1,15 18.1,15.9 17.6,30.9 15.6,30 	"/>
	<polygon class="st0" points="69.1,36.8 71.1,37.7 70.6,52.7 68.6,51.8 	"/>
	<path class="st3" d="M29.2,89.9c-0.3,2.6-0.3,3-2.4,4.5c-4.7,3.2-14,7.8-18.9,10.3L53.7,126l24.8-14L29.2,89.9z"/>
	<path class="st3" d="M29.2,89.9c-0.2,1.7-0.3,2.5-0.9,3.2l46.1,21.1l4-2.3L29.2,89.9z"/>
	<polygon class="st0" points="21.5,93.6 6.3,104.6 4.3,103.6 20.1,92.4 22,93.1 	"/>
	<path class="st2" d="M24.2,91.3c0,0-17.1,12.5-17.1,12.8c0,0.4,1.2,0.5,1.2,0.5l13.1-7l4.1-2.3c0,0,3.1-1.5,3.1-3.3
		s0.2-2.1,0.2-2.1S24.1,90.3,24.2,91.3z"/>
	<path class="st13" d="M81.5,43.3l3,1.2c0.1,0,0.2,0.2,0.2,0.4l-13,82.3c0,0.2-0.1,0.2-0.2,0.3l-3.1,1.1c-0.1,0-0.2-0.2-0.2-0.4
		l13.1-84.6C81.4,43.3,81.4,43.2,81.5,43.3z"/>
	<polygon class="st2" points="114.8,187.5 72,211.3 53.9,126.9 72.6,113.1 81.5,56.9 71.2,54.1 71.8,37.2 93.4,31.5 114.9,44.9 	"/>
	<polygon class="st2" points="8.3,104.7 7.6,103.6 6.3,104.6 5,106 26.4,187.7 28.4,186.9 	"/>
	<path class="st13" d="M5.4,104.1l-1.1-0.5L24,185.7c0.1,0.6,2.3,2,2.3,2l-20-83.1L5.4,104.1z"/>
	<path class="st18" d="M69.2,35.8l-0.6-0.2c0,0,20.8-5,21.1-5.1s3.7,1.1,3.7,1.1l-21.6,5.7L71.7,37L69.2,35.8z"/>
	<polygon class="st3" points="8.7,106.9 53.1,127.9 54.1,125.7 8.3,104.7 	"/>
	<polygon class="st0" points="71.8,113.6 53.9,126.9 51.9,125.9 70.7,112.3 72.6,113.1 	"/>
	<path class="st13" d="M53,126.4l-1.1-0.5l17.4,83.6c0.1,0.6,2.7,1.8,2.7,1.8l-18.1-84.4L53,126.4z"/>
	<g>
		<path class="st3" d="M49.8,105.1c2.7,1.1,4.2,3.2,3.4,4.8s-3.6,2-6.3,0.9s-4.2-3.2-3.4-4.8S47.1,104,49.8,105.1z"/>
		<path class="st3" d="M52.8,114.1c2.7,1.1,4.2,3.2,3.4,4.8s-3.6,2-6.3,0.9s-4.2-3.2-3.4-4.8S50.2,113,52.8,114.1z"/>
		<path class="st12" d="M49.7,105.2c2.5,1,4,3.1,3.2,4.6s-3.5,1.9-6,0.8c-2.5-1-4-3.1-3.2-4.6S47.2,104.2,49.7,105.2z"/>
		<path class="st12" d="M52.8,114.2c2.5,1,4,3.1,3.2,4.6s-3.5,1.9-6,0.8c-2.5-1-4-3.1-3.2-4.6S50.3,113.1,52.8,114.2z"/>
		<path class="st3" d="M40.8,109.2c2.7,1.1,4.2,3.2,3.4,4.8s-3.6,2-6.3,0.9s-4.2-3.2-3.4-4.8C35.3,108.5,38.2,108.1,40.8,109.2z"/>
		<path class="st12" d="M40.8,109.3c2.5,1,4,3.1,3.2,4.6s-3.5,1.9-6,0.8c-2.5-1-4-3.1-3.2-4.6C35.5,108.6,38.2,108.2,40.8,109.3z"/>
		<path class="st1" d="M40.7,109.2c2.3,0.9,3.6,2.8,2.9,4.2c-0.7,1.4-3.1,1.7-5.5,0.8c-2.3-0.9-3.6-2.8-2.9-4.2
			C36,108.5,38.4,108.2,40.7,109.2z"/>
		<path class="st19" d="M49.8,105c2.3,0.9,3.6,2.8,2.9,4.2c-0.7,1.4-3.1,1.7-5.5,0.8c-2.3-0.9-3.6-2.8-2.9-4.2
			C45.1,104.4,47.5,104.1,49.8,105z"/>
		<path class="st1" d="M52.8,114.1c2.3,0.9,3.6,2.8,2.9,4.2c-0.7,1.4-3.1,1.7-5.5,0.8c-2.3-0.9-3.6-2.8-2.9-4.2
			C48,113.5,50.4,113.2,52.8,114.1z"/>
		<path class="st19" d="M40.8,109.1c2.3,0.9,3.6,2.8,2.9,4.2s-3.1,1.7-5.5,0.8c-2.3-0.9-3.6-2.8-2.9-4.2
			C36.1,108.5,38.5,108.1,40.8,109.1z"/>
		<path class="st19" d="M52.8,114c2.3,0.9,3.6,2.8,2.9,4.2c-0.7,1.4-3.1,1.7-5.5,0.8c-2.3-0.9-3.6-2.8-2.9-4.2
			C48,113.4,50.5,113.1,52.8,114z"/>
		<path class="st19" d="M40.8,109.2c1.9,0.8,3,2.3,2.4,3.4c-0.6,1.1-2.6,1.4-4.5,0.6c-1.9-0.8-3-2.3-2.4-3.4
			C36.9,108.7,38.9,108.4,40.8,109.2z"/>
		<path class="st19" d="M49.8,105c1.9,0.8,3,2.3,2.4,3.4c-0.6,1.1-2.6,1.4-4.5,0.6c-1.9-0.8-3-2.3-2.4-3.4
			C45.9,104.5,47.9,104.2,49.8,105z"/>
		<path class="st19" d="M52.8,113.9c1.9,0.8,3,2.3,2.4,3.4c-0.6,1.1-2.6,1.4-4.5,0.6c-1.9-0.8-3-2.3-2.4-3.4
			C48.9,113.4,50.9,113.2,52.8,113.9z"/>
		<path class="st20" d="M39.9,109.3c0.7,0.3,1.1,0.9,0.9,1.3c-0.2,0.4-1,0.5-1.7,0.2s-1.1-0.9-0.9-1.3
			C38.4,109.1,39.2,109,39.9,109.3z"/>
		<path class="st20" d="M48.7,105.2c0.7,0.3,1.1,0.9,0.9,1.3c-0.2,0.4-1,0.5-1.7,0.2s-1.1-0.9-0.9-1.3C47.2,105,48,104.9,48.7,105.2
			z"/>
		<path class="st20" d="M51.8,114.2c0.7,0.3,1.1,0.9,0.9,1.3c-0.2,0.4-1,0.5-1.7,0.2s-1.1-0.9-0.9-1.3
			C50.3,114,51.1,113.9,51.8,114.2z"/>
	</g>
	<g>
		<path class="st12" d="M28.5,98.2c3,0.4,5.5,1.8,6.7,3.3l0.9,0.1l-0.2,1.6c0,0.2,0,0.4,0,0.5c-0.3,2.5-4.1,3.9-8.4,3.3
			c-4.4-0.6-7.7-3.2-7.4-5.6c0-0.2,0.1-0.4,0.1-0.5l0.2-1.6l0.9,0.1C22.8,98.3,25.5,97.8,28.5,98.2z"/>
		<path class="st13" d="M28.7,96.7c4.4,0.6,7.7,3.2,7.4,5.6c-0.3,2.5-4.1,3.9-8.4,3.3c-4.4-0.6-7.7-3.2-7.4-5.6
			C20.6,97.5,24.3,96.1,28.7,96.7z"/>
		<path class="st19" d="M28.5,98.1c2.9,0.4,5.2,2.1,5,3.8s-2.8,2.7-5.7,2.2c-2.9-0.4-5.2-2.1-5-3.8C23,98.7,25.6,97.7,28.5,98.1z"/>
	</g>
	<g>
		<path class="st21" d="M29.4,101.2l0.7-18l-2-0.1l-0.7,18l-0.1,0.1c0,0.3,0.4,0.5,1,0.5s1-0.2,1.1-0.4
			C29.4,101.3,29.4,101.3,29.4,101.2z"/>
		<path class="st22" d="M27.6,101.6c0.1,0.1,0.3,0.1,0.5,0.1l0.3-7.9h-0.5L27.6,101.6z"/>
		<path class="st23" d="M29.2,101.2l0.4-10.9h-0.5l-0.4,11.4c0.3-0.1,0.6-0.2,0.6-0.4C29.2,101.3,29.2,101.3,29.2,101.2z"/>
		<g>
			<path class="st23" d="M29.7,94.7l0.1-3.7c-0.3-0.1-0.7-0.2-1.1-0.2c-0.3,0-0.6,0-0.9,0.1l-0.1,3.8c0.3,0.1,0.6,0.1,0.9,0.1
				C29,94.8,29.4,94.8,29.7,94.7z"/>
			<path class="st19" d="M29,80.1c4,0.2,7,3.5,6.9,7.4c-0.2,4-3.5,7-7.4,6.9c-4-0.2-7-3.5-6.9-7.4C21.7,83,25.1,79.9,29,80.1z"/>
			<path class="st19" d="M28.9,80.7c2.2,0.1,4,1.3,5.1,3c-1-0.6-2.1-0.9-3.3-1c-3.9-0.2-7.3,2.9-7.5,6.8c-0.4-0.9-0.7-1.9-0.6-2.9
				C22.6,83.2,25.5,80.6,28.9,80.7z"/>
			<path class="st19" d="M32.5,81.9c1.7,1.2,2.7,3.2,2.7,5.4c-0.1,3.5-3.1,6.3-6.6,6.2c-2-0.1-3.7-1-4.8-2.4c1,0.7,2.2,1.2,3.5,1.2
				c3.5,0.1,6.5-2.6,6.6-6.2C33.9,84.5,33.4,83,32.5,81.9z"/>
		</g>
	</g>
	<polygon class="st24" points="30.3,28.3 42.9,30.4 55.5,38.8 55.8,42 42.6,40 30.2,31.7 	"/>
	<path class="st2" d="M23.5,27.2l7.4,1.2l-0.5,1.2l-0.2,2.1L23.5,27.2L23.5,27.2z M32.2,28.6l10.7,1.7l10.4,6.9l-0.2,4.4L42.6,40
		l-9.8-6.5l0.2,0.1l-0.1-3.1L32.2,28.6L32.2,28.6z M55.4,38.7l6.7,4.4L55.4,42v-0.6l-1.2-0.5v-0.6l0.8,0.4v-1.1l-0.8-0.3v-0.6
		l1.1,0.4L55.4,38.7L55.4,38.7z M32,32.9l-0.8-0.6v-0.4l0.8,0.2V32.9L32,32.9z M31.2,30.8l0.1-0.7l0.3-0.7l0.3,1V31L31.2,30.8
		L31.2,30.8z M36.8,35.2l1-0.2l-0.6-1.6l0.4-0.1v-2.6l-0.8-0.5l-1.7-0.6L35,34.4l1.1,0.4v-1.5h0.2L36.8,35.2L36.8,35.2z M36,31.1
		v1.1l0.6,0.2v-1L36,31.1L36,31.1z M40.7,35.4l0.1-2.2l1,0.4v-1.3l-2.1-0.6l-0.1,4.5l2.2,1.1v-1.4L40.7,35.4L40.7,35.4z M46.4,36
		l-0.7-2.2l-1-0.4l-0.8,1.7l-0.2,2.7l1,0.4l0.1-0.8l0.8,0.2v1l1,0.4L46.4,36L46.4,36z M44.7,36.4l0.7,0.2V36l-0.3-1l-0.3,0.7
		L44.7,36.4L44.7,36.4z M50.5,35.9l-2-0.7l-0.1,4.7l2,0.9l0.7-0.8l0.2-2.7L50.5,35.9L50.5,35.9z M49.5,39l0.7,0.2l0.1-2l-0.7-0.3
		L49.5,39z"/>
</g>
</svg>
