<?xml version="1.0" encoding="utf-8"?>
<!-- Generator: Adobe Illustrator 25.0.1, SVG Export Plug-In . SVG Version: 6.00 Build 0)  -->
<svg version="1.1" id="Layer_1" xmlns="http://www.w3.org/2000/svg" xmlns:xlink="http://www.w3.org/1999/xlink" x="0px" y="0px"
	 viewBox="0 0 324 82" style="enable-background:new 0 0 324 82;" xml:space="preserve">
<style type="text/css">
	.st0{fill:#ED7203;}
</style>
<path class="st0" d="M37.7,2.8c1.5-1,3.4-1,4.9,0c3.8,2.4,7.4,5,10.9,7.8c0,0,0.9,0.7,1-0.5c0,0-0.2-3.3,0.2-4.3
	c0.3-0.8,1-1.3,1.8-1.3c0,0,4.3,0.2,7,0.6c1.2,0.2,2.1,1.2,2.2,2.4c0,0,1.7,11.6,2.1,15.8c0,0,0.3,2.1,3.4,5.8c0,0,6.2,8.8,7,10.5
	c0,0,1.5,3.1-1.7,3.5c0,0-5.7,0.6-6.3,0.7c-0.8,0.1-1.4,0.8-1.3,1.6c0,0,0,0,0,0c0,0-0.3,20.2-1.8,30c0,0-0.4,3.9-2.5,3.8
	c0,0-5.9-0.2-7.3-0.2c0,0-0.6,0-0.5-0.8c0,0,3-31.6,1-47.6c0,0-0.1-2.1-1.7-2.5c0,0-1.4-0.6-2.8,1.3c0,0-9.3,11.9-9.3,28.5
	c0,0-0.2,5.1,0.6,6.3c0,0,0.5,0.9,2.9,1.1l3.1,0.4c0,0,0.6,0,0.5,0.8c0,0-0.7,9.3-0.9,10.9c0,0.4-0.1,0.7-0.2,1.1
	c0,0-0.1,0.3-1.1,0.3c0,0-13.6-0.1-15.2,0c0,0-0.6,0.1-0.8-0.3c-0.1-0.4-0.9-12-0.9-13.6c0-0.3,0.2-0.7,0.5-0.8
	c2.1-1.3,3.5-3.5,3.8-6c0,0,0.2-1,0.1-5.3c0,0,0.5-17.8,0.6-20.6c0,0,0.1-1-1.2-1.1c-0.6-0.1-1.3,0.2-1.4,0.9c0,0,0,0.1,0,0.1
	c0,0-0.9,11.7-0.7,16.4c0,0,0.3,3-1.8,3.1c0,0-2,0.3-2.1-2.2c0,0,0.1-11.4,0.6-17c0-0.6-0.5-1.2-1.1-1.2c-0.7-0.1-1.3,0.3-1.4,1
	c0,0,0,0.1,0,0.1c0,0-0.9,10.9-0.7,16.7c0,0,0.3,2.8-2,2.7c0,0-1.9,0.2-2-2.3c0,0,0.5-15.6,0.6-16.8c0.1-0.7-0.4-1.3-1.1-1.4
	c0,0-0.1,0-0.1,0c-0.7-0.1-1.3,0.4-1.4,1c0,0,0,0.1,0,0.1c0,0-0.8,18.7-0.7,24.1c0,0-0.1,5.6,4.1,7.9c0,0,0.6,0.4,0.6,0.9
	c0,0,0.5,9.9,0.9,13.1c0,0,0.2,0.8-0.5,0.8l-10.5,0.3c0,0-1.7,0.1-2.1-2c-0.3-2-2.3-18.5-1.9-31.6c0.1-0.8-0.5-1.6-1.3-1.7
	c0,0-5.4-0.5-6.7-0.8c-1.2-0.3-1.9-1.5-1.6-2.7C1.9,40.2,2,40,2.1,39.8C2.1,39.8,13.7,17.7,37.7,2.8"/>
<path class="st0" d="M111.5,32.1h-10.3c-3.4,0-3.4,0-4,3.9c-0.7,3.9-0.7,4,2.4,4h6.1l-3.5,20c-0.8,4.5-2.8,7.5-8.8,9.4
	c-1.5,0.4-2,1-2,1.7c0,0.8,0.3,1.5,1,3.2c1,2.4,1.5,2.8,2.4,2.8c0.8,0,2.4-0.4,2.9-0.6c8.5-2.8,12-9.4,13.4-17.2l3.9-22.5
	C115.7,32.1,115.7,32.1,111.5,32.1"/>
<path class="st0" d="M146.5,32.1c-4.2,0-4.2,0-4.7,3.5l-3.1,18.2c-0.8,5.3-2.2,8.4-7.4,8.4c-5,0-6.8-3.1-6-7.8l2.9-17.3
	c0.8-4.9,0.7-4.9-3.6-4.9c-4.2,0-4.3,0-4.9,3.4l-3.1,18.2c-1.8,10.3,4.6,16.8,13.7,16.8c10.2,0,15.4-4.6,17-15.5l3.1-18
	C151.1,32.1,150.9,32.1,146.5,32.1"/>
<path class="st0" d="M165.7,61.9c3.4-0.1,5.2-1.7,5.2-3.2c0-2-2.4-2.7-5.6-3.6c-6.3-2-12-4.2-12-10.9c0-8,6.6-12.3,14.8-12.3
	c3.5,0,7.4,0.1,9.9,0.4c2.2,0.3,2.8,1,2.1,4.5c-0.7,3.5-1.5,3.8-3.5,3.6c-2.4-0.1-5.4-0.4-9.1-0.4c-4.2,0-5.4,1.5-5.4,2.9
	c0,1.8,1.7,2.8,5.6,3.9c7.3,2.1,12,5,12,11.3c0,7.4-5.4,11.7-14.2,12c-4.7,0.1-8.9-0.1-12.6-0.7c-2.8-0.4-2.9-0.4-2.2-4.5
	c0.7-3.6,0.7-3.9,3.4-3.6C159.1,61.9,162.3,62,165.7,61.9"/>
<path class="st0" d="M211.3,32.1h-23.6c-3.4,0-3.4,0-4,4c-0.7,4.1-0.6,4.1,2.4,4.1h7.7l-4.3,25c-0.8,4.9-0.7,4.9,3.6,4.9
	c4.1,0,4.2,0,4.7-3.5l4.5-26.4h7.4c3.4,0,3.4,0,4-4.1C214.4,32.1,214.4,32.1,211.3,32.1"/>
<path class="st0" d="M252.9,40.1c3.4,0,3.4,0,4-4c0.7-4,0.7-4-2.4-4h-16.9c-6,0-5.9,0-6.8,6l-4.3,25.3c-1.1,6.6-1,6.6,5,6.6H248
	c3.5,0,3.4,0,4-3.9c0.7-4,0.7-4-2.4-4h-14.2l1.1-7.3h11.9c3.2,0,3.2,0,3.8-3.8c0.6-3.9,0.6-3.9-3.8-3.9H238l1.1-6.8H252.9z"/>
<path class="st0" d="M285.6,36.7c-0.8-4.7-0.8-4.7-7.5-4.7c-6.3,0-6.1,0-8.1,3.9l-14.1,29.5c-2.1,4.2-1.7,4.6,3.5,4.6
	c4,0,4,0,5.7-3.8l2.2-5H281l0.7,5c0.6,3.8,0.7,3.8,4.7,3.8c4.6,0,5-0.3,4.2-4.9L285.6,36.7z M270.8,53.5l5.4-12c0.4-1,0.4-1,1.1-1
	c0.7,0,0.7,0,0.8,1.1l1.7,11.9H270.8z"/>
<path class="st0" d="M319,32.1h-23.7c-3.4,0-3.4,0-4,4c-0.7,4.1-0.6,4.1,2.4,4.1h7.7l-4.3,25c-0.8,4.9-0.7,4.9,3.6,4.9
	c4,0,4.2,0,4.7-3.5l4.5-26.4h7.4c3.4,0,3.4,0,4-4.1C322.1,32.1,322.1,32.1,319,32.1"/>
</svg>
