<?xml version="1.0" encoding="utf-8"?>
<!-- Generator: Adobe Illustrator 25.1.0, SVG Export Plug-In . SVG Version: 6.00 Build 0)  -->
<svg version="1.1" id="main_stage" xmlns="http://www.w3.org/2000/svg" xmlns:xlink="http://www.w3.org/1999/xlink" x="0px" y="0px"
	 viewBox="0 0 440 467" style="enable-background:new 0 0 440 467;" xml:space="preserve">
<style type="text/css">
	.st0{enable-background:new    ;}
	.st1{fill:#201C3D;}
	.st2{fill:#0A3847;}
	.st3{fill:#D6EEEB;}
	.st4{fill:#60C1D2;}
	.st5{fill:#3C3C3B;}
	.st6{fill:#1D1D1B;}
	.st7{fill:#575756;}
	.st8{fill:#040400;}
	.st9{fill:#FFFFFF;}
	.st10{fill:#FFAE80;}
	.st11{fill:#1574F5;}
	.st12{fill:#EDA96B;}
	.st13{opacity:0.5;fill:#3663A5;enable-background:new    ;}
	.st14{fill:#FCAF75;}
	.st15{clip-path:url(#SVGID_2_);enable-background:new    ;}
	.st16{fill:#A04800;}
	.st17{fill:#9C4600;}
	.st18{fill:#974400;}
	.st19{clip-path:url(#SVGID_4_);enable-background:new    ;}
	.st20{fill:#7E3900;}
	.st21{fill:#833B00;}
	.st22{fill:#883D00;}
	.st23{fill:#8D3F00;}
	.st24{fill:#924100;}
	.st25{fill:#D45F00;}
	.st26{fill:#0B1017;}
	.st27{fill:#C0C7A9;}
	.st28{fill:#DCE1CB;}
	.st29{fill:#3C4387;}
	.st30{fill:#3663A5;}
	.st31{opacity:0.5;fill:#FFAE80;enable-background:new    ;}
</style>
<g id="main_stage_icon">
	<g>
		<g>
			<g class="st0">
				<g>
					<polygon class="st1" points="4.8,372.9 4.9,389.3 131.6,462.9 131.5,446.5 					"/>
				</g>
				<g>
					<polygon class="st1" points="131.5,446.5 131.6,462.9 433.4,288.7 433.3,272.3 					"/>
				</g>
				<g>
					<path class="st2" d="M433.3,272.3l-65.6,37.9l-63.6,36.7l-29.5,17l-62,35.8l-81,46.8L4.8,372.9l301.7-174.2L433.3,272.3z"/>
				</g>
			</g>
		</g>
		<g>
			<g>
				<path class="st3" d="M56.5,159.6l0.6,220.7l2.1,1.2l3.3-1.9l8.3-14.9v7.7l2.1,1.2l2.8-1.6l-0.6-201.7L303.5,38.5l0.6,199.3
					l2.1,1.2l2.8-1.6v-12.6l8.3,5.4l2.1,1.2l3.3-1.9L322,8.8l-2.1-1.2L56.5,159.6z M61.5,162.4l3.9-2.3l-3.9,6.5V162.4z M308.4,35.6
					l6.3-3.6l-6.3,11.4V35.6z M309.3,186.7l8.2-14.9l0.1,20.3L309.3,186.7z M309.2,153l8.2-14.9l0.1,20.3L309.2,153z M309.1,119.4
					l8.2-14.9l0.1,20.3L309.1,119.4z M309,85.8l8.2-14.9l0.1,20.3L309,85.8z M308.9,52.1l8.2-14.9l0.1,20.3L308.9,52.1z M311.1,18.3
					l6-3.5v6.4L311.1,18.3z M317.7,225.6l-8.3-5.4l8.2-14.9L317.7,225.6z M308.9,211.5l-0.1-20.3l8.3,5.4L308.9,211.5z M308.8,177.9
					l-0.1-20.3l8.3,5.4L308.8,177.9z M308.7,144.2l-0.1-20.3l8.3,5.4L308.7,144.2z M308.6,110.6l-0.1-20.3l8.3,5.4L308.6,110.6z
					 M308.5,77l-0.1-20.3l8.3,5.4L308.5,77z M316.2,25.4l-17.6,10.2l8.8-14.6L316.2,25.4z M290.7,39.6l-8.8-4.4L299.5,25L290.7,39.6
					z M287,42.3l-17.6,10.2l8.8-14.6L287,42.3z M261.4,56.5l-8.8-4.4l17.6-10.2L261.4,56.5z M257.7,59.2l-17.6,10.2l8.8-14.6
					L257.7,59.2z M232.2,73.4l-8.8-4.4L241,58.8L232.2,73.4z M228.4,76.1l-17.6,10.2l8.8-14.6L228.4,76.1z M202.9,90.3l-8.8-4.4
					l17.6-10.2L202.9,90.3z M199.2,93l-17.6,10.2l8.8-14.6L199.2,93z M173.6,107.2l-8.8-4.4l17.6-10.2L173.6,107.2z M169.9,109.9
					l-17.6,10.2l8.8-14.6L169.9,109.9z M144.4,124.1l-8.8-4.4l17.6-10.2L144.4,124.1z M140.6,126.8L123,137l8.8-14.6L140.6,126.8z
					 M115.1,140.9l-8.8-4.4l17.6-10.2L115.1,140.9z M111.4,143.7l-17.6,10.2l8.8-14.6L111.4,143.7z M85.9,157.8l-8.8-4.4l17.6-10.2
					L85.9,157.8z M82.1,160.6l-17.6,10.2l8.8-14.6L82.1,160.6z M62.5,346l8.2-14.9v7.7v12.6L62.5,346z M62.4,312.4l8.2-14.9v7.7
					v12.6L62.4,312.4z M62.3,278.7l8.2-14.9v7.7v12.6L62.3,278.7z M62.2,245.1l8.2-14.9v7.7v12.6L62.2,245.1z M62.1,211.5l8.2-14.9
					v7.7v12.6L62.1,211.5z M62,177.9l8.3-4.8v10.1L62,177.9z M70.3,355.9L62,370.8v-20.3L70.3,355.9z M62,337.2l-0.1-20.3l8.3,5.4
					L62,337.2z M61.9,303.6l-0.1-20.3l8.3,5.4L61.9,303.6z M61.8,270l-0.1-20.3L70,255L61.8,270z M61.7,236.3L61.6,216l8.3,5.4
					L61.7,236.3z M61.6,202.7l-0.1-20.3l8.3,5.4L61.6,202.7z"/>
				<g>
					<path class="st4" d="M322.6,229.5l-3.3,1.9l-10.4-6.7v12.7l-2.8,1.6l-0.6-201.7l-230.3,133L75.8,372l-2.8,1.6v-12.7l-10.3,18.7
						l-3.3,1.9l-0.6-220.7L322,8.8L322.6,229.5z M61.8,274.9l10.3-18.7l-10.4-6.7L61.8,274.9L61.8,274.9z M319.4,100.7l-10.3,18.7
						l10.4,6.7L319.4,100.7L319.4,100.7z M84.4,161.7l-11.1-5.5l-11,18.3L84.4,161.7L84.4,161.7z M230.7,77.2l-11.1-5.5l-11,18.3
						L230.7,77.2L230.7,77.2z M61.7,241.3L72,222.6l-10.4-6.7L61.7,241.3L61.7,241.3z M157.5,107l-22.1,12.8l11.1,5.5L157.5,107
						L157.5,107z M308.9,216.5l10.3-18.7l-10.4-6.7L308.9,216.5L308.9,216.5z M319.3,67.1L309,85.8l10.4,6.7L319.3,67.1L319.3,67.1z
						 M308.8,182.8l10.3-18.7l-10.4-6.7L308.8,182.8L308.8,182.8z M289.2,43.5L278.1,38l-11,18.3L289.2,43.5L289.2,43.5z
						 M259.9,60.3l-11.1-5.5l-11,18.3L259.9,60.3L259.9,60.3z M303.8,22.5l-22.1,12.8l11.1,5.5L303.8,22.5L303.8,22.5z M186.8,90.1
						l-22.1,12.8l11.1,5.5L186.8,90.1L186.8,90.1z M113.6,144.8l-11.1-5.5l-11,18.3L113.6,144.8L113.6,144.8z M72.9,340v-12.7
						L62.5,346l10.4,6.7V340L72.9,340z M62.4,312.4l10.4,6.7v-12.7v-12.7L62.4,312.4L62.4,312.4z M142.9,127.9l-11.1-5.5l-11,18.3
						L142.9,127.9L142.9,127.9z M274.5,39.4l-22.1,12.8l11.1,5.5L274.5,39.4L274.5,39.4z M319.2,33.5l-10.3,18.7l10.4,6.7
						L319.2,33.5L319.2,33.5z M61.6,207.7L71.9,189l-10.4-6.7L61.6,207.7L61.6,207.7z M319.5,134.3L309.2,153l10.4,6.7L319.5,134.3
						L319.5,134.3z M308.7,149.2l10.3-18.7l-10.4-6.7L308.7,149.2L308.7,149.2z M308.6,115.6l10.3-18.7l-10.4-6.7L308.6,115.6
						L308.6,115.6z M62.1,375.8l10.3-18.7L62,350.4L62.1,375.8L62.1,375.8z M319.6,168l-10.3,18.7l10.4,6.7L319.6,168L319.6,168z
						 M61.9,308.5l10.3-18.7l-10.4-6.7L61.9,308.5L61.9,308.5z M319.8,227l-0.1-25.4l-10.3,18.7L319.8,227L319.8,227z M62,342.2
						l10.3-18.7l-10.4-6.7L62,342.2L62,342.2z M245.3,56.3l-22.1,12.8l11.1,5.5L245.3,56.3L245.3,56.3z M318.5,26.6L307.4,21
						l-11,18.3L318.5,26.6L318.5,26.6z M216,73.2L193.9,86l11.1,5.5L216,73.2L216,73.2z M201.4,94.1l-11.1-5.5l-11,18.3L201.4,94.1
						L201.4,94.1z M128.2,123.9l-22.1,12.8l11.1,5.5L128.2,123.9L128.2,123.9z M172.2,111l-11.1-5.5l-11,18.3L172.2,111L172.2,111z
						 M99,140.8l-22.1,12.8l11.1,5.5L99,140.8L99,140.8z M308.5,82l10.3-18.7l-10.4-6.7L308.5,82L308.5,82z M62.2,245.1l10.4,6.7
						v-12.7v-12.7L62.2,245.1L62.2,245.1z M62.3,278.7l10.4,6.7v-12.7V260L62.3,278.7L62.3,278.7z M62.1,211.5l10.4,6.7v-12.7v-12.7
						L62.1,211.5L62.1,211.5z M62,177.9l10.4,6.7v-12.7L62,177.9L62,177.9z M308.4,48.4l10.3-18.7l-10.3,6V48.4L308.4,48.4z
						 M319.2,13.6l-8.2,4.8l8.3,4.1L319.2,13.6L319.2,13.6z M61.5,171.3l8.2-13.6l-8.2,4.8L61.5,171.3L61.5,171.3z"/>
				</g>
			</g>
			<g>
				<path class="st3" d="M70.3,167.6l0.6,220.7l2.1,1.2l3.3-1.9l8.3-14.9v7.7l2.1,1.2l2.8-1.6L89,178.2L317.2,46.4l0.6,199.3
					l2.1,1.2l2.8-1.6v-12.6l8.3,5.4l2.1,1.2l3.3-1.9l-0.6-220.7l-2.1-1.2L70.3,167.6z M75.2,170.4l3.9-2.3l-3.9,6.5V170.4z
					 M322.1,43.6l6.3-3.6l-6.3,11.4V43.6z M323.1,194.6l8.2-14.9l0.1,20.3L323.1,194.6z M323,161l8.2-14.9l0.1,20.3L323,161z
					 M322.9,127.4l8.2-14.9l0.1,20.3L322.9,127.4z M322.8,93.7l8.2-14.9l0.1,20.3L322.8,93.7z M322.7,60.1l8.2-14.9l0.1,20.3
					L322.7,60.1z M324.9,26.3l6-3.5v6.4L324.9,26.3z M331.5,233.6l-8.3-5.4l8.2-14.9L331.5,233.6z M322.6,219.4l-0.1-20.3l8.3,5.4
					L322.6,219.4z M322.5,185.8l-0.1-20.3l8.3,5.4L322.5,185.8z M322.5,152.2l-0.1-20.3l8.3,5.4L322.5,152.2z M322.4,118.6
					l-0.1-20.3l8.3,5.4L322.4,118.6z M322.3,84.9l-0.1-20.3l8.3,5.4L322.3,84.9z M330,33.4l-17.6,10.2l8.8-14.6L330,33.4z
					 M304.5,47.5l-8.8-4.4L313.2,33L304.5,47.5z M300.7,50.3l-17.6,10.2l8.8-14.6L300.7,50.3z M275.2,64.4l-8.8-4.4L284,49.8
					L275.2,64.4z M271.5,67.2l-17.6,10.2l8.8-14.6L271.5,67.2z M245.9,81.3l-8.8-4.4l17.6-10.2L245.9,81.3z M242.2,84.1l-17.6,10.2
					l8.8-14.6L242.2,84.1z M216.7,98.2l-8.8-4.4l17.6-10.2L216.7,98.2z M212.9,101l-17.6,10.2l8.8-14.6L212.9,101z M187.4,115.1
					l-8.8-4.4l17.6-10.2L187.4,115.1z M183.7,117.9L166.1,128l8.8-14.6L183.7,117.9z M158.2,132l-8.8-4.4l17.6-10.2L158.2,132z
					 M154.4,134.8L136.8,145l8.8-14.6L154.4,134.8z M128.9,148.9l-8.8-4.4l17.6-10.2L128.9,148.9z M125.2,151.7l-17.6,10.2l8.8-14.6
					L125.2,151.7z M99.6,165.8l-8.8-4.4l17.6-10.2L99.6,165.8z M95.9,168.6l-17.6,10.2l8.8-14.6L95.9,168.6z M76.3,353.9l8.2-14.9
					v7.7v12.6L76.3,353.9z M76.2,320.3l8.2-14.9v7.7v12.6L76.2,320.3z M76.1,286.7l8.2-14.9v7.7v12.6L76.1,286.7z M76,253.1
					l8.2-14.9v7.7v12.6L76,253.1z M75.9,219.4l8.2-14.9v7.7v12.6L75.9,219.4z M75.8,185.8l8.3-4.8v10.1L75.8,185.8z M84.1,363.9
					l-8.2,14.9l-0.1-20.3L84.1,363.9z M75.7,345.2l-0.1-20.3l8.3,5.4L75.7,345.2z M75.6,311.5l-0.1-20.3l8.3,5.4L75.6,311.5z
					 M75.5,277.9l-0.1-20.3l8.3,5.4L75.5,277.9z M75.5,244.3L75.4,224l8.3,5.4L75.5,244.3z M75.4,210.7l-0.1-20.3l8.3,5.4
					L75.4,210.7z"/>
				<g>
					<path class="st2" d="M336.4,237.4l-3.3,1.9l-10.4-6.7v12.7l-2.8,1.6l-0.6-201.7L89,178.2L89.6,380l-2.8,1.6v-12.7l-10.3,18.7
						l-3.3,1.9l-0.6-220.7L335.8,16.7L336.4,237.4z M75.6,282.9l10.3-18.7l-10.4-6.7L75.6,282.9L75.6,282.9z M333.2,108.7
						l-10.3,18.7l10.4,6.7L333.2,108.7L333.2,108.7z M98.2,169.7l-11.1-5.5l-11,18.3L98.2,169.7L98.2,169.7z M244.5,85.2l-11.1-5.5
						l-11,18.3L244.5,85.2L244.5,85.2z M75.5,249.3l10.3-18.7l-10.4-6.7L75.5,249.3L75.5,249.3z M171.3,114.9l-22.1,12.8l11.1,5.5
						L171.3,114.9L171.3,114.9z M322.7,224.4l10.3-18.7l-10.4-6.7L322.7,224.4L322.7,224.4z M333.1,75l-10.3,18.7l10.4,6.7L333.1,75
						L333.1,75z M322.6,190.8l10.3-18.7l-10.4-6.7L322.6,190.8L322.6,190.8z M303,51.4l-11.1-5.5l-11,18.3L303,51.4L303,51.4z
						 M273.7,68.3l-11.1-5.5l-11,18.3L273.7,68.3L273.7,68.3z M317.6,30.5l-22.1,12.8l11.1,5.5L317.6,30.5L317.6,30.5z M200.5,98.1
						l-22.1,12.8l11.1,5.5L200.5,98.1L200.5,98.1z M127.4,152.8l-11.1-5.5l-11,18.3L127.4,152.8L127.4,152.8z M86.6,348v-12.7
						L76.3,354l10.4,6.7L86.6,348L86.6,348z M76.2,320.3l10.4,6.7v-12.7v-12.7L76.2,320.3L76.2,320.3z M156.7,135.9l-11.1-5.5
						l-11,18.3L156.7,135.9L156.7,135.9z M288.3,47.4l-22.1,12.8l11.1,5.5L288.3,47.4L288.3,47.4z M333,41.4l-10.3,18.7l10.4,6.7
						L333,41.4L333,41.4z M75.4,215.6L85.7,197l-10.4-6.7L75.4,215.6L75.4,215.6z M333.3,142.3L323,161l10.4,6.7L333.3,142.3
						L333.3,142.3z M322.5,157.2l10.3-18.7l-10.4-6.7L322.5,157.2L322.5,157.2z M322.4,123.6l10.3-18.7l-10.4-6.7L322.4,123.6
						L322.4,123.6z M75.8,383.8l10.3-18.7l-10.4-6.7L75.8,383.8L75.8,383.8z M333.4,175.9l-10.3,18.7l10.4,6.7L333.4,175.9
						L333.4,175.9z M75.7,316.5L86,297.8l-10.4-6.7L75.7,316.5L75.7,316.5z M333.6,235l-0.1-25.4l-10.3,18.7L333.6,235L333.6,235z
						 M75.8,350.1l10.3-18.7l-10.4-6.7L75.8,350.1L75.8,350.1z M259.1,64.3L236.9,77l11.1,5.5L259.1,64.3L259.1,64.3z M332.2,34.5
						l-11-5.5l-11,18.3L332.2,34.5L332.2,34.5z M229.8,81.2L207.7,94l11.1,5.5L229.8,81.2L229.8,81.2z M215.2,102.1l-11.1-5.5
						l-11,18.3L215.2,102.1L215.2,102.1z M142,131.8l-22.1,12.8l11.1,5.5L142,131.8L142,131.8z M185.9,119l-11.1-5.5l-11,18.3
						L185.9,119L185.9,119z M112.7,148.7l-22.1,12.8l11.1,5.5L112.7,148.7L112.7,148.7z M322.3,89.9l10.3-18.7l-10.4-6.7L322.3,89.9
						L322.3,89.9z M76,253.1l10.4,6.7v-12.7v-12.7L76,253.1L76,253.1z M76.1,286.7l10.4,6.7v-12.7V268L76.1,286.7L76.1,286.7z
						 M75.9,219.4l10.4,6.7v-12.7v-12.7L75.9,219.4L75.9,219.4z M75.8,185.8l10.4,6.7v-12.7L75.8,185.8L75.8,185.8z M322.2,56.3
						l10.3-18.7l-10.3,6V56.3L322.2,56.3z M333,21.6l-8.2,4.8l8.3,4.1L333,21.6L333,21.6z M75.3,179.3l8.2-13.6l-8.2,4.8V179.3
						L75.3,179.3z"/>
				</g>
			</g>
			<polygon class="st3" points="317.6,8.9 333.5,18 335.8,16.7 319.9,7.5 			"/>
			<polygon class="st3" points="288.6,25.6 304.5,34.8 306.8,33.5 290.9,24.3 			"/>
			<polygon class="st3" points="259.6,42.4 275.5,51.5 277.8,50.2 261.9,41 			"/>
			<polygon class="st3" points="230.6,59.1 246.5,68.3 248.8,67 232.9,57.8 			"/>
			<polygon class="st3" points="201.6,75.8 217.5,85 219.8,83.7 203.9,74.5 			"/>
			<polygon class="st3" points="172.6,92.6 188.5,101.8 190.7,100.4 174.9,91.3 			"/>
			<polygon class="st3" points="143.6,109.3 159.4,118.5 161.7,117.2 145.9,108 			"/>
			<polygon class="st3" points="114.6,126.1 130.4,135.2 132.7,133.9 116.8,124.7 			"/>
			<polygon class="st3" points="85.5,142.8 101.4,152 103.7,150.7 87.8,141.5 			"/>
			<polygon class="st3" points="56.5,159.6 72.4,168.7 74.7,167.4 58.8,158.2 			"/>
			<polygon class="st3" points="56.5,159.6 72.4,168.7 72.4,171.4 56.5,162.2 			"/>
			<polygon class="st3" points="56.6,190.7 72.5,199.9 72.5,202.5 56.6,193.4 			"/>
			<polygon class="st3" points="56.7,221.9 72.6,231.1 72.6,233.7 56.7,224.5 			"/>
			<polygon class="st3" points="56.8,253 72.7,262.2 72.7,264.9 56.8,255.7 			"/>
			<polygon class="st3" points="56.9,284.2 72.7,293.4 72.7,296 56.9,286.8 			"/>
			<polygon class="st3" points="57,315.4 72.8,324.5 72.8,327.2 57,318 			"/>
			<polygon class="st3" points="57,346.5 72.9,355.7 72.9,358.3 57,349.2 			"/>
			<polygon class="st3" points="308.3,51.6 319.3,58 319.3,60.6 306,52.9 			"/>
			<polygon class="st3" points="303.5,80 319.4,89.1 319.4,91.8 303.5,82.6 			"/>
			<polygon class="st3" points="303.6,111.1 319.5,120.3 319.5,122.9 303.6,113.8 			"/>
			<polygon class="st3" points="303.7,142.3 319.6,151.5 319.6,154.1 303.7,144.9 			"/>
			<polygon class="st3" points="303.8,173.4 319.7,182.6 319.7,185.3 303.8,176.1 			"/>
			<polygon class="st3" points="303.9,204.6 319.8,213.8 319.8,216.4 303.9,207.2 			"/>
		</g>
		<g>
			<path class="st5" d="M314.1,81.3l-2-4.5c-0.2-0.6-0.1-1.2,0.3-1.6l12-11.9c0.4-0.4,0.9-0.4,1.4-0.2l7.2,4.1
				c0.3,0.2,0.5,0.4,0.6,0.7l2.5,6.3c0.2,0.4,0.1,0.8-0.2,1.1l-12.1,12.1c-0.4,0.4-1,0.5-1.5,0.2l-3.3-2L314.1,81.3z"/>
			<g>
				<path class="st6" d="M318.3,81c-2-2-4.1-3.1-4.8-2.4l-1.2,1.1l0.6,0.6c0.3,1,1.2,2.3,2.4,3.6c1.2,1.2,2.5,2.1,3.5,2.5l0.6,0.6
					l1.2-1.1C321.3,85.2,320.3,83,318.3,81z"/>
				<path class="st6" d="M317.1,82.1c2,2,3,4.2,2.3,4.9s-2.9-0.4-4.8-2.4c-2-2-3-4.2-2.3-4.9C313,79,315.1,80.1,317.1,82.1z"/>
			</g>
			<g>
				<path class="st7" d="M317.4,81.9c-2.3-2.3-4.8-3.6-5.6-2.8l-1.4,1.3l0.7,0.7c0.3,1.1,1.3,2.7,2.8,4.2c1.4,1.5,2.9,2.5,4.1,2.9
					l0.7,0.7l1.4-1.3C320.9,86.8,319.7,84.3,317.4,81.9z"/>
				<path class="st6" d="M316,83.2c2.3,2.3,3.5,4.9,2.7,5.7s-3.3-0.4-5.6-2.8c-2.3-2.3-3.5-4.9-2.7-5.7
					C311.2,79.7,313.7,80.9,316,83.2z"/>
			</g>
			<path class="st5" d="M304.7,81.3c0,0,6.5-4.1,12.1,2.3c5.2,6,1,11.6,1,11.6L304.7,81.3z"/>
			<g>
				<path class="st7" d="M313.1,86.2c4,4.1,6.1,8.6,4.7,10s-5.9-0.8-9.9-4.9c-4-4.1-6.1-8.6-4.7-10
					C304.6,79.9,309.1,82.1,313.1,86.2z"/>
				<polygon class="st7" points="303.2,81.3 301.7,82.7 316.3,97.6 317.8,96.2 				"/>
				<path class="st6" d="M311.6,87.6c4,4.1,6.1,8.6,4.7,10s-5.9-0.8-9.9-4.9c-4-4.1-6.1-8.6-4.7-10
					C303.2,81.3,307.6,83.5,311.6,87.6z"/>
			</g>
			<path class="st8" d="M321.9,81.5l1.5,4c0.2,0.4,0.7,0.5,1,0.2l10.5-10.6c0.2-0.2,0.3-0.6,0.2-0.9l-1.7-4.4
				c-0.1-0.3-0.5-0.4-0.7-0.2l-10.6,10.6C321.8,80.7,321.7,81.1,321.9,81.5z"/>
			<path class="st9" d="M310.8,88.4c3.3,3.3,5.1,6.8,4.2,7.7c-1,0.9-4.4-1-7.6-4.3c-3.3-3.3-5.1-6.8-4.2-7.7
				C304.1,83.2,307.5,85.1,310.8,88.4z"/>
		</g>
		<g>
			<path class="st6" d="M247.9,86.2c-1.9-0.7-2.8-2.9-2-4.7c0.7-1.9,2.9-2.8,4.7-2c1.9,0.7,2.8,2.9,2,4.7
				C251.8,86,249.7,86.9,247.9,86.2z"/>
			<g>
				<path class="st7" d="M248,105.5c4.9,1.8,10.2,0.3,11.8-3.3c0.2-0.4,0.3-0.8,0.4-1.2l0.2-1.1h-0.1c0-3-2.5-6-6.3-7.4
					c-4.9-1.8-10.2-0.3-11.8,3.3v0.1h-0.1l-0.2,1.1C241.1,100.3,243.6,103.9,248,105.5z"/>
				<path class="st6" d="M248.2,104.4c-4.9-1.8-7.5-6.1-5.8-9.7c1.7-3.6,7-5,11.8-3.3c4.9,1.8,7.5,6.1,5.8,9.7
					C258.4,104.8,253.1,106.2,248.2,104.4z"/>
			</g>
			<path class="st5" d="M248.5,103.7c-4.3-1.6-6.5-5.8-4.9-9.2s6.4-4.9,10.7-3.2c4.3,1.6,6.5,5.8,4.9,9.2
				C257.6,103.9,252.8,105.4,248.5,103.7z"/>
			<g>
				<path class="st7" d="M250.4,97.7c2.8,1,5.8,0.2,6.7-1.9c0.1-0.2,0.2-0.9,0.3-1.1l0.1-0.6c-0.1-1.7-1.5-3.4-3.7-4.3
					c-2.8-1-5.8-0.2-6.7,1.9c-0.1,0-0.2,0.7-0.2,0.7v0.2C246.5,94.6,247.9,96.8,250.4,97.7z"/>
				<path class="st6" d="M250.6,96.7c-2.8-1-4.3-3.5-3.3-5.5c0.9-2,4-2.9,6.7-1.9c2.8,1,4.3,3.5,3.3,5.5
					C256.4,96.9,253.4,97.7,250.6,96.7z"/>
			</g>
			<path class="st5" d="M252.6,97l-6.8-5.1c-0.3-0.2-0.4-0.6-0.4-1l2.5-10.6c0-0.2,0.1-0.4,0.3-0.5l5.9-4.7c0.4-0.3,1-0.3,1.4,0
				l6.6,5c0.4,0.3,0.6,0.9,0.5,1.4l-2.5,10.4c0,0.2-0.1,0.3-0.3,0.4L254,97C253.6,97.3,253,97.3,252.6,97z"/>
			<path class="st8" d="M254.6,86.2l-5.8-4.5c-0.2-0.1-0.4,0-0.5,0.2L246,91c-0.1,0.2,0,0.5,0.2,0.6L252,96c0.2,0.2,0.5,0,0.6-0.2
				l2.2-9C254.9,86.6,254.8,86.3,254.6,86.2z"/>
			<path class="st8" d="M254.7,75.9l-4.8,3.8c-0.2,0.2-0.2,0.5,0,0.7l5.5,4.3c0.2,0.2,0.6,0.2,0.8,0l5-3.9c0.2-0.1,0.2-0.4,0-0.5
				l-5.8-4.4C255.2,75.7,254.9,75.7,254.7,75.9z"/>
		</g>
		<g>
			<path class="st6" d="M136,150.5c-2,0.4-3.9-0.8-4.3-2.8c-0.4-2,0.8-3.9,2.8-4.3c2-0.4,3.9,0.8,4.3,2.8
				C139.2,148.1,138,150.1,136,150.5z"/>
			<g>
				<path class="st7" d="M147,166.5c5-1.2,8.6-5.4,8-9.3c-0.1-0.4-0.2-0.8-0.3-1.2l-0.4-1h-0.1c-1.7-2.5-5.4-3.6-9.4-2.6
					c-5,1.2-8.6,5.4-8,9.3v0.1h-0.1l0.4,1C138.3,166,142.5,167.6,147,166.5z"/>
				<path class="st6" d="M146.5,165.4c-5,1.2-9.6-0.9-10.3-4.8c-0.6-3.9,2.9-8.1,8-9.3c5-1.2,9.6,0.9,10.3,4.8
					S151.6,164.2,146.5,165.4z"/>
			</g>
			<path class="st5" d="M146.4,164.7c-4.5,1-8.6-1.1-9.2-4.9s2.5-7.6,7-8.7s8.6,1.1,9.2,4.9C154,159.8,150.9,163.6,146.4,164.7z"/>
			<g>
				<path class="st7" d="M144.6,158.7c2.9-0.7,4.9-3.1,4.6-5.3c0-0.2-0.3-0.8-0.4-1l-0.2-0.6c-1-1.4-3.1-2-5.4-1.5
					c-2.9,0.7-4.9,3.1-4.6,5.3c-0.1,0.1,0.2,0.7,0.2,0.7l0.1,0.2C139.6,158.2,142,159.3,144.6,158.7z"/>
				<path class="st6" d="M144.2,157.7c-2.9,0.7-5.5-0.5-5.9-2.7s1.7-4.6,4.6-5.3c2.9-0.7,5.5,0.5,5.9,2.7
					C149.1,154.6,147.1,157,144.2,157.7z"/>
			</g>
			<path class="st5" d="M146,156.8l-8.5-0.4c-0.4,0-0.7-0.3-0.8-0.6l-3.9-10.1c-0.1-0.2-0.1-0.4,0-0.6l2.2-7.1
				c0.2-0.5,0.6-0.8,1.2-0.8l8.3,0.5c0.5,0,1,0.4,1.2,0.9l3.7,10.1c0.1,0.2,0.1,0.4,0,0.5l-2.3,6.9C147,156.5,146.5,156.8,146,156.8
				z"/>
			<path class="st8" d="M141.6,146.7l-7.4-0.5c-0.2,0-0.4,0.2-0.3,0.4l3.3,8.9c0.1,0.2,0.3,0.4,0.5,0.4l7.2,0.4
				c0.3,0,0.4-0.2,0.3-0.5l-3.2-8.7C142.1,146.9,141.9,146.8,141.6,146.7z"/>
			<path class="st8" d="M135.9,138.2l-1.9,5.9c-0.1,0.3,0.1,0.5,0.4,0.6l7,0.5c0.3,0,0.6-0.2,0.7-0.5l2-6c0.1-0.2-0.1-0.4-0.3-0.4
				l-7.3-0.5C136.2,137.8,136,137.9,135.9,138.2z"/>
		</g>
		<g>
			<g>
				<path class="st10" d="M340,168.7c2,3.9,1.8,11.6,1.5,19.7c0.1,4.9-1.8,9.4-4.6,15.7l-1.9,9.2c-1.1-2.9-1.7-5.9-1.5-8.9
					c0.9-6.4,1.5-10.8,2.2-16.6l-1.6-11.3C332.2,171.6,336.1,164.9,340,168.7z"/>
				<path d="M344.1,158.7c-4.3,0.6-5.1,5.8-6.7,8.8C331.1,162.7,335.6,153.3,344.1,158.7z"/>
				<path class="st11" d="M349.3,257c-0.9,2.1-2.2,3.9-3.8,5.2c-2.1,1.7-4,2.7-5.7,2.5c-1.6-0.6-1.5-1.9-0.9-3.8
					c0.9-1.9,2.9-3.6,5.2-5.2c0,0,2.5-2.1,2.5-2.2L349.3,257z"/>
				<path class="st12" d="M337.7,235.5c1.7,5,4.9,11.6,8.4,18.5c0,0-4.4,3.8-2.6,5.2c2.7,2,6.1-4.4,6.1-4.4l-5.1-17.7L337.7,235.5z"
					/>
				<path class="st11" d="M352.7,260.3l0.1,0.3c0.8,0,1.7,2.6,1.4,4.5c-1.1,2.9,0,5.2-0.4,8.5c-0.3,2-1,3.5-2.6,4.5
					c-2.7,1.6-4.6,1.9-5-0.4c-0.3-1.6,0-3,0.7-5.4l1.3-6.3L352.7,260.3z"/>
				<path class="st10" d="M348.9,272.8c3.6,0.5,4.2-4,4.3-8c0-1.2,0-2.3-0.1-3.3c-3.2-8.1,2.5-15.4-1.4-22.5l0.5-2.9l1.3-7.7
					l-9.4-1.1l-1.7,8.6l-0.6,5.1c1,6.8,5.6,14.5,6.5,21.8C348.6,266.1,346.7,272.6,348.9,272.8z"/>
				<path class="st10" d="M347.9,240.3c4.3,3.4,0.5,17.9,5.3,24.5c0-1.2,0-2.3-0.1-3.3c-3.2-8.1,2.5-15.4-1.4-22.5l0.5-2.9
					C350.3,238,347.9,240.3,347.9,240.3z"/>
				<path class="st11" d="M334.9,214.2c-0.3,10,2.6,11.4,2.4,18.4c0,0.5,0,1.1,0.2,1.7c0.5,2.3,2.2,4.9,4.3,5.8
					c0.2,0.1,0.4,0.2,0.6,0.2c2.1,0.2,4.1,0.3,5.8-0.1c1.9-0.4,3.5-1.5,4.3-3.5c0-7.4,5.6-12.7,6.2-22.5c0.3-4.2-0.7-8.2-3.4-11.1
					L352,203l-16.3-0.3L334.9,214.2z"/>
				<path class="st13" d="M353.7,224.3c-3.4,5.2-3.6,12.4-5.8,16c0.1,0,0.1,0,0.2,0c1.9-0.4,3.5-1.5,4.3-3.5
					c0-7.4,5.6-12.7,6.2-22.5c0.3-4.2-0.7-8.2-3.4-11.1l-3.3-0.1l-9.1,4.9c5,1.2,9.4,3.1,11.1,8.1l-0.7,3.2L353.7,224.3z"/>
				<path d="M346.1,162.5c6-0.5,8.5,3.6,9,7.4c0.7,5-0.4,7-2.1,9.7c-1.2,1.9-4.7,4.9-4.7,4.9c-2.1-9.7,2.7-15.5,0.9-18.4
					c-0.9-1.5-3-2.3-3-2.3L346.1,162.5z"/>
				<path class="st11" d="M336.6,192c0.5,3.8,0.3,7.5-1.1,11c0.4,2.4,1.7,4.2,4.9,4.8c6.9,1.3,12.7-0.2,15.4-3.8
					c-2.5-2.6-2.5-6.5-0.9-10.1c1.2-2,2-4.2,2.5-6.5c0.6-2.9,0.7-6,0.5-9.2c-3.3-3.4-6.8-6.2-10.6-7l-8.7-3.3c-2.6,0.4-4.6,5-4,8.5
					c-0.3,5.4-3,7.6-3.1,11C331.7,190,333.5,191.7,336.6,192z"/>
				<path class="st13" d="M335.6,203c0.4,2.4,1.7,4.2,4.9,4.8c6.9,1.3,12.7-0.2,15.4-3.8c-2.5-2.6-2.5-6.5-0.9-10.1
					c1.2-2,2-4.2,2.5-6.5l-4-0.1c-2.5,5.3-3.5,10.5-8.7,9.6c-3.6-0.7-4.7-3.7-3.9-7.3c-1,1.3-3,2.6-4.3,2.5
					C337.2,195.8,336.9,199.5,335.6,203z"/>
				<path class="st10" d="M351.4,172.7c-1.1-2-1.6-3.8-1.8-6.1l-6.9,0.6l0.1,4.9C340.2,179.1,350.7,177.3,351.4,172.7z"/>
				<path class="st10" d="M349.7,167.8c3.8-6.5,1.9-12.1-3.4-13.3c-5.7-1.3-9.6,2.8-9.6,7.8c-0.2,5.3,1.2,9.1,3.2,9.4
					c3.3,0.5,5.7-0.9,6.7-3.2L349.7,167.8z"/>
				<path d="M350.6,168.7l0.2,2.8c-1.1-3.1-2.6-3.2-2.8-4l-0.2-1.7l-1.5,0.6c-3.1,0.2-3.6-5.3-9.4-4.6c-0.5-5.2,3.4-8,8.1-8
					c5.8,0.5,7.6,3.8,7.4,8C352.1,164.4,351.8,166.7,350.6,168.7z"/>
				<path class="st10" d="M346.2,168.2c-0.3-0.8-0.4-0.7-0.2-1.1c0.4-1,1-1.8,1.6-1.6c0.4,0.1,0.9,0.2,1.1,0.6c0.2,0.5,0,1-0.2,1.5
					c-0.1,0.3-0.3,0.7-0.5,0.9c-0.2,0.3-0.6,0.5-1,0.4C346.6,168.8,346.3,168.5,346.2,168.2z"/>
				<path class="st13" d="M337.4,234.3c0.5,2.3,2.2,4.9,4.3,5.8c-0.3-0.7-0.4-1.5-0.5-2c-0.6-4.9,1.4-9.2,0.5-12.1
					c-0.3,1.8-0.7,3.4-1.4,5C339.6,232.6,338.6,233.3,337.4,234.3z"/>
			</g>
			<g>
				<g>
					<path class="st10" d="M336,210.1c0.2,0.2,0.5,0.4,1,0.3c1.1-0.5,2.1-0.8,2.9,0c0,0.4-0.1,0.8-0.4,1.3l-0.1,0.1
						c-0.7,1-2,2.1-3.4,3.2c-0.2,0.2-0.2,0.4-0.1,0.6s0.4,0.4,0.7,0.3c-0.2,0.4,0.2,0.7,0.7,0.5l0.7-0.4c-0.1,0.5,0.5,0.6,0.8,0.3
						l1.5-0.8c0.9-0.4,1.8-0.9,2.6-1.6c0.1-0.1,0.2-0.2,0.3-0.3c1-1.2,1.9-2.6,2.4-4c0.2-1.3-0.8-1.9-2.5-1.9l-2,0.2
						c-1.8,0.1-3.1,0.9-5.3,1.5C335.8,209.5,335.9,209.8,336,210.1z"/>
					<path class="st10" d="M336,215.5c0.1,0.2,0.4,0.4,0.7,0.3c-0.2,0.4,0.2,0.7,0.7,0.5l0.7-0.4c-0.1,0.5,0.5,0.6,0.8,0.3l1.5-0.8
						c0.9-0.4,1.8-0.9,2.6-1.6c-0.9,0-1.7-0.6-2.3-1.4C339.3,213.9,337.1,215.6,336,215.5z"/>
					<path class="st10" d="M336,210.1c0.2,0.2,0.5,0.4,1,0.3c1.1-0.5,2.1-0.8,2.9,0c0,0.4-0.1,0.8-0.4,1.3l1.1-1.6
						C339,208.9,337,210.1,336,210.1z"/>
				</g>
				<g>
					<path class="st14" d="M336,210.1c0.2,0.2,0.5,0.4,1,0.3c1.1-0.5,2.1-0.8,2.9,0c0,0.4-0.1,0.8-0.4,1.3l-0.1,0.1
						c-0.7,1-2,2.1-3.4,3.2c-0.2,0.2-0.2,0.4-0.1,0.6s0.4,0.4,0.7,0.3c-0.2,0.4,0.2,0.7,0.7,0.5l0.7-0.4c-0.1,0.5,0.5,0.6,0.8,0.3
						l1.5-0.8c0.9-0.4,1.8-0.9,2.6-1.6c0.1-0.1,0.2-0.2,0.3-0.3c1-1.2,1.9-2.6,2.4-4c0.2-1.3-0.8-1.9-2.5-1.9l-2,0.2
						c-1.8,0.1-3.1,0.9-5.3,1.5C335.8,209.5,335.9,209.8,336,210.1z"/>
					<path class="st10" d="M336,215.5c0.1,0.2,0.4,0.4,0.7,0.3c-0.2,0.4,0.2,0.7,0.7,0.5l0.7-0.4c-0.1,0.5,0.5,0.6,0.8,0.3l1.5-0.8
						c0.9-0.4,1.8-0.9,2.6-1.6c-0.9,0-1.7-0.6-2.3-1.4C339.3,213.9,337.1,215.6,336,215.5z"/>
					<path class="st10" d="M336,210.1c0.2,0.2,0.5,0.4,1,0.3c1.1-0.5,2.1-0.8,2.9,0c0,0.4-0.1,0.8-0.4,1.3l1.1-1.6
						C339,208.9,337,210.1,336,210.1z"/>
				</g>
			</g>
			<path class="st10" d="M358.1,178.2c2.8,4,1.9,18,0.9,21.3c-5.2,5.6-8,7.8-13.7,11.1c0.2-1.4,0.7-2.6-1.7-2.9l9.9-11.8
				c-1-3.2-0.9-6.7-1.2-11.4C352.9,175,357.6,177.4,358.1,178.2z"/>
		</g>
		<g>
			<path class="st6" d="M84.5,220.7c0,2.4-1.9,4.3-4.2,4.4c-2.4,0-4.3-1.9-4.4-4.2c0-2.4,1.9-4.3,4.2-4.4
				C82.5,216.4,84.5,218.3,84.5,220.7z"/>
			<g>
				<path class="st7" d="M105.7,211.7c-0.3-6.2-4.3-11.3-9-11.5c-0.5,0-1,0-1.4,0.1l-1.3,0.2v0.1c-3.3,1.4-5.5,5.4-5.3,10.3
					c0.3,6.2,4.3,11.3,9,11.5h0.1v0.1l1.3-0.2C103.1,221.7,105.9,217.2,105.7,211.7z"/>
				<path class="st6" d="M104.3,212c0.3,6.2-3.3,11-8,10.8s-8.7-5.3-9-11.5s3.3-11,8-10.8C100.1,200.7,104.1,205.8,104.3,212z"/>
			</g>
			<path class="st5" d="M103.4,211.9c0.2,5.5-3.3,9.7-7.8,9.6c-4.5-0.2-8.2-4.7-8.4-10.2c-0.2-5.5,3.3-9.7,7.8-9.6
				C99.5,201.9,103.3,206.5,103.4,211.9z"/>
			<g>
				<path class="st7" d="M96,212.6c-0.2-3.5-2.4-6.4-5.1-6.5c-0.3,0-1,0.1-1.3,0.2l-0.7,0.1c-1.8,0.9-3.1,3.2-3,6
					c0.2,3.5,2.4,6.4,5.1,6.5c0.1,0.1,0.8-0.1,0.8-0.1l0.3-0.1C94.3,218.3,96.1,215.7,96,212.6z"/>
				<path class="st6" d="M94.8,212.9c0.2,3.5-1.9,6.3-4.6,6.2c-2.7-0.1-5-3-5.1-6.5c-0.2-3.5,1.9-6.3,4.6-6.2
					C92.3,206.4,94.6,209.4,94.8,212.9z"/>
			</g>
			<path class="st5" d="M94.2,210.6l-2.4,9.7c-0.1,0.4-0.5,0.8-0.9,0.8l-12.7,2.1c-0.2,0-0.5,0-0.6-0.1l-7.8-4.3
				c-0.5-0.3-0.8-0.9-0.7-1.5l2.5-9.5c0.2-0.6,0.7-1.1,1.3-1.2l12.6-2c0.2,0,0.4,0,0.6,0.1l7.5,4.3C94.1,209.4,94.3,210,94.2,210.6z
				"/>
			<path class="st8" d="M81.4,213.3l-2.3,8.4c-0.1,0.3,0.1,0.5,0.4,0.5l11.1-1.8c0.3,0,0.5-0.3,0.6-0.5l2.1-8.3
				c0.1-0.3-0.2-0.6-0.5-0.5L82,212.7C81.8,212.8,81.5,213,81.4,213.3z"/>
			<path class="st8" d="M70.2,217.9l6.4,3.6c0.3,0.2,0.6,0,0.7-0.3l2.2-8c0.1-0.3-0.1-0.7-0.4-0.9l-6.5-3.7c-0.2-0.1-0.5,0-0.5,0.2
				l-2.2,8.3C69.8,217.4,69.9,217.7,70.2,217.9z"/>
		</g>
	</g>
	<g>
		<g>
			<g>
				<g>
					<g class="st0">
						<g class="st0">
							<g>
								<defs>
									<path id="SVGID_1_" d="M245.8,164.2l7.7,4.2c-7.8-4.2-16.6-5.9-26-4.6l-7.7-4.2C229.2,158.3,238,160,245.8,164.2z"/>
								</defs>
								<clipPath id="SVGID_2_">
									<use xlink:href="#SVGID_1_"  style="overflow:visible;"/>
								</clipPath>
								<g class="st15">
									<path class="st16" d="M227.4,163.8l-7.7-4.2c5.8-0.8,11.4-0.5,16.6,0.9l7.7,4.2C238.8,163.3,233.2,163,227.4,163.8"/>
									<path class="st17" d="M244.1,164.7l-7.7-4.2c2.7,0.7,5.3,1.7,7.8,2.9l7.7,4.2C249.4,166.4,246.8,165.4,244.1,164.7"/>
									<path class="st18" d="M251.9,167.6l-7.7-4.2c0.5,0.3,1,0.5,1.5,0.8l7.7,4.2C253,168.1,252.4,167.9,251.9,167.6"/>
								</g>
							</g>
						</g>
						<g class="st0">
							<g>
								<defs>
									<path id="SVGID_3_" d="M188.3,330l-7.7-4.2c-16.6-9-28.2-29.8-29.7-57.6c-2.4-45.6,23.6-93,58-105.9
										c3.7-1.4,7.3-2.3,10.8-2.8l7.7,4.2c-3.5,0.5-7.2,1.4-10.8,2.8c-34.4,12.9-60.4,60.2-58,105.9
										C160,300.3,171.7,321,188.3,330z"/>
								</defs>
								<clipPath id="SVGID_4_">
									<use xlink:href="#SVGID_3_"  style="overflow:visible;"/>
								</clipPath>
								<g class="st19">
									<path class="st20" d="M188.3,330l-7.7-4.2c-16.6-9-28.2-29.8-29.7-57.6c-0.9-16.4,2-33.1,7.6-48.3l7.7,4.2
										c-5.6,15.2-8.4,31.9-7.6,48.3C160,300.3,171.7,321,188.3,330"/>
									<path class="st21" d="M166.2,224.1l-7.7-4.2c2-5.6,4.5-11,7.2-16l7.7,4.2C170.6,213.2,168.2,218.6,166.2,224.1"/>
									<path class="st22" d="M173.4,208.1l-7.7-4.2c2.2-4,4.5-7.9,7.1-11.5l7.7,4.2C177.9,200.2,175.5,204.1,173.4,208.1"/>
									<path class="st23" d="M180.5,196.6l-7.7-4.2c2.2-3.2,4.6-6.2,7.1-9l7.7,4.2C185.1,190.4,182.7,193.4,180.5,196.6"/>
									<path class="st24" d="M187.5,187.6l-7.7-4.2c2.3-2.6,4.7-5.1,7.3-7.3l7.7,4.2C192.3,182.5,189.9,184.9,187.5,187.6"/>
									<path class="st18" d="M194.8,180.2l-7.7-4.2c2.5-2.3,5.1-4.3,7.8-6.2l7.7,4.2C199.9,175.9,197.3,177.9,194.8,180.2"/>
									<path class="st17" d="M202.6,174l-7.7-4.2c3.1-2.1,6.2-4,9.5-5.5l7.7,4.2C208.9,170,205.7,171.9,202.6,174"/>
									<path class="st16" d="M212.1,168.5l-7.7-4.2c1.5-0.7,3-1.3,4.5-1.9c3.7-1.4,7.3-2.3,10.8-2.8l7.7,4.2
										c-3.5,0.5-7.2,1.4-10.8,2.8C215.1,167.2,213.6,167.8,212.1,168.5"/>
								</g>
							</g>
						</g>
						<g>
							<path class="st25" d="M227.4,163.8c29.6-4.2,53.6,21.4,55.7,62.1c2.4,45.6-23.6,93-58,105.9c-3.7,1.4-7.3,2.3-10.8,2.8
								c-29.6,4.2-53.6-21.4-55.7-62.1c-2.4-45.6,23.6-93,58-105.9C220.3,165.2,223.9,164.3,227.4,163.8z"/>
						</g>
					</g>
				</g>
			</g>
		</g>
	</g>
	<g>
		<path class="st26" d="M118.7,381v6.2c-0.9,1.6-1.4,3.5-1.1,5.6c1.3,1.7,3.7,2,6.4,2.2c3,2.2,6.1,4.1,8.9,4
			c3.1,0.5,7.9-2.1,6.2-4.7c-1.2-1.9-4.3-2.6-8.1-4.1c-3.9-1.5-3.3-2.9-3.3-2.9L126,381H118.7z"/>
		<path class="st27" d="M110.2,339.7c0.5,6.1,3.3,13.7,7.4,21.2c-3.2,5.8,0,16.8-0.6,26.6c0.5,4.1,8.3,4.6,10.6-0.2
			c-0.9-9.8-0.9-20,0-30.7c0.2-10.2-1.1-19.8-4.9-28.7v-8.7L105.3,333L110.2,339.7z"/>
		<path class="st26" d="M90.3,395.2l-0.3,4l-0.3,3.7c0.1,2.4,0.7,5.1,1.7,8c1.2,2.5,2.9,3.8,5.2,3.9l4.4-0.7
			c1.3-0.9,1.4-2.2,0.3-4.1l-3.2-6.4l-0.9-3.4l-0.2-5.6L90.3,395.2z"/>
		<path class="st28" d="M112.4,340.2c-0.9,11.1-3,21.2-8.3,28.4c-3.3,10.9-4.2,21.2-5,30.6c-0.5,2.7-8.8,3.8-9.5,0.1
			c-0.4-3.1-0.6-6.2-0.6-9.3c-0.1-9.9,1.6-19.6,6.5-26.8c-0.4-7.9,0.2-15.8,1.8-23.8c0.1-4.3,0.7-8.2,1.9-11.6c0.4-1,0.8-2,1.2-2.9
			c1.6,0.3,3.2,0.5,4.6,0.6h0.2c6.9,0.3,12.7-2,17.5-6.4C123.3,328.5,122.1,336.7,112.4,340.2z"/>
		<path class="st29" d="M143.6,255.2l-0.2,6.8l2.7,1.2l2-1.2C148,259.1,146.9,256,143.6,255.2z"/>
		<path class="st10" d="M142.7,257.6l1.5-4c-1-1.6-1.7-3.2-2.1-5c-0.4-1.5-0.6-2.2-1.2-3.3c-0.6-1.3,0.2-2.2,1.1-1
			c0.7,1.2,1.1,1.9,1.7,2.9c0.2,0.3,0.7,0.4,1.3,0.5c0.6-0.8,1.1-1.5,1.2-2.1l0.2-3.1v-2.4c0-1,1-1.2,1.3,0l0.3,2.5l-0.2,3.1l1-1.7
			l0.5-2.9c0.1-1,1.1-1.1,1.2,0.2l-0.3,3.4l-0.8,2.4l1.2-2l0.7-1.7c0.5-1.1,1.3-0.5,1,0.7l-0.7,2.6c0.5-0.9,1.2-0.2,0.6,1.2
			l-1.3,3.3l-0.9,2.2l-1.6,2l-2.7,7L142.7,257.6z"/>
		<path class="st9" d="M142.7,257.6l3,5.5l1.9-6c-1.7-0.1-2.9-1.4-3.5-3.1L142.7,257.6z"/>
		<path class="st11" d="M148,262c-2.1,7.5-4.8,11.5-9.9,16.1c-5.6,5.9-11.4,11.5-18.4,13.7l-1.3,0.9l-2.2,1.5l-2.6-12.7
			c1.4-1.5,3.7-2.6,6.5-3.6l12.9-6.1l10.5-16.5c0.3,2.6,0.9,6.5,3.1,6.9C147.1,262.3,147.5,262.2,148,262z"/>
		<path class="st13" d="M148,262c-2.1,7.5-4.8,11.5-9.9,16.1c-5.6,5.9-11.4,11.5-18.4,13.7l-1.3,0.9l-0.2-3.6
			c6.1-1.1,12.3-5.6,17.6-11.4c5.4-2.8,8.5-8.6,10.9-15.5C147.1,262.3,147.5,262.2,148,262z"/>
		<path class="st30" d="M66.6,292.1c-1.3-3.9,0.1-5.7,2.3-7l3.1,4.2l-1.5,3.1L66.6,292.1z"/>
		<path class="st10" d="M69.9,291.5l-3.7-3.7l-3.5-2.7l-3.6-2.8l-1.1-1.9l-0.2-0.9l-0.9-1.7c-0.7-1-0.1-1.6,0.5-1.2l-0.3-0.7
			c-0.5-1.2,0.3-1.4,1-0.5l2.1,2.8l3.1,2l0.5-0.7l-0.7-3.6c-0.3-1.2,0.7-1.7,1.2-0.5l1.3,3.6l2.4,5.3l3.5,2.5L69.9,291.5z"/>
		<path class="st9" d="M68.1,284.3c0.5,1.5-0.2,2.6-1.8,3.5l4.1,4.3l1.9-4.7L68.1,284.3z"/>
		<path class="st11" d="M91,291.1v12l7.5,26.7c9.6,2.7,20,6.2,24.5-3c0.5-6.4-0.1-20.9-1.4-28.3l-2.5-9.6l-4.3-8.2l-12,4.5L91,291.1
			z"/>
		<path class="st11" d="M95.7,302.5c-1.2,0.5-2.7,0.7-4.7,0.6c-4.5-0.8-8.7-2.1-12.2-4.2l-12.2-6.8c2.3,0.3,3.8-4.5,2.6-7l11.9,5.6
			l9.9,0.5c2.7-0.6,4.6,0.5,5.9,2.7C98.8,298.6,98.3,301.4,95.7,302.5z"/>
		<path class="st9" d="M98,287.5c5.6,3.4,10.8,8.2,15.7,14.5c0.8-6.8-0.4-14.2-2.9-20.6C106.2,282.5,102.2,285,98,287.5z"/>
		<path class="st10" d="M99.3,287.9l1.7-8.4l7.9-0.8l2.2,8.3C111.9,291.5,101.7,292.4,99.3,287.9z"/>
		<path class="st31" d="M102.9,283.9c0.6,4.9,6.9,14.2,11,12.2c3.3-4.7,2.9-9.5,0.3-14.4L102.9,283.9z"/>
		<g>
			<path class="st10" d="M102.6,283.7l0.6,0.9l1.6,2.4c0.3,0.5,0.9,0.9,1.5,1l4.5,1c1.3,0,2.2-0.4,2.9-1.2c0.2-0.2,0.3-0.5,0.4-0.9
				c0.2-3,0.8-6.5,0.1-8.1v-0.6c-0.1-1.2-0.4-2.3-0.9-3.4l-2-3.3c-1.7-2.4-4.6-3.5-8-3.1c-2.8,1-4.1,2.7-5,5.6
				c-0.2,2.5,0.2,4.9,1.5,6.5L102.6,283.7z"/>
			<path class="st26" d="M100,281.9l2.9,0.4l-0.5-2.8c-0.5-4.6,5.4-2.3,7.7-4c1.9-1.4,1-4.4,3.3-0.2c-0.3-2-1.4-4-3.1-5.7
				c-2-1.9-4.8-2.1-7.6-1.4c-3.9,0.9-5,3.9-5.1,7.1C97.5,278.2,98.5,280,100,281.9z"/>
			<path class="st10" d="M101,279.9c-0.3-0.2-0.6-0.4-0.9-0.3c-0.6,0-1,0.6-1,1.2s0.2,1.1,0.5,1.6s0.5,0.9,0.9,1.3s0.9,0.6,1.4,0.7
				c0.2,0,0.4,0,0.5-0.2c0.1-0.1,0.1-0.2,0.1-0.3c0.2-0.8-0.2-1.6-0.5-2.3C101.8,280.9,101.6,280.3,101,279.9z"/>
		</g>
		<path class="st13" d="M66.6,292.1l12.2,6.8c3.5,2.1,7.6,3.4,12.2,4.2l7.5,26.7c1.8,0.5,3.4,1,3.4,1c-4.4-7.5-6.9-22.4-6.2-28.3
			c0.1-0.5,0.2-0.9,0.3-1.4c-1.7,0.2-3.3,0.2-4.9,0c-3.2-0.5-6.3-1.8-9.3-3.2L66.6,292.1z"/>
	</g>
	<g>
		<path class="st9" d="M195.2,220.8l3.5-1.9l4.6,15.5h0.1l4.6-20.6l3.5-1.9V246l-3.6,2v-20.8h-0.1l-3.6,16.7l-1.8,1l-3.5-12.7h-0.1
			V253l-3.6,2L195.2,220.8L195.2,220.8z"/>
		<path class="st9" d="M218.8,207.7l3-1.7l5.6,31.1l-3.6,2l-1.1-6.8l-4.9,2.7l-1.1,7.9l-3.6,2L218.8,207.7z M220.3,216.7
			L220.3,216.7l-1.8,13.4l3.6-2L220.3,216.7z"/>
		<path class="st9" d="M229.2,201.9l3.6-2V234l-3.6,2V201.9z"/>
		<path class="st9" d="M236.2,198l3.5-1.9l5.4,17.6h0.1V193l3.6-2v34.2l-3.4,1.9l-5.5-17.5h-0.1v20.5l-3.6,2V198z"/>
		<path class="st9" d="M202,267.2l-3.6,2v-1.1c0-1.1-0.2-2-0.6-2.6c-0.4-0.6-1-0.6-2-0.1c-0.5,0.3-0.9,0.6-1.2,1.1
			c-0.3,0.4-0.6,0.9-0.7,1.4c-0.2,0.5-0.3,1-0.4,1.6c-0.1,0.6-0.1,1.1-0.1,1.7c0,0.7,0,1.2,0.1,1.7c0,0.4,0.1,0.8,0.3,1.1
			c0.1,0.3,0.3,0.4,0.6,0.5s0.6,0.2,1.1,0.2h2.8c0.8,0,1.4,0.1,1.9,0.4s0.9,0.7,1.1,1.3c0.3,0.6,0.5,1.4,0.5,2.3
			c0.1,0.9,0.1,2,0.1,3.3c0,1.4-0.1,2.8-0.3,4.2c-0.2,1.3-0.6,2.6-1,3.7c-0.5,1.1-1.1,2.2-1.9,3.2s-1.8,1.8-2.9,2.4
			c-0.9,0.5-1.7,0.7-2.4,0.7c-0.8,0-1.4-0.2-1.9-0.6s-1-1-1.3-1.9c-0.3-0.8-0.5-1.8-0.5-3v-1.8l3.6-2v1.5c0,0.9,0.2,1.6,0.6,2.1
			s1,0.5,2,0c0.6-0.3,1.1-0.7,1.4-1.2c0.3-0.4,0.6-0.9,0.8-1.4s0.3-1.1,0.3-1.8c0-0.7,0.1-1.4,0.1-2.2c0-0.9,0-1.6-0.1-2.2
			c0-0.5-0.1-1-0.3-1.2c-0.2-0.3-0.4-0.4-0.6-0.5c-0.3-0.1-0.6-0.1-1.1-0.1h-2.6c-1.6,0-2.6-0.6-3.1-1.7s-0.8-2.8-0.8-4.9
			c0-1.3,0.1-2.6,0.4-3.9c0.3-1.3,0.6-2.5,1.1-3.6s1.1-2.1,1.9-3.1c0.8-0.9,1.7-1.7,2.7-2.3c0.9-0.5,1.7-0.7,2.5-0.7
			c0.7,0,1.4,0.3,1.9,0.7c0.5,0.4,0.9,1,1.2,1.8s0.4,1.6,0.4,2.6V267.2z"/>
		<path class="st9" d="M207,259.1l-4.2,2.3v-4.6l11.9-6.6v4.6l-4.2,2.3v29.6l-3.6,2v-29.6H207z"/>
		<path class="st9" d="M218.4,248.2l3-1.7l5.6,31.1l-3.6,2l-1.1-6.8l-4.9,2.7l-1.1,7.9l-3.6,2L218.4,248.2z M219.9,257.2
			L219.9,257.2l-1.8,13.4l3.6-2L219.9,257.2z"/>
		<path class="st9" d="M228.6,250.6c0-1.4,0.2-2.7,0.5-3.9c0.4-1.3,0.8-2.4,1.4-3.4c0.6-1,1.2-1.9,1.9-2.6c0.7-0.8,1.4-1.3,2.2-1.7
			c0.7-0.4,1.5-0.6,2.2-0.7c0.7,0,1.4,0.1,1.9,0.5c0.6,0.4,1,1,1.4,1.8c0.4,0.9,0.5,2,0.5,3.4v1.7l-3.6,2V246c0-1.2-0.2-1.9-0.7-2.2
			c-0.5-0.3-1.1-0.3-1.7,0.1c-0.7,0.4-1.2,1-1.7,1.8s-0.7,1.8-0.7,3v18c0,1.2,0.2,1.9,0.7,2.2c0.5,0.3,1.1,0.3,1.7-0.1
			c0.7-0.4,1.2-1,1.7-1.8s0.7-1.8,0.7-3v-6.4l-2.9,1.6v-4.3l6.5-3.6v10.8c0,1.4-0.2,2.7-0.5,4c-0.4,1.2-0.8,2.4-1.4,3.4
			c-0.6,1-1.2,1.9-1.9,2.6c-0.7,0.8-1.4,1.3-2.2,1.7c-0.7,0.4-1.5,0.6-2.2,0.7c-0.7,0-1.4-0.1-1.9-0.5c-0.6-0.4-1-1-1.4-1.8
			s-0.5-2-0.5-3.4V250.6z"/>
		<path class="st9" d="M243.8,234.1l10.7-6v4.6l-7.1,4v10l6.2-3.5v4.6l-6.2,3.5v10l7.1-4v4.9l-10.7,6V234.1z"/>
	</g>
</g>
</svg>
