<?xml version="1.0" encoding="utf-8"?>
<!-- Generator: Adobe Illustrator 25.1.0, SVG Export Plug-In . SVG Version: 6.00 Build 0)  -->
<svg version="1.1" id="photobooth" xmlns="http://www.w3.org/2000/svg" xmlns:xlink="http://www.w3.org/1999/xlink" x="0px" y="0px"
	 viewBox="0 0 316 311.7" style="enable-background:new 0 0 316 311.7;" xml:space="preserve">
<style type="text/css">
	.st0{fill:#0A3847;}
	.st1{fill:#D4DBDF;}
	.st2{fill:#B8D4F5;}
	.st3{fill:#679AE2;}
	.st4{fill:#CCE3F5;}
	.st5{fill:#EFF8FF;}
	.st6{fill:#C5CCCF;}
	.st7{fill:#BF8766;}
	.st8{fill:#F36D00;}
	.st9{fill:#1D1D1B;}
	.st10{fill:#F89AB5;}
	.st11{fill:#CD916E;}
	.st12{fill:#C95E0D;}
	.st13{fill:#E6E6E6;}
	.st14{fill:#666666;}
	.st15{fill:#4D4D4D;}
	.st16{fill:#CCCCCC;}
	.st17{fill:#999999;}
	.st18{fill:#FFD32F;}
	.st19{fill:#E9A71A;}
	.st20{fill:#808080;}
	.st21{fill:#1A1A1A;}
	.st22{fill:#333333;}
	.st23{fill:#C38B68;}
	.st24{fill:#FAFAFA;}
	.st25{fill:#2F2F7F;}
	.st26{fill:#5954FF;}
	.st27{fill:#FFFFFF;}
	.st28{fill:#D69772;}
	.st29{fill:#D0936F;}
</style>
<g id="photobooth_icon">
	<path class="st0" d="M306.7,176.4c-10.6,0.4-18.3-1.3-22.9-5.1s-6.2-9.7-4.8-17.7c5.5-29.5,2.1-42.1-1.7-47.4
		c-2.2-3.1-4.5-3.5-4.6-3.5c-0.3,0-0.5,0.1-0.5,0.4c0,0.3,0.1,0.5,0.4,0.5c0,0,2,0.4,4,3.2c2.2,3.1,3.5,7.8,4.1,14
		c0.7,8.4-0.2,19.4-2.6,32.6c-1.5,8.3,0.2,14.6,5.1,18.6c4.4,3.6,11.3,5.4,20.7,5.4c0.9,0,1.9,0,2.8-0.1c2.6-0.1,5.3-0.3,8.2-0.6
		v-0.9C312,176.1,309.3,176.3,306.7,176.4z"/>
	<polygon class="st1" points="37.7,95 38,221.4 188.8,133.8 188.4,7.4 	"/>
	<polygon class="st2" points="185.8,0.1 185.8,6.6 191.4,9.8 191.4,3.3 	"/>
	<polygon class="st3" points="35,87.7 35,94.2 40.7,97.4 40.6,90.9 	"/>
	<polygon class="st4" points="35,87.7 40.6,90.9 191.4,3.3 185.8,0 	"/>
	<polygon class="st5" points="40.6,90.9 40.7,97.4 191.4,9.7 191.4,3.3 	"/>
	<polygon class="st6" points="38,221.4 147.9,284.4 298.2,197.1 188.3,134 	"/>
	<path class="st7" d="M178.7,147.8l0.5-8.4c0.1-1.3-0.9-2.4-2.2-2.4c-1.3-0.1-2.4,0.9-2.4,2.2c0,0.1,0,0.2,0,0.3l0.7,8.8v0.3
		c0,0.3,0.2,0.6,0.4,0.8l4.8,4.6c0.4,0.4,1.1,0.4,1.5,0s0.4-1,0.1-1.4L178.7,147.8z"/>
	<path class="st8" d="M177,133.1c-1.5-0.1-2.8,1-2.8,2.3l-0.1,7.1c0.9,1.3,4.1,1.3,5.5,0l0.3-6.6C179.9,134.5,178.6,133.2,177,133.1
		z"/>
	<circle class="st9" cx="170.7" cy="130.5" r="6.8"/>
	<ellipse class="st9" cx="170.2" cy="126.2" rx="6.5" ry="6.5"/>
	<ellipse class="st9" cx="166.5" cy="135.1" rx="7.5" ry="7.5"/>
	<circle class="st9" cx="166.3" cy="142.6" r="6.8"/>
	<ellipse class="st10" cx="168.8" cy="161.6" rx="4.5" ry="5.1"/>
	<path class="st9" d="M161.9,187.8c-0.2,0.2-0.4,0.5-0.3,0.9c0.1,1,0.4,3.2,1.2,4.1s1.4,0.5,1.7,0.3s0.3-0.9,0.3-0.9l-1.6-5.4
		L161.9,187.8z"/>
	<path class="st9" d="M163.1,186.8c0,0-0.7,5.3,1.1,6.1c1.5,0.7,0.9-5.2,0.9-5.2L163.1,186.8z"/>
	<path class="st7" d="M175.3,152.4c-2.6-0.1-4.8,1.9-4.9,4.5c0,0.2,0,0.3,0,0.5c0.1,1.9,0.2,3.8,0.4,5.8c0.1,1.9,0.3,3.8,0.5,5.8
		l1,10.3l-4,3.3l-5.4,4.5c-0.5,0.4-0.6,1.2-0.2,1.7c0.4,0.4,1,0.6,1.5,0.3l6.3-3.1l6.3-3.1c0.7-0.4,1.2-1.1,1.2-1.8l0.1-0.6l1-11.5
		c0.2-1.9,0.3-3.8,0.4-5.8c0.1-1.9,0.2-3.8,0.3-5.8C179.9,154.7,177.9,152.5,175.3,152.4z"/>
	<path class="st9" d="M172.8,201.4v1.6c0,0,2.6,4,4.4,2.8l-3.7-4.7L172.8,201.4z"/>
	<path class="st9" d="M172.8,201.4c0,0,2.5,5.3,4.3,4.4c2-1-1.9-5-1.9-5L172.8,201.4z"/>
	<path class="st11" d="M176.6,171.2c-0.3-1.3-0.5-2.6-0.8-3.9l-0.9-3.9l-0.4-2l-0.5-2c-0.6-2.5-3.1-4.1-5.7-3.5
		c-2.5,0.6-4.1,3.1-3.5,5.7c0,0.2,0.1,0.3,0.1,0.5l0.7,1.9l0.7,1.9l1.4,3.8c0.5,1.3,0.9,2.5,1.4,3.8l1.4,3.6l1.1,11.8l1.2,12.6
		c0.1,0.7,0.7,1.2,1.3,1.1s1.1-0.5,1.1-1.1l1.2-12.6l1.2-12.6v-0.2l-0.2-0.8L176.6,171.2z"/>
	<path class="st0" d="M163.9,159.3c-0.1,2.6-1.4,3.2-2.3,4.7c-1.2,2.1-1.6,3.2-1.6,3.2c7.6,6.4,18.6,6.3,19.8,1.4
		c1.2-4.9-0.1-14.5-0.1-14.5C178.7,158.2,173.7,159.4,163.9,159.3z"/>
	<path class="st8" d="M179.3,143.6c1.3-2.7-0.6-4.2-0.6-4.2l-1.8-6.2c-6.3,0.1-11.9,4.5-11.9,4.5l1.6,16l-2.7,5.6
		c0,0,2.9,2.5,8.7,0.9c5.8-1.7,7.1-3.3,7.2-3.7c0.2-0.6-0.7-4.6-0.7-4.6C177.7,149.4,179.3,143.6,179.3,143.6z"/>
	<ellipse class="st11" cx="172.3" cy="135.8" rx="2.6" ry="1.5"/>
	<path class="st12" d="M174.7,144c0,0-0.9,4.1-5.8,2.8c0,0,4.4,2.3,6.2-1.7c0,0,3.2,0.6,4.4-1.9C179.5,143.2,177.6,144.8,174.7,144z
		"/>
	<path class="st11" d="M170.9,130.7l-1,4.3c0,0,0.5,1.6,2.4,1s1.6-1.8,1.6-1.8v-2.6L170.9,130.7z"/>
	<path class="st7" d="M170.3,133.1c3.2,0.2,3.7-1.4,3.7-1.4l-3.1-1.1L170.3,133.1z"/>
	<path class="st11" d="M172.5,121.5c-2,0-3.7,2.3-3.7,5.2c0,4,3.8,5.4,5.3,5.4c0.9,0,2.1-2.2,2.1-5.8
		C176.3,123.4,176,121.5,172.5,121.5z"/>
	<path class="st9" d="M173.6,120.5c-1.8-0.1-6.2-0.4-5.4,6.8c0,0,0,0.1,0.2,0.9c0,0,1.4-1.6,1.6-2.3s0.9-1.2,1.9-1.4
		c0.8-0.2,1.3-0.2,2,0.2c0.4,0.2,0.9,0.1,1.3-0.2l1.2-1c0.3-0.3,0.4-0.8,0.2-1.1C176.1,121.7,175.2,120.6,173.6,120.5z"/>
	<circle class="st11" cx="169.4" cy="127.5" r="1.3"/>
	<path class="st13" d="M164.4,146.8c0,0,1.1,1.2,4.1,0v-1l-4.2,0.5L164.4,146.8z"/>
	<path class="st9" d="M175.7,121.5l0.3,0.9c0.7-0.5,0.3-1.2,0.3-1.2C176,121.7,175.7,121.5,175.7,121.5z"/>
	<path class="st9" d="M176.1,122.3L176,123c0.9-0.2,0.8-0.9,0.8-0.9C176.4,122.4,176.1,122.3,176.1,122.3z"/>
	<path class="st11" d="M168.3,151.1l0.5-8.3c0.1-1.3-0.9-2.4-2.2-2.4s-2.4,0.9-2.4,2.2c0,0.1,0,0.2,0,0.3l0.7,8.8v0.2
		c0,0.3,0.2,0.6,0.4,0.9l4,8c0.4,0.4,1.1,0.4,1.5,0s0.4-1,0.1-1.4L168.3,151.1z"/>
	<path class="st8" d="M166.6,136.5c-1.5-0.1-2.8,1-2.8,2.3l-0.1,7.1c0.9,1.3,4.1,1.3,5.5,0l0.3-6.6
		C169.5,137.8,168.2,136.5,166.6,136.5z"/>
	<polygon class="st11" points="169.8,159.4 168.9,159.9 169.3,164.1 170,163.6 170.7,163.1 171.6,162.3 171,159.6 	"/>
	<path class="st11" d="M170.9,161.4c-0.2,0.1-0.3,0.3-0.2,0.5c0.2,0.4,0.6,1.6,0.4,2.2c0,0.2,0,0.3,0.1,0.4l0.1,0.1
		c0.2,0.1,0.4,0,0.5-0.3c0.3-1-0.4-2.6-0.4-2.7C171.4,161.4,171.1,161.4,170.9,161.4z"/>
	<path class="st11" d="M170.5,161.8c-0.2,0.1-0.3,0.3-0.3,0.5c0.2,0.6,0.4,1.7,0.1,2.2c-0.1,0.2,0,0.4,0.1,0.5c0,0,0.1,0,0.1,0.1
		c0.2,0.1,0.4,0,0.5-0.2c0.5-1,0-2.6-0.1-2.8C171,161.9,170.7,161.8,170.5,161.8z"/>
	<path class="st11" d="M169.8,161.6c-0.2,0.1-0.3,0.3-0.3,0.5c0.2,0.6,0.4,1.7,0.1,2.2c-0.1,0.2,0,0.4,0.1,0.5c0,0,0.1,0,0.1,0.1
		c0.2,0.1,0.4,0,0.5-0.2c0.5-1,0-2.6-0.1-2.8C170.3,161.6,170,161.5,169.8,161.6z"/>
	<path class="st11" d="M169.5,161.4c-0.2,0-0.3,0.3-0.3,0.5c0.1,0.4,0.2,1.4-0.1,1.9c-0.1,0.2-0.1,0.4,0.1,0.5l0,0
		c0.2,0.1,0.4,0.1,0.6-0.1c0.6-0.9,0.3-2.4,0.3-2.5C169.9,161.5,169.7,161.4,169.5,161.4z"/>
	<polygon class="st7" points="180.6,152.7 180.1,153.6 182.3,157 182.7,156.3 183.1,155.5 183.5,154.3 181.7,152.3 	"/>
	<path class="st7" d="M183.1,153.9c-0.2-0.1-0.4-0.1-0.6,0.1c-0.1,0.2-0.1,0.4,0.1,0.6c0.3,0.3,1.3,1.1,1.4,1.7
		c0,0.2,0.2,0.3,0.4,0.3h0.1c0.2,0,0.4-0.3,0.3-0.5C184.6,155,183.2,154,183.1,153.9z"/>
	<path class="st7" d="M182.9,154.5c-0.2-0.2-0.4-0.1-0.6,0c-0.2,0.2-0.1,0.4,0,0.6c0.4,0.4,1.1,1.3,1.2,1.9c0,0.2,0.2,0.4,0.4,0.4
		l0,0c0.2,0,0.4-0.2,0.4-0.4C184.3,155.8,183.1,154.6,182.9,154.5z"/>
	<path class="st7" d="M182.2,154.6c-0.2-0.2-0.4-0.1-0.6,0c-0.2,0.2-0.1,0.4,0,0.6c0.4,0.4,1.1,1.3,1.2,1.9c0,0.2,0.2,0.4,0.4,0.4
		l0,0c0.2,0,0.4-0.2,0.4-0.4C183.5,155.9,182.3,154.7,182.2,154.6z"/>
	<path class="st7" d="M181.2,154.7c-0.2,0.1-0.2,0.4,0,0.6c0.2,0.3,0.9,1.1,0.8,1.7c0,0.2,0.1,0.4,0.4,0.4l0,0
		c0.2,0,0.4-0.1,0.4-0.4c0.1-1.1-0.9-2.2-1-2.3C181.7,154.5,181.4,154.5,181.2,154.7z"/>
	<polygon class="st0" points="254.9,98.7 264,104 273,98.7 264,93.5 	"/>
	<polygon class="st0" points="264,114.4 273,109.2 273,98.7 264,104 	"/>
	<path class="st14" d="M246.6,134.9c-0.7-0.2-1.4,0.3-1.6,1l-5.2,23.5c-0.2,0.7,0.3,1.4,1,1.6c0.1,0,0.2,0,0.3,0
		c0.6,0,1.1-0.4,1.3-1l5.2-23.5C247.8,135.8,247.3,135.1,246.6,134.9z"/>
	<path class="st15" d="M246,143.4c-0.2-0.7-0.9-1.2-1.6-1c-0.7,0.2-1.2,0.9-1,1.6l1.6,7.7c0.1,0.6,0.7,1,1.3,1c0.1,0,0.2,0,0.3,0
		c0.7-0.2,1.2-0.9,1-1.6L246,143.4z"/>
	<path class="st16" d="M251.5,144.9l-6.1,5.4c-0.5,0.5-0.6,1.3-0.1,1.9c0.3,0.3,0.6,0.4,1,0.4c0.3,0,0.6-0.1,0.9-0.3l6.1-5.4
		c0.5-0.5,0.6-1.3,0.1-1.9C252.9,144.5,252,144.4,251.5,144.9z"/>
	<path class="st16" d="M247.2,150.4l-6.1-5.4c-0.5-0.5-1.4-0.4-1.9,0.1s-0.4,1.4,0.1,1.9l6.1,5.4c0.3,0.2,0.6,0.3,0.9,0.3
		c0.4,0,0.7-0.1,1-0.4C247.8,151.7,247.7,150.8,247.2,150.4z"/>
	<path class="st16" d="M246.3,113.3c-0.7,0-1.3,0.6-1.3,1.3v39.6c0,0.7,0.6,1.3,1.3,1.3s1.3-0.6,1.3-1.3v-39.5
		C247.6,113.9,247,113.3,246.3,113.3z"/>
	<path class="st17" d="M246.9,133.4c-0.6-0.3-1.4-0.1-1.8,0.6l-20.4,39c-0.3,0.6-0.1,1.4,0.6,1.8c0.2,0.1,0.4,0.2,0.6,0.2
		c0.5,0,0.9-0.3,1.2-0.7l20.4-39C247.8,134.5,247.6,133.7,246.9,133.4z"/>
	<path class="st17" d="M247.5,133.9c-0.3-0.6-1.1-0.9-1.8-0.5c-0.6,0.3-0.9,1.1-0.5,1.8l20.6,38.5c0.2,0.4,0.7,0.7,1.2,0.7
		c0.2,0,0.4-0.1,0.6-0.2c0.6-0.3,0.9-1.1,0.5-1.8L247.5,133.9z"/>
	<path class="st15" d="M259.2,154c-0.6-1.1-1.9-1.5-3-0.9s-1.5,1.9-0.9,3l2.1,3.9c0.4,0.8,1.2,1.2,2,1.2c0.4,0,0.7-0.1,1-0.3
		c1.1-0.6,1.5-1.9,0.9-3L259.2,154z"/>
	<path class="st15" d="M236.4,153.1c-1.1-0.6-2.4-0.2-3,0.9l-2.1,3.9c-0.6,1.1-0.2,2.4,0.9,3c0.3,0.2,0.7,0.3,1,0.3
		c0.8,0,1.6-0.4,2-1.2l2.1-3.9C237.9,155,237.5,153.7,236.4,153.1z"/>
	<path class="st15" d="M268.3,171.5c-0.5-0.9-1.7-1.3-2.6-0.8s-1.3,1.7-0.8,2.6l0.8,1.4c0.4,0.6,1,1,1.7,1c0.3,0,0.6-0.1,0.9-0.2
		c0.9-0.5,1.3-1.7,0.8-2.6L268.3,171.5z"/>
	<path class="st15" d="M227.2,170.8c-0.9-0.5-2.1-0.2-2.6,0.8l-0.8,1.4c-0.5,0.9-0.2,2.1,0.8,2.6c0.3,0.2,0.6,0.2,0.9,0.2
		c0.7,0,1.3-0.4,1.7-1l0.8-1.4C228.5,172.5,228.2,171.4,227.2,170.8z"/>
	<path class="st15" d="M241.8,156.9c-1-0.3-2.1,0.4-2.3,1.4l-0.4,1.5c-0.2,1,0.4,2.1,1.4,2.3c0.2,0,0.3,0.1,0.5,0.1
		c0.9,0,1.7-0.6,1.9-1.5l0.4-1.5C243.5,158.2,242.9,157.1,241.8,156.9z"/>
	<path class="st15" d="M246.3,125.8c-1.2,0-2.2,1-2.2,2.2v12.4c0,1.2,1,2.2,2.2,2.2s2.2-1,2.2-2.2V128
		C248.5,126.8,247.5,125.8,246.3,125.8z"/>
	<polygon class="st18" points="227.2,113.9 257.2,131.2 257.2,96.6 227.2,79.3 	"/>
	<polygon class="st19" points="240,106.5 258.3,117.1 258.3,96 240,85.4 	"/>
	<polygon class="st0" points="227.2,79.3 257.2,96.6 266.5,87.8 242.5,74 	"/>
	<polygon class="st0" points="257.2,131.2 269.5,121.8 269.5,91.8 257.2,96.6 	"/>
	<polygon class="st0" points="257.2,96.6 269.5,91.8 266.5,87.8 	"/>
	<path class="st14" d="M73.5,232.4c-0.8-0.2-1.7,0.3-1.8,1.2l-6.1,27.7c-0.2,0.8,0.3,1.7,1.2,1.8c0.1,0,0.2,0,0.3,0
		c0.7,0,1.3-0.5,1.5-1.2l6.1-27.7C74.9,233.4,74.4,232.6,73.5,232.4z"/>
	<path class="st15" d="M72.8,242.3c-0.2-0.8-1-1.4-1.8-1.2c-0.8,0.2-1.4,1-1.2,1.8l1.9,9.1c0.2,0.7,0.8,1.2,1.5,1.2
		c0.1,0,0.2,0,0.3,0c0.8-0.2,1.4-1,1.2-1.8L72.8,242.3z"/>
	<path class="st16" d="M79.3,244.1l-7.1,6.4c-0.6,0.6-0.7,1.5-0.1,2.2c0.3,0.3,0.7,0.5,1.2,0.5c0.4,0,0.7-0.1,1-0.4l7.1-6.4
		c0.6-0.6,0.7-1.5,0.1-2.2C80.9,243.6,79.9,243.6,79.3,244.1z"/>
	<path class="st16" d="M74.2,250.5l-7.1-6.4c-0.6-0.6-1.6-0.5-2.2,0.1s-0.5,1.6,0.1,2.2l7.1,6.4c0.3,0.3,0.7,0.4,1,0.4
		c0.4,0,0.8-0.2,1.2-0.5C74.9,252.1,74.9,251.1,74.2,250.5z"/>
	<path class="st20" d="M73.2,207c-0.9,0-1.5,0.7-1.5,1.5v46.7c0,0.9,0.7,1.5,1.5,1.5s1.5-0.7,1.5-1.5v-46.7
		C74.7,207.7,74,207,73.2,207z"/>
	<path class="st17" d="M73.9,230.6c-0.8-0.4-1.7-0.1-2.1,0.7l-24,45.9c-0.4,0.8-0.1,1.7,0.7,2.1c0.2,0.1,0.5,0.2,0.7,0.2
		c0.6,0,1.1-0.3,1.4-0.8l24-45.9C74.9,231.9,74.7,231,73.9,230.6z"/>
	<path class="st17" d="M74.5,231.2c-0.4-0.8-1.3-1-2.1-0.6c-0.8,0.4-1,1.3-0.6,2.1L96,277.9c0.3,0.5,0.8,0.8,1.4,0.8
		c0.2,0,0.5-0.1,0.7-0.2c0.8-0.4,1-1.3,0.6-2.1L74.5,231.2z"/>
	<path class="st15" d="M88.3,254.8c-0.7-1.3-2.3-1.8-3.6-1.1c-1.3,0.7-1.8,2.3-1.1,3.6l2.5,4.6c0.5,0.9,1.4,1.4,2.3,1.4
		c0.4,0,0.8-0.1,1.2-0.3c1.3-0.7,1.8-2.3,1.1-3.6L88.3,254.8z"/>
	<path class="st15" d="M61.6,253.7c-1.3-0.7-2.9-0.2-3.6,1.1l-2.5,4.6c-0.7,1.3-0.2,2.9,1.1,3.6c0.4,0.2,0.8,0.3,1.2,0.3
		c0.9,0,1.8-0.5,2.3-1.4l2.5-4.6C63.3,256,62.9,254.4,61.6,253.7z"/>
	<path class="st15" d="M99.1,275.4c-0.6-1.1-2-1.5-3.1-0.9c-1.1,0.6-1.5,2-0.9,3.1l0.9,1.7c0.4,0.8,1.2,1.2,2,1.2
		c0.4,0,0.8-0.1,1.1-0.3c1.1-0.6,1.5-2,0.9-3.1L99.1,275.4z"/>
	<path class="st15" d="M50.8,274.6c-1.1-0.6-2.5-0.2-3.1,0.9l-0.9,1.7c-0.6,1.1-0.2,2.5,0.9,3.1c0.4,0.2,0.7,0.3,1.1,0.3
		c0.8,0,1.6-0.4,2-1.2l0.9-1.7C52.3,276.6,51.9,275.2,50.8,274.6z"/>
	<path class="st15" d="M67.9,258.2c-1.2-0.3-2.5,0.5-2.8,1.7l-0.4,1.7c-0.3,1.2,0.5,2.5,1.7,2.8c0.2,0,0.4,0.1,0.5,0.1
		c1,0,2-0.7,2.2-1.8l0.4-1.7C69.9,259.7,69.1,258.5,67.9,258.2z"/>
	<path class="st15" d="M73.2,221.7c-1.4,0-2.6,1.2-2.6,2.6v14.6c0,1.4,1.2,2.6,2.6,2.6s2.6-1.2,2.6-2.6v-14.6
		C75.8,222.8,74.6,221.7,73.2,221.7z"/>
	<polygon class="st8" points="85.3,224.9 99.8,216.6 99.8,175.9 85.3,184.3 	"/>
	<polygon class="st0" points="50.1,204.7 85.3,225 85.3,184.4 50.1,164 	"/>
	<polygon class="st0" points="50.1,164 85.3,184.3 99.8,176 64.6,155.6 	"/>
	<ellipse transform="matrix(0.866 -0.5 0.5 0.866 -88.1832 59.8976)" class="st8" cx="67.7" cy="194.5" rx="6.4" ry="11.1"/>
	<polygon class="st8" points="54.3,189.5 65,208.9 73.8,203.9 62.3,184.8 	"/>
	<ellipse transform="matrix(0.866 -0.5 0.5 0.866 -91.8076 56.3345)" class="st0" cx="59.2" cy="199.5" rx="6.4" ry="11.1"/>
	<polygon class="st0" points="166.9,245.1 174.7,244 190.3,235 182.6,236.3 	"/>
	<path class="st14" d="M180.5,256.2c-0.1-0.7-0.8-1.1-1.5-0.9c-0.7,0.1-1.1,0.8-0.9,1.5l4.9,22.3c0.1,0.6,0.6,1,1.2,1
		c0.1,0,0.2,0,0.3,0c0.7-0.1,1.1-0.8,0.9-1.5L180.5,256.2z"/>
	<path class="st15" d="M181.1,262.3c-0.7-0.1-1.3,0.3-1.5,1l-1.6,7.3c-0.1,0.7,0.3,1.3,1,1.5c0.1,0,0.2,0,0.3,0c0.6,0,1.1-0.4,1.2-1
		l1.6-7.3C182.2,263.1,181.8,262.4,181.1,262.3z"/>
	<path class="st16" d="M180.1,269.8l-5.7-5.1c-0.5-0.5-1.3-0.4-1.8,0.1s-0.4,1.3,0.1,1.8l5.7,5.1c0.2,0.2,0.5,0.3,0.8,0.3
		s0.7-0.1,0.9-0.4C180.7,271.1,180.7,270.3,180.1,269.8z"/>
	<path class="st16" d="M184.2,264.7l-5.7,5.1c-0.5,0.5-0.6,1.2-0.1,1.8c0.2,0.3,0.6,0.4,0.9,0.4c0.3,0,0.6-0.1,0.8-0.3l5.7-5.1
		c0.5-0.5,0.6-1.2,0.1-1.8C185.5,264.3,184.7,264.2,184.2,264.7z"/>
	<path class="st20" d="M179.3,234.8c-0.7,0-1.2,0.6-1.2,1.2v37.5c0,0.7,0.6,1.2,1.2,1.2c0.7,0,1.2-0.6,1.2-1.2V236
		C180.6,235.4,180,234.8,179.3,234.8z"/>
	<path class="st17" d="M180.4,254.3c-0.3-0.6-1.1-0.8-1.7-0.5c-0.6,0.3-0.8,1.1-0.5,1.7l19.3,36.8c0.2,0.4,0.7,0.7,1.1,0.7
		c0.2,0,0.4,0,0.6-0.1c0.6-0.3,0.8-1.1,0.5-1.7L180.4,254.3z"/>
	<path class="st17" d="M179.9,253.8c-0.6-0.3-1.4-0.1-1.7,0.5l-19.4,36.4c-0.3,0.6-0.1,1.4,0.5,1.7c0.2,0.1,0.4,0.1,0.6,0.1
		c0.4,0,0.9-0.2,1.1-0.7l19.4-36.4C180.7,254.9,180.5,254.1,179.9,253.8z"/>
	<path class="st15" d="M170,272.4c-1-0.5-2.3-0.2-2.9,0.9l-2,3.7c-0.5,1-0.2,2.3,0.9,2.9c0.3,0.2,0.7,0.2,1,0.2
		c0.8,0,1.5-0.4,1.9-1.1l2-3.7C171.4,274.2,171,273,170,272.4z"/>
	<path class="st15" d="M191.5,273.3c-0.5-1-1.8-1.4-2.9-0.9c-1,0.5-1.4,1.8-0.9,2.9l2,3.7c0.4,0.7,1.1,1.1,1.9,1.1
		c0.3,0,0.7-0.1,1-0.2c1-0.5,1.4-1.8,0.9-2.9L191.5,273.3z"/>
	<path class="st15" d="M161,289.1c-0.9-0.5-2-0.2-2.5,0.7l-0.8,1.4c-0.5,0.9-0.2,2,0.7,2.5c0.3,0.2,0.6,0.2,0.9,0.2
		c0.6,0,1.3-0.3,1.6-0.9l0.8-1.4C162.2,290.7,161.9,289.6,161,289.1z"/>
	<path class="st15" d="M199.8,289.9c-0.5-0.9-1.6-1.2-2.5-0.7s-1.2,1.6-0.7,2.5l0.8,1.4c0.3,0.6,1,0.9,1.6,0.9
		c0.3,0,0.6-0.1,0.9-0.2c0.9-0.5,1.2-1.6,0.7-2.5L199.8,289.9z"/>
	<path class="st15" d="M185.8,277.3c-0.2-1-1.2-1.6-2.2-1.4s-1.6,1.2-1.4,2.2l0.3,1.4c0.2,0.8,1,1.4,1.8,1.4c0.1,0,0.3,0,0.4-0.1
		c1-0.2,1.6-1.2,1.4-2.2L185.8,277.3z"/>
	<path class="st15" d="M179.3,246.6c-1.2,0-2.1,0.9-2.1,2.1v11.7c0,1.2,0.9,2.1,2.1,2.1s2.1-0.9,2.1-2.1v-11.7
		C181.4,247.6,180.5,246.6,179.3,246.6z"/>
	<polygon class="st8" points="165,242.1 174.7,243.9 174.7,226 165,224.2 	"/>
	<polygon class="st8" points="187.1,228.3 190.3,235 190.3,217.1 187.1,210.4 	"/>
	<polygon class="st0" points="174.7,244 190.3,235 190.3,217.1 174.7,226 	"/>
	<polygon class="st0" points="167.8,218.3 174.7,226 190.3,217.1 183.4,209.5 	"/>
	<ellipse transform="matrix(0.5 -0.866 0.866 0.5 -108.3924 273.2795)" class="st8" cx="182.5" cy="230.5" rx="4.9" ry="2.8"/>
	<polygon class="st8" points="179.8,234.7 183.7,236.8 188.4,228.3 184.9,226.2 	"/>
	<ellipse transform="matrix(0.5 -0.866 0.866 0.5 -108.4417 277.6441)" class="st0" cx="186.2" cy="232.7" rx="4.9" ry="2.8"/>
	<path class="st14" d="M242.3,233.9c-0.1-0.7-0.8-1.1-1.5-0.9c-0.7,0.1-1.1,0.8-0.9,1.5l4.8,21.8c0.1,0.6,0.6,1,1.2,1
		c0.1,0,0.2,0,0.3,0c0.7-0.1,1.1-0.8,0.9-1.5L242.3,233.9z"/>
	<path class="st15" d="M242.9,239.9c-0.7-0.1-1.3,0.3-1.4,0.9l-1.5,7.1c-0.1,0.7,0.3,1.3,0.9,1.4c0.1,0,0.2,0,0.3,0
		c0.6,0,1.1-0.4,1.2-1l1.5-7.1C244,240.7,243.6,240,242.9,239.9z"/>
	<path class="st16" d="M241.9,247.3l-5.6-5c-0.5-0.4-1.3-0.4-1.7,0.1s-0.4,1.3,0.1,1.7l5.6,5c0.2,0.2,0.5,0.3,0.8,0.3
		s0.7-0.1,0.9-0.4C242.5,248.5,242.4,247.7,241.9,247.3z"/>
	<path class="st16" d="M245.9,242.2l-5.6,5c-0.5,0.4-0.5,1.2-0.1,1.7c0.2,0.3,0.6,0.4,0.9,0.4c0.3,0,0.6-0.1,0.8-0.3l5.6-5
		c0.5-0.4,0.5-1.2,0.1-1.7S246.4,241.8,245.9,242.2z"/>
	<path class="st20" d="M241.1,204.8c-0.7,0-1.2,0.5-1.2,1.2v44.9c0,0.7,0.5,1.2,1.2,1.2s1.2-0.5,1.2-1.2V206
		C242.3,205.3,241.8,204.8,241.1,204.8z"/>
	<path class="st17" d="M242.2,232.1c-0.3-0.6-1-0.8-1.6-0.5s-0.8,1-0.5,1.6l18.9,36c0.2,0.4,0.6,0.7,1.1,0.7c0.2,0,0.4,0,0.6-0.1
		c0.6-0.3,0.8-1,0.5-1.6L242.2,232.1z"/>
	<path class="st17" d="M241.7,231.6c-0.6-0.3-1.3-0.1-1.6,0.5L221,267.7c-0.3,0.6-0.1,1.3,0.5,1.6c0.2,0.1,0.4,0.1,0.6,0.1
		c0.4,0,0.9-0.2,1.1-0.6l19-35.6C242.5,232.6,242.3,231.9,241.7,231.6z"/>
	<path class="st15" d="M232,249.8c-1-0.5-2.3-0.2-2.8,0.8l-1.9,3.6c-0.5,1-0.2,2.3,0.8,2.8c0.3,0.2,0.6,0.2,1,0.2
		c0.7,0,1.4-0.4,1.8-1.1l1.9-3.6C233.4,251.6,233,250.3,232,249.8z"/>
	<path class="st15" d="M253,250.6c-0.5-1-1.8-1.4-2.8-0.8c-1,0.5-1.4,1.8-0.8,2.8l1.9,3.6c0.4,0.7,1.1,1.1,1.8,1.1
		c0.3,0,0.7-0.1,1-0.2c1-0.5,1.4-1.8,0.8-2.8L253,250.6z"/>
	<path class="st15" d="M223.2,266.1c-0.9-0.5-2-0.2-2.4,0.7l-0.7,1.3c-0.5,0.9-0.2,2,0.7,2.4c0.3,0.2,0.6,0.2,0.9,0.2
		c0.6,0,1.2-0.3,1.6-0.9l0.7-1.3C224.4,267.7,224.1,266.6,223.2,266.1z"/>
	<path class="st15" d="M261.2,266.9c-0.5-0.9-1.6-1.2-2.4-0.7c-0.9,0.5-1.2,1.6-0.7,2.4l0.7,1.3c0.3,0.6,0.9,0.9,1.6,0.9
		c0.3,0,0.6-0.1,0.9-0.2c0.9-0.5,1.2-1.6,0.7-2.4L261.2,266.9z"/>
	<path class="st15" d="M247.4,254.6c-0.2-1-1.2-1.6-2.2-1.3c-1,0.2-1.6,1.2-1.3,2.2l0.3,1.4c0.2,0.8,0.9,1.4,1.7,1.4
		c0.1,0,0.3,0,0.4,0c1-0.2,1.6-1.2,1.3-2.2L247.4,254.6z"/>
	<path class="st15" d="M241.1,224.6c-1.1,0-2.1,0.9-2.1,2.1v11.5c0,1.1,0.9,2.1,2.1,2.1c1.1,0,2.1-0.9,2.1-2.1v-11.5
		C243.2,225.5,242.3,224.6,241.1,224.6z"/>
	<polygon class="st15" points="232,199.7 234.9,201.3 238.9,194.1 236.3,192.5 	"/>
	<ellipse transform="matrix(0.5 -0.866 0.866 0.5 -52.7145 300.8383)" class="st15" cx="234.2" cy="196.1" rx="4.2" ry="2.4"/>
	<ellipse transform="matrix(0.5 -0.866 0.866 0.5 -52.7756 304.0325)" class="st21" cx="236.9" cy="197.7" rx="4.2" ry="2.4"/>
	<polygon class="st22" points="235.5,199.9 241.3,203.3 244.3,198 238.7,194.7 	"/>
	<path class="st22" d="M237.1,194.8c-1.2,0.7-2.1,2.4-2.1,3.7c0,1.4,1,1.9,2.1,1.2s2.1-2.4,2.1-3.7
		C239.3,194.7,238.3,194.2,237.1,194.8z"/>
	<ellipse transform="matrix(0.5 -0.866 0.866 0.5 -52.3858 310.7333)" class="st0" cx="242.9" cy="200.7" rx="3" ry="1.8"/>
	<polygon class="st14" points="234.2,206.8 238.2,209.1 238.2,201.6 234.2,199.3 	"/>
	<polygon class="st22" points="238.2,209.1 247.8,203.5 247.8,196.1 238.2,201.6 	"/>
	<polygon class="st0" points="241.6,205.3 246.7,202.4 246.7,198.5 241.6,201.4 	"/>
	<polygon class="st15" points="234.2,199.4 238.2,201.6 247.8,196.1 243.8,193.8 	"/>
	<path class="st22" d="M245.5,195.4c-0.6-0.3-1.5-0.3-2,0c-0.6,0.3-0.6,0.9,0,1.2c0.6,0.3,1.5,0.3,2,0
		C246.1,196.3,246.1,195.7,245.5,195.4z"/>
	<rect x="243" y="195.4" class="st22" width="2.9" height="0.5"/>
	<path class="st14" d="M245.5,194.9c-0.6-0.3-1.5-0.3-2,0c-0.6,0.3-0.6,0.9,0,1.2c0.6,0.3,1.5,0.3,2,0S246.1,195.2,245.5,194.9z"/>
	<polygon class="st14" points="239,195.8 239,198.3 241,199.4 240.3,196.6 	"/>
	<polygon class="st22" points="240.3,196.6 241,199.4 244.2,197.5 243.5,194.7 	"/>
	<polygon class="st15" points="239,195.8 240.3,196.6 243.5,194.7 242.2,194 	"/>
	<path class="st22" d="M238.8,198.9c-0.6-0.3-1.5-0.3-2,0c-0.6,0.3-0.6,0.9,0,1.2c0.6,0.3,1.5,0.3,2,0
		C239.3,199.7,239.3,199.2,238.8,198.9z"/>
	<rect x="236.3" y="198.9" class="st22" width="2.9" height="0.5"/>
	<path class="st14" d="M238.8,198.3c-0.6-0.3-1.5-0.3-2,0c-0.6,0.3-0.6,0.9,0,1.2c0.6,0.3,1.5,0.3,2,0
		C239.3,199.2,239.3,198.6,238.8,198.3z"/>
	<ellipse class="st16" cx="237.7" cy="198.5" rx="0.9" ry="0.5"/>
	<path class="st21" d="M240.7,201.7c-0.2,0.1-0.3,0.4-0.3,0.6s0.1,0.3,0.3,0.2c0.2-0.1,0.3-0.4,0.3-0.6
		C241.1,201.7,240.9,201.6,240.7,201.7z"/>
	<path class="st21" d="M240.7,203.2c-0.2,0.1-0.3,0.4-0.3,0.6s0.1,0.3,0.3,0.2c0.2-0.1,0.3-0.4,0.3-0.6
		C241.1,203.2,240.9,203.1,240.7,203.2z"/>
	<path class="st21" d="M240.7,204.7c-0.2,0.1-0.3,0.4-0.3,0.6s0.1,0.3,0.3,0.2c0.2-0.1,0.3-0.4,0.3-0.6
		C241.1,204.6,240.9,204.6,240.7,204.7z"/>
	<polygon class="st10" points="263,214.1 259.1,211.9 259.3,216.1 	"/>
	<path class="st23" d="M261.5,196.1c-1.8,0.1-3.2,1.7-3.1,3.5l0.7,12.3l3.9,2.1l-3.7,2l-0.2-4.2l-7.3-3.9c-0.7-0.4-1.5-0.2-2,0.4
		c-0.5,0.7-0.4,1.6,0.3,2.1l10.3,7.6c0.4,0.3,0.8,0.4,1.3,0.5c1.3,0.1,2.4-0.9,2.4-2.2V216l0.9-16.5c0-0.1,0-0.2,0-0.4
		C264.9,197.4,263.4,196,261.5,196.1z"/>
	<path class="st13" d="M258.9,208.9c3.9,1.7,5.6,0,5.6,0v-0.7l-5.7-0.5L258.9,208.9z"/>
	<path class="st24" d="M261.8,195.4c-2.1,0.1-3.8,1.6-3.8,3.5l0.2,8.7c1.7,1.8,6,1.8,7.2,0.1l0.1-9.3
		C265.4,196.7,263.8,195.3,261.8,195.4z"/>
	<polygon class="st10" points="249.5,206.7 247.9,207.6 246.9,208.5 246,209.3 250.7,210.9 252.5,210.3 251.6,207.9 	"/>
	<g>
		<path class="st10" d="M246.8,205.5c-0.3,0-0.5,0.3-0.5,0.6c0,0.3,0.3,0.5,0.6,0.5l0,0c0.9,0,2.2,1,2.7,1.4
			c0.1,0.1,0.2,0.1,0.4,0.1s0.3-0.1,0.4-0.2c0.2-0.2,0.2-0.6,0-0.8C250.1,207,248.3,205.5,246.8,205.5z"/>
	</g>
	<g>
		<path class="st10" d="M249.9,205.7c-0.2-0.3-0.5-0.3-0.8-0.2c-0.3,0.2-0.3,0.5-0.2,0.8c0.9,1.3,1.8,2.3,1.8,2.3
			c0.1,0.1,0.3,0.2,0.4,0.2c0.1,0,0.3,0,0.4-0.2c0.2-0.2,0.2-0.6,0-0.8C251.6,207.9,250.7,207,249.9,205.7z"/>
	</g>
	<g>
		<path class="st10" d="M249.5,207.7c-0.2-0.2-2.2-1.5-3.7-1.2c-0.3,0.1-0.5,0.3-0.5,0.6c0.1,0.3,0.3,0.5,0.6,0.5
			c0.9-0.1,2.4,0.7,2.9,1.1c0.1,0.1,0.2,0.1,0.3,0.1c0.2,0,0.3-0.1,0.5-0.2C249.8,208.2,249.7,207.8,249.5,207.7z"/>
	</g>
	<g>
		<path class="st10" d="M249.5,208.7c-0.2-0.2-2.2-1.5-3.7-1.2c-0.3,0.1-0.5,0.3-0.5,0.6c0.1,0.3,0.3,0.5,0.6,0.5
			c0.9-0.1,2.4,0.7,2.9,1.1c0.1,0.1,0.2,0.1,0.3,0.1c0.2,0,0.3-0.1,0.5-0.2C249.9,209.2,249.8,208.9,249.5,208.7z"/>
	</g>
	<g>
		<path class="st10" d="M249.5,209.3c-0.2-0.1-2.1-1.1-3.5-0.6c-0.3,0.1-0.4,0.4-0.3,0.7c0.1,0.3,0.4,0.4,0.7,0.3
			c0.8-0.3,2.2,0.3,2.6,0.5c0.1,0,0.2,0.1,0.3,0.1c0.2,0,0.4-0.1,0.5-0.3C249.8,209.8,249.7,209.4,249.5,209.3z"/>
	</g>
	<path class="st25" d="M259.7,270.6l2.6-0.6v-2.1l-6.4-3.4C255.8,264.4,256.7,267.5,259.7,270.6z"/>
	<path class="st9" d="M256.7,263.1c-0.4-0.1-0.6,0.1-0.8,0.4s-0.2,0.7-0.1,1c2.5,5.3,4.2,5.3,5.7,4.8s0.3-3.9,0.3-3.9
		S257.6,263.2,256.7,263.1z"/>
	<path class="st25" d="M247.1,273.3c0,0-0.7,0.7,0.2,1.4s6.4,1.7,6.4,1.7l1.5-1l-0.1-4.1L247.1,273.3z"/>
	<path class="st9" d="M251.4,271c-1.8,1.6-4.2,1.2-4.4,2.6c-0.1,0.9,4,1.7,6.3,1.7h0.1c0.9,0,1.6-0.7,1.7-1.6l0.1-2
		C254.2,270.8,252.4,270.1,251.4,271z"/>
	<path class="st8" d="M258.8,214.1c-2.7,0.1-4.9,2.4-4.8,5.2l0,0c0.1,4,0.4,8,0.7,12l0.9,12l0.1,1.5c0,0.2,0.1,0.5,0.1,0.7l0.1,0.7
		l0.4,3l0.7,6l0.7,6l0.7,6l0,0c0.1,0.9,0.9,1.7,1.9,1.7c1.1,0,1.9-0.8,1.9-1.9l0.1-11.9v-6v-3v-0.7c0-0.2,0-0.5,0-0.7l0.1-1.5
		l0.8-11.9c0.3-4,0.5-7.9,0.6-11.9c0-0.1,0-0.2,0-0.3C263.9,216.1,261.6,214,258.8,214.1z"/>
	<path class="st8" d="M254.8,235.5c0-0.2,8.5-4.2,8.5-4.2l0.8-8.2l-9.4,5.5L254.8,235.5z"/>
	<polygon class="st26" points="252.9,244.9 253,244.6 252.9,243.8 	"/>
	<path class="st8" d="M254,218.3c-2.7-0.4-5.2,1.5-5.6,4.2c-0.2,1.7-0.4,3.5-0.6,5.3c-0.2,1.8-0.4,3.5-0.5,5.3l-1,10.6v0.5
		c0,0.2,0,0.4,0,0.5l2.6,13.4l2.6,13.4c0.2,0.9,1.1,1.6,2,1.5c1.1-0.1,1.8-1,1.7-2.1l-1.1-13.6l-1.1-12.8l-0.1,0.3v-1.1l0.1,0.7
		l2.7-9.9c0.5-1.7,0.9-3.4,1.4-5.1c0.4-1.7,0.9-3.4,1.2-5.2c0-0.1,0.1-0.3,0.1-0.4C258.7,221.2,256.8,218.7,254,218.3z"/>
	<path class="st27" d="M263.5,195.8c-1.9-2-13.9,6.9-13.9,6.9c-1.9,1.1-0.9,0-1.9,3.9s-0.3,22.1-0.3,22.1s1.5,3.3,8.7,0.3
		c8.5-3.5,8.7-6.2,8.7-6.2c-0.3-0.7-0.8-3.7-1.1-8.6C265.1,208.1,265.8,198.2,263.5,195.8z"/>
	<path class="st13" d="M251.4,202.3l-4,9.3v14.1l1.8,0.8c0.6,0.2,1.2,0.2,1.8-0.1c0.5-0.3,0.9-0.8,1-1.4l1.9-9.7l0.9-0.9l-0.5-7.9
		L251.4,202.3z"/>
	<path class="st28" d="M254.2,196.2v3.1c0,0-0.4,1.4,1.9,2.1c2.3,0.7,2.9-1.2,2.9-1.2l-0.7-4.8L254.2,196.2z"/>
	<path class="st23" d="M254.2,198.4c3.9-0.7,4.2-2.6,4.2-2.6l-4.2,0.7V198.4z"/>
	<path class="st28" d="M256.3,184.1c-4.1-0.2-5.2,1.7-5.4,5.2c-0.2,4.4,0.6,7.3,3,7.4s6.3-1.3,6.5-6.1
		C260.6,187.1,258.7,184.2,256.3,184.1z"/>
	<path class="st29" d="M258.3,199.3c-1.1-0.6-2.8-0.6-3.9,0c-1.1,0.6-1.1,1.6,0,2.3c1.1,0.6,2.8,0.6,3.9,0
		C259.3,200.9,259.3,199.9,258.3,199.3z"/>
	<path class="st9" d="M253.7,182.6l-2.4,1.8c-0.3,0.2-0.4,0.5-0.4,0.9c0,0.3,0.2,0.6,0.5,0.8c0.5,0.3,1.2,0.5,1.8,0.8
		c0.6,0.2,1.1,0.7,1.4,1.3l0.7,2l0.2,2.7l0.2,1.1c0.1,0.7,0.5,1.2,1.1,1.5c0.6,0.3,1.3,0.3,1.9,0.1c3.1-1.4,3-8.2,1.9-10.7
		C258.8,181,253.7,182.6,253.7,182.6z"/>
	<path class="st28" d="M255.5,189.2c-0.8,0-1.6,0.6-1.6,1.5c0,0.8,0.6,1.6,1.5,1.6s1.6-0.6,1.6-1.5S256.4,189.3,255.5,189.2z"/>
	<path class="st28" d="M249,203.2c-1.8,0.1-3.2,1.7-3.1,3.5l0.4,7.5l5,7.8l-4.5,1.2l-0.5-9l-5.8-9c-0.4-0.7-1.3-0.9-2-0.5
		c-0.8,0.4-1,1.3-0.6,2.1l9.2,17.6c0.4,0.7,1.1,1.2,2,1.3c1.3,0.1,2.4-0.9,2.5-2.3v-0.2l0.9-16.5c0-0.1,0-0.2,0-0.4
		C252.4,204.5,250.8,203.1,249,203.2z"/>
	<polygon class="st29" points="251.3,222 246.3,214.2 246.8,223.2 	"/>
	<path class="st13" d="M246.4,216c3.9,1.7,5.6,0,5.6,0v-0.7l-5.7-0.5L246.4,216z"/>
	<path class="st27" d="M249.3,202.5c-2.1,0.1-3.8,1.6-3.8,3.5l0.2,8.7c1.7,1.8,6,1.8,7.2,0.1l0.1-9.3
		C252.9,203.8,251.2,202.4,249.3,202.5z"/>
	<polygon class="st28" points="238.5,202.6 237.3,202.3 236.1,202.2 237.8,206.8 239.5,207.8 240.7,205.5 240.3,203.1 	"/>
	<path class="st28" d="M238.6,200.3c-0.2,0.2-0.2,0.6,0,0.8c0.6,0.7,0.7,2.4,0.7,3c0,0.3,0.2,0.6,0.5,0.6l0,0c0.3,0,0.5-0.2,0.6-0.5
		c0-0.3,0-2.7-1-3.8C239.2,200.1,238.8,200.1,238.6,200.3z"/>
	<path class="st28" d="M240.9,202.2c-0.3-0.1-0.6,0.1-0.7,0.4c-0.5,1.5-0.6,2.8-0.6,2.9c0,0.3,0.2,0.6,0.5,0.6c0,0,0,0,0.1,0
		c0.3,0,0.5-0.2,0.5-0.5c0,0,0.1-1.3,0.6-2.7C241.4,202.5,241.2,202.2,240.9,202.2z"/>
	<path class="st28" d="M238.1,200.1c-0.2-0.2-0.6-0.2-0.8,0.1c-0.2,0.2-0.2,0.6,0.1,0.8c0.7,0.6,1,2.3,1.1,2.9
		c0,0.3,0.3,0.5,0.5,0.5c0,0,0,0,0.1,0c0.3,0,0.5-0.3,0.5-0.6C239.5,203.5,239.2,201.1,238.1,200.1z"/>
	<path class="st28" d="M237.3,200.9c-0.2-0.2-0.6-0.2-0.8,0.1c-0.2,0.2-0.2,0.6,0.1,0.8c0.7,0.6,1,2.3,1.1,2.9
		c0,0.3,0.3,0.5,0.5,0.5c0,0,0,0,0.1,0c0.3,0,0.5-0.3,0.5-0.6C238.7,204.2,238.5,201.9,237.3,200.9z"/>
	<path class="st28" d="M236.5,201.7c-0.3-0.2-0.6-0.1-0.8,0.2c-0.2,0.3-0.1,0.6,0.2,0.8c0.8,0.4,1.2,1.8,1.3,2.3
		c0.1,0.3,0.3,0.5,0.5,0.5h0.1c0.3-0.1,0.5-0.3,0.4-0.6C238.2,204.6,237.8,202.5,236.5,201.7z"/>
	<path class="st0" d="M46.8,280.2c5.9-8.5,7.8-18,5.6-28.2c-4.7-22.6-2.6-35.6,0.1-42.5c2.8-7.4,6.8-9.6,6.9-9.7
		c0.2-0.1,0.3-0.4,0.2-0.6s-0.4-0.3-0.6-0.2c-0.2,0.1-4.3,2.3-7.3,10.1c-1.7,4.5-2.7,10-3,16.2c-0.3,7.8,0.7,16.8,2.8,26.9
		c3.8,18-5.1,33.3-26.5,45.4c-8.2,4.6-16.7,7.9-23.1,10h3c6.1-2.1,13.5-5.1,20.6-9.1C34.9,293.1,42.1,287,46.8,280.2z"/>
	<path class="st0" d="M209,299c-6.2-7.7-13.4-19.3-12.1-30.8c0.8-7.2,0.8-13.6-0.1-18.9c-0.7-4.3-2-8-3.7-10.9
		c-3-5.1-6.5-6.2-6.6-6.2c-0.2-0.1-0.5,0.1-0.6,0.3c-0.1,0.2,0.1,0.5,0.3,0.6c0,0,3.3,1,6.1,5.8c2.7,4.5,5.5,13.2,3.7,29.2
		c-1.3,11.8,6,23.6,12.3,31.5c2.3,2.8,4.8,5.5,7.3,8h1.3C214.2,305,211.5,302.1,209,299z"/>
</g>
</svg>
